<svg width="139" height="91" viewBox="0 0 139 91" fill="none" xmlns="http://www.w3.org/2000/svg">
<g opacity="0.4">
<path d="M32.8473 61.0522V73.1921H30.0102V68.2155H18.581V73.1921H15.7439V61.0522H18.581V65.8388H30.0102V61.0522H32.8473Z" fill="white"/>
<path d="M36.5245 61.0522H39.345V68.9591L45.1945 61.0522H47.8563V73.1921H45.0526V65.3018L39.2031 73.1921H36.5245V61.0522Z" fill="white"/>
<path d="M56.4703 68.3039H54.5094V73.1951H51.689V61.0552H54.5094V65.9629H56.5427L59.7664 61.0552H62.7621L58.7512 66.9186L62.8845 73.1978H59.6579L56.4703 68.3039Z" fill="white"/>
<path d="M67.6686 72.5862C66.6478 72.0437 65.8468 71.2946 65.2682 70.3417C64.6897 69.3888 64.4004 68.3147 64.4004 67.125C64.4004 65.9352 64.6897 64.8611 65.2682 63.9082C65.8468 62.9553 66.6451 62.2062 67.6686 61.6609C68.6894 61.1184 69.8382 60.8457 71.1093 60.8457C72.3833 60.8457 73.5264 61.1184 74.5417 61.6609C75.5569 62.2035 76.358 62.9526 76.9421 63.9082C77.5262 64.8611 77.8183 65.9352 77.8183 67.125C77.8183 68.3147 77.5262 69.3888 76.9421 70.3417C76.358 71.2946 75.5569 72.0437 74.5417 72.5862C73.5264 73.1288 72.3805 73.4014 71.1093 73.4014C69.8382 73.4014 68.6922 73.1288 67.6686 72.5862ZM73.0731 70.5124C73.6572 70.182 74.1161 69.722 74.4471 69.1327C74.7809 68.5433 74.945 67.8713 74.945 67.1222C74.945 66.3703 74.7781 65.7011 74.4471 65.1117C74.1133 64.5224 73.6572 64.0624 73.0731 63.732C72.489 63.4015 71.8353 63.2362 71.1121 63.2362C70.3889 63.2362 69.7353 63.4015 69.1512 63.732C68.5671 64.0624 68.1081 64.5196 67.7771 65.1117C67.4433 65.7011 67.2792 66.3731 67.2792 67.1222C67.2792 67.8741 67.4461 68.5433 67.7771 69.1327C68.1109 69.722 68.5671 70.182 69.1512 70.5124C69.7353 70.8429 70.3889 71.0054 71.1121 71.0054C71.8353 71.0082 72.489 70.8429 73.0731 70.5124Z" fill="white"/>
<path d="M91.5787 61.0522V73.1922H88.775V63.3436H84.5721L84.4859 65.8746C84.4275 67.5986 84.2884 68.995 84.0659 70.0635C83.8434 71.1321 83.4734 71.9528 82.9533 72.5257C82.4332 73.0985 81.7072 73.3849 80.7726 73.3849C80.386 73.3849 79.9187 73.3216 79.3707 73.1949L79.546 70.8181C79.6962 70.865 79.8658 70.887 80.055 70.887C80.7309 70.887 81.2037 70.4904 81.4736 69.7C81.7406 68.9096 81.9102 67.6675 81.9826 65.9793L82.1578 61.055H91.5787V61.0522Z" fill="white"/>
<path d="M95.3696 61.0522H98.19V68.9591L104.039 61.0522H106.701V73.1921H103.898V65.3018L98.0481 73.1921H95.3696V61.0522Z" fill="white"/>
<path d="M121.699 61.0522V73.1921H118.862V68.2155H113.294V73.1921H110.457V61.0522H113.294V65.8388H118.862V61.0522H121.699Z" fill="white"/>
<path d="M127.958 72.5862C126.937 72.0437 126.136 71.2946 125.557 70.3417C124.979 69.3888 124.689 68.3147 124.689 67.125C124.689 65.9352 124.979 64.8611 125.557 63.9082C126.136 62.9553 126.934 62.2062 127.958 61.6609C128.979 61.1184 130.127 60.8457 131.398 60.8457C132.672 60.8457 133.816 61.1184 134.831 61.6609C135.846 62.2035 136.647 62.9526 137.231 63.9082C137.815 64.8611 138.107 65.9352 138.107 67.125C138.107 68.3147 137.815 69.3888 137.231 70.3417C136.647 71.2946 135.846 72.0437 134.831 72.5862C133.816 73.1288 132.67 73.4014 131.398 73.4014C130.127 73.4014 128.979 73.1288 127.958 72.5862ZM133.362 70.5124C133.946 70.182 134.405 69.722 134.736 69.1327C135.07 68.5433 135.234 67.8713 135.234 67.1222C135.234 66.3703 135.067 65.7011 134.736 65.1117C134.402 64.5224 133.946 64.0624 133.362 63.732C132.778 63.4015 132.124 63.2362 131.401 63.2362C130.678 63.2362 130.024 63.4015 129.44 63.732C128.856 64.0624 128.397 64.5196 128.066 65.1117C127.732 65.7011 127.568 66.3731 127.568 67.1222C127.568 67.8741 127.735 68.5433 128.066 69.1327C128.4 69.722 128.856 70.182 129.44 70.5124C130.024 70.8429 130.678 71.0054 131.401 71.0054C132.124 71.0082 132.778 70.8429 133.362 70.5124Z" fill="white"/>
<path d="M24.2747 78.29V87.0975H22.2081V80.0389H17.8272V87.0975H15.7439V78.29H24.2747Z" fill="white"/>
<path d="M33.1561 79.1218C33.8486 79.7442 34.1963 80.6806 34.1963 81.9337V87.0975H32.2298V86.0262C31.9739 86.4118 31.6095 86.7064 31.1395 86.9075C30.6666 87.1113 30.0992 87.2132 29.4316 87.2132C28.7641 87.2132 28.1827 87.1003 27.6821 86.8744C27.1814 86.6486 26.7976 86.3346 26.525 85.9353C26.2524 85.5332 26.1161 85.0816 26.1161 84.5748C26.1161 83.7816 26.4137 83.1482 27.0062 82.669C27.6014 82.1898 28.536 81.9502 29.8127 81.9502H32.1102V81.818C32.1102 81.2011 31.9238 80.7302 31.5511 80.3997C31.1784 80.0692 30.6277 79.9039 29.8934 79.9039C29.3927 79.9039 28.9031 79.981 28.4192 80.1353C27.9352 80.2895 27.5291 80.5043 27.1953 80.7797L26.3803 79.2788C26.8476 78.9262 27.4067 78.6591 28.0631 78.4718C28.7196 78.2846 29.4122 78.1909 30.1465 78.1909C31.4593 78.1909 32.4607 78.5021 33.1561 79.1218ZM31.2563 85.357C31.6624 85.1201 31.9489 84.7814 32.113 84.3435V83.3217H29.9629C28.7641 83.3217 28.1633 83.7128 28.1633 84.4922C28.1633 84.8667 28.3135 85.1642 28.6139 85.3817C28.9143 85.6021 29.3315 85.7122 29.8628 85.7122C30.3885 85.7122 30.8502 85.5938 31.2563 85.357Z" fill="white"/>
<path d="M43.7453 78.7527C44.4296 79.1273 44.9636 79.6533 45.3531 80.3363C45.7425 81.0193 45.9372 81.8042 45.9372 82.6938C45.9372 83.5834 45.7425 84.3738 45.3531 85.0595C44.9636 85.7481 44.4296 86.2768 43.7453 86.6514C43.0611 87.0259 42.2878 87.2132 41.4228 87.2132C40.224 87.2132 39.2727 86.8166 38.5745 86.0262V90.2978H36.4912V78.2901H38.4744V79.444C38.8193 79.0254 39.2421 78.7114 39.7483 78.5049C40.2546 78.2956 40.8109 78.1909 41.4228 78.1909C42.2878 78.1909 43.0639 78.3782 43.7453 78.7527ZM43.0806 84.6905C43.5757 84.1838 43.8232 83.52 43.8232 82.6938C43.8232 81.8676 43.5757 81.2039 43.0806 80.6971C42.5855 80.1904 41.9568 79.9397 41.1892 79.9397C40.6885 79.9397 40.2407 80.0527 39.8401 80.2785C39.4396 80.5043 39.1225 80.8266 38.8916 81.2424C38.658 81.661 38.5412 82.143 38.5412 82.6938C38.5412 83.2446 38.658 83.7266 38.8916 84.1452C39.1253 84.5638 39.4424 84.886 39.8401 85.1091C40.2407 85.3349 40.6885 85.4479 41.1892 85.4479C41.9541 85.4479 42.5855 85.1945 43.0806 84.6905Z" fill="white"/>
<path d="M51.4611 83.5668H49.8451V87.0975H47.7617V78.29H49.8451V81.8538H51.5112L54.1425 78.29H56.3732L53.1411 82.5285L56.5902 87.0975H54.1425L51.4611 83.5668Z" fill="white"/>
<path d="M70.7716 20.4197L44.0566 0.421131C43.2854 -0.155117 42.2185 -0.138653 41.4694 0.462292L16.5289 20.4197C16.0341 20.8176 15.7439 21.4158 15.7439 22.0469V52.2176C15.7439 53.3729 16.6865 54.3086 17.8474 54.3086H29.4373C24.6498 53.897 20.8907 49.9099 20.8907 45.0502C20.8907 39.9161 25.0838 35.7561 30.2527 35.7561C35.4215 35.7561 39.6147 39.9188 39.6147 45.0502C39.6147 49.9099 35.8555 53.897 31.0681 54.3086H53.4076C49.3913 53.6143 45.7068 50.8813 44.2971 46.1066C43.7415 44.2297 43.4457 42.243 43.4457 40.185C43.4457 31.8294 48.3603 24.6126 55.4779 21.2264C62.5927 24.6126 67.51 31.8267 67.51 40.185C67.51 42.2403 67.2115 44.227 66.6587 46.1066C65.249 50.8813 61.5644 53.6143 57.5482 54.3086H69.5029C70.6666 54.3086 71.6092 53.3729 71.6092 52.2176V22.0881C71.6092 21.4322 71.2996 20.8148 70.7716 20.4197Z" fill="white"/>
<path d="M5.84046 54.3084C9.06605 54.3084 11.6809 51.7193 11.6809 48.5255C11.6809 45.3318 9.06605 42.7427 5.84046 42.7427C2.61486 42.7427 0 45.3318 0 48.5255C0 51.7193 2.61486 54.3084 5.84046 54.3084Z" fill="white"/>
</g>
</svg>
