<svg width="152" height="44" viewBox="0 0 152 44" fill="none" xmlns="http://www.w3.org/2000/svg">
<g clip-path="url(#clip0)">
<path d="M72.1615 21.6731V30.9411H70.0324V27.1418H61.4555V30.9411H59.3264V21.6731H61.4555V25.3273H70.0324V21.6731H72.1615Z" fill="#333333"/>
<path d="M74.9209 21.6731H77.0375V27.7095L81.4271 21.6731H83.4247V30.9411H81.3207V24.9173L76.931 30.9411H74.9209V21.6731V21.6731Z" fill="#333333"/>
<path d="M89.8893 27.2091H88.4177V30.9432H86.3011V21.6752H88.4177V25.4219H89.9435L92.3628 21.6752H94.6108L91.6009 26.1515L94.7027 30.9453H92.2814L89.8893 27.2091Z" fill="#333333"/>
<path d="M98.2928 30.4785C97.5268 30.0643 96.9256 29.4924 96.4915 28.765C96.0573 28.0375 95.8402 27.2175 95.8402 26.3092C95.8402 25.4009 96.0573 24.5809 96.4915 23.8534C96.9256 23.1259 97.5247 22.554 98.2928 22.1377C99.0589 21.7235 99.921 21.5154 100.875 21.5154C101.831 21.5154 102.689 21.7235 103.451 22.1377C104.213 22.5519 104.814 23.1238 105.252 23.8534C105.69 24.5809 105.91 25.4009 105.91 26.3092C105.91 27.2175 105.69 28.0375 105.252 28.765C104.814 29.4924 104.213 30.0643 103.451 30.4785C102.689 30.8927 101.829 31.1009 100.875 31.1009C99.921 31.1009 99.061 30.8927 98.2928 30.4785ZM102.349 28.8953C102.787 28.643 103.131 28.2919 103.38 27.8419C103.63 27.392 103.753 26.879 103.753 26.3071C103.753 25.7331 103.628 25.2222 103.38 24.7722C103.129 24.3223 102.787 23.9712 102.349 23.7188C101.91 23.4665 101.42 23.3404 100.877 23.3404C100.334 23.3404 99.8437 23.4665 99.4054 23.7188C98.9671 23.9712 98.6226 24.3202 98.3743 24.7722C98.1238 25.2222 98.0006 25.7352 98.0006 26.3071C98.0006 26.8811 98.1259 27.392 98.3743 27.8419C98.6247 28.2919 98.9671 28.643 99.4054 28.8953C99.8437 29.1476 100.334 29.2717 100.877 29.2717C101.42 29.2738 101.91 29.1476 102.349 28.8953Z" fill="#333333"/>
<path d="M116.236 21.6731V30.9411H114.132V23.4224H110.978L110.913 25.3547C110.869 26.6708 110.765 27.7368 110.598 28.5526C110.431 29.3684 110.153 29.995 109.763 30.4323C109.373 30.8696 108.828 31.0883 108.126 31.0883C107.836 31.0883 107.486 31.0399 107.074 30.9432L107.206 29.1287C107.319 29.1645 107.446 29.1813 107.588 29.1813C108.095 29.1813 108.45 28.8785 108.652 28.2751C108.853 27.6717 108.98 26.7234 109.034 25.4346L109.166 21.6752H116.236V21.6731Z" fill="#333333"/>
<path d="M119.081 21.6731H121.197V27.7095L125.587 21.6731H127.585V30.9411H125.481V24.9173L121.091 30.9411H119.081V21.6731Z" fill="#333333"/>
<path d="M138.84 21.6731V30.9411H136.711V27.1418H132.532V30.9411H130.403V21.6731H132.532V25.3273H136.711V21.6731H138.84Z" fill="#333333"/>
<path d="M143.536 30.4785C142.77 30.0643 142.169 29.4924 141.735 28.765C141.3 28.0375 141.083 27.2175 141.083 26.3092C141.083 25.4009 141.3 24.5809 141.735 23.8534C142.169 23.1259 142.768 22.554 143.536 22.1377C144.302 21.7235 145.164 21.5154 146.118 21.5154C147.074 21.5154 147.932 21.7235 148.694 22.1377C149.456 22.5519 150.057 23.1238 150.495 23.8534C150.934 24.5809 151.153 25.4009 151.153 26.3092C151.153 27.2175 150.934 28.0375 150.495 28.765C150.057 29.4924 149.456 30.0643 148.694 30.4785C147.932 30.8927 147.072 31.1009 146.118 31.1009C145.164 31.1009 144.302 30.8927 143.536 30.4785ZM147.592 28.8953C148.03 28.643 148.374 28.2919 148.623 27.8419C148.873 27.392 148.997 26.879 148.997 26.3071C148.997 25.7331 148.871 25.2222 148.623 24.7722C148.372 24.3223 148.03 23.9712 147.592 23.7188C147.153 23.4665 146.663 23.3404 146.12 23.3404C145.577 23.3404 145.087 23.4665 144.649 23.7188C144.21 23.9712 143.866 24.3202 143.617 24.7722C143.367 25.2222 143.244 25.7352 143.244 26.3071C143.244 26.8811 143.369 27.392 143.617 27.8419C143.868 28.2919 144.21 28.643 144.649 28.8953C145.087 29.1476 145.577 29.2717 146.12 29.2717C146.663 29.2738 147.153 29.1476 147.592 28.8953Z" fill="#333333"/>
<path d="M65.7283 34.8329V41.5568H64.1774V36.168H60.8898V41.5568H59.3264V34.8329H65.7283Z" fill="#84D078"/>
<path d="M72.3932 35.4679C72.9129 35.943 73.1738 36.6579 73.1738 37.6146V41.5568H71.6981V40.739C71.506 41.0333 71.2326 41.2583 70.8798 41.4118C70.525 41.5674 70.0992 41.6452 69.5982 41.6452C69.0972 41.6452 68.661 41.5589 68.2853 41.3865C67.9096 41.2141 67.6215 40.9744 67.4169 40.6696C67.2124 40.3626 67.1101 40.0178 67.1101 39.6309C67.1101 39.0254 67.3334 38.5418 67.7781 38.1759C68.2247 37.8101 68.9261 37.6272 69.8842 37.6272H71.6083V37.5263C71.6083 37.0553 71.4685 36.6958 71.1888 36.4434C70.9091 36.1911 70.4958 36.065 69.9447 36.065C69.569 36.065 69.2016 36.1239 68.8384 36.2416C68.4752 36.3593 68.1705 36.5233 67.92 36.7336L67.3084 35.5877C67.6591 35.3186 68.0786 35.1146 68.5712 34.9717C69.0639 34.8287 69.5836 34.7572 70.1347 34.7572C71.1199 34.7572 71.8713 34.9948 72.3932 35.4679ZM70.9675 40.228C71.2723 40.0472 71.4873 39.7886 71.6104 39.4543V38.6743H69.9969C69.0972 38.6743 68.6464 38.9728 68.6464 39.5678C68.6464 39.8538 68.7591 40.0809 68.9845 40.247C69.21 40.4152 69.5231 40.4993 69.9218 40.4993C70.3163 40.4993 70.6628 40.4089 70.9675 40.228Z" fill="#84D078"/>
<path d="M80.3397 35.1861C80.8532 35.4721 81.2539 35.8737 81.5462 36.3951C81.8384 36.9165 81.9845 37.5157 81.9845 38.1949C81.9845 38.874 81.8384 39.4774 81.5462 40.001C81.2539 40.5266 80.8532 40.9303 80.3397 41.2162C79.8262 41.5022 79.2459 41.6452 78.5967 41.6452C77.6971 41.6452 76.9832 41.3424 76.4593 40.739V44H74.8959V34.8329H76.3842V35.7139C76.643 35.3943 76.9603 35.1546 77.3402 34.9969C77.72 34.8371 78.1375 34.7572 78.5967 34.7572C79.2459 34.7572 79.8283 34.9002 80.3397 35.1861ZM79.8408 39.7192C80.2123 39.3323 80.3981 38.8256 80.3981 38.1949C80.3981 37.5641 80.2123 37.0574 79.8408 36.6705C79.4692 36.2837 78.9975 36.0923 78.4214 36.0923C78.0457 36.0923 77.7096 36.1785 77.409 36.3509C77.1085 36.5233 76.8705 36.7693 76.6973 37.0868C76.5219 37.4064 76.4342 37.7744 76.4342 38.1949C76.4342 38.6154 76.5219 38.9833 76.6973 39.3029C76.8726 39.6225 77.1105 39.8685 77.409 40.0388C77.7096 40.2112 78.0457 40.2974 78.4214 40.2974C78.9954 40.2974 79.4692 40.104 79.8408 39.7192Z" fill="#84D078"/>
<path d="M86.1301 38.8614H84.9173V41.5568H83.3539V34.8329H84.9173V37.5536H86.1676L88.1422 34.8329H89.8163L87.3908 38.0687L89.9791 41.5568H88.1422L86.1301 38.8614Z" fill="#84D078"/>
<path d="M53.2648 15.6471L33.0906 0.323779C32.5082 -0.117755 31.7025 -0.10514 31.1369 0.355318L12.3028 15.6471C11.9291 15.952 11.71 16.4104 11.71 16.894V40.0115C11.71 40.8966 12.4217 41.6136 13.2984 41.6136H22.0507C18.4354 41.2982 15.5966 38.2432 15.5966 34.5196C15.5966 30.5857 18.7631 27.3983 22.6664 27.3983C26.5697 27.3983 29.7362 30.5878 29.7362 34.5196C29.7362 38.2432 26.8975 41.2982 23.2822 41.6136H40.1521C37.1192 41.0817 34.3367 38.9875 33.2722 35.3291C32.8526 33.8909 32.6293 32.3687 32.6293 30.7918C32.6293 24.3895 36.3406 18.8598 41.7155 16.2653C47.0883 18.8598 50.8017 24.3874 50.8017 30.7918C50.8017 32.3666 50.5763 33.8888 50.1588 35.3291C49.0943 38.9875 46.3118 41.0817 43.2789 41.6136H52.3067C53.1854 41.6136 53.8972 40.8966 53.8972 40.0115V16.9255C53.8972 16.423 53.6634 15.9499 53.2648 15.6471Z" fill="url(#paint0_linear)"/>
<path d="M4.42099 41.6137C6.86263 41.6137 8.84198 39.6199 8.84198 37.1605C8.84198 34.701 6.86263 32.7073 4.42099 32.7073C1.97934 32.7073 0 34.701 0 37.1605C0 39.6199 1.97934 41.6137 4.42099 41.6137Z" fill="url(#paint1_linear)"/>
</g>
<defs>
<linearGradient id="paint0_linear" x1="7.34145" y1="5.04368" x2="45.0162" y2="39.2044" gradientUnits="userSpaceOnUse">
<stop stop-color="#84D078"/>
<stop offset="0.0983" stop-color="#B6F173"/>
<stop offset="1" stop-color="#84D078"/>
</linearGradient>
<linearGradient id="paint1_linear" x1="-9.97386" y1="23.9181" x2="28.2986" y2="58.6208" gradientUnits="userSpaceOnUse">
<stop stop-color="#ACEA74"/>
<stop offset="0.0983" stop-color="#B6F173"/>
<stop offset="1" stop-color="#84D078"/>
</linearGradient>
<clipPath id="clip0">
<rect width="151.153" height="44" fill="white"/>
</clipPath>
</defs>
</svg>
