<svg width="98" height="38" viewBox="0 0 98 38" fill="none" xmlns="http://www.w3.org/2000/svg">
<rect x="3" y="3" width="92" height="32" rx="16" fill="#F63659" stroke="white" stroke-width="6"/>
<path d="M29.7672 21.802V26.002H27.2332V24H19.1972V14.2H21.9272V21.802H25.6932V14.2H28.4232V21.802H29.7672ZM41.0829 21.858V24H33.2149V14.2H40.9009V16.342H35.9589V17.994H40.3129V20.066H35.9589V21.858H41.0829ZM54.123 14.2V24H51.351V20.178H47.571V24H44.799V14.2H47.571V17.882H51.351V14.2H54.123ZM66.2616 16.398H63.2656V24H60.5356V16.398H57.5256V14.2H66.2616V16.398ZM74.1562 14.2C75.0429 14.2 75.8129 14.3493 76.4662 14.648C77.1196 14.9373 77.6236 15.3573 77.9782 15.908C78.3329 16.4493 78.5102 17.0887 78.5102 17.826C78.5102 18.5633 78.3329 19.2027 77.9782 19.744C77.6236 20.2853 77.1196 20.7053 76.4662 21.004C75.8129 21.2933 75.0429 21.438 74.1562 21.438H72.4482V24H69.6762V14.2H74.1562ZM73.9882 19.254C74.5576 19.254 74.9869 19.1327 75.2762 18.89C75.5656 18.638 75.7102 18.2833 75.7102 17.826C75.7102 17.3687 75.5656 17.014 75.2762 16.762C74.9869 16.51 74.5576 16.384 73.9882 16.384H72.4482V19.254H73.9882Z" fill="white"/>
</svg>
