<svg width="50" height="50" viewBox="0 0 50 50" fill="none" xmlns="http://www.w3.org/2000/svg">
<circle cx="25" cy="25" r="23" fill="#FF8B03" stroke="white" stroke-width="4"/>
<path d="M20.15 17.5249C19.715 17.5249 19.425 17.9599 19.425 18.2499V21.8749H17.975V18.2499C17.975 17.8149 17.685 17.5249 17.25 17.5249C16.815 17.5249 16.525 17.9599 16.525 18.2499V21.8749H15.075V18.2499C15.075 17.8149 14.785 17.5249 14.35 17.5249C13.915 17.5249 13.625 17.9599 13.625 18.2499V23.0349C13.625 24.3399 14.64 25.3549 15.8 25.4999V35.6499C15.8 36.5199 16.38 37.0999 17.25 37.0999C18.12 37.0999 18.7 36.5199 18.7 35.6499V25.4999C19.86 25.3549 20.875 24.3399 20.875 23.0349V18.2499C20.875 17.9599 20.585 17.5249 20.15 17.5249ZM23.05 18.2499V26.9499H24.5V35.6499C24.5 36.5199 25.08 37.0999 25.95 37.0999C26.82 37.0999 27.4 36.5199 27.4 35.6499V13.8999C24.935 13.8999 23.05 15.7849 23.05 18.2499ZM33.2 16.7999C31.17 16.7999 29.575 18.9749 29.575 21.5849C29.43 23.3249 30.3 24.9199 31.75 25.9349V35.6499C31.75 36.5199 32.33 37.0999 33.2 37.0999C34.07 37.0999 34.65 36.5199 34.65 35.6499V25.9349C36.1 24.9199 36.97 23.3249 36.825 21.5849C36.825 18.9749 35.23 16.7999 33.2 16.7999Z" fill="white"/>
</svg>
