<svg width="50" height="50" viewBox="0 0 50 50" fill="none" xmlns="http://www.w3.org/2000/svg">
<circle cx="25" cy="25" r="23" fill="#4786EC" stroke="white" stroke-width="4"/>
<path fill-rule="evenodd" clip-rule="evenodd" d="M35.2837 14.5702C34.3872 13.7425 32.9753 13.8368 32.1307 14.7175L27.4699 19.5778C27.4679 19.5799 27.4649 19.5807 27.4622 19.5798L15.9697 15.7737C15.967 15.7728 15.9639 15.7735 15.962 15.7756L13.5576 18.1817C13.5541 18.1851 13.5549 18.1908 13.5589 18.1934L23.1297 24.0905C23.1339 24.093 23.1345 24.0986 23.1314 24.1022L18.2895 29.1509C18.2878 29.1529 18.2853 29.1536 18.2828 29.1532L15.1797 28.6434C15.1774 28.6431 15.1749 28.6438 15.1732 28.6456L13.0022 30.8182C12.9983 30.8219 12.9998 30.8288 13.0049 30.8306L17.5637 32.4283C17.5658 32.4292 17.5675 32.4309 17.5682 32.433L19.165 36.995C19.1668 37.0002 19.1734 37.0017 19.1774 36.9979L21.3485 34.8252C21.3502 34.8235 21.3509 34.821 21.3506 34.8187L20.841 31.7133C20.8407 31.7109 20.8415 31.7084 20.8433 31.7067L25.8885 26.8615C25.892 26.8582 25.8977 26.8589 25.9002 26.863L31.7931 36.4406C31.7957 36.4449 31.8014 36.4453 31.8049 36.442L34.2093 34.0359C34.2112 34.0337 34.212 34.0309 34.2109 34.0281L30.4079 22.5274C30.4068 22.5246 30.4077 22.5217 30.4097 22.5196L35.3174 17.8065C36.2366 16.9237 36.2295 15.4432 35.2837 14.5702Z" fill="white"/>
</svg>
