<svg width="50" height="50" viewBox="0 0 50 50" fill="none" xmlns="http://www.w3.org/2000/svg">
<circle cx="25" cy="25" r="23" fill="#F2BB68" stroke="white" stroke-width="4"/>
<path d="M25 12.5C18.1 12.5 12.5 18.1 12.5 25C12.5 31.9 18.1 37.5 25 37.5C31.9 37.5 37.5 31.9 37.5 25C37.5 18.1 31.9 12.5 25 12.5ZM16.5375 19.6875C17.625 20.775 18.375 22.175 18.6375 23.75H15.0875C15.2742 22.3076 15.7687 20.9221 16.5375 19.6875ZM15.0875 26.25H18.6375C18.3797 27.7905 17.6453 29.2114 16.5375 30.3125C15.7687 29.0779 15.2742 27.6924 15.0875 26.25ZM23.75 34.9125C21.5875 34.6375 19.6375 33.6625 18.1375 32.2375C19.8092 30.6525 20.8784 28.5361 21.1625 26.25H23.75V34.9125ZM23.75 23.75H21.1625C20.874 21.459 19.8007 19.3387 18.125 17.75C19.6708 16.2893 21.6404 15.3571 23.75 15.0875V23.75ZM34.9125 23.75H31.3625C31.625 22.175 32.375 20.775 33.4625 19.6875C34.2125 20.9 34.725 22.275 34.9125 23.75ZM26.25 15.0875C28.4125 15.3625 30.3625 16.325 31.875 17.75C30.1994 19.3387 29.126 21.459 28.8375 23.75H26.25V15.0875ZM26.25 34.9125V26.25H28.8375C29.127 28.5344 30.1953 30.6491 31.8625 32.2375C30.324 33.7037 28.3578 34.6409 26.25 34.9125ZM33.4625 30.3125C32.3569 29.2098 31.6228 27.7897 31.3625 26.25H34.9125C34.7258 27.6924 34.2313 29.0779 33.4625 30.3125Z" fill="white"/>
</svg>
