<?xml version="1.0" encoding="UTF-8"?>
<!DOCTYPE svg  PUBLIC '-//W3C//DTD SVG 1.1//EN'  'http://www.w3.org/Graphics/SVG/1.1/DTD/svg11.dtd'>
<svg version="1.1" xmlns="http://www.w3.org/2000/svg">
<defs>
<font id="PlayfairDisplaySC-Regular" horiz-adv-x="339">
<font-face font-family="Playfair Display SC" font-weight="400" ascent="800" bbox="-427 -195 982 943" cap-height="708" descent="-200" panose-1="0 0 5 0 0 0 0 0 0 0" underline-position="-100" underline-thickness="20" unicode-range="U+0020-FB02" units-per-em="1000" x-height="608"/>
<missing-glyph/>
<glyph d="M441.5 774q35.5 -8 57.5 -22q34 -21 34 -55q0 -27 -19 -46t-45 -19t-45 19t-19 45q0 18 9 33t24 23q-23 15 -73 15q-99 0 -142 -77q-15 -26 -21 -65.5t-6 -110.5h161q63 0 98.5 2.5t67.5 9.5v-433q0 -41 17 -56.5t59 -15.5v-21q-92 4 -121 4t-121 -4v21q42 0 59 15.5 t17 56.5v313q0 46 -17 67t-59 21h-161v-401q0 -41 21.5 -56.5t64.5 -15.5v-21l-22 1q-87 3 -109 3q-29 0 -121 -4v21q42 0 59 15.5t17 56.5v401h-80v20h80q0 135 72 203q31 29 78 47t109 18q41 0 76.5 -8z" glyph-name="fi" horiz-adv-x="619" unicode="fi"/>
<glyph d="M523 93q0 -41 17 -56.5t59 -15.5v-21q-92 4 -121 4t-121 -4v21q42 0 59 15.5t17 56.5v557q0 31 -6.5 50t-20.5 33q-18 18 -44.5 26t-51.5 8q-50 0 -79 -31q-21 -21 -28 -52t-7 -76v-94h127v-20h-127v-401q0 -41 21.5 -56.5t64.5 -15.5v-21l-22 1q-87 3 -109 3 q-29 0 -121 -4v21q42 0 59 15.5t17 56.5v401h-80v20h80q0 85 12.5 136.5t51.5 85.5q27 23 62 34.5t73 11.5q18 0 58 -6q42 -6 70 -6q49 0 90 14v-691z" glyph-name="fl" horiz-adv-x="621" unicode="fl"/>
<glyph glyph-name="space" horiz-adv-x="249" unicode=" "/>
<glyph d="M175 608q13 -14 13 -42q0 -36 -15 -162q-17 -136 -22 -208h-18q-5 72 -22 208q-15 126 -15 162q0 29 12.5 42.5t33.5 13.5q20 0 33 -14zM187 95q19 -19 19 -45t-19 -45t-45 -19t-45 19t-19 45t19 45t45 19t45 -19z" glyph-name="exclam" horiz-adv-x="284" unicode="!"/>
<glyph d="M120.5 717.5q10.5 -12.5 10.5 -33.5q0 -36 -6 -73t-7 -45q-7 -36 -16 -98h-14q-7 49 -15 90q-6 34 -10 65t-4 60q0 21 10 33.5t26 13.5q15 0 25.5 -12.5zM229.5 717.5q10.5 -12.5 10.5 -33.5q0 -36 -6 -73t-7 -45q-7 -36 -16 -98h-14q-7 49 -15 90q-6 34 -10 65t-4 60 q0 21 10 33.5t26 13.5q15 0 25.5 -12.5z" glyph-name="quotedbl" horiz-adv-x="298" unicode='"'/>
<glyph d="M438 434l-32 -167h147l-4 -20h-147l-28 -146h-20l28 146h-167l-28 -146h-20l28 146h-147l4 20h147l32 167h-146l3 20h147l29 148h20l-29 -148h167l29 148h20l-29 -148h147l-3 -20h-148zM418 434h-167l-32 -167h167z" glyph-name="numbersign" horiz-adv-x="637" unicode="#"/>
<glyph d="M435.5 42q-44.5 -43 -116.5 -53v-91h-20v89q-8 -1 -24 -1t-40 2v-90h-20v93q-39 8 -77 32q-22 14 -34 14q-9 0 -14 -10.5t-8 -33.5h-23q4 49 4 220h23q6 -77 36.5 -130.5t92.5 -70.5v270q-73 38 -112 79.5t-39 104.5q0 65 42.5 104.5t108.5 48.5v91h20v-89q6 1 17 1 q30 0 47 -4v92h20v-97q24 -7 55 -28q22 -14 34 -14q9 0 14 10.5t8 33.5h23q-5 -52 -5 -184h-23q-5 56 -31 100.5t-75 62.5v-254q80 -43 120.5 -84t40.5 -100q0 -71 -44.5 -114zM235 601v-215q13 -8 24.5 -13.5t18.5 -9.5l19 -11l2 -1v248q-16 4 -38 4q-10 0 -26 -2z M158.5 445q19.5 -25 56.5 -47v198q-35 -10 -55.5 -34.5t-20.5 -57.5q0 -34 19.5 -59zM299 9v228q-11 6 -64 34v-263q20 -2 33 -2q16 0 31 3zM371 52.5q20 26.5 20 66.5q0 32 -18 57t-54 48v-209q32 11 52 37.5z" glyph-name="dollar" horiz-adv-x="529" unicode="$"/>
<glyph d="M679 811l-585 -866l-19 13l585 866zM292.5 717.5q40.5 -43.5 40.5 -119.5q0 -75 -42 -121.5t-107 -46.5q-68 0 -108.5 43.5t-40.5 119.5q0 74 42 121t107 47q68 0 108.5 -43.5zM105 594q0 -72 21.5 -109t59.5 -37q76 0 76 148q0 72 -21 109.5t-59 37.5q-77 0 -77 -149z M664.5 273.5q40.5 -43.5 40.5 -119.5q0 -75 -42 -121.5t-107 -46.5q-68 0 -108.5 43.5t-40.5 119.5q0 74 42 121t107 47q68 0 108.5 -43.5zM477 150q0 -72 21.5 -109t59.5 -37q76 0 76 148q0 72 -21 109.5t-59 37.5q-77 0 -77 -149z" glyph-name="percent" horiz-adv-x="742" unicode="%"/>
<glyph d="M748.5 439q-24.5 -31 -74.5 -52l-53 -21l-52 -20q56 -15 81 -52t25 -78q0 -63 -36.5 -115.5t-106.5 -83.5t-166 -31q-85 0 -156.5 25.5t-114 73t-42.5 110.5t29.5 106t67 66t68.5 31q-49 16 -75 44t-26 65q0 49 45 82t125 33q64 0 103 -30q18 -15 27.5 -33.5t9.5 -35.5 q0 -24 -17 -38.5t-39 -14.5t-37 13t-15 37q0 22 15 38t38 17q-5 13 -25.5 22.5t-48.5 9.5q-52 0 -85 -29t-33 -74q0 -34 11 -57t40 -43q34 6 62 6q18 0 29 -6.5t11 -16.5q0 -19 -28 -19q-16 0 -33 6t-40 16q-110 -37 -110 -153q0 -56 33.5 -97.5t92.5 -63.5t133 -22 q81 0 142.5 21t95 58.5t33.5 87.5q0 35 -20.5 69t-81.5 49l-103 -39q-45 -17 -71 -37.5t-26 -51.5t21 -49.5t50 -18.5q21 0 39 6t21 16q-20 4 -33.5 16t-13.5 35q0 24 15.5 38t39.5 14t38.5 -15t14.5 -39q0 -40 -37.5 -63t-80.5 -23q-44 0 -69.5 24t-25.5 69q0 102 138 151 l36 13q117 39 168 65q42 21 59 41t17 44q0 32 -25.5 52.5t-63.5 20.5q-10 0 -17.5 -3t-9.5 -7q13 -6 20.5 -19.5t7.5 -26.5q0 -20 -16.5 -34.5t-38.5 -14.5q-23 0 -38.5 13t-15.5 35q0 38 33.5 54.5t78.5 16.5q48 0 79.5 -28.5t31.5 -78.5q0 -45 -24.5 -76z" glyph-name="ampersand" horiz-adv-x="799" unicode="&amp;"/>
<glyph d="M120.5 717.5q10.5 -12.5 10.5 -33.5q0 -36 -6 -73t-7 -45q-7 -36 -16 -98h-14q-7 49 -15 90q-6 34 -10 65t-4 60q0 21 10 33.5t26 13.5q15 0 25.5 -12.5z" glyph-name="quotesingle" horiz-adv-x="189" unicode="'"/>
<glyph d="M103 503.5q-53 -90.5 -53 -191.5t53 -191.5t147 -154.5l11 13q-63 63 -95 148.5t-32 184.5t32 184.5t95 148.5l-11 13q-94 -64 -147 -154.5z" glyph-name="parenleft" horiz-adv-x="292" unicode="("/>
<glyph d="M189 503.5q53 -90.5 53 -191.5t-53 -191.5t-147 -154.5l-11 13q63 63 95 148.5t32 184.5t-32 184.5t-95 148.5l11 13q94 -64 147 -154.5z" glyph-name="parenright" horiz-adv-x="293" unicode=")"/>
<glyph d="M433 429q0 -9 -5 -17q-9 -16 -28 -16q-15 0 -36 12q-15 9 -33 25t-37 36l-45 44q6 -26 15 -56q19 -69 20 -96q-1 -28 -12 -41t-27 -13q-15 0 -25 13t-10 41q0 17 5.5 42t13.5 54q7 22 15 56l-40 -40q-21 -21 -40.5 -39t-34.5 -27q-19 -11 -35 -11q-22 0 -31 17 q-4 7 -4 15q0 22 33 43q15 9 35 15.5t55 15.5q31 7 58 15q-45 13 -59 16q-27 8 -51 15.5t-39 15.5q-32 19 -32 43q0 9 5 17q9 16 28 16q15 0 36 -12q15 -9 34 -26t39 -38q18 -19 42 -42l-15 56q-10 36 -14.5 57.5t-4.5 39.5q0 28 11 41t26 13t25.5 -13t10.5 -41 q0 -17 -5.5 -42t-13.5 -54q-7 -22 -15 -56l40 40q21 21 40.5 39t34.5 27q19 11 35 11q23 0 31 -17q4 -7 4 -15q0 -24 -33 -43q-15 -9 -35 -15.5t-55 -15.5q-31 -7 -58 -15q46 -13 59 -16q27 -8 51 -15.5t39 -15.5q32 -19 32 -43z" glyph-name="asterisk" horiz-adv-x="492" unicode="*"/>
<glyph d="M312 370h232v-30h-232v-235h-36v235h-233v30h233v236h36v-236z" glyph-name="plus" horiz-adv-x="587" unicode="+"/>
<glyph d="M185 82q17 -27 17 -66q0 -50 -25.5 -90t-77.5 -64l-9 18q31 13 53.5 41t22.5 57q0 12 -3 21q-16 -13 -37 -13q-27 0 -45.5 17.5t-18.5 46.5q0 27 18.5 45.5t45.5 18.5q39 0 59 -32z" glyph-name="comma" horiz-adv-x="261" unicode=","/>
<glyph d="M438 276h-361v58h361v-58z" glyph-name="hyphen" horiz-adv-x="515" unicode="-"/>
<glyph d="M171 95q19 -19 19 -45t-19 -45t-45 -19t-45 19t-19 45t19 45t45 19t45 -19z" glyph-name="period" horiz-adv-x="252" unicode="."/>
<glyph d="M67 -14h-33l272 736h33z" glyph-name="slash" horiz-adv-x="372" unicode="/"/>
<glyph d="M430 496.5q55 -32.5 86 -92.5t31 -138q0 -80 -32 -143.5t-89.5 -100t-131.5 -36.5q-69 0 -124 32.5t-86.5 92.5t-31.5 139t31.5 142.5t89 100t132.5 36.5q70 0 125 -32.5zM219.5 480.5q-33.5 -30.5 -52 -89t-18.5 -138.5q0 -127 43 -188t111 -61q43 0 76.5 31t52 89.5 t18.5 138.5q0 126 -43 187t-111 61q-43 0 -76.5 -30.5z" glyph-name="zero" horiz-adv-x="600" unicode="0"/>
<glyph d="M253 103q0 -47 21.5 -64.5t74.5 -17.5v-21q-108 4 -138 4q-28 0 -130 -3l-24 -1v21q53 0 79.5 18t26.5 64v242q0 48 -10 70.5t-33.5 30t-72.5 7.5v22q73 2 120.5 13t85.5 38v-423z" glyph-name="one" horiz-adv-x="370" unicode="1"/>
<glyph d="M354 496q40 -33 40 -93q0 -41 -21.5 -79.5t-52 -70.5t-80.5 -77q-41 -38 -61 -57.5t-36 -41.5h203q27 0 40.5 4.5t18.5 15t8 31.5h17q0 -92 4 -133q-22 5 -149 5h-234v17q17 18 58 57q57 53 95 95.5t65.5 96.5t27.5 115q0 108 -100 108q-82 0 -134 -94l-16 9 q26 54 74 89.5t123 35.5q70 0 110 -33z" glyph-name="two" horiz-adv-x="479" unicode="2"/>
<glyph d="M330.5 498q40.5 -31 40.5 -83q0 -55 -43.5 -99t-105.5 -66q77 -2 131 -41t54 -111t-55.5 -129t-141 -88.5t-173.5 -31.5v18q71 2 134 29.5t102 79t39 122.5q0 59 -29 97.5t-77 42.5q-4 -2 -20.5 -8.5t-26.5 -6.5q-16 0 -16 13q0 9 7.5 14t18.5 5q6 0 16.5 -1.5t18.5 -2.5 q39 30 58 67t19 77q0 46 -23 68t-64 22q-42 0 -76 -22.5t-57 -66.5l-17 8q58 125 183 125q63 0 103.5 -31z" glyph-name="three" horiz-adv-x="451" unicode="3"/>
<glyph d="M358 54v-195h-80v195h-261v21l325 454h16v-408h12q27 0 40.5 4.5t18.5 15t8 31.5h17q0 -84 4 -123q-13 3 -100 5zM278 121v286l-202 -286h202z" glyph-name="four" horiz-adv-x="494" unicode="4"/>
<glyph d="M338 419q-21 5 -139 5h-106l-12 -193q28 14 54 22t63 8q87 0 132 -42.5t45 -111.5q0 -74 -48.5 -132.5t-125 -90.5t-156.5 -32v18q61 1 114.5 27t87 77t33.5 123q0 63 -33 98.5t-93 35.5q-24 0 -41 -4t-41 -13l-10 6l19 298q20 -4 54 -4h113q27 0 40.5 4.5t18.5 15 t8 31.5h19q0 -102 4 -146z" glyph-name="five" horiz-adv-x="415" unicode="5"/>
<glyph d="M388 412q41 -26 66 -75.5t25 -116.5q0 -73 -29.5 -126t-79.5 -80.5t-111 -27.5q-96 0 -150 75t-54 209q0 140 53.5 237.5t130.5 149t155 66.5l4 -20q-61 -20 -109.5 -54t-85.5 -105t-47 -187q23 42 63 61.5t80 19.5q48 0 89 -26zM350 57q32 51 32 156q0 102 -30 149 t-78 47q-35 0 -69.5 -20.5t-51.5 -65.5q-1 -16 -1 -51q0 -144 34 -205t83 -61t81 51z" glyph-name="six" horiz-adv-x="517" unicode="6"/>
<glyph d="M398 493q-15 -35 -52 -107q-39 -75 -63 -129.5t-41 -125t-17 -149.5q0 -20 2 -48q2 -22 2 -31q0 -23 -13 -37t-34 -14q-22 0 -33.5 16t-11.5 40q0 77 23.5 152t57 138.5t87.5 152.5l47 79h-237q-27 0 -40.5 -4.5t-18.5 -15t-8 -31.5h-17q0 99 -4 140q23 -5 149 -5h222 v-21z" glyph-name="seven" horiz-adv-x="406" unicode="7"/>
<glyph d="M393 332.5q31 -27.5 53.5 -66.5t22.5 -89q0 -56 -28 -99.5t-77 -67.5t-111 -24q-85 0 -143 43.5t-58 124.5q0 69 44 123t116 90q-61 50 -94 95t-33 104q0 46 24 81.5t66 55t93 19.5q71 0 118 -36t47 -101q0 -54 -33 -99t-94 -85q56 -41 87 -68.5zM189.5 675 q-26.5 -29 -26.5 -78q0 -57 32.5 -97.5t95.5 -87.5q62 59 62 160q0 60 -25 96t-71 36q-41 0 -67.5 -29zM348 39q36 35 36 96q0 47 -21.5 84.5t-51 64.5t-84.5 71q-87 -63 -87 -186q0 -71 29 -118t90 -47q53 0 89 35z" glyph-name="eight" horiz-adv-x="520" unicode="8"/>
<glyph d="M407 459.5q54 -69.5 54 -194.5q0 -127 -53.5 -216t-131 -136.5t-154.5 -60.5l-4 20q91 26 154 86t84 193q-23 -39 -62 -56.5t-77 -17.5q-48 0 -89 26t-66 75.5t-25 116.5q0 73 29.5 126t79.5 80.5t111 27.5q96 0 150 -69.5zM309.5 125q33.5 19 50.5 61q4 32 4 77 q0 133 -34 189.5t-83 56.5t-81 -51t-32 -156q0 -102 30 -149t78 -47q34 0 67.5 19z" glyph-name="nine" horiz-adv-x="509" unicode="9"/>
<glyph d="M178 509q19 -19 19 -45t-19 -45t-45 -19t-45 19t-19 45t19 45t45 19t45 -19zM178 95q19 -19 19 -45t-19 -45t-45 -19t-45 19t-19 45t19 45t45 19t45 -19z" glyph-name="colon" horiz-adv-x="266" unicode=":"/>
<glyph d="M196 82q17 -27 17 -66q0 -50 -25.5 -90t-77.5 -64l-9 18q31 13 53.5 41t22.5 57q0 12 -3 21q-16 -13 -37 -13q-27 0 -45.5 17.5t-18.5 46.5q0 27 18.5 45.5t45.5 18.5q39 0 59 -32zM189 509q19 -19 19 -45t-19 -45t-45 -19t-45 19t-19 45t19 45t45 19t45 -19z" glyph-name="semicolon" horiz-adv-x="285" unicode=";"/>
<glyph d="M534 546l-409 -191l409 -191l-17 -36l-487 227l487 227z" glyph-name="less" horiz-adv-x="608" unicode="&lt;"/>
<glyph d="M574 410h-501v30h501v-30zM574 270h-501v30h501v-30z" glyph-name="equal" horiz-adv-x="647" unicode="="/>
<glyph d="M74 546l409 -191l-409 -191l17 -36l487 227l-487 227z" glyph-name="greater" horiz-adv-x="608" unicode="&gt;"/>
<glyph d="M342.5 583.5q52.5 -38.5 52.5 -106.5q0 -53 -37.5 -91t-90 -59.5t-103.5 -29.5l25 -93l-20 -5l-33 109q86 19 128 58.5t42 115.5q0 56 -28 89.5t-79 33.5q-41 0 -74 -12q-41 -15 -38 -37q16 -4 27 -16.5t11 -29.5q0 -19 -13 -32.5t-33 -13.5q-21 0 -34 15t-13 37 q0 25 19 49.5t57 40.5q43 16 96 16q86 0 138.5 -38.5zM240 95q19 -19 19 -45t-19 -45t-45 -19t-45 19t-19 45t19 45t45 19t45 -19z" glyph-name="question" horiz-adv-x="430" unicode="?"/>
<glyph d="M479 90q0 25 7 48.5t8 27.5q-29 -72 -66 -106t-88 -34q-54 0 -78.5 33t-24.5 88q0 74 35.5 152t91.5 128.5t111 50.5q61 0 72 -53l8 39q57 0 90 14l-84 -367q-6 -21 -6 -34q0 -14 7 -20t22 -6q42 0 98.5 42t97.5 120.5t41 180.5q0 131 -81.5 193.5t-209.5 62.5 q-120 0 -227.5 -69.5t-172 -186t-64.5 -249.5q0 -147 81.5 -217.5t218.5 -70.5q116 0 206 54l7 -13q-39 -27 -94 -43t-120 -16q-146 0 -232.5 75.5t-86.5 228.5q0 134 65 255t176 195.5t242 74.5q140 0 226 -68t86 -207q0 -107 -44.5 -190.5t-112 -130t-133.5 -46.5 q-72 0 -72 64zM451 113q39 57 64 155l26 126q-2 32 -17.5 46.5t-44.5 14.5q-42 0 -78 -45.5t-57.5 -116t-21.5 -140.5q0 -97 52 -97q38 0 77 57z" glyph-name="at" horiz-adv-x="874" unicode="@"/>
<glyph d="M636 20v-20q-40 3 -107 3q-86 0 -128 -3v20q38 2 54.5 9.5t16.5 27.5q0 17 -12 47l-61 164h-242l-41 -106q-20 -54 -20 -82q0 -31 21.5 -45t65.5 -15v-20q-57 3 -115 3q-45 0 -75 -3v20q50 12 79 87l235 606h16l244 -629q24 -62 69 -64zM391 288l-112 299l-114 -299h226z " glyph-name="A" horiz-adv-x="630" unicode="A"/>
<glyph d="M531 310.5q47 -48.5 47 -116.5q0 -57 -29 -101t-83 -68.5t-128 -24.5q-27 0 -46 1q-64 2 -126 2q-82 0 -124 -3v20q36 2 52.5 8t22.5 23t6 55v496q0 38 -6 55t-22.5 23t-52.5 8v20q42 -3 122 -3l108 1q19 1 43 1q102 0 156.5 -43t54.5 -114q0 -58 -36.5 -104t-115.5 -70 v-2q110 -15 157 -63.5zM243.5 681q-15.5 -7 -21.5 -25t-6 -54v-226h67q82 0 114.5 44.5t32.5 118.5q0 75 -33 112t-107 37q-31 0 -46.5 -7zM478 198q0 79 -42.5 120t-135.5 41h-84v-253q0 -36 6 -53t21.5 -23.5t47.5 -6.5q187 0 187 175z" glyph-name="B" horiz-adv-x="623" unicode="B"/>
<glyph d="M473 705q42 -17 82 -48q11 -9 19 -9q20 0 26 60h23q-4 -65 -4 -230h-23q-11 65 -20 93.5t-30 54.5q-30 39 -76.5 58.5t-100.5 19.5q-65 0 -113.5 -43t-75.5 -122.5t-27 -186.5q0 -109 29 -187t80.5 -118.5t116.5 -40.5q50 0 97 19t74 57q20 28 29 60t17 98h23 q0 -172 4 -240h-23q-3 32 -8.5 45.5t-15.5 13.5q-8 0 -21 -8q-45 -32 -86 -48.5t-99 -16.5q-95 0 -166.5 43t-111 124.5t-39.5 194.5q0 110 40.5 195t113 132t164.5 47q60 0 102 -17z" glyph-name="C" horiz-adv-x="688" unicode="C"/>
<glyph d="M580 619.5q88 -88.5 88 -257.5q0 -109 -43 -191t-124.5 -126.5t-194.5 -44.5l-58 1q-56 2 -82 2q-82 0 -124 -3v20q36 2 52.5 8t22.5 23t6 55v496q0 38 -6 55t-22.5 23t-52.5 8v20q35 -3 97 -3l85 1q68 2 91 2q177 0 265 -88.5zM243.5 683q-15.5 -7 -21.5 -25t-6 -54 v-500q0 -36 6 -54t21.5 -25t47.5 -7q106 0 167 38.5t85.5 112.5t24.5 189t-27 187.5t-87.5 108.5t-163.5 36q-31 0 -46.5 -7z" glyph-name="D" horiz-adv-x="723" unicode="D"/>
<glyph d="M561 0q-68 3 -229 3q-192 0 -290 -3v20q36 2 52.5 8t22.5 23t6 55v496q0 38 -6 55t-22.5 23t-52.5 8v20q98 -3 290 -3q147 0 209 3q-7 -66 -7 -118q0 -39 3 -62h-23q-7 65 -18 96.5t-37 46t-79 14.5h-83q-36 0 -52.5 -5.5t-22.5 -22.5t-6 -55v-236h66q35 0 54 16.5 t25.5 39t10.5 56.5l3 20h23q-3 -42 -3 -94v-48q0 -51 6 -142h-23q-1 7 -6 48.5t-27.5 62.5t-62.5 21h-66v-240q0 -38 6 -55t22.5 -22.5t52.5 -5.5h73q62 0 94.5 16.5t47.5 53t22 107.5h23q-3 -27 -3 -72q0 -57 7 -128z" glyph-name="E" horiz-adv-x="609" unicode="E"/>
<glyph d="M534 580q0 -50 3 -82h-23q-8 77 -20 114.5t-42 55t-92 17.5h-63q-36 0 -52.5 -5.5t-22.5 -22.5t-6 -55v-246h73q35 0 54 16.5t25.5 39t10.5 56.5l3 20h23q-3 -42 -3 -94v-48q0 -51 6 -142h-23q-1 7 -6 48.5t-27.5 62.5t-62.5 21h-73v-230q0 -38 8 -55t28 -23t65 -8v-20 q-52 3 -147 3q-86 0 -128 -3v20q36 2 52.5 8t22.5 23t6 55v496q0 38 -6 55t-22.5 23t-52.5 8v20q98 -3 290 -3q147 0 209 3q-7 -71 -7 -128z" glyph-name="F" horiz-adv-x="569" unicode="F"/>
<glyph d="M473 705.5q38 -16.5 83 -48.5q13 -10 20 -10q19 0 25 61h23q-4 -65 -4 -230h-23q-9 53 -19 87.5t-31 60.5q-29 36 -75.5 57t-97.5 21q-66 0 -116 -43t-77 -122.5t-27 -185.5q0 -180 57.5 -263.5t180.5 -83.5q60 0 104 31q18 12 23.5 23.5t5.5 31.5v96q0 42 -8 61t-28 26 t-65 9v20q52 -3 141 -3q68 0 104 3v-20q-23 -2 -33.5 -8t-14 -23t-3.5 -55v-198h-20q-1 20 -8 38.5t-19 18.5q-6 0 -12 -3t-21 -14q-35 -27 -72.5 -40.5t-83.5 -13.5q-103 0 -176.5 42.5t-112.5 122.5t-39 191q0 114 41.5 200.5t114.5 133t166 46.5q59 0 97 -16.5z" glyph-name="G" horiz-adv-x="703" unicode="G"/>
<glyph d="M662.5 680q-16.5 -6 -22.5 -23t-6 -55v-496q0 -38 6 -55t22.5 -23t52.5 -8v-20q-42 3 -128 3q-81 0 -127 -3v20q36 2 52.5 8t22.5 23t6 55v240h-325v-240q0 -38 6 -55t22.5 -23t52.5 -8v-20q-46 3 -127 3q-86 0 -128 -3v20q36 2 52.5 8t22.5 23t6 55v496q0 38 -6 55 t-22.5 23t-52.5 8v20q42 -3 128 -3q80 0 127 3v-20q-36 -2 -52.5 -8t-22.5 -23t-6 -55v-236h325v236q0 38 -6 55t-22.5 23t-52.5 8v20q46 -3 127 -3q86 0 128 3v-20q-36 -2 -52.5 -8z" glyph-name="H" horiz-adv-x="757" unicode="H"/>
<glyph d="M297 688q-36 -2 -52.5 -8t-22.5 -23t-6 -55v-496q0 -38 6 -55t22.5 -23t52.5 -8v-20q-46 3 -127 3q-86 0 -128 -3v20q36 2 52.5 8t22.5 23t6 55v496q0 38 -6 55t-22.5 23t-52.5 8v20q42 -3 128 -3q80 0 127 3v-20z" glyph-name="I" unicode="I"/>
<glyph d="M-20 -169q70 2 103.5 52t33.5 169v550q0 38 -6 55t-22.5 23t-52.5 8v20q42 -3 126 -3q82 0 129 3v-20q-36 -2 -52.5 -8t-22.5 -23t-6 -55v-366q0 -85 -3 -150.5t-14 -110.5q-18 -73 -73.5 -118t-139.5 -45v19z" glyph-name="J" horiz-adv-x="326" unicode="J"/>
<glyph d="M603.5 41.5q20.5 -14.5 50.5 -21.5v-20q-48 3 -120 3q-54 0 -103 -3v20q24 1 35 6t11 15t-10 24l-146 220q-29 44 -49 57.5t-56 15.5v-252q0 -38 6 -55t22.5 -23t52.5 -8v-20q-46 3 -127 3q-86 0 -128 -3v20q36 2 52.5 8t22.5 23t6 55v496q0 38 -6 55t-22.5 23t-52.5 8 v20q42 -3 128 -3q80 0 127 3v-20q-36 -2 -52.5 -8t-22.5 -23t-6 -55v-224q73 3 114 56l96 122q51 63 51 96q0 35 -62 36v20q57 -3 115 -3q55 0 85 3v-20q-33 -5 -62 -21.5t-56 -51.5l-163 -209l232 -325q17 -25 37.5 -39.5z" glyph-name="K" horiz-adv-x="655" unicode="K"/>
<glyph d="M297 688q-36 -2 -52.5 -8t-22.5 -23t-6 -55v-496q0 -38 6 -55t22.5 -22.5t52.5 -5.5h73q62 0 94.5 17.5t47.5 56.5t22 113h23q-3 -31 -3 -82q0 -57 7 -128q-68 3 -229 3q-192 0 -290 -3v20q36 2 52.5 8t22.5 23t6 55v496q0 38 -6 55t-22.5 23t-52.5 8v20q42 -3 128 -3 q80 0 127 3v-20z" glyph-name="L" horiz-adv-x="588" unicode="L"/>
<glyph d="M776.5 680q-16.5 -6 -22.5 -23t-6 -55v-496q0 -38 6 -55t22.5 -23t52.5 -8v-20q-46 3 -127 3q-86 0 -128 -3v20q36 2 52.5 8t22.5 23t6 55v536l-241 -647h-16l-252 649v-528q0 -39 6.5 -58t25.5 -27.5t59 -10.5v-20q-36 3 -102 3q-60 0 -93 -3v20q35 2 52 10.5t23 28 t6 57.5v486q0 38 -6 55t-22.5 23t-52.5 8v20q33 -3 93 -3q52 0 85 3l220 -579l215 576h47q81 0 127 3v-20q-36 -2 -52.5 -8z" glyph-name="M" horiz-adv-x="871" unicode="M"/>
<glyph d="M670 688q-35 -2 -52 -10.5t-23 -28t-6 -57.5v-597h-23l-420 649v-528q0 -39 6.5 -58t25.5 -27.5t59 -10.5v-20q-36 3 -102 3q-60 0 -93 -3v20q35 2 52 10.5t23 28t6 57.5v486q0 38 -6 55t-22.5 23t-52.5 8v20q33 -3 93 -3q45 0 78 3l353 -544v428q0 39 -6.5 58 t-25.5 27.5t-59 10.5v20q36 -3 102 -3q60 0 93 3v-20z" glyph-name="N" horiz-adv-x="706" unicode="N"/>
<glyph d="M537.5 679q71.5 -43 111 -124.5t39.5 -194.5q0 -110 -40.5 -195t-113 -132t-164.5 -47q-95 0 -166.5 43t-111 124.5t-39.5 194.5q0 110 40.5 195t113 132t164.5 47q95 0 166.5 -43zM254.5 659.5q-48.5 -44.5 -75 -124.5t-26.5 -183q0 -104 29.5 -183t79.5 -122t112 -43 q64 0 112.5 44.5t75 124.5t26.5 183q0 104 -29.5 183t-79.5 122t-112 43q-64 0 -112.5 -44.5z" glyph-name="O" horiz-adv-x="741" unicode="O"/>
<glyph d="M216 286v-180q0 -38 8 -55t28 -23t65 -8v-20q-52 3 -147 3q-86 0 -128 -3v20q36 2 52.5 8t22.5 23t6 55v496q0 38 -6 55t-22.5 23t-52.5 8v20q42 -3 122 -3l108 1q19 1 43 1q117 0 179 -53.5t62 -143.5q0 -55 -24.5 -105.5t-83 -84.5t-155.5 -34h-77zM243.5 681 q-15.5 -7 -21.5 -25t-6 -54v-296h67q98 0 135.5 52.5t37.5 140.5q0 97 -38.5 143t-127.5 46q-31 0 -46.5 -7z" glyph-name="P" horiz-adv-x="585" unicode="P"/>
<glyph d="M763 -29q-22 -76 -63 -114q-49 -45 -135 -45q-46 0 -90 14t-111 44q-74 32 -121 48l-24 7q-43 -15 -83 -15q-46 0 -46 20q0 21 54 21q35 0 75 -8q32 9 74 28q26 12 39 17q-85 8 -147.5 53t-97 123.5t-34.5 183.5q0 110 40.5 195t113 132t164.5 47q95 0 166.5 -43 t111 -124.5t39.5 -194.5q0 -104 -36 -185.5t-101 -130t-149 -56.5v-1q-24 -3 -41.5 -8.5t-46.5 -17.5q-36 -16 -60 -23q111 -22 188.5 -35t128.5 -13q71 0 112.5 20.5t64.5 66.5zM182.5 169q29.5 -79 79.5 -122t112 -43q64 0 112.5 44.5t75 124.5t26.5 183q0 104 -29.5 183 t-79.5 122t-112 43q-64 0 -112.5 -44.5t-75 -124.5t-26.5 -183q0 -104 29.5 -183z" glyph-name="Q" horiz-adv-x="741" unicode="Q"/>
<glyph d="M660 50q-23 -34 -46 -49t-61 -15q-41 0 -67.5 24t-39.5 84l-22 100q-12 52 -22.5 80t-31.5 45t-59 17h-95v-230q0 -38 6 -55t22.5 -23t52.5 -8v-20q-46 3 -127 3q-86 0 -128 -3v20q36 2 52.5 8t22.5 23t6 55v496q0 38 -6 55t-22.5 23t-52.5 8v20q42 -3 122 -3l108 1 q19 1 43 1q116 0 178.5 -48.5t62.5 -125.5q0 -39 -18.5 -78.5t-62 -71t-113.5 -42.5l12 -2q66 -11 96 -40t44 -92l25 -102q10 -46 21 -64t30 -18q17 0 28.5 9t26.5 29zM243.5 681q-15.5 -7 -21.5 -25t-6 -54v-246h67q99 0 136 44t37 122q0 82 -39 124t-127 42 q-31 0 -46.5 -7z" glyph-name="R" horiz-adv-x="648" unicode="R"/>
<glyph d="M325.5 709.5q25.5 -9.5 52.5 -27.5q22 -14 34 -14q9 0 14 10.5t8 33.5h23q-5 -58 -5 -204h-23q-6 81 -46.5 136.5t-117.5 55.5q-54 0 -88 -32.5t-34 -83.5q0 -38 17.5 -66t44.5 -48t77 -51l29 -18q63 -39 99.5 -68.5t58.5 -67.5t22 -89q0 -91 -60 -140.5t-152 -49.5 q-48 0 -78.5 10t-58.5 27q-22 14 -34 14q-9 0 -14 -10.5t-8 -33.5h-23q4 55 4 240h23q7 -101 50 -164t132 -63q54 0 92 33.5t38 99.5q0 56 -37.5 95t-118.5 88q-59 36 -95.5 64t-59.5 67.5t-23 92.5q0 84 54 128.5t134 44.5q44 0 69.5 -9.5z" glyph-name="S" horiz-adv-x="540" unicode="S"/>
<glyph d="M585 580q0 -50 3 -82h-23q-8 77 -20 114.5t-42 55t-92 17.5h-54v-569q0 -42 8 -61t28 -26t65 -9v-20q-52 3 -147 3q-100 0 -148 -3v20q45 2 65 9t28 26t8 61v569h-54q-62 0 -92 -17.5t-42 -55t-20 -114.5h-23q3 32 3 82q0 57 -7 128q83 -3 282 -3q198 0 281 3 q-7 -71 -7 -128z" glyph-name="T" horiz-adv-x="621" unicode="T"/>
<glyph d="M655 688q-35 -2 -52 -10.5t-23 -28t-6 -57.5v-301q0 -72 -9.5 -123.5t-31.5 -88.5q-25 -43 -73.5 -68t-109.5 -25q-110 0 -168 54q-44 41 -59 93t-15 155v314q0 38 -6 55t-22.5 23t-52.5 8v20q42 -3 128 -3q81 0 127 3v-20q-36 -2 -52.5 -8t-22.5 -23t-6 -55v-331 q0 -80 11 -133t45.5 -85t101.5 -32q106 0 149 68t43 191v312q0 54 -19.5 74t-71.5 22v20q36 -3 102 -3q60 0 93 3v-20z" glyph-name="U" horiz-adv-x="682" unicode="U"/>
<glyph d="M637 708v-20q-50 -12 -79 -87l-235 -606h-8h-8l-244 629q-24 62 -69 64v20q40 -3 107 -3q86 0 128 3v-20q-38 -2 -54.5 -9.5t-16.5 -27.5q0 -17 12 -47l181 -481l163 423q20 54 20 82q0 31 -21.5 45t-65.5 15v20q57 -3 115 -3q45 0 75 3z" glyph-name="V" horiz-adv-x="630" unicode="V"/>
<glyph d="M907 708v-20q-56 -13 -79 -87l-189 -606h-8h-8l-174 515l-159 -515h-8h-8l-212 629q-21 62 -69 64v20q41 -3 107 -3q72 0 108 3v-20q-27 -2 -38 -10t-11 -25q0 -16 11 -49l146 -446l122 387l-27 79q-20 62 -59 64v20q36 -3 97 -3q86 0 128 3v-20q-38 -2 -53 -8.5 t-15 -27.5q0 -18 10 -48l144 -445l123 387q16 49 16 81q0 33 -20 46.5t-65 14.5v20q57 -3 115 -3q45 0 75 3z" glyph-name="W" horiz-adv-x="905" unicode="W"/>
<glyph d="M592 32q13 -10 35 -11v-21q-68 4 -86 4q-33 0 -141 -4v21q39 0 55 3.5t16 12.5q0 8 -7 18l-171 262l-108 -161q-38 -57 -38 -88q0 -26 23 -36.5t66 -11.5v-20q-57 3 -135 3q-55 0 -85 -3v20q30 4 57.5 27t55.5 65l151 225l-196 300q-19 29 -32 39t-35 11v21q68 -4 86 -4 q67 0 141 4v-21q-36 0 -51.5 -5.5t-15.5 -16.5q0 -6 9 -22l156 -238l98 147q43 63 43 96q0 21 -19 30t-58 10v20q57 -3 115 -3q55 0 85 3v-20q-30 -4 -57.5 -27t-55.5 -65l-140 -209l207 -316q19 -29 32 -39z" glyph-name="X" horiz-adv-x="634" unicode="X"/>
<glyph d="M588 708v-20q-20 -5 -39 -25.5t-41 -63.5l-157 -311v-182q0 -38 6 -55t22.5 -23t52.5 -8v-20q-46 3 -127 3q-86 0 -128 -3v20q36 2 52.5 8t22.5 23t6 55v150l-203 375q-18 33 -31.5 44.5t-26.5 11.5v21q39 -3 88 -3q97 0 140 3v-21q-70 0 -70 -38q0 -15 10 -35l166 -319 l128 254q27 53 27 86q0 28 -22 40t-66 13v20q57 -3 115 -3q45 0 75 3z" glyph-name="Y" horiz-adv-x="591" unicode="Y"/>
<glyph d="M550 688l-399 -665h196q62 0 94.5 17.5t47.5 56.5t22 113h23q-3 -31 -3 -82q0 -57 7 -128q-74 3 -249 3q-171 0 -247 -3v20l402 665h-195q-62 0 -94.5 -17.5t-47.5 -56.5t-22 -113h-23q3 32 3 82q0 57 -7 128q74 -3 249 -3q170 0 243 3v-20z" glyph-name="Z" horiz-adv-x="594" unicode="Z"/>
<glyph d="M270 643h-81v-678h81v-19h-171v716h171v-19z" glyph-name="bracketleft" horiz-adv-x="309" unicode="["/>
<glyph d="M305 -14h33l-272 736h-33z" glyph-name="backslash" horiz-adv-x="372" unicode="\"/>
<glyph d="M39 643h81v-678h-81v-19h171v716h-171v-19z" glyph-name="bracketright" horiz-adv-x="309" unicode="]"/>
<glyph d="M335.5 512.5q49.5 -51.5 113.5 -82.5l-8 -14q-60 22 -117 54.5t-91 65.5q-28 -33 -74 -65.5t-94 -54.5l-8 14q64 31 113.5 82.5t73.5 109.5h18q24 -58 73.5 -109.5z" glyph-name="asciicircum" horiz-adv-x="506" unicode="^"/>
<glyph d="M530 -118h-453v40h453v-40z" glyph-name="underscore" horiz-adv-x="591" unicode="_"/>
<glyph d="M178 811q7 -6 36.5 -32.5t70.5 -57.5l-7 -13q-54 27 -129 57q-51 19 -72 32q-27 17 -27 39q0 10 6 19q12 17 31 17q14 0 30 -10q24 -16 61 -51z" glyph-name="grave" horiz-adv-x="283" unicode="`"/>
<glyph d="M619 20v-20q-40 3 -107 3q-86 0 -128 -3v20q37 2 54.5 10t17.5 27q0 16 -14 47l-51 114h-243l-34 -75q-17 -39 -17 -64q0 -26 18.5 -40.5t59.5 -18.5v-20q-30 3 -91 3t-87 -3v20q27 7 46 30.5t36 62.5l221 500h16l234 -529q27 -62 69 -64zM383 238l-113 254l-114 -254 h227z" glyph-name="a" horiz-adv-x="616" unicode="a"/>
<glyph d="M513 267.5q45 -43.5 45 -103.5q0 -48 -27.5 -85t-79.5 -58t-123 -21q-25 0 -43 1q-62 2 -119 2q-82 0 -124 -3v20q36 2 52.5 8t22.5 23t6 55v396q0 38 -6 55t-22.5 23t-52.5 8v20q42 -3 122 -3l102 1q17 1 39 1q97 0 149 -37.5t52 -99.5q0 -48 -34 -86t-108 -58v-2 q104 -13 149 -56.5zM239.5 581q-13.5 -7 -18.5 -25t-5 -54v-176h57q77 0 107 35t30 98q0 65 -31 97t-99 32q-27 0 -40.5 -7zM415 59.5q43 36.5 43 108.5q0 70 -40 105.5t-128 35.5h-74v-203q0 -36 5 -53t18.5 -23.5t41.5 -6.5q91 0 134 36.5z" glyph-name="b" horiz-adv-x="603" unicode="b"/>
<glyph d="M435 605.5q34 -16.5 71 -48.5q11 -9 19 -9q20 0 26 60h23q-4 -60 -4 -210h-23q-10 52 -20 77t-30 51q-28 37 -67 56.5t-82 19.5q-59 0 -102.5 -36t-67.5 -104t-24 -160q0 -94 26.5 -160.5t72 -101t102.5 -34.5q44 0 84.5 19.5t68.5 56.5q19 26 28.5 55t17.5 83h23 q0 -157 4 -220h-23q-3 31 -9 45.5t-16 14.5q-8 0 -20 -9q-38 -32 -74 -48.5t-88 -16.5q-89 0 -156 36.5t-104 107t-37 168.5q0 96 38 169.5t106 114t154 40.5q49 0 83 -16.5z" glyph-name="c" horiz-adv-x="643" unicode="c"/>
<glyph d="M549.5 532.5q78.5 -75.5 78.5 -220.5q0 -94 -38 -164.5t-110.5 -109t-173.5 -38.5l-58 1q-56 2 -82 2q-82 0 -124 -3v20q36 2 52.5 8t22.5 23t6 55v396q0 38 -6 55t-22.5 23t-52.5 8v20q35 -3 97 -3l85 1q68 2 91 2q156 0 234.5 -75.5zM243.5 583q-15.5 -7 -21.5 -25 t-6 -54v-400q0 -36 6 -54t21.5 -25t47.5 -7q91 0 143 32.5t73 95.5t21 162q0 146 -54 214t-184 68q-31 0 -46.5 -7z" glyph-name="d" horiz-adv-x="683" unicode="d"/>
<glyph d="M541 0q-65 3 -219 3q-185 0 -280 -3v20q36 2 52.5 8t22.5 23t6 55v396q0 38 -6 55t-22.5 23t-52.5 8v20q95 -3 280 -3q140 0 199 3q-7 -60 -7 -108q0 -39 3 -62h-23q-7 82 -34.5 114.5t-89.5 32.5h-73q-36 0 -52.5 -5.5t-22.5 -22.5t-6 -55v-186h83q32 0 49 16.5t23 36 t11 49.5h23q-3 -34 -3 -74v-38q0 -39 6 -112h-23q-6 48 -23 75t-63 27h-83v-190q0 -38 6 -55t22.5 -22.5t52.5 -5.5h73q50 0 79 16t44 51.5t21 99.5h23q-3 -27 -3 -72q0 -52 7 -118z" glyph-name="e" horiz-adv-x="595" unicode="e"/>
<glyph d="M514 500q0 -39 3 -62h-23q-7 82 -34.5 114.5t-89.5 32.5h-73q-36 0 -52.5 -5.5t-22.5 -22.5t-6 -55v-186h83q32 0 49 16.5t23 36t11 49.5h23q-3 -34 -3 -74v-38q0 -39 6 -112h-23q-6 48 -23 75t-63 27h-83v-190q0 -38 8 -55t28 -23t65 -8v-20q-52 3 -147 3q-86 0 -128 -3 v20q36 2 52.5 8t22.5 23t6 55v396q0 38 -6 55t-22.5 23t-52.5 8v20q95 -3 280 -3q140 0 199 3q-7 -60 -7 -108z" glyph-name="f" horiz-adv-x="551" unicode="f"/>
<glyph d="M442.5 606q34.5 -16 73.5 -49q13 -10 20 -10q19 0 25 61h23q-4 -57 -4 -200h-23q-8 38 -19.5 67t-30.5 51q-33 38 -69 58t-88 20q-60 0 -104 -36.5t-68 -104.5t-24 -160q0 -153 56 -225t167 -72q43 0 77 8q18 4 24.5 13t6.5 25v86q0 42 -8 61t-28 26t-65 9v20 q54 -3 141 -3q68 0 104 3v-20q-23 -2 -33 -8t-14 -23t-4 -55v-148h-20q-2 24 -15 24q-6 0 -22 -7t-22 -9q-64 -22 -131 -22q-150 0 -232 80.5t-82 225.5q0 100 38 174.5t105.5 115t154.5 40.5q56 0 90.5 -16z" glyph-name="g" horiz-adv-x="661" unicode="g"/>
<glyph d="M695 588q-36 -2 -52.5 -8t-22.5 -23t-6 -55v-396q0 -38 6 -55t22.5 -23t52.5 -8v-20q-42 3 -128 3q-80 0 -127 -3v20q36 2 52.5 8t22.5 23t6 55v199h-305v-199q0 -38 6 -55t22.5 -23t52.5 -8v-20q-46 3 -127 3q-86 0 -128 -3v20q36 2 52.5 8t22.5 23t6 55v396q0 38 -6 55 t-22.5 23t-52.5 8v20q42 -3 128 -3q80 0 127 3v-20q-36 -2 -52.5 -8t-22.5 -23t-6 -55v-177h305v177q0 38 -6 55t-22.5 23t-52.5 8v20q46 -3 127 -3q86 0 128 3v-20z" glyph-name="h" horiz-adv-x="737" unicode="h"/>
<glyph d="M297 588q-36 -2 -52.5 -8t-22.5 -23t-6 -55v-396q0 -38 6 -55t22.5 -23t52.5 -8v-20q-46 3 -127 3q-86 0 -128 -3v20q36 2 52.5 8t22.5 23t6 55v396q0 38 -6 55t-22.5 23t-52.5 8v20q42 -3 128 -3q80 0 127 3v-20z" glyph-name="i" unicode="i"/>
<glyph d="M289 588q-36 -2 -52.5 -8t-22.5 -23t-6 -55v-266q0 -185 -17 -261q-17 -73 -66 -117t-125 -44q-42 0 -67 16q-27 17 -27 48q0 20 14 34t34 14t34.5 -14t14.5 -34q0 -13 -7.5 -25t-18.5 -19q12 -2 27 -2q68 0 94 84q10 32 13.5 79t3.5 150v357q0 38 -6 55t-22.5 23 t-52.5 8v20q42 -3 128 -3q80 0 127 3v-20z" glyph-name="j" horiz-adv-x="322" unicode="j"/>
<glyph d="M644 20v-20q-48 3 -112 3q-68 0 -127 -3v20q32 1 46 5.5t14 13.5q0 10 -13 26l-133 185q-20 28 -42 40.5t-61 13.5v-198q0 -38 6 -55t22.5 -23t52.5 -8v-20q-46 3 -127 3q-86 0 -128 -3v20q36 2 52.5 8t22.5 23t6 55v396q0 38 -6 55t-22.5 23t-52.5 8v20q42 -3 128 -3 q80 0 127 3v-20q-36 -2 -52.5 -8t-22.5 -23t-6 -55v-181q35 2 66 16.5t68 50.5l119 122q26 24 26 45q0 15 -15 24t-44 10v19q54 -3 118 -3q43 0 71 3v-19q-36 -7 -60 -21t-62 -51l-157 -157l220 -279q35 -44 78 -61z" glyph-name="k" horiz-adv-x="654" unicode="k"/>
<glyph d="M297 588q-36 -2 -52.5 -8t-22.5 -23t-6 -55v-396q0 -38 6 -55t22.5 -22.5t52.5 -5.5h63q69 0 107.5 41t46.5 136h23q-3 -31 -3 -82q0 -52 7 -118q-65 3 -219 3q-185 0 -280 -3v20q36 2 52.5 8t22.5 23t6 55v396q0 38 -6 55t-22.5 23t-52.5 8v20q42 -3 128 -3q80 0 127 3 v-20z" glyph-name="l" horiz-adv-x="573" unicode="l"/>
<glyph d="M756.5 580q-16.5 -6 -22.5 -23t-6 -55v-396q0 -38 6 -55t22.5 -23t52.5 -8v-20q-46 3 -127 3q-86 0 -128 -3v20q36 2 52.5 8t22.5 23t6 55v439l-241 -550h-16l-232 549v-428q0 -39 6.5 -58t25.5 -27.5t59 -10.5v-20q-36 3 -102 3q-60 0 -93 -3v20q35 2 52 10.5t23 28 t6 57.5v386q0 38 -6 55t-22.5 23t-52.5 8v20q33 -3 93 -3q48 0 85 3l201 -487l214 484h47q81 0 127 3v-20q-36 -2 -52.5 -8z" glyph-name="m" horiz-adv-x="851" unicode="m"/>
<glyph d="M650 588q-35 -2 -52 -10.5t-23 -28t-6 -57.5v-497h-23l-400 554v-433q0 -39 6.5 -58t25.5 -27.5t59 -10.5v-20q-36 3 -102 3q-60 0 -93 -3v20q35 2 52 10.5t23 28t6 57.5v386q0 38 -6 55t-22.5 23t-52.5 8v20q33 -3 93 -3q54 0 92 3l319 -444v328q0 39 -6.5 58 t-25.5 27.5t-59 10.5v20q36 -3 102 -3q60 0 93 3v-20z" glyph-name="n" horiz-adv-x="685" unicode="n"/>
<glyph d="M522.5 585.5q69.5 -36.5 107.5 -107t38 -168.5q0 -96 -39.5 -169.5t-109.5 -114t-159 -40.5q-92 0 -161.5 36.5t-107.5 107t-38 168.5q0 96 39.5 169.5t109.5 114t159 40.5q92 0 161.5 -36.5zM249.5 565.5q-46.5 -38.5 -71.5 -107t-25 -156.5q0 -89 28 -157t76 -104.5 t107 -36.5q61 0 107.5 38.5t71.5 107t25 156.5q0 89 -28 157t-76 104.5t-107 36.5q-61 0 -107.5 -38.5z" glyph-name="o" horiz-adv-x="721" unicode="o"/>
<glyph d="M216 246v-140q0 -38 6 -55t22.5 -23t52.5 -8v-20q-46 3 -127 3q-86 0 -128 -3v20q36 2 52.5 8t22.5 23t6 55v396q0 38 -6 55t-22.5 23t-52.5 8v20q42 -3 122 -3l108 1q19 1 43 1q107 0 164 -45.5t57 -121.5q0 -48 -23.5 -92t-80 -73t-149.5 -29h-67zM243.5 581 q-15.5 -7 -21.5 -25t-6 -54v-236h57q92 0 127.5 44t35.5 119q0 81 -34 120t-112 39q-31 0 -46.5 -7z" glyph-name="p" horiz-adv-x="566" unicode="p"/>
<glyph d="M795 -29q-21 -79 -72 -119t-136 -40q-53 0 -106.5 16.5t-136.5 49.5q-94 37 -133 47q-43 -15 -83 -15q-46 0 -46 20q0 21 54 21q35 0 75 -8q32 9 74 28q26 12 39 17q-124 11 -197 92t-73 218q0 96 39.5 169.5t109.5 114t159 40.5q92 0 161.5 -36.5t107.5 -107t38 -168.5 q0 -90 -35 -160.5t-97 -113t-143 -49.5q-24 -3 -41.5 -8.5t-46.5 -17.5q-36 -16 -60 -23q119 -22 176 -31q105 -17 161 -17q79 0 125 21t72 66zM182 145q28 -68 76 -104.5t107 -36.5q61 0 107.5 38.5t71.5 107t25 156.5q0 89 -28 157t-76 104.5t-107 36.5 q-61 0 -107.5 -38.5t-71.5 -107t-25 -156.5q0 -89 28 -157z" glyph-name="q" horiz-adv-x="722" unicode="q"/>
<glyph d="M632 42q-19 -27 -43.5 -41.5t-58.5 -14.5q-84 0 -103 76l-31 125q-14 56 -41.5 75t-81.5 19h-57v-175q0 -38 6 -55t22.5 -23t52.5 -8v-20q-46 3 -127 3q-86 0 -128 -3v20q36 2 52.5 8t22.5 23t6 55v396q0 38 -6 55t-22.5 23t-52.5 8v20q42 -3 122 -3l102 1q17 1 39 1 q112 0 171.5 -42t59.5 -109q0 -58 -46.5 -106t-152.5 -61q20 -2 34 -4q53 -8 84 -32t44 -77l22 -91q8 -35 17.5 -49.5t24.5 -14.5q25 0 55 34zM239.5 581q-13.5 -7 -18.5 -25t-5 -54v-201h67q88 0 120.5 37.5t32.5 106.5q0 72 -36.5 107.5t-119.5 35.5q-27 0 -40.5 -7z" glyph-name="r" horiz-adv-x="624" unicode="r"/>
<glyph d="M325.5 612.5q25.5 -9.5 52.5 -27.5q22 -14 34 -14q9 0 14 10.5t8 33.5h23q-5 -52 -5 -184h-23q-6 72 -46.5 122t-117.5 50q-53 0 -87.5 -28t-34.5 -71q0 -31 15.5 -54t40 -39.5t69.5 -40.5l33 -18q62 -33 99.5 -59t60.5 -59.5t23 -77.5q0 -81 -58.5 -125.5t-146.5 -44.5 q-48 0 -78.5 10t-58.5 27q-22 14 -34 14q-9 0 -14 -10.5t-8 -33.5h-23q4 49 4 220h23q7 -93 50 -150t132 -57q50 0 86.5 28.5t36.5 84.5q0 33 -19 58.5t-51 45.5t-89 50q-82 42 -125 84t-43 109q0 74 54.5 115t133.5 41q44 0 69.5 -9.5z" glyph-name="s" horiz-adv-x="535" unicode="s"/>
<glyph d="M590 490q0 -52 3 -82h-23q-6 70 -19 107t-42 53.5t-83 16.5h-64v-469q0 -42 8 -61t28 -26t65 -9v-20q-52 3 -147 3q-100 0 -148 -3v20q45 2 65 9t28 26t8 61v469h-64q-54 0 -83 -16.5t-42 -53.5t-19 -107h-23q3 32 3 82q0 52 -7 118q83 -3 282 -3q198 0 281 3 q-7 -66 -7 -118z" glyph-name="t" horiz-adv-x="631" unicode="t"/>
<glyph d="M633 588q-35 -2 -52 -10.5t-23 -28t-6 -57.5v-221q0 -69 -9.5 -117.5t-31.5 -84.5q-24 -38 -69.5 -60.5t-103.5 -22.5q-103 0 -158 44q-44 39 -59 89t-15 149v234q0 38 -6 55t-22.5 23t-52.5 8v20q42 -3 128 -3q80 0 127 3v-20q-36 -2 -52.5 -8t-22.5 -23t-6 -55v-251 q0 -74 10 -122.5t42.5 -78t95.5 -29.5q100 0 141 63t41 176v232q0 54 -19.5 74t-71.5 22v20q36 -3 102 -3q60 0 93 3v-20z" glyph-name="u" horiz-adv-x="658" unicode="u"/>
<glyph d="M619 608v-20q-28 -7 -45 -27.5t-39 -70.5l-219 -495h-16l-234 529q-27 62 -69 64v20q41 -3 107 -3q86 0 128 3v-20q-37 -2 -54.5 -10t-17.5 -27q0 -16 14 -47l172 -388l149 332q25 54 25 85q0 28 -19.5 40.5t-59.5 14.5v20q30 -3 111 -3q42 0 67 3z" glyph-name="v" horiz-adv-x="616" unicode="v"/>
<glyph d="M869 608v-20q-27 -6 -46 -28.5t-35 -70.5l-172 -494h-16l-154 381l-163 -381h-16l-204 529q-24 62 -69 64v20q40 -3 107 -3q86 0 128 3v-20q-38 -2 -53.5 -9.5t-15.5 -26.5q0 -15 11 -48l142 -387l121 287l-48 120q-26 62 -69 64v20q41 -3 107 -3q86 0 128 3v-20 q-38 -2 -54 -9.5t-16 -27.5q0 -17 12 -47l145 -380l107 313q19 56 19 88q0 33 -18.5 47t-55.5 16v20q30 -3 91 -3q63 0 87 3z" glyph-name="w" horiz-adv-x="872" unicode="w"/>
<glyph d="M572 34q13 -10 30 -13v-21q-45 3 -81 3q-60 0 -141 -3v21q33 0 48 4t15 13q0 6 -8 17l-156 214l-126 -165q-17 -23 -17 -44q0 -18 15 -29t45 -11v-20q-57 3 -113 3q-11 0 -37 -2l-30 -1v20q21 2 48.5 21.5t46.5 45.5l154 201l-181 249q-22 30 -33 39.5t-29 10.5v21 q45 -3 81 -3q60 0 141 3v-21q-33 0 -48 -4t-15 -13q0 -6 8 -17l146 -200l117 152q17 22 17 42q0 18 -16 29.5t-47 11.5v20q57 -3 113 -3q43 0 67 3v-20q-22 -2 -47.5 -20t-48.5 -48l-143 -185l193 -264q19 -27 32 -37z" glyph-name="x" horiz-adv-x="614" unicode="x"/>
<glyph d="M563 608v-21q-17 -4 -31 -19t-33 -49l-157 -281v-132q0 -38 6 -55t22.5 -23t52.5 -8v-20q-46 3 -127 3q-86 0 -128 -3v20q36 2 52.5 8t22.5 23t6 55v104l-193 321q-19 32 -31.5 42.5t-26.5 13.5v21q64 -4 88 -4q69 0 140 4v-21q-34 0 -52 -5.5t-18 -24.5q0 -17 17 -47 l151 -252l124 218q22 40 22 64q0 42 -69 47v21q37 -4 85 -4q57 0 77 4z" glyph-name="y" horiz-adv-x="573" unicode="y"/>
<glyph d="M516 588l-353 -565h220q52 0 79 37.5t35 129.5h23q-3 -31 -3 -82q0 -48 7 -108q-71 3 -239 3q-160 0 -233 -3v20l353 565h-210q-52 0 -79 -37.5t-35 -129.5h-23q3 32 3 82q0 48 -7 108q71 -3 239 -3q153 0 223 3v-20z" glyph-name="z" horiz-adv-x="575" unicode="z"/>
<glyph d="M283 647q-35 -1 -51 -11.5t-22.5 -40.5t-6.5 -94q0 -68 -19 -108t-49.5 -58.5t-74.5 -28.5q44 -10 74.5 -28.5t49.5 -58.5t19 -108q0 -65 6.5 -96t23 -42t50.5 -12v-19q-64 0 -101 16.5t-53 53t-16 99.5q0 76 -6.5 114.5t-22 54t-47.5 17.5h-5v18h5q32 2 47.5 17.5t22 54 t6.5 114.5q0 62 16 97.5t53 51.5t101 16v-19z" glyph-name="braceleft" horiz-adv-x="317" unicode="{"/>
<glyph d="M131 -195h-40v1053h40v-1053z" glyph-name="bar" horiz-adv-x="222" unicode="|"/>
<glyph d="M34 647q35 -1 51 -11.5t22.5 -40.5t6.5 -94q0 -68 19 -108t49.5 -58.5t74.5 -28.5q-44 -10 -74.5 -28.5t-49.5 -58.5t-19 -108q0 -65 -6.5 -96t-23 -42t-50.5 -12v-19q64 0 101 16.5t53 53t16 99.5q0 76 6.5 114.5t22 54t47.5 17.5h5v18h-5q-32 2 -47.5 17.5t-22 54 t-6.5 114.5q0 62 -16 97.5t-53 51.5t-101 16v-19z" glyph-name="braceright" horiz-adv-x="317" unicode="}"/>
<glyph d="M274.5 365.5q28.5 -9.5 69.5 -29.5q39 -19 66 -28.5t57 -9.5q66 0 90 58l17 -5q-6 -48 -46 -77t-95 -29q-33 0 -61.5 9.5t-69.5 29.5q-39 19 -66 28.5t-57 9.5q-66 0 -90 -58l-17 5q6 48 46 77t95 29q33 0 61.5 -9.5z" glyph-name="asciitilde" horiz-adv-x="646" unicode="~"/>
<glyph glyph-name="uni00A0" horiz-adv-x="249" unicode=" "/>
<glyph d="M186 603q19 -19 19 -45t-19 -45t-45 -19t-45 19t-19 45t19 45t45 19t45 -19zM173 204q15 -126 15 -162q0 -29 -12.5 -42.5t-33.5 -13.5q-20 0 -33 14t-13 42q0 36 15 162q17 136 22 208h18q5 -72 22 -208z" glyph-name="exclamdown" horiz-adv-x="283" unicode="¡"/>
<glyph d="M480 50h-23q-6 40 -27 40q-9 0 -18 -5q-31 -18 -58.5 -28t-66.5 -11v-148h-20v148q-67 3 -120 33.5t-83.5 86t-30.5 132.5q0 75 31 133.5t84.5 92.5t118.5 38v148h20v-148q37 -1 63.5 -11t54.5 -27q9 -6 17 -6q22 0 28 40h23q-4 -52 -4 -180h-23q-10 49 -20 71.5 t-30 46.5q-20 23 -49 35.5t-60 12.5v-480h7q32 0 62.5 12t50.5 36q20 22 29 49t17 79h23q0 -135 4 -190zM170.5 140q37.5 -61 96.5 -73v476q-62 -10 -98 -73.5t-36 -167.5q0 -101 37.5 -162z" glyph-name="cent" horiz-adv-x="539" unicode="¢"/>
<glyph d="M523.5 164.5q37.5 -30.5 37.5 -77.5q0 -41 -29 -71t-80 -30q-31 0 -58 11t-64 32q-5 3 -27 15t-43 18q-28 8 -49 8t-46 -8.5t-45 -23.5q-19 -26 -36 -39t-37 -13q-11 0 -11 8q0 11 21 27t60 31q13 22 16.5 49t3.5 93v103h-77v20h77v80h-77v20h77q2 89 52 147t160 58 q64 0 102 -28q15 -11 23.5 -25t8.5 -29q0 -21 -14 -35t-33 -14q-18 0 -32 13t-14 32q0 16 8.5 28.5t24.5 18.5q-2 10 -24 17t-48 7q-55 0 -81.5 -24.5t-33 -62t-6.5 -97.5v-6h145v-20h-145v-80h145v-20h-145v-44q0 -44 -9 -74.5t-28.5 -56.5t-56.5 -62q28 19 55.5 28.5 t59.5 9.5q34 0 93 -17q31 -9 54 -13.5t48 -4.5q34 0 51 13.5t17 33.5q0 30 -23 49.5t-62 26.5l4 16q53 -7 90.5 -37.5z" glyph-name="sterling" horiz-adv-x="592" unicode="£"/>
<glyph d="M459 480l-45 -45q42 -53 42 -119q0 -67 -42 -119l44 -43l-28 -29l-44 44q-53 -42 -119 -42q-69 0 -119 41l-43 -43l-29 29l43 43q-42 52 -42 119t43 120l-44 44l28 28l44 -44q24 20 55 31t64 11q66 0 119 -43l45 45zM192.5 448q-34.5 -21 -54.5 -56t-20 -76t20.5 -76 t54.5 -55.5t74 -20.5t74 20.5t54 55.5t20 76q0 40 -20 75.5t-54 56.5t-74 21t-74.5 -21z" glyph-name="currency" horiz-adv-x="534" unicode="¤"/>
<glyph d="M592 608v-21q-17 -4 -31 -19t-33 -49l-152 -271h146v-20h-151v-80h151v-20h-151v-22q0 -38 6 -55t22.5 -23t52.5 -8v-20q-46 3 -127 3q-86 0 -128 -3v20q36 2 52.5 8t22.5 23t6 55v22h-151v20h151v62l-11 18h-140v20h128l-170 283q-19 32 -31.5 42.5t-26.5 13.5v21 q64 -4 88 -4q69 0 140 4v-21q-34 0 -52 -5.5t-18 -24.5q0 -17 17 -47l151 -252l124 218q22 40 22 64q0 42 -69 47v21q37 -4 85 -4q57 0 77 4z" glyph-name="yen" horiz-adv-x="624" unicode="¥"/>
<glyph d="M132 384h-40v474h40v-474zM132 -195h-40v521h40v-521z" glyph-name="brokenbar" horiz-adv-x="224" unicode="¦"/>
<glyph d="M469.5 185.5q-22.5 -30.5 -67.5 -52.5q26 -24 35 -45t9 -50q0 -37 -23 -67t-65.5 -48t-98.5 -18q-68 0 -116 20q-58 24 -58 68q0 22 14 37.5t38 15.5q23 0 38 -14t15 -36q0 -19 -10.5 -31.5t-27.5 -16.5q12 -10 42 -17t58 -7q61 0 91.5 23t30.5 63q0 31 -16.5 53 t-62.5 57l-156 113q-58 44 -78 72t-20 67q0 31 22.5 61.5t67.5 52.5q-26 24 -35 45t-9 50q0 37 23 67t65.5 48t98.5 18q68 0 116 -20q58 -24 58 -68q0 -22 -14 -37.5t-38 -15.5q-23 0 -38 14t-15 36q0 19 10.5 31.5t27.5 16.5q-12 10 -42 17t-58 7q-61 0 -91.5 -23 t-30.5 -63q0 -31 16.5 -54t62.5 -56l156 -113q58 -43 78 -71t20 -68q0 -31 -22.5 -61.5zM426.5 177.5q10.5 17.5 10.5 40.5q0 25 -15.5 44.5t-58.5 50.5l-166 120q-33 24 -54 42q-26 -16 -36.5 -33.5t-10.5 -40.5q0 -25 15.5 -44.5t58.5 -50.5l166 -120q33 -24 54 -42 q26 16 36.5 33.5z" glyph-name="section" horiz-adv-x="533" unicode="§"/>
<glyph d="M142.5 812.5q17.5 -17.5 17.5 -40.5q0 -24 -17.5 -41t-40.5 -17q-24 0 -41 17t-17 41q0 23 17 40.5t41 17.5q23 0 40.5 -17.5zM354.5 812.5q17.5 -17.5 17.5 -40.5q0 -24 -17.5 -41t-40.5 -17q-24 0 -41 17t-17 41q0 23 17 40.5t41 17.5q23 0 40.5 -17.5z" glyph-name="dieresis" horiz-adv-x="428" unicode="¨"/>
<glyph d="M646.5 728.5q91.5 -53.5 145 -145t53.5 -199.5t-53.5 -199.5t-145 -145t-199.5 -53.5t-199.5 53.5t-145 145t-53.5 199.5t53.5 199.5t145 145t199.5 53.5t199.5 -53.5zM267.5 700.5q-82.5 -49.5 -130.5 -133.5t-48 -183t48 -183t130.5 -133.5t179.5 -49.5t179.5 49.5 t130.5 133.5t48 183t-48 183t-130.5 133.5t-179.5 49.5t-179.5 -49.5zM529.5 647q31.5 -9 54.5 -26q42 -29 42 -74q0 -26 -15 -41t-38 -15t-39 14.5t-16 39.5q0 21 11.5 34t30.5 17q-10 18 -35.5 30t-54.5 12q-50 0 -86 -39q-57 -62 -57 -209q0 -121 40 -177.5t103 -56.5 q44 0 82.5 25t63.5 78l19 -7q-17 -57 -63.5 -98t-119.5 -41q-63 0 -113.5 32t-79.5 92t-29 141t29.5 144.5t82.5 98.5t122 35q34 0 65.5 -9z" glyph-name="copyright" horiz-adv-x="894" unicode="©"/>
<glyph d="M318 692q29 -30 29 -97v-163q0 -21 5.5 -29t19.5 -8q24 0 41 17l11 -15q-39 -37 -90 -37q-36 0 -50.5 12t-16.5 35q-48 -47 -117 -47q-37 0 -65 20t-28 58q0 39 31.5 61.5t98.5 47.5q39 15 59.5 27t20.5 29v18q0 44 -17 63t-51 19q-18 0 -38 -5t-36 -16q14 -4 24 -16.5 t10 -30.5q0 -19 -13 -31.5t-31 -12.5q-22 0 -35 12.5t-13 32.5q0 40 48 63t110 23q64 0 93 -30zM251.5 556q-11.5 -8 -40.5 -21q-38 -17 -55 -35t-17 -44q0 -27 15 -44t40 -17q38 0 73 32v145q-4 -8 -15.5 -16z" glyph-name="ordfeminine" horiz-adv-x="463" unicode="ª"/>
<glyph d="M284 573q-35 -93 -75.5 -153t-96.5 -108q54 -47 95 -110t77 -158l-17 -7q-43 95 -98 161.5t-132 109.5v1q77 43 132 109.5t98 161.5zM459 573q-35 -93 -75.5 -153t-96.5 -108q54 -47 95 -110t77 -158l-17 -7q-43 95 -98 161.5t-132 109.5v1q77 43 132 109.5t98 161.5z " glyph-name="guillemotleft" horiz-adv-x="524" unicode="«"/>
<glyph d="M583 165h-36v175h-465v30h501v-205z" glyph-name="logicalnot" horiz-adv-x="656" unicode="¬"/>
<glyph glyph-name="uni00AD" horiz-adv-x="499" unicode="­"/>
<glyph d="M479 744.5q64 -37.5 101.5 -101.5t37.5 -140t-37.5 -140t-101.5 -101.5t-140 -37.5t-140 37.5t-101.5 101.5t-37.5 140t37.5 140t101.5 101.5t140 37.5t140 -37.5zM458.5 289.5q54.5 33.5 86 90t31.5 123.5t-31.5 123.5t-86 90t-119.5 33.5t-119.5 -33.5t-86 -90 t-31.5 -123.5t31.5 -123.5t86 -90t119.5 -33.5t119.5 33.5zM488 372l10 -7q-6 -12 -16.5 -16.5t-27.5 -4.5q-25 0 -37.5 9.5t-17.5 31.5l-17 74q-4 20 -11 29t-24 12.5t-53 4.5v-101q0 -23 4 -29t19 -8v-15l-51 1l-52 -1v15q15 2 19 8t4 29v219q0 23 -4 29.5t-19 8.5v15 q12 -1 48 -1l86 1q57 0 86.5 -20.5t29.5 -58.5q0 -68 -98 -85q40 -4 57 -17.5t23 -40.5l12 -57q1 -4 3 -14t5.5 -14.5t9.5 -4.5q8 0 12 8zM301 654.5q-7 -6.5 -7 -26.5v-107h24q49 0 66.5 17t17.5 49q0 38 -16 56t-54 18q-24 0 -31 -6.5z" glyph-name="registered" horiz-adv-x="678" unicode="®"/>
<glyph d="M402 747h-352v25h352v-25z" glyph-name="macron" horiz-adv-x="412" unicode="¯"/>
<glyph d="M252.5 787q35.5 -33 35.5 -87t-35.5 -87.5t-86.5 -33.5q-50 0 -85.5 33.5t-35.5 87.5t35.5 87t85.5 33q51 0 86.5 -33zM99.5 775q-29.5 -28 -29.5 -76q0 -49 29 -76t67 -27t67.5 27t29.5 76q0 48 -30 76t-67 28t-66.5 -28z" glyph-name="degree" horiz-adv-x="333" unicode="°"/>
<glyph d="M554 0h-501v30h501v-30zM312 370h232v-30h-232v-235h-36v235h-233v30h233v236h36v-236z" glyph-name="plusminus" horiz-adv-x="597" unicode="±"/>
<glyph d="M246.5 736q27.5 -19 27.5 -56q0 -38 -26 -67.5t-76 -67.5q-4 -3 -25 -19t-35 -32h132q22 0 30.5 7.5t16.5 26.5l17 -3q-13 -52 -15 -90q-12 3 -38 3h-220v20q17 14 40 31q44 34 70 57t46 54.5t20 66.5q0 54 -65 54q-61 0 -95 -54l-15 8q19 34 53.5 57t84.5 23 q45 0 72.5 -19z" glyph-name="uni00B2" horiz-adv-x="338" unicode="²"/>
<glyph d="M241.5 737q27.5 -19 27.5 -54q0 -33 -25.5 -57.5t-67.5 -36.5q49 -1 82.5 -24.5t33.5 -65.5q0 -44 -38.5 -78.5t-99 -53.5t-122.5 -19v17q51 1 97 19.5t74 49t28 65.5q0 34 -20 55.5t-53 23.5q-5 -3 -16.5 -8.5t-19.5 -5.5q-16 0 -16 12q0 10 11.5 12.5t32.5 1.5 q30 13 43 33.5t13 40.5q0 26 -18.5 42t-49.5 16q-30 0 -54.5 -13.5t-40.5 -40.5l-15 8q19 35 54 57.5t86 22.5q46 0 73.5 -19z" glyph-name="uni00B3" horiz-adv-x="324" unicode="³"/>
<glyph d="M320 872q19 0 31 -17q6 -9 6 -19q0 -22 -27 -39q-21 -13 -72 -32q-75 -30 -129 -57l-7 13q41 31 70.5 57.5t36.5 32.5q37 35 61 51q16 10 30 10z" glyph-name="acute" horiz-adv-x="283" unicode="´"/>
<glyph d="M472 607l70 -1q40 0 60 2v-19q-46 -2 -61.5 -17.5t-15.5 -50.5v-596q0 -38 6 -55t22.5 -23t52.5 -8v-20q-46 3 -127 3q-100 0 -148 -3v20q42 2 63.5 11t29.5 28.5t8 56.5v65q-209 0 -304 83.5t-95 226.5q0 87 42.5 155t123.5 106t192 38q31 0 81 -2zM422.5 519.5 q-7.5 -36.5 -13.5 -93.5t-7 -120q-104 0 -192 -5.5t-88 -9.5t87.5 -9t192.5 -5q1 -64 7 -121t13.5 -92.5t10.5 -35.5v528q-3 0 -10.5 -36.5z" glyph-name="paragraph" horiz-adv-x="643" unicode="¶"/>
<glyph d="M182 351q19 -19 19 -45t-19 -45t-45 -19t-45 19t-19 45t19 45t45 19t45 -19z" glyph-name="periodcentered" horiz-adv-x="274" unicode="·"/>
<glyph d="M133 -72q30 7 59 7q28 0 44.5 -12.5t16.5 -34.5q0 -38 -35 -57t-78 -19q-50 0 -83 11l4 18q21 -3 38 -3q36 0 63 10.5t27 34.5q0 28 -42 28q-28 0 -49 -7l34 101h27z" glyph-name="cedilla" horiz-adv-x="296" unicode="¸"/>
<glyph d="M178 507q0 -28 15 -38.5t52 -10.5v-21q-38 2 -97 2q-65 0 -107 -2v21q37 0 55.5 10.5t18.5 38.5v129q0 29 -7 42.5t-23.5 18t-50.5 4.5v21q51 1 84 8t60 23v-246z" glyph-name="uni00B9" horiz-adv-x="263" unicode="¹"/>
<glyph d="M313 701q41 -21 66 -62t25 -98t-25 -98t-66 -62t-86 -21t-86 21t-66 62t-25 98t25 98t66 62t86 21t86 -21zM159.5 663.5q-26.5 -40.5 -26.5 -122.5t26.5 -122.5t67.5 -40.5t67.5 40.5t26.5 122.5t-26.5 122.5t-67.5 40.5t-67.5 -40.5z" glyph-name="ordmasculine" horiz-adv-x="454" unicode="º"/>
<glyph d="M178 417.5q55 -66.5 132 -109.5v-1q-77 -43 -132 -109.5t-98 -161.5l-17 7q35 93 75.5 153t96.5 108q-54 47 -95 110t-77 158l17 7q43 -95 98 -161.5zM353 417.5q55 -66.5 132 -109.5v-1q-77 -43 -132 -109.5t-98 -161.5l-17 7q35 93 75.5 153t96.5 108q-54 47 -95 110 t-77 158l17 7q43 -95 98 -161.5z" glyph-name="guillemotright" horiz-adv-x="524" unicode="»"/>
<glyph d="M668 811l-585 -866l-19 13l585 866zM194 507q0 -28 15 -38.5t52 -10.5v-21q-38 2 -97 2q-65 0 -107 -2v21q37 0 55.5 10.5t18.5 38.5v129q0 29 -7 42.5t-23.5 18t-50.5 4.5v21q51 1 84 8t60 23v-246zM621 90q-13 -43 -14 -75q-12 3 -38 3h-20v-117h-56v117h-194v21 l229 264h21v-244h8q22 0 30.5 7.5t16.5 26.5zM493 59v179l-155 -179h155z" glyph-name="onequarter" horiz-adv-x="693" unicode="¼"/>
<glyph d="M652 811l-585 -866l-19 13l585 866zM202 507q0 -28 15 -38.5t52 -10.5v-21q-38 2 -97 2q-65 0 -107 -2v21q37 0 55.5 10.5t18.5 38.5v129q0 29 -7 42.5t-23.5 18t-50.5 4.5v21q51 1 84 8t60 23v-246zM599.5 299q27.5 -19 27.5 -56q0 -38 -26 -67.5t-76 -67.5 q-4 -3 -25 -19t-35 -32h132q22 0 30.5 7.5t16.5 26.5l17 -3q-13 -53 -15 -90q-12 3 -38 3h-220v20q17 14 40 31q44 34 70 57t46 54.5t20 66.5q0 54 -65 54q-61 0 -95 -54l-15 8q19 34 53.5 57t84.5 23q45 0 72.5 -19z" glyph-name="onehalf" horiz-adv-x="700" unicode="½"/>
<glyph d="M715 811l-585 -866l-19 13l585 866zM264.5 737q27.5 -19 27.5 -54q0 -33 -25.5 -57.5t-67.5 -36.5q49 -1 82.5 -24.5t33.5 -65.5q0 -44 -38.5 -78.5t-99 -53.5t-122.5 -19v17q51 1 97 19.5t74 49t28 65.5q0 34 -20 55.5t-53 23.5q-5 -3 -16.5 -8.5t-19.5 -5.5 q-16 0 -16 12q0 10 11.5 12.5t32.5 1.5q30 13 43 33.5t13 40.5q0 26 -18.5 42t-49.5 16q-30 0 -54.5 -13.5t-40.5 -40.5l-15 8q19 35 54 57.5t86 22.5q46 0 73.5 -19zM668 90q-13 -43 -14 -75q-12 3 -38 3h-20v-117h-56v117h-194v21l229 264h21v-244h8q22 0 30.5 7.5 t16.5 26.5zM540 59v179l-155 -179h155z" glyph-name="threequarters" horiz-adv-x="744" unicode="¾"/>
<glyph d="M269 603q19 -19 19 -45t-19 -45t-45 -19t-45 19t-19 45t19 45t45 19t45 -19zM294 300q-85 -17 -127.5 -57.5t-42.5 -116.5q0 -56 28 -89.5t79 -33.5q41 0 74 12q41 15 38 37q-16 4 -27 16.5t-11 29.5q0 20 13.5 33t32.5 13q21 0 34 -15t13 -37q0 -25 -19 -49.5t-57 -40.5 q-43 -16 -96 -16q-86 0 -138.5 38.5t-52.5 106.5q0 52 36 90.5t89 60.5t106 29l-25 93l20 5z" glyph-name="questiondown" horiz-adv-x="429" unicode="¿"/>
<glyph d="M636 20v-20q-40 3 -107 3q-86 0 -128 -3v20q38 2 54.5 9.5t16.5 27.5q0 17 -12 47l-61 164h-242l-41 -106q-20 -54 -20 -82q0 -31 21.5 -45t65.5 -15v-20q-57 3 -115 3q-45 0 -75 -3v20q50 12 79 87l235 606h16l244 -629q24 -62 69 -64zM391 288l-112 299l-114 -299h226z M274 875q7 -6 36.5 -32.5t70.5 -57.5l-7 -13q-54 27 -129 57q-51 19 -72 32q-27 17 -27 39q0 10 6 19q12 17 31 17q14 0 30 -10q24 -16 61 -51z" glyph-name="Agrave" horiz-adv-x="630" unicode="À"/>
<glyph d="M636 20v-20q-40 3 -107 3q-86 0 -128 -3v20q38 2 54.5 9.5t16.5 27.5q0 17 -12 47l-61 164h-242l-41 -106q-20 -54 -20 -82q0 -31 21.5 -45t65.5 -15v-20q-57 3 -115 3q-45 0 -75 -3v20q50 12 79 87l235 606h16l244 -629q24 -62 69 -64zM391 288l-112 299l-114 -299h226z M451 936q19 0 31 -17q6 -9 6 -19q0 -22 -27 -39q-21 -13 -72 -32q-75 -30 -129 -57l-7 13q41 31 70.5 57.5t36.5 32.5q37 35 61 51q16 10 30 10z" glyph-name="Aacute" horiz-adv-x="630" unicode="Á"/>
<glyph d="M636 20v-20q-40 3 -107 3q-86 0 -128 -3v20q38 2 54.5 9.5t16.5 27.5q0 17 -12 47l-61 164h-242l-41 -106q-20 -54 -20 -82q0 -31 21.5 -45t65.5 -15v-20q-57 3 -115 3q-45 0 -75 -3v20q50 12 79 87l235 606h16l244 -629q24 -62 69 -64zM391 288l-112 299l-114 -299h226z M396.5 841.5q49.5 -35.5 113.5 -57.5l-5 -14q-60 13 -118.5 32t-92.5 38q-28 -19 -75.5 -38t-95.5 -32l-5 14q64 22 113.5 57.5t73.5 74.5h18q24 -39 73.5 -74.5z" glyph-name="Acircumflex" horiz-adv-x="630" unicode="Â"/>
<glyph d="M636 20v-20q-40 3 -107 3q-86 0 -128 -3v20q38 2 54.5 9.5t16.5 27.5q0 17 -12 47l-61 164h-242l-41 -106q-20 -54 -20 -82q0 -31 21.5 -45t65.5 -15v-20q-57 3 -115 3q-45 0 -75 -3v20q50 12 79 87l235 606h16l244 -629q24 -62 69 -64zM391 288l-112 299l-114 -299h226z M280 892q22 -10 53 -30q35 -20 53.5 -28.5t40.5 -8.5q46 0 62 56l15 -3q-4 -48 -36 -77t-75 -29q-25 0 -47 10t-53 30q-35 20 -53.5 28.5t-40.5 8.5q-23 0 -38 -12.5t-24 -43.5l-15 3q4 48 36 77t75 29q25 0 47 -10z" glyph-name="Atilde" horiz-adv-x="630" unicode="Ã"/>
<glyph d="M636 20v-20q-40 3 -107 3q-86 0 -128 -3v20q38 2 54.5 9.5t16.5 27.5q0 17 -12 47l-61 164h-242l-41 -106q-20 -54 -20 -82q0 -31 21.5 -45t65.5 -15v-20q-57 3 -115 3q-45 0 -75 -3v20q50 12 79 87l235 606h16l244 -629q24 -62 69 -64zM391 288l-112 299l-114 -299h226z M248.5 870.5q17.5 -17.5 17.5 -40.5q0 -24 -17.5 -41t-40.5 -17q-24 0 -41 17t-17 41q0 23 17 40.5t41 17.5q23 0 40.5 -17.5zM460.5 870.5q17.5 -17.5 17.5 -40.5q0 -24 -17.5 -41t-40.5 -17q-24 0 -41 17t-17 41q0 23 17 40.5t41 17.5q23 0 40.5 -17.5z" glyph-name="Adieresis" horiz-adv-x="630" unicode="Ä"/>
<glyph d="M636 20v-20q-40 3 -107 3q-86 0 -128 -3v20q38 2 54.5 9.5t16.5 27.5q0 17 -12 47l-61 164h-242l-41 -106q-20 -54 -20 -82q0 -31 21.5 -45t65.5 -15v-20q-57 3 -115 3q-45 0 -75 -3v20q50 12 79 87l235 606h16l244 -629q24 -62 69 -64zM391 288l-112 299l-114 -299h226z M382.5 900q28.5 -25 28.5 -66t-28.5 -66.5t-68.5 -25.5t-68 25.5t-28 66.5t28 66t68 25t68.5 -25zM267 884.5q-21 -19.5 -21 -51.5q0 -33 20.5 -51.5t47.5 -18.5t48 18.5t21 51.5t-21 52t-48 19q-26 0 -47 -19.5z" glyph-name="Aring" horiz-adv-x="630" unicode="Å"/>
<glyph d="M806 0q-62 3 -209 3q-157 0 -240 -3v20q28 2 40 8t16.5 23t4.5 55v240h-175l-146 -242q-18 -31 -18 -49q0 -17 17 -25t52 -10v-20q-30 3 -91 3q-41 0 -67 -3v20q16 1 32.5 15.5t36.5 48.5l350 578q-7 14 -23 19t-49 7v20q62 -2 99 -2l40 66h24l-40 -66q55 -1 137 -1 q133 0 189 3q-7 -66 -7 -118q0 -39 3 -62h-23q-5 65 -14 96.5t-29 46t-61 14.5h-63q-36 0 -52.5 -5.5t-22.5 -22.5t-6 -55v-236h73q40 0 53 25.5t16 52t4 34.5h23q-3 -37 -3 -81v-41q0 -43 6 -122h-23q-1 6 -4.5 41t-21.5 53t-50 18h-73v-240q0 -38 6 -55t22.5 -22.5 t52.5 -5.5h73q48 0 70 16t30 50t14 111h23q-3 -27 -3 -72q0 -57 7 -128zM418 366v236q0 23 -1 32l-162 -268h163z" glyph-name="AE" horiz-adv-x="854" unicode="Æ"/>
<glyph d="M473 705q42 -17 82 -48q11 -9 19 -9q20 0 26 60h23q-4 -65 -4 -230h-23q-11 65 -20 93.5t-30 54.5q-30 39 -76.5 58.5t-100.5 19.5q-65 0 -113.5 -43t-75.5 -122.5t-27 -186.5q0 -109 29 -187t80.5 -118.5t116.5 -40.5q50 0 97 19t74 57q20 28 29 60t17 98h23 q0 -172 4 -240h-23q-3 32 -8.5 45.5t-15.5 13.5q-8 0 -21 -8q-45 -32 -86 -48.5t-99 -16.5q-95 0 -166.5 43t-111 124.5t-39.5 194.5q0 110 40.5 195t113 132t164.5 47q60 0 102 -17zM359 -72q30 7 59 7q28 0 44.5 -12.5t16.5 -34.5q0 -38 -35 -57t-78 -19q-50 0 -83 11 l4 18q21 -3 38 -3q36 0 63 10.5t27 34.5q0 28 -42 28q-28 0 -49 -7l34 101h27z" glyph-name="Ccedilla" horiz-adv-x="688" unicode="Ç"/>
<glyph d="M561 0q-68 3 -229 3q-192 0 -290 -3v20q36 2 52.5 8t22.5 23t6 55v496q0 38 -6 55t-22.5 23t-52.5 8v20q98 -3 290 -3q147 0 209 3q-7 -66 -7 -118q0 -39 3 -62h-23q-7 65 -18 96.5t-37 46t-79 14.5h-83q-36 0 -52.5 -5.5t-22.5 -22.5t-6 -55v-236h66q35 0 54 16.5 t25.5 39t10.5 56.5l3 20h23q-3 -42 -3 -94v-48q0 -51 6 -142h-23q-1 7 -6 48.5t-27.5 62.5t-62.5 21h-66v-240q0 -38 6 -55t22.5 -22.5t52.5 -5.5h73q62 0 94.5 16.5t47.5 53t22 107.5h23q-3 -27 -3 -72q0 -57 7 -128zM266 875q7 -6 36.5 -32.5t70.5 -57.5l-7 -13 q-54 27 -129 57q-51 19 -72 32q-27 17 -27 39q0 10 6 19q12 17 31 17q14 0 30 -10q24 -16 61 -51z" glyph-name="Egrave" horiz-adv-x="609" unicode="È"/>
<glyph d="M561 0q-68 3 -229 3q-192 0 -290 -3v20q36 2 52.5 8t22.5 23t6 55v496q0 38 -6 55t-22.5 23t-52.5 8v20q98 -3 290 -3q147 0 209 3q-7 -66 -7 -118q0 -39 3 -62h-23q-7 65 -18 96.5t-37 46t-79 14.5h-83q-36 0 -52.5 -5.5t-22.5 -22.5t-6 -55v-236h66q35 0 54 16.5 t25.5 39t10.5 56.5l3 20h23q-3 -42 -3 -94v-48q0 -51 6 -142h-23q-1 7 -6 48.5t-27.5 62.5t-62.5 21h-66v-240q0 -38 6 -55t22.5 -22.5t52.5 -5.5h73q62 0 94.5 16.5t47.5 53t22 107.5h23q-3 -27 -3 -72q0 -57 7 -128zM443 936q19 0 31 -17q6 -9 6 -19q0 -22 -27 -39 q-21 -13 -72 -32q-75 -30 -129 -57l-7 13q41 31 70.5 57.5t36.5 32.5q37 35 61 51q16 10 30 10z" glyph-name="Eacute" horiz-adv-x="609" unicode="É"/>
<glyph d="M561 0q-68 3 -229 3q-192 0 -290 -3v20q36 2 52.5 8t22.5 23t6 55v496q0 38 -6 55t-22.5 23t-52.5 8v20q98 -3 290 -3q147 0 209 3q-7 -66 -7 -118q0 -39 3 -62h-23q-7 65 -18 96.5t-37 46t-79 14.5h-83q-36 0 -52.5 -5.5t-22.5 -22.5t-6 -55v-236h66q35 0 54 16.5 t25.5 39t10.5 56.5l3 20h23q-3 -42 -3 -94v-48q0 -51 6 -142h-23q-1 7 -6 48.5t-27.5 62.5t-62.5 21h-66v-240q0 -38 6 -55t22.5 -22.5t52.5 -5.5h73q62 0 94.5 16.5t47.5 53t22 107.5h23q-3 -27 -3 -72q0 -57 7 -128zM388.5 841.5q49.5 -35.5 113.5 -57.5l-5 -14 q-60 13 -118.5 32t-92.5 38q-28 -19 -75.5 -38t-95.5 -32l-5 14q64 22 113.5 57.5t73.5 74.5h18q24 -39 73.5 -74.5z" glyph-name="Ecircumflex" horiz-adv-x="609" unicode="Ê"/>
<glyph d="M561 0q-68 3 -229 3q-192 0 -290 -3v20q36 2 52.5 8t22.5 23t6 55v496q0 38 -6 55t-22.5 23t-52.5 8v20q98 -3 290 -3q147 0 209 3q-7 -66 -7 -118q0 -39 3 -62h-23q-7 65 -18 96.5t-37 46t-79 14.5h-83q-36 0 -52.5 -5.5t-22.5 -22.5t-6 -55v-236h66q35 0 54 16.5 t25.5 39t10.5 56.5l3 20h23q-3 -42 -3 -94v-48q0 -51 6 -142h-23q-1 7 -6 48.5t-27.5 62.5t-62.5 21h-66v-240q0 -38 6 -55t22.5 -22.5t52.5 -5.5h73q62 0 94.5 16.5t47.5 53t22 107.5h23q-3 -27 -3 -72q0 -57 7 -128zM240.5 870.5q17.5 -17.5 17.5 -40.5q0 -24 -17.5 -41 t-40.5 -17q-24 0 -41 17t-17 41q0 23 17 40.5t41 17.5q23 0 40.5 -17.5zM452.5 870.5q17.5 -17.5 17.5 -40.5q0 -24 -17.5 -41t-40.5 -17q-24 0 -41 17t-17 41q0 23 17 40.5t41 17.5q23 0 40.5 -17.5z" glyph-name="Edieresis" horiz-adv-x="609" unicode="Ë"/>
<glyph d="M297 688q-36 -2 -52.5 -8t-22.5 -23t-6 -55v-496q0 -38 6 -55t22.5 -23t52.5 -8v-20q-46 3 -127 3q-86 0 -128 -3v20q36 2 52.5 8t22.5 23t6 55v496q0 38 -6 55t-22.5 23t-52.5 8v20q42 -3 128 -3q80 0 127 3v-20zM130 875q7 -6 36.5 -32.5t70.5 -57.5l-7 -13 q-54 27 -129 57q-51 19 -72 32q-27 17 -27 39q0 10 6 19q12 17 31 17q14 0 30 -10q24 -16 61 -51z" glyph-name="Igrave" unicode="Ì"/>
<glyph d="M297 688q-36 -2 -52.5 -8t-22.5 -23t-6 -55v-496q0 -38 6 -55t22.5 -23t52.5 -8v-20q-46 3 -127 3q-86 0 -128 -3v20q36 2 52.5 8t22.5 23t6 55v496q0 38 -6 55t-22.5 23t-52.5 8v20q42 -3 128 -3q80 0 127 3v-20zM307 936q19 0 31 -17q6 -9 6 -19q0 -22 -27 -39 q-21 -13 -72 -32q-75 -30 -129 -57l-7 13q41 31 70.5 57.5t36.5 32.5q37 35 61 51q16 10 30 10z" glyph-name="Iacute" unicode="Í"/>
<glyph d="M297 688q-36 -2 -52.5 -8t-22.5 -23t-6 -55v-496q0 -38 6 -55t22.5 -23t52.5 -8v-20q-46 3 -127 3q-86 0 -128 -3v20q36 2 52.5 8t22.5 23t6 55v496q0 38 -6 55t-22.5 23t-52.5 8v20q42 -3 128 -3q80 0 127 3v-20zM252.5 841.5q49.5 -35.5 113.5 -57.5l-5 -14 q-60 13 -118.5 32t-92.5 38q-28 -19 -75.5 -38t-95.5 -32l-5 14q64 22 113.5 57.5t73.5 74.5h18q24 -39 73.5 -74.5z" glyph-name="Icircumflex" unicode="Î"/>
<glyph d="M297 688q-36 -2 -52.5 -8t-22.5 -23t-6 -55v-496q0 -38 6 -55t22.5 -23t52.5 -8v-20q-46 3 -127 3q-86 0 -128 -3v20q36 2 52.5 8t22.5 23t6 55v496q0 38 -6 55t-22.5 23t-52.5 8v20q42 -3 128 -3q80 0 127 3v-20zM104.5 870.5q17.5 -17.5 17.5 -40.5q0 -24 -17.5 -41 t-40.5 -17q-24 0 -41 17t-17 41q0 23 17 40.5t41 17.5q23 0 40.5 -17.5zM316.5 870.5q17.5 -17.5 17.5 -40.5q0 -24 -17.5 -41t-40.5 -17q-24 0 -41 17t-17 41q0 23 17 40.5t41 17.5q23 0 40.5 -17.5z" glyph-name="Idieresis" unicode="Ï"/>
<glyph d="M580 619.5q88 -88.5 88 -257.5q0 -109 -43 -191t-124.5 -126.5t-194.5 -44.5l-58 1q-56 2 -82 2q-82 0 -124 -3v20q36 2 52.5 8t22.5 23t6 55v496q0 38 -6 55t-22.5 23t-52.5 8v20q35 -3 97 -3l85 1q68 2 91 2q177 0 265 -88.5zM243.5 683q-15.5 -7 -21.5 -25t-6 -54 v-500q0 -36 6 -54t21.5 -25t47.5 -7q106 0 167 38.5t85.5 112.5t24.5 189t-27 187.5t-87.5 108.5t-163.5 36q-31 0 -46.5 -7zM342 346h-312v20h312v-20z" glyph-name="Eth" horiz-adv-x="723" unicode="Ð"/>
<glyph d="M670 688q-35 -2 -52 -10.5t-23 -28t-6 -57.5v-597h-23l-420 649v-528q0 -39 6.5 -58t25.5 -27.5t59 -10.5v-20q-36 3 -102 3q-60 0 -93 -3v20q35 2 52 10.5t23 28t6 57.5v486q0 38 -6 55t-22.5 23t-52.5 8v20q33 -3 93 -3q45 0 78 3l353 -544v428q0 39 -6.5 58 t-25.5 27.5t-59 10.5v20q36 -3 102 -3q60 0 93 3v-20zM340 892q22 -10 53 -30q35 -20 53.5 -28.5t40.5 -8.5q46 0 62 56l15 -3q-4 -48 -36 -77t-75 -29q-25 0 -47 10t-53 30q-35 20 -53.5 28.5t-40.5 8.5q-23 0 -38 -12.5t-24 -43.5l-15 3q4 48 36 77t75 29q25 0 47 -10z " glyph-name="Ntilde" horiz-adv-x="706" unicode="Ñ"/>
<glyph d="M537.5 679q71.5 -43 111 -124.5t39.5 -194.5q0 -110 -40.5 -195t-113 -132t-164.5 -47q-95 0 -166.5 43t-111 124.5t-39.5 194.5q0 110 40.5 195t113 132t164.5 47q95 0 166.5 -43zM254.5 659.5q-48.5 -44.5 -75 -124.5t-26.5 -183q0 -104 29.5 -183t79.5 -122t112 -43 q64 0 112.5 44.5t75 124.5t26.5 183q0 104 -29.5 183t-79.5 122t-112 43q-64 0 -112.5 -44.5zM329 875q7 -6 36.5 -32.5t70.5 -57.5l-7 -13q-54 27 -129 57q-51 19 -72 32q-27 17 -27 39q0 10 6 19q12 17 31 17q14 0 30 -10q24 -16 61 -51z" glyph-name="Ograve" horiz-adv-x="741" unicode="Ò"/>
<glyph d="M537.5 679q71.5 -43 111 -124.5t39.5 -194.5q0 -110 -40.5 -195t-113 -132t-164.5 -47q-95 0 -166.5 43t-111 124.5t-39.5 194.5q0 110 40.5 195t113 132t164.5 47q95 0 166.5 -43zM254.5 659.5q-48.5 -44.5 -75 -124.5t-26.5 -183q0 -104 29.5 -183t79.5 -122t112 -43 q64 0 112.5 44.5t75 124.5t26.5 183q0 104 -29.5 183t-79.5 122t-112 43q-64 0 -112.5 -44.5zM506 936q19 0 31 -17q6 -9 6 -19q0 -22 -27 -39q-21 -13 -72 -32q-75 -30 -129 -57l-7 13q41 31 70.5 57.5t36.5 32.5q37 35 61 51q16 10 30 10z" glyph-name="Oacute" horiz-adv-x="741" unicode="Ó"/>
<glyph d="M537.5 679q71.5 -43 111 -124.5t39.5 -194.5q0 -110 -40.5 -195t-113 -132t-164.5 -47q-95 0 -166.5 43t-111 124.5t-39.5 194.5q0 110 40.5 195t113 132t164.5 47q95 0 166.5 -43zM254.5 659.5q-48.5 -44.5 -75 -124.5t-26.5 -183q0 -104 29.5 -183t79.5 -122t112 -43 q64 0 112.5 44.5t75 124.5t26.5 183q0 104 -29.5 183t-79.5 122t-112 43q-64 0 -112.5 -44.5zM451.5 841.5q49.5 -35.5 113.5 -57.5l-5 -14q-60 13 -118.5 32t-92.5 38q-28 -19 -75.5 -38t-95.5 -32l-5 14q64 22 113.5 57.5t73.5 74.5h18q24 -39 73.5 -74.5z" glyph-name="Ocircumflex" horiz-adv-x="741" unicode="Ô"/>
<glyph d="M537.5 679q71.5 -43 111 -124.5t39.5 -194.5q0 -110 -40.5 -195t-113 -132t-164.5 -47q-95 0 -166.5 43t-111 124.5t-39.5 194.5q0 110 40.5 195t113 132t164.5 47q95 0 166.5 -43zM254.5 659.5q-48.5 -44.5 -75 -124.5t-26.5 -183q0 -104 29.5 -183t79.5 -122t112 -43 q64 0 112.5 44.5t75 124.5t26.5 183q0 104 -29.5 183t-79.5 122t-112 43q-64 0 -112.5 -44.5zM335 892q22 -10 53 -30q35 -20 53.5 -28.5t40.5 -8.5q46 0 62 56l15 -3q-4 -48 -36 -77t-75 -29q-25 0 -47 10t-53 30q-35 20 -53.5 28.5t-40.5 8.5q-23 0 -38 -12.5t-24 -43.5 l-15 3q4 48 36 77t75 29q25 0 47 -10z" glyph-name="Otilde" horiz-adv-x="741" unicode="Õ"/>
<glyph d="M537.5 679q71.5 -43 111 -124.5t39.5 -194.5q0 -110 -40.5 -195t-113 -132t-164.5 -47q-95 0 -166.5 43t-111 124.5t-39.5 194.5q0 110 40.5 195t113 132t164.5 47q95 0 166.5 -43zM254.5 659.5q-48.5 -44.5 -75 -124.5t-26.5 -183q0 -104 29.5 -183t79.5 -122t112 -43 q64 0 112.5 44.5t75 124.5t26.5 183q0 104 -29.5 183t-79.5 122t-112 43q-64 0 -112.5 -44.5zM303.5 870.5q17.5 -17.5 17.5 -40.5q0 -24 -17.5 -41t-40.5 -17q-24 0 -41 17t-17 41q0 23 17 40.5t41 17.5q23 0 40.5 -17.5zM515.5 870.5q17.5 -17.5 17.5 -40.5 q0 -24 -17.5 -41t-40.5 -17q-24 0 -41 17t-17 41q0 23 17 40.5t41 17.5q23 0 40.5 -17.5z" glyph-name="Odieresis" horiz-adv-x="741" unicode="Ö"/>
<glyph d="M256 377l173 173l22 -22l-173 -172l173 -173l-22 -22l-173 173l-174 -174l-22 22l174 173l-175 175l22 22z" glyph-name="multiply" horiz-adv-x="510" unicode="×"/>
<glyph d="M661 525.5q27 -72.5 27 -165.5q0 -110 -40.5 -195t-113 -132t-164.5 -47q-115 0 -194 62l-82 -121l-21 14l84 123q-50 47 -77 119t-27 165q0 110 40.5 195t113 132t164.5 47q115 0 194 -62l78 113l19 -13l-79 -115q51 -47 78 -119.5zM254.5 659.5q-48.5 -44.5 -75 -124.5 t-26.5 -183q0 -136 50 -230l321 487q-30 46 -70.5 70.5t-86.5 24.5q-64 0 -112.5 -44.5zM486.5 48.5q48.5 44.5 75 124.5t26.5 183q0 137 -51 231l-319 -489q29 -45 69.5 -69.5t86.5 -24.5q64 0 112.5 44.5z" glyph-name="Oslash" horiz-adv-x="741" unicode="Ø"/>
<glyph d="M655 688q-35 -2 -52 -10.5t-23 -28t-6 -57.5v-301q0 -72 -9.5 -123.5t-31.5 -88.5q-25 -43 -73.5 -68t-109.5 -25q-110 0 -168 54q-44 41 -59 93t-15 155v314q0 38 -6 55t-22.5 23t-52.5 8v20q42 -3 128 -3q81 0 127 3v-20q-36 -2 -52.5 -8t-22.5 -23t-6 -55v-331 q0 -80 11 -133t45.5 -85t101.5 -32q106 0 149 68t43 191v312q0 54 -19.5 74t-71.5 22v20q36 -3 102 -3q60 0 93 3v-20zM312 875q7 -6 36.5 -32.5t70.5 -57.5l-7 -13q-54 27 -129 57q-51 19 -72 32q-27 17 -27 39q0 10 6 19q12 17 31 17q14 0 30 -10q24 -16 61 -51z" glyph-name="Ugrave" horiz-adv-x="682" unicode="Ù"/>
<glyph d="M655 688q-35 -2 -52 -10.5t-23 -28t-6 -57.5v-301q0 -72 -9.5 -123.5t-31.5 -88.5q-25 -43 -73.5 -68t-109.5 -25q-110 0 -168 54q-44 41 -59 93t-15 155v314q0 38 -6 55t-22.5 23t-52.5 8v20q42 -3 128 -3q81 0 127 3v-20q-36 -2 -52.5 -8t-22.5 -23t-6 -55v-331 q0 -80 11 -133t45.5 -85t101.5 -32q106 0 149 68t43 191v312q0 54 -19.5 74t-71.5 22v20q36 -3 102 -3q60 0 93 3v-20zM489 936q19 0 31 -17q6 -9 6 -19q0 -22 -27 -39q-21 -13 -72 -32q-75 -30 -129 -57l-7 13q41 31 70.5 57.5t36.5 32.5q37 35 61 51q16 10 30 10z" glyph-name="Uacute" horiz-adv-x="682" unicode="Ú"/>
<glyph d="M655 688q-35 -2 -52 -10.5t-23 -28t-6 -57.5v-301q0 -72 -9.5 -123.5t-31.5 -88.5q-25 -43 -73.5 -68t-109.5 -25q-110 0 -168 54q-44 41 -59 93t-15 155v314q0 38 -6 55t-22.5 23t-52.5 8v20q42 -3 128 -3q81 0 127 3v-20q-36 -2 -52.5 -8t-22.5 -23t-6 -55v-331 q0 -80 11 -133t45.5 -85t101.5 -32q106 0 149 68t43 191v312q0 54 -19.5 74t-71.5 22v20q36 -3 102 -3q60 0 93 3v-20zM434.5 841.5q49.5 -35.5 113.5 -57.5l-5 -14q-60 13 -118.5 32t-92.5 38q-28 -19 -75.5 -38t-95.5 -32l-5 14q64 22 113.5 57.5t73.5 74.5h18 q24 -39 73.5 -74.5z" glyph-name="Ucircumflex" horiz-adv-x="682" unicode="Û"/>
<glyph d="M655 688q-35 -2 -52 -10.5t-23 -28t-6 -57.5v-301q0 -72 -9.5 -123.5t-31.5 -88.5q-25 -43 -73.5 -68t-109.5 -25q-110 0 -168 54q-44 41 -59 93t-15 155v314q0 38 -6 55t-22.5 23t-52.5 8v20q42 -3 128 -3q81 0 127 3v-20q-36 -2 -52.5 -8t-22.5 -23t-6 -55v-331 q0 -80 11 -133t45.5 -85t101.5 -32q106 0 149 68t43 191v312q0 54 -19.5 74t-71.5 22v20q36 -3 102 -3q60 0 93 3v-20zM286.5 870.5q17.5 -17.5 17.5 -40.5q0 -24 -17.5 -41t-40.5 -17q-24 0 -41 17t-17 41q0 23 17 40.5t41 17.5q23 0 40.5 -17.5zM498.5 870.5 q17.5 -17.5 17.5 -40.5q0 -24 -17.5 -41t-40.5 -17q-24 0 -41 17t-17 41q0 23 17 40.5t41 17.5q23 0 40.5 -17.5z" glyph-name="Udieresis" horiz-adv-x="682" unicode="Ü"/>
<glyph d="M588 708v-20q-20 -5 -39 -25.5t-41 -63.5l-157 -311v-182q0 -38 6 -55t22.5 -23t52.5 -8v-20q-46 3 -127 3q-86 0 -128 -3v20q36 2 52.5 8t22.5 23t6 55v150l-203 375q-18 33 -31.5 44.5t-26.5 11.5v21q39 -3 88 -3q97 0 140 3v-21q-70 0 -70 -38q0 -15 10 -35l166 -319 l128 254q27 53 27 86q0 28 -22 40t-66 13v20q57 -3 115 -3q45 0 75 3zM441 936q19 0 31 -17q6 -9 6 -19q0 -22 -27 -39q-21 -13 -72 -32q-75 -30 -129 -57l-7 13q41 31 70.5 57.5t36.5 32.5q37 35 61 51q16 10 30 10z" glyph-name="Yacute" horiz-adv-x="591" unicode="Ý"/>
<glyph d="M216 138v-32q0 -38 6 -55t22.5 -23t52.5 -8v-20q-46 3 -127 3q-86 0 -128 -3v20q36 2 52.5 8t22.5 23t6 55v496q0 38 -6 55t-22.5 23t-52.5 8v20q42 -3 128 -3q80 0 127 3v-20q-36 -2 -52.5 -8t-22.5 -23t-6 -55v-45l92 2q78 0 132.5 -25.5t81.5 -69.5t27 -100 q0 -57 -24.5 -108t-83 -84.5t-155.5 -33.5h-70zM216 539v-381h60q98 0 135.5 54t37.5 146t-39 137t-127 45q-45 0 -67 -1z" glyph-name="Thorn" horiz-adv-x="580" unicode="Þ"/>
<glyph d="M472 604q51 -18 96 -53l-151 -199q85 -18 140.5 -67t55.5 -122q0 -49 -26.5 -89.5t-76 -64t-116.5 -23.5q-56 0 -94 18q-25 12 -37 30t-12 39q0 23 15 38t38 15q24 0 39.5 -14.5t15.5 -39.5q0 -21 -11.5 -34t-30.5 -17q8 -8 30.5 -12t41.5 -4q59 0 91.5 47.5t32.5 113.5 q0 80 -49.5 130.5t-136.5 62.5l157 216q-18 14 -50 21.5t-64 7.5q-80 0 -129.5 -54.5t-49.5 -185.5v-258q0 -35 4.5 -52.5t16 -25t34.5 -8.5v-20l-37 1q-36 2 -77 2q-73 0 -115 -3v20q36 2 52.5 8t22.5 23t6 55v197q0 319 261 319q62 0 113 -18z" glyph-name="germandbls" horiz-adv-x="654" unicode="ß"/>
<glyph d="M619 20v-20q-40 3 -107 3q-86 0 -128 -3v20q37 2 54.5 10t17.5 27q0 16 -14 47l-51 114h-243l-34 -75q-17 -39 -17 -64q0 -26 18.5 -40.5t59.5 -18.5v-20q-30 3 -91 3t-87 -3v20q27 7 46 30.5t36 62.5l221 500h16l234 -529q27 -62 69 -64zM383 238l-113 254l-114 -254 h227zM259 811q7 -6 36.5 -32.5t70.5 -57.5l-7 -13q-54 27 -129 57q-51 19 -72 32q-27 17 -27 39q0 10 6 19q12 17 31 17q14 0 30 -10q24 -16 61 -51z" glyph-name="agrave" horiz-adv-x="616" unicode="à"/>
<glyph d="M619 20v-20q-40 3 -107 3q-86 0 -128 -3v20q37 2 54.5 10t17.5 27q0 16 -14 47l-51 114h-243l-34 -75q-17 -39 -17 -64q0 -26 18.5 -40.5t59.5 -18.5v-20q-30 3 -91 3t-87 -3v20q27 7 46 30.5t36 62.5l221 500h16l234 -529q27 -62 69 -64zM383 238l-113 254l-114 -254 h227zM435 872q19 0 31 -17q6 -9 6 -19q0 -22 -27 -39q-21 -13 -72 -32q-75 -30 -129 -57l-7 13q41 31 70.5 57.5t36.5 32.5q37 35 61 51q16 10 30 10z" glyph-name="aacute" horiz-adv-x="616" unicode="á"/>
<glyph d="M619 20v-20q-40 3 -107 3q-86 0 -128 -3v20q37 2 54.5 10t17.5 27q0 16 -14 47l-51 114h-243l-34 -75q-17 -39 -17 -64q0 -26 18.5 -40.5t59.5 -18.5v-20q-30 3 -91 3t-87 -3v20q27 7 46 30.5t36 62.5l221 500h16l234 -529q27 -62 69 -64zM383 238l-113 254l-114 -254 h227zM386 779.5q47 -35.5 108 -57.5l-5 -14q-57 13 -112.5 32t-88.5 38q-27 -19 -71.5 -38t-89.5 -32l-5 14q61 22 108 57.5t69 74.5h18q22 -39 69 -74.5z" glyph-name="acircumflex" horiz-adv-x="616" unicode="â"/>
<glyph d="M619 20v-20q-40 3 -107 3q-86 0 -128 -3v20q37 2 54.5 10t17.5 27q0 16 -14 47l-51 114h-243l-34 -75q-17 -39 -17 -64q0 -26 18.5 -40.5t59.5 -18.5v-20q-30 3 -91 3t-87 -3v20q27 7 46 30.5t36 62.5l221 500h16l234 -529q27 -62 69 -64zM383 238l-113 254l-114 -254 h227zM268.5 828q22.5 -10 54.5 -30q29 -19 49.5 -28t42.5 -9q51 0 70 58l17 -5q-11 -50 -40 -78t-71 -28q-25 0 -47.5 10t-54.5 30q-29 19 -49.5 28t-42.5 9q-25 0 -42.5 -13.5t-27.5 -44.5l-17 5q11 50 40 78t71 28q25 0 47.5 -10z" glyph-name="atilde" horiz-adv-x="616" unicode="ã"/>
<glyph d="M619 20v-20q-40 3 -107 3q-86 0 -128 -3v20q37 2 54.5 10t17.5 27q0 16 -14 47l-51 114h-243l-34 -75q-17 -39 -17 -64q0 -26 18.5 -40.5t59.5 -18.5v-20q-30 3 -91 3t-87 -3v20q27 7 46 30.5t36 62.5l221 500h16l234 -529q27 -62 69 -64zM383 238l-113 254l-114 -254 h227zM241.5 812.5q17.5 -17.5 17.5 -40.5q0 -24 -17.5 -41t-40.5 -17q-24 0 -41 17t-17 41q0 23 17 40.5t41 17.5q23 0 40.5 -17.5zM453.5 812.5q17.5 -17.5 17.5 -40.5q0 -24 -17.5 -41t-40.5 -17q-24 0 -41 17t-17 41q0 23 17 40.5t41 17.5q23 0 40.5 -17.5z" glyph-name="adieresis" horiz-adv-x="616" unicode="ä"/>
<glyph d="M619 20v-20q-40 3 -107 3q-86 0 -128 -3v20q37 2 54.5 10t17.5 27q0 16 -14 47l-51 114h-243l-34 -75q-17 -39 -17 -64q0 -26 18.5 -40.5t59.5 -18.5v-20q-30 3 -91 3t-87 -3v20q27 7 46 30.5t36 62.5l221 500h16l234 -529q27 -62 69 -64zM383 238l-113 254l-114 -254 h227zM375.5 840q28.5 -25 28.5 -66t-28.5 -66.5t-68.5 -25.5t-68 25.5t-28 66.5t28 66t68 25t68.5 -25zM260 824.5q-21 -19.5 -21 -51.5q0 -33 20.5 -51.5t47.5 -18.5t48 18.5t21 51.5t-21 52t-48 19q-26 0 -47 -19.5z" glyph-name="aring" horiz-adv-x="616" unicode="å"/>
<glyph d="M738 0q-59 3 -199 3q-157 0 -240 -3v20q28 2 40 8t16.5 23t4.5 55v190h-148l-109 -192q-17 -28 -17 -48q0 -18 16.5 -26t52.5 -10v-20q-30 3 -91 3q-41 0 -67 -3v20q16 1 32.5 15.5t36.5 48.5l278 488q-9 8 -24 11.5t-41 4.5v20q54 -2 85 -2l30 53h23l-30 -53 q60 -1 152 -1q126 0 179 3q-7 -60 -7 -108q0 -39 3 -62h-23q-5 60 -14 90t-29 43.5t-61 13.5h-53q-36 0 -52.5 -5.5t-22.5 -22.5t-6 -55v-186h73q40 0 53 23t16 47l4 32h23q-3 -34 -3 -74v-38q0 -39 6 -112h-23q-1 5 -4.5 37t-21.5 48.5t-50 16.5h-73v-190q0 -38 6 -55 t22.5 -22.5t52.5 -5.5h63q48 0 70 15t30 47t14 105h23q-3 -27 -3 -72q0 -52 7 -118zM360 316v186q0 33 -4 49l-133 -235h137z" glyph-name="ae" horiz-adv-x="793" unicode="æ"/>
<glyph d="M435 605.5q34 -16.5 71 -48.5q11 -9 19 -9q20 0 26 60h23q-4 -60 -4 -210h-23q-10 52 -20 77t-30 51q-28 37 -67 56.5t-82 19.5q-59 0 -102.5 -36t-67.5 -104t-24 -160q0 -94 26.5 -160.5t72 -101t102.5 -34.5q44 0 84.5 19.5t68.5 56.5q19 26 28.5 55t17.5 83h23 q0 -157 4 -220h-23q-3 31 -9 45.5t-16 14.5q-8 0 -20 -9q-38 -32 -74 -48.5t-88 -16.5q-89 0 -156 36.5t-104 107t-37 168.5q0 96 38 169.5t106 114t154 40.5q49 0 83 -16.5zM340 -72q30 7 59 7q28 0 44.5 -12.5t16.5 -34.5q0 -38 -35 -57t-78 -19q-50 0 -83 11l4 18 q21 -3 38 -3q36 0 63 10.5t27 34.5q0 28 -42 28q-28 0 -49 -7l34 101h27z" glyph-name="ccedilla" horiz-adv-x="643" unicode="ç"/>
<glyph d="M541 0q-65 3 -219 3q-185 0 -280 -3v20q36 2 52.5 8t22.5 23t6 55v396q0 38 -6 55t-22.5 23t-52.5 8v20q95 -3 280 -3q140 0 199 3q-7 -60 -7 -108q0 -39 3 -62h-23q-7 82 -34.5 114.5t-89.5 32.5h-73q-36 0 -52.5 -5.5t-22.5 -22.5t-6 -55v-186h83q32 0 49 16.5t23 36 t11 49.5h23q-3 -34 -3 -74v-38q0 -39 6 -112h-23q-6 48 -23 75t-63 27h-83v-190q0 -38 6 -55t22.5 -22.5t52.5 -5.5h73q50 0 79 16t44 51.5t21 99.5h23q-3 -27 -3 -72q0 -52 7 -118zM251 811q7 -6 36.5 -32.5t70.5 -57.5l-7 -13q-54 27 -129 57q-51 19 -72 32q-27 17 -27 39 q0 10 6 19q12 17 31 17q14 0 30 -10q24 -16 61 -51z" glyph-name="egrave" horiz-adv-x="595" unicode="è"/>
<glyph d="M541 0q-65 3 -219 3q-185 0 -280 -3v20q36 2 52.5 8t22.5 23t6 55v396q0 38 -6 55t-22.5 23t-52.5 8v20q95 -3 280 -3q140 0 199 3q-7 -60 -7 -108q0 -39 3 -62h-23q-7 82 -34.5 114.5t-89.5 32.5h-73q-36 0 -52.5 -5.5t-22.5 -22.5t-6 -55v-186h83q32 0 49 16.5t23 36 t11 49.5h23q-3 -34 -3 -74v-38q0 -39 6 -112h-23q-6 48 -23 75t-63 27h-83v-190q0 -38 6 -55t22.5 -22.5t52.5 -5.5h73q50 0 79 16t44 51.5t21 99.5h23q-3 -27 -3 -72q0 -52 7 -118zM427 872q19 0 31 -17q6 -9 6 -19q0 -22 -27 -39q-21 -13 -72 -32q-75 -30 -129 -57l-7 13 q41 31 70.5 57.5t36.5 32.5q37 35 61 51q16 10 30 10z" glyph-name="eacute" horiz-adv-x="595" unicode="é"/>
<glyph d="M541 0q-65 3 -219 3q-185 0 -280 -3v20q36 2 52.5 8t22.5 23t6 55v396q0 38 -6 55t-22.5 23t-52.5 8v20q95 -3 280 -3q140 0 199 3q-7 -60 -7 -108q0 -39 3 -62h-23q-7 82 -34.5 114.5t-89.5 32.5h-73q-36 0 -52.5 -5.5t-22.5 -22.5t-6 -55v-186h83q32 0 49 16.5t23 36 t11 49.5h23q-3 -34 -3 -74v-38q0 -39 6 -112h-23q-6 48 -23 75t-63 27h-83v-190q0 -38 6 -55t22.5 -22.5t52.5 -5.5h73q50 0 79 16t44 51.5t21 99.5h23q-3 -27 -3 -72q0 -52 7 -118zM378 779.5q47 -35.5 108 -57.5l-5 -14q-57 13 -112.5 32t-88.5 38q-27 -19 -71.5 -38 t-89.5 -32l-5 14q61 22 108 57.5t69 74.5h18q22 -39 69 -74.5z" glyph-name="ecircumflex" horiz-adv-x="595" unicode="ê"/>
<glyph d="M541 0q-65 3 -219 3q-185 0 -280 -3v20q36 2 52.5 8t22.5 23t6 55v396q0 38 -6 55t-22.5 23t-52.5 8v20q95 -3 280 -3q140 0 199 3q-7 -60 -7 -108q0 -39 3 -62h-23q-7 82 -34.5 114.5t-89.5 32.5h-73q-36 0 -52.5 -5.5t-22.5 -22.5t-6 -55v-186h83q32 0 49 16.5t23 36 t11 49.5h23q-3 -34 -3 -74v-38q0 -39 6 -112h-23q-6 48 -23 75t-63 27h-83v-190q0 -38 6 -55t22.5 -22.5t52.5 -5.5h73q50 0 79 16t44 51.5t21 99.5h23q-3 -27 -3 -72q0 -52 7 -118zM233.5 812.5q17.5 -17.5 17.5 -40.5q0 -24 -17.5 -41t-40.5 -17q-24 0 -41 17t-17 41 q0 23 17 40.5t41 17.5q23 0 40.5 -17.5zM445.5 812.5q17.5 -17.5 17.5 -40.5q0 -24 -17.5 -41t-40.5 -17q-24 0 -41 17t-17 41q0 23 17 40.5t41 17.5q23 0 40.5 -17.5z" glyph-name="edieresis" horiz-adv-x="595" unicode="ë"/>
<glyph d="M297 588q-36 -2 -52.5 -8t-22.5 -23t-6 -55v-396q0 -38 6 -55t22.5 -23t52.5 -8v-20q-46 3 -127 3q-86 0 -128 -3v20q36 2 52.5 8t22.5 23t6 55v396q0 38 -6 55t-22.5 23t-52.5 8v20q42 -3 128 -3q80 0 127 3v-20zM122 811q7 -6 36.5 -32.5t70.5 -57.5l-7 -13 q-54 27 -129 57q-51 19 -72 32q-27 17 -27 39q0 10 6 19q12 17 31 17q14 0 30 -10q24 -16 61 -51z" glyph-name="igrave" unicode="ì"/>
<glyph d="M297 588q-36 -2 -52.5 -8t-22.5 -23t-6 -55v-396q0 -38 6 -55t22.5 -23t52.5 -8v-20q-46 3 -127 3q-86 0 -128 -3v20q36 2 52.5 8t22.5 23t6 55v396q0 38 -6 55t-22.5 23t-52.5 8v20q42 -3 128 -3q80 0 127 3v-20zM298 872q19 0 31 -17q6 -9 6 -19q0 -22 -27 -39 q-21 -13 -72 -32q-75 -30 -129 -57l-7 13q41 31 70.5 57.5t36.5 32.5q37 35 61 51q16 10 30 10z" glyph-name="iacute" unicode="í"/>
<glyph d="M297 588q-36 -2 -52.5 -8t-22.5 -23t-6 -55v-396q0 -38 6 -55t22.5 -23t52.5 -8v-20q-46 3 -127 3q-86 0 -128 -3v20q36 2 52.5 8t22.5 23t6 55v396q0 38 -6 55t-22.5 23t-52.5 8v20q42 -3 128 -3q80 0 127 3v-20zM249 779.5q47 -35.5 108 -57.5l-5 -14q-57 13 -112.5 32 t-88.5 38q-27 -19 -71.5 -38t-89.5 -32l-5 14q61 22 108 57.5t69 74.5h18q22 -39 69 -74.5z" glyph-name="icircumflex" unicode="î"/>
<glyph d="M297 588q-36 -2 -52.5 -8t-22.5 -23t-6 -55v-396q0 -38 6 -55t22.5 -23t52.5 -8v-20q-46 3 -127 3q-86 0 -128 -3v20q36 2 52.5 8t22.5 23t6 55v396q0 38 -6 55t-22.5 23t-52.5 8v20q42 -3 128 -3q80 0 127 3v-20zM104.5 812.5q17.5 -17.5 17.5 -40.5q0 -24 -17.5 -41 t-40.5 -17q-24 0 -41 17t-17 41q0 23 17 40.5t41 17.5q23 0 40.5 -17.5zM316.5 812.5q17.5 -17.5 17.5 -40.5q0 -24 -17.5 -41t-40.5 -17q-24 0 -41 17t-17 41q0 23 17 40.5t41 17.5q23 0 40.5 -17.5z" glyph-name="idieresis" unicode="ï"/>
<glyph d="M549.5 532.5q78.5 -75.5 78.5 -220.5q0 -94 -38 -164.5t-110.5 -109t-173.5 -38.5l-58 1q-56 2 -82 2q-82 0 -124 -3v20q36 2 52.5 8t22.5 23t6 55v396q0 38 -6 55t-22.5 23t-52.5 8v20q35 -3 97 -3l85 1q68 2 91 2q156 0 234.5 -75.5zM243.5 583q-15.5 -7 -21.5 -25 t-6 -54v-400q0 -36 6 -54t21.5 -25t47.5 -7q91 0 143 32.5t73 95.5t21 162q0 146 -54 214t-184 68q-31 0 -46.5 -7zM333 296h-312v20h312v-20z" glyph-name="eth" horiz-adv-x="683" unicode="ð"/>
<glyph d="M650 588q-35 -2 -52 -10.5t-23 -28t-6 -57.5v-497h-23l-400 554v-433q0 -39 6.5 -58t25.5 -27.5t59 -10.5v-20q-36 3 -102 3q-60 0 -93 -3v20q35 2 52 10.5t23 28t6 57.5v386q0 38 -6 55t-22.5 23t-52.5 8v20q33 -3 93 -3q54 0 92 3l319 -444v328q0 39 -6.5 58 t-25.5 27.5t-59 10.5v20q36 -3 102 -3q60 0 93 3v-20zM310.5 828q22.5 -10 54.5 -30q29 -19 49.5 -28t42.5 -9q51 0 70 58l17 -5q-11 -50 -40 -78t-71 -28q-25 0 -47.5 10t-54.5 30q-29 19 -49.5 28t-42.5 9q-25 0 -42.5 -13.5t-27.5 -44.5l-17 5q11 50 40 78t71 28 q25 0 47.5 -10z" glyph-name="ntilde" horiz-adv-x="685" unicode="ñ"/>
<glyph d="M522.5 585.5q69.5 -36.5 107.5 -107t38 -168.5q0 -96 -39.5 -169.5t-109.5 -114t-159 -40.5q-92 0 -161.5 36.5t-107.5 107t-38 168.5q0 96 39.5 169.5t109.5 114t159 40.5q92 0 161.5 -36.5zM249.5 565.5q-46.5 -38.5 -71.5 -107t-25 -156.5q0 -89 28 -157t76 -104.5 t107 -36.5q61 0 107.5 38.5t71.5 107t25 156.5q0 89 -28 157t-76 104.5t-107 36.5q-61 0 -107.5 -38.5zM311 811q7 -6 36.5 -32.5t70.5 -57.5l-7 -13q-54 27 -129 57q-51 19 -72 32q-27 17 -27 39q0 10 6 19q12 17 31 17q14 0 30 -10q24 -16 61 -51z" glyph-name="ograve" horiz-adv-x="721" unicode="ò"/>
<glyph d="M522.5 585.5q69.5 -36.5 107.5 -107t38 -168.5q0 -96 -39.5 -169.5t-109.5 -114t-159 -40.5q-92 0 -161.5 36.5t-107.5 107t-38 168.5q0 96 39.5 169.5t109.5 114t159 40.5q92 0 161.5 -36.5zM249.5 565.5q-46.5 -38.5 -71.5 -107t-25 -156.5q0 -89 28 -157t76 -104.5 t107 -36.5q61 0 107.5 38.5t71.5 107t25 156.5q0 89 -28 157t-76 104.5t-107 36.5q-61 0 -107.5 -38.5zM487 872q19 0 31 -17q6 -9 6 -19q0 -22 -27 -39q-21 -13 -72 -32q-75 -30 -129 -57l-7 13q41 31 70.5 57.5t36.5 32.5q37 35 61 51q16 10 30 10z" glyph-name="oacute" horiz-adv-x="721" unicode="ó"/>
<glyph d="M522.5 585.5q69.5 -36.5 107.5 -107t38 -168.5q0 -96 -39.5 -169.5t-109.5 -114t-159 -40.5q-92 0 -161.5 36.5t-107.5 107t-38 168.5q0 96 39.5 169.5t109.5 114t159 40.5q92 0 161.5 -36.5zM249.5 565.5q-46.5 -38.5 -71.5 -107t-25 -156.5q0 -89 28 -157t76 -104.5 t107 -36.5q61 0 107.5 38.5t71.5 107t25 156.5q0 89 -28 157t-76 104.5t-107 36.5q-61 0 -107.5 -38.5zM438 779.5q47 -35.5 108 -57.5l-5 -14q-57 13 -112.5 32t-88.5 38q-27 -19 -71.5 -38t-89.5 -32l-5 14q61 22 108 57.5t69 74.5h18q22 -39 69 -74.5z" glyph-name="ocircumflex" horiz-adv-x="721" unicode="ô"/>
<glyph d="M522.5 585.5q69.5 -36.5 107.5 -107t38 -168.5q0 -96 -39.5 -169.5t-109.5 -114t-159 -40.5q-92 0 -161.5 36.5t-107.5 107t-38 168.5q0 96 39.5 169.5t109.5 114t159 40.5q92 0 161.5 -36.5zM249.5 565.5q-46.5 -38.5 -71.5 -107t-25 -156.5q0 -89 28 -157t76 -104.5 t107 -36.5q61 0 107.5 38.5t71.5 107t25 156.5q0 89 -28 157t-76 104.5t-107 36.5q-61 0 -107.5 -38.5zM320.5 828q22.5 -10 54.5 -30q29 -19 49.5 -28t42.5 -9q51 0 70 58l17 -5q-11 -50 -40 -78t-71 -28q-25 0 -47.5 10t-54.5 30q-29 19 -49.5 28t-42.5 9 q-25 0 -42.5 -13.5t-27.5 -44.5l-17 5q11 50 40 78t71 28q25 0 47.5 -10z" glyph-name="otilde" horiz-adv-x="721" unicode="õ"/>
<glyph d="M522.5 585.5q69.5 -36.5 107.5 -107t38 -168.5q0 -96 -39.5 -169.5t-109.5 -114t-159 -40.5q-92 0 -161.5 36.5t-107.5 107t-38 168.5q0 96 39.5 169.5t109.5 114t159 40.5q92 0 161.5 -36.5zM249.5 565.5q-46.5 -38.5 -71.5 -107t-25 -156.5q0 -89 28 -157t76 -104.5 t107 -36.5q61 0 107.5 38.5t71.5 107t25 156.5q0 89 -28 157t-76 104.5t-107 36.5q-61 0 -107.5 -38.5zM293.5 812.5q17.5 -17.5 17.5 -40.5q0 -24 -17.5 -41t-40.5 -17q-24 0 -41 17t-17 41q0 23 17 40.5t41 17.5q23 0 40.5 -17.5zM505.5 812.5q17.5 -17.5 17.5 -40.5 q0 -24 -17.5 -41t-40.5 -17q-24 0 -41 17t-17 41q0 23 17 40.5t41 17.5q23 0 40.5 -17.5z" glyph-name="odieresis" horiz-adv-x="721" unicode="ö"/>
<glyph d="M363.5 538q16.5 -16 16.5 -39t-16.5 -39t-39.5 -16t-39 16t-16 39t16.5 39t38.5 16q23 0 39.5 -16zM574 340h-501v30h501v-30zM363.5 250q16.5 -16 16.5 -39t-16.5 -39.5t-39.5 -16.5t-39 16.5t-16 39.5t16.5 39t38.5 16q23 0 39.5 -16z" glyph-name="divide" horiz-adv-x="649" unicode="÷"/>
<glyph d="M639 459.5q29 -64.5 29 -149.5q0 -96 -39.5 -169.5t-109.5 -114t-159 -40.5q-96 0 -168 40l-66 -98l-22 14l67 98q-57 40 -87.5 105.5t-30.5 152.5q0 96 39.5 169.5t109.5 114t159 40.5q103 0 175 -45l71 103l19 -13l-70 -103q54 -40 83 -104.5zM249.5 565.5 q-46.5 -38.5 -71.5 -107t-25 -156.5q0 -64 15 -118t42 -93l290 440q-28 35 -64.5 54t-78.5 19q-61 0 -107.5 -38.5zM471.5 42.5q46.5 38.5 71.5 107t25 156.5q0 123 -53 205l-289 -441q28 -32 63 -49t75 -17q61 0 107.5 38.5z" glyph-name="oslash" horiz-adv-x="721" unicode="ø"/>
<glyph d="M633 588q-35 -2 -52 -10.5t-23 -28t-6 -57.5v-221q0 -69 -9.5 -117.5t-31.5 -84.5q-24 -38 -69.5 -60.5t-103.5 -22.5q-103 0 -158 44q-44 39 -59 89t-15 149v234q0 38 -6 55t-22.5 23t-52.5 8v20q42 -3 128 -3q80 0 127 3v-20q-36 -2 -52.5 -8t-22.5 -23t-6 -55v-251 q0 -74 10 -122.5t42.5 -78t95.5 -29.5q100 0 141 63t41 176v232q0 54 -19.5 74t-71.5 22v20q36 -3 102 -3q60 0 93 3v-20zM286 811q7 -6 36.5 -32.5t70.5 -57.5l-7 -13q-54 27 -129 57q-51 19 -72 32q-27 17 -27 39q0 10 6 19q12 17 31 17q14 0 30 -10q24 -16 61 -51z" glyph-name="ugrave" horiz-adv-x="658" unicode="ù"/>
<glyph d="M633 588q-35 -2 -52 -10.5t-23 -28t-6 -57.5v-221q0 -69 -9.5 -117.5t-31.5 -84.5q-24 -38 -69.5 -60.5t-103.5 -22.5q-103 0 -158 44q-44 39 -59 89t-15 149v234q0 38 -6 55t-22.5 23t-52.5 8v20q42 -3 128 -3q80 0 127 3v-20q-36 -2 -52.5 -8t-22.5 -23t-6 -55v-251 q0 -74 10 -122.5t42.5 -78t95.5 -29.5q100 0 141 63t41 176v232q0 54 -19.5 74t-71.5 22v20q36 -3 102 -3q60 0 93 3v-20zM462 872q19 0 31 -17q6 -9 6 -19q0 -22 -27 -39q-21 -13 -72 -32q-75 -30 -129 -57l-7 13q41 31 70.5 57.5t36.5 32.5q37 35 61 51q16 10 30 10z" glyph-name="uacute" horiz-adv-x="658" unicode="ú"/>
<glyph d="M633 588q-35 -2 -52 -10.5t-23 -28t-6 -57.5v-221q0 -69 -9.5 -117.5t-31.5 -84.5q-24 -38 -69.5 -60.5t-103.5 -22.5q-103 0 -158 44q-44 39 -59 89t-15 149v234q0 38 -6 55t-22.5 23t-52.5 8v20q42 -3 128 -3q80 0 127 3v-20q-36 -2 -52.5 -8t-22.5 -23t-6 -55v-251 q0 -74 10 -122.5t42.5 -78t95.5 -29.5q100 0 141 63t41 176v232q0 54 -19.5 74t-71.5 22v20q36 -3 102 -3q60 0 93 3v-20zM413 779.5q47 -35.5 108 -57.5l-5 -14q-57 13 -112.5 32t-88.5 38q-27 -19 -71.5 -38t-89.5 -32l-5 14q61 22 108 57.5t69 74.5h18q22 -39 69 -74.5z " glyph-name="ucircumflex" horiz-adv-x="658" unicode="û"/>
<glyph d="M633 588q-35 -2 -52 -10.5t-23 -28t-6 -57.5v-221q0 -69 -9.5 -117.5t-31.5 -84.5q-24 -38 -69.5 -60.5t-103.5 -22.5q-103 0 -158 44q-44 39 -59 89t-15 149v234q0 38 -6 55t-22.5 23t-52.5 8v20q42 -3 128 -3q80 0 127 3v-20q-36 -2 -52.5 -8t-22.5 -23t-6 -55v-251 q0 -74 10 -122.5t42.5 -78t95.5 -29.5q100 0 141 63t41 176v232q0 54 -19.5 74t-71.5 22v20q36 -3 102 -3q60 0 93 3v-20zM268.5 812.5q17.5 -17.5 17.5 -40.5q0 -24 -17.5 -41t-40.5 -17q-24 0 -41 17t-17 41q0 23 17 40.5t41 17.5q23 0 40.5 -17.5zM480.5 812.5 q17.5 -17.5 17.5 -40.5q0 -24 -17.5 -41t-40.5 -17q-24 0 -41 17t-17 41q0 23 17 40.5t41 17.5q23 0 40.5 -17.5z" glyph-name="udieresis" horiz-adv-x="658" unicode="ü"/>
<glyph d="M563 608v-21q-17 -4 -31 -19t-33 -49l-157 -281v-132q0 -38 6 -55t22.5 -23t52.5 -8v-20q-46 3 -127 3q-86 0 -128 -3v20q36 2 52.5 8t22.5 23t6 55v104l-193 321q-19 32 -31.5 42.5t-26.5 13.5v21q64 -4 88 -4q69 0 140 4v-21q-34 0 -52 -5.5t-18 -24.5q0 -17 17 -47 l151 -252l124 218q22 40 22 64q0 42 -69 47v21q37 -4 85 -4q57 0 77 4zM419 872q19 0 31 -17q6 -9 6 -19q0 -22 -27 -39q-21 -13 -72 -32q-75 -30 -129 -57l-7 13q41 31 70.5 57.5t36.5 32.5q37 35 61 51q16 10 30 10z" glyph-name="yacute" horiz-adv-x="573" unicode="ý"/>
<glyph d="M216 129v-23q0 -38 6 -55t22.5 -23t52.5 -8v-20q-46 3 -127 3q-86 0 -128 -3v20q36 2 52.5 8t22.5 23t6 55v396q0 38 -6 55t-22.5 23t-52.5 8v20q42 -3 128 -3q80 0 127 3v-20q-36 -2 -52.5 -8t-22.5 -23t-6 -55v-14l104 2q107 0 164 -45.5t57 -121.5q0 -48 -23.5 -92 t-80 -73t-149.5 -29h-72zM216 470v-321h62q87 0 125 45t38 118q0 159 -146 159z" glyph-name="thorn" horiz-adv-x="574" unicode="þ"/>
<glyph d="M502.5 677q71.5 -45 109.5 -128.5t38 -197.5q0 -112 -36.5 -194t-107 -126.5t-168.5 -44.5q-130 0 -207.5 78t-77.5 232h495q3 29 3 62q0 103 -32 179t-86.5 116t-121.5 40q-44 0 -90 -17t-74 -50q-19 -22 -29.5 -55t-20.5 -93h-23q0 165 -4 230h23q3 -32 8.5 -45.5 t16.5 -13.5q7 0 20 8q46 31 87.5 48t106.5 17q99 0 170.5 -45zM483.5 73q52.5 68 65.5 204h-398q-4 -76 19.5 -138t70 -98t108.5 -36q82 0 134.5 68z" glyph-name="uni018F" horiz-adv-x="703" unicode="Ə"/>
<glyph d="M512.5 583q71.5 -39 109.5 -111.5t38 -170.5q0 -96 -36.5 -167t-107 -109.5t-168.5 -38.5q-130 0 -207.5 65.5t-77.5 194.5h495q3 29 3 62q0 87 -32 152t-86.5 99t-121.5 34q-44 0 -90 -17t-74 -50q-19 -22 -29.5 -55t-20.5 -93h-23q0 165 -4 230h23q3 -32 8.5 -45.5 t16.5 -13.5q7 0 20 8q47 32 88 48.5t106 16.5q99 0 170.5 -39zM494 60.5q52 55.5 65 166.5h-398q-4 -62 19.5 -113t70 -80t108.5 -29q83 0 135 55.5z" glyph-name="uni0259" horiz-adv-x="713" unicode="ə"/>
<glyph d="M199.5 840q28.5 -25 28.5 -66t-28.5 -66.5t-68.5 -25.5t-68 25.5t-28 66.5t28 66t68 25t68.5 -25zM84 824.5q-21 -19.5 -21 -51.5q0 -33 20.5 -51.5t47.5 -18.5t48 18.5t21 51.5t-21 52t-48 19q-26 0 -47 -19.5z" glyph-name="ring" horiz-adv-x="263" unicode="˚"/>
<glyph d="M203.5 828q22.5 -10 54.5 -30q29 -19 49.5 -28t42.5 -9q51 0 70 58l17 -5q-11 -50 -40 -78t-71 -28q-25 0 -47.5 10t-54.5 30q-29 19 -49.5 28t-42.5 9q-25 0 -42.5 -13.5t-27.5 -44.5l-17 5q11 50 40 78t71 28q25 0 47.5 -10z" glyph-name="tilde" horiz-adv-x="482" unicode="˜"/>
<glyph d="M148 811q7 -6 36.5 -32.5t70.5 -57.5l-7 -13q-54 27 -129 57q-51 19 -72 32q-27 17 -27 39q0 10 6 19q12 17 31 17q14 0 30 -10q24 -16 61 -51z" glyph-name="gravecomb" horiz-adv-x="275" unicode="̀"/>
<glyph d="M290 872q19 0 31 -17q6 -9 6 -19q0 -22 -27 -39q-21 -13 -72 -32q-75 -30 -129 -57l-7 13q41 31 70.5 57.5t36.5 32.5q37 35 61 51q16 10 30 10z" glyph-name="acutecomb" horiz-adv-x="275" unicode="́"/>
<glyph d="M289 779.5q47 -35.5 108 -57.5l-5 -14q-57 13 -112.5 32t-88.5 38q-27 -19 -71.5 -38t-89.5 -32l-5 14q61 22 108 57.5t69 74.5h18q22 -39 69 -74.5z" glyph-name="uni0302" horiz-adv-x="422" unicode="̂"/>
<glyph d="M377 747h-352v25h352v-25z" glyph-name="uni0304" horiz-adv-x="402" unicode="̄"/>
<glyph d="M123.5 812.5q17.5 -17.5 17.5 -40.5q0 -24 -17.5 -41t-40.5 -17q-24 0 -41 17t-17 41q0 23 17 40.5t41 17.5q23 0 40.5 -17.5zM335.5 812.5q17.5 -17.5 17.5 -40.5q0 -24 -17.5 -41t-40.5 -17q-24 0 -41 17t-17 41q0 23 17 40.5t41 17.5q23 0 40.5 -17.5z" glyph-name="uni0308" horiz-adv-x="378" unicode="̈"/>
<glyph d="M93 -72q30 7 59 7q28 0 44.5 -12.5t16.5 -34.5q0 -38 -35 -57t-78 -19q-50 0 -83 11l4 18q21 -3 38 -3q36 0 63 10.5t27 34.5q0 28 -42 28q-28 0 -49 -7l34 101h27z" glyph-name="uni0327" horiz-adv-x="228" unicode="̧"/>
<glyph d="M561 0q-68 3 -229 3q-192 0 -290 -3v20q36 2 52.5 8t22.5 23t6 55v496q0 38 -6 55t-22.5 23t-52.5 8v20q98 -3 290 -3q147 0 209 3q-7 -66 -7 -118q0 -39 3 -62h-23q-7 65 -18 96.5t-37 46t-79 14.5h-83q-36 0 -52.5 -5.5t-22.5 -22.5t-6 -55v-236h66q35 0 54 16.5 t25.5 39t10.5 56.5l3 20h23q-3 -42 -3 -94v-48q0 -51 6 -142h-23q-1 7 -6 48.5t-27.5 62.5t-62.5 21h-66v-240q0 -38 6 -55t22.5 -22.5t52.5 -5.5h73q62 0 94.5 16.5t47.5 53t22 107.5h23q-3 -27 -3 -72q0 -57 7 -128zM265 875q7 -6 36.5 -32.5t70.5 -57.5l-7 -13 q-54 27 -129 57q-51 19 -72 32q-27 17 -27 39q0 10 6 19q12 17 31 17q14 0 30 -10q24 -16 61 -51z" glyph-name="uni0400" horiz-adv-x="609" unicode="Ѐ"/>
<glyph d="M561 0q-68 3 -229 3q-192 0 -290 -3v20q36 2 52.5 8t22.5 23t6 55v496q0 38 -6 55t-22.5 23t-52.5 8v20q98 -3 290 -3q147 0 209 3q-7 -66 -7 -118q0 -39 3 -62h-23q-7 65 -18 96.5t-37 46t-79 14.5h-83q-36 0 -52.5 -5.5t-22.5 -22.5t-6 -55v-236h66q35 0 54 16.5 t25.5 39t10.5 56.5l3 20h23q-3 -42 -3 -94v-48q0 -51 6 -142h-23q-1 7 -6 48.5t-27.5 62.5t-62.5 21h-66v-240q0 -38 6 -55t22.5 -22.5t52.5 -5.5h73q62 0 94.5 16.5t47.5 53t22 107.5h23q-3 -27 -3 -72q0 -57 7 -128zM240.5 870.5q17.5 -17.5 17.5 -40.5q0 -24 -17.5 -41 t-40.5 -17q-24 0 -41 17t-17 41q0 23 17 40.5t41 17.5q23 0 40.5 -17.5zM452.5 870.5q17.5 -17.5 17.5 -40.5q0 -24 -17.5 -41t-40.5 -17q-24 0 -41 17t-17 41q0 23 17 40.5t41 17.5q23 0 40.5 -17.5z" glyph-name="uni0401" horiz-adv-x="609" unicode="Ё"/>
<glyph d="M691 362.5q57 -53.5 57 -157.5q0 -73 -29.5 -122.5t-77.5 -73t-105 -23.5q-52 0 -90.5 22t-38.5 64q0 24 14 39t38 15q23 0 38 -13t15 -36q0 -39 -43 -52q3 -10 18.5 -17t36.5 -7q65 0 96 49t31 146q0 92 -31 140t-116 48q-45 0 -85.5 -15.5t-61.5 -40.5v-339 q-49 14 -132 14q-30 0 -62 -3v20q45 2 65 9t28 26t8 61v569h-54q-62 0 -92 -17.5t-42 -55t-20 -114.5h-23q3 32 3 82q0 57 -7 128q83 -3 282 -3q198 0 281 3q-7 -71 -7 -128q0 -50 3 -82h-23q-8 77 -20 114.5t-42 55t-92 17.5h-54v-336q30 29 78.5 48t103.5 19 q95 0 152 -53.5z" glyph-name="uni0402" horiz-adv-x="781" unicode="Ђ"/>
<glyph d="M494 580q0 -50 3 -82h-23q-8 77 -20 114.5t-42 55t-92 17.5h-23q-36 0 -52.5 -5.5t-22.5 -22.5t-6 -55v-496q0 -38 8 -55t28 -23t65 -8v-20q-52 3 -147 3q-86 0 -128 -3v20q36 2 52.5 8t22.5 23t6 55v496q0 38 -6 55t-22.5 23t-52.5 8v20q98 -3 290 -3q119 0 169 3 q-7 -71 -7 -128zM389 936q19 0 31 -17q6 -9 6 -19q0 -22 -27 -39q-21 -13 -72 -32q-75 -30 -129 -57l-7 13q41 31 70.5 57.5t36.5 32.5q37 35 61 51q16 10 30 10z" glyph-name="uni0403" horiz-adv-x="528" unicode="Ѓ"/>
<glyph d="M619 240q0 -172 4 -240h-23q-3 32 -8.5 45.5t-15.5 13.5q-8 0 -21 -8q-45 -32 -86 -48.5t-99 -16.5q-95 0 -166.5 43t-111 124.5t-39.5 194.5q0 110 40.5 195t113 132t164.5 47q60 0 102 -17t82 -48q11 -9 19 -9q20 0 26 60h23q-4 -65 -4 -230h-23q-11 65 -20 93.5 t-30 54.5q-30 39 -76.5 58.5t-100.5 19.5q-65 0 -113.5 -43t-75.5 -122.5t-27 -186.5v-3q17 35 48 53.5t70 18.5q29 0 53 -9.5t58 -29.5q31 -19 53.5 -28t48.5 -9q28 0 50.5 14t31.5 42l15 -7q-13 -50 -50 -76.5t-86 -26.5q-31 0 -55 10t-58 29q-30 18 -52.5 27.5t-49.5 9.5 q-53 0 -76 -44q4 -100 34 -171.5t79.5 -108.5t111.5 -37q50 0 97 19t74 57q20 28 29 60t17 98h23z" glyph-name="uni0404" horiz-adv-x="691" unicode="Є"/>
<glyph d="M325.5 709.5q25.5 -9.5 52.5 -27.5q22 -14 34 -14q9 0 14 10.5t8 33.5h23q-5 -58 -5 -204h-23q-6 81 -46.5 136.5t-117.5 55.5q-54 0 -88 -32.5t-34 -83.5q0 -38 17.5 -66t44.5 -48t77 -51l29 -18q63 -39 99.5 -68.5t58.5 -67.5t22 -89q0 -91 -60 -140.5t-152 -49.5 q-48 0 -78.5 10t-58.5 27q-22 14 -34 14q-9 0 -14 -10.5t-8 -33.5h-23q4 55 4 240h23q7 -101 50 -164t132 -63q54 0 92 33.5t38 99.5q0 56 -37.5 95t-118.5 88q-59 36 -95.5 64t-59.5 67.5t-23 92.5q0 84 54 128.5t134 44.5q44 0 69.5 -9.5z" glyph-name="uni0405" horiz-adv-x="540" unicode="Ѕ"/>
<glyph d="M297 688q-36 -2 -52.5 -8t-22.5 -23t-6 -55v-496q0 -38 6 -55t22.5 -23t52.5 -8v-20q-46 3 -127 3q-86 0 -128 -3v20q36 2 52.5 8t22.5 23t6 55v496q0 38 -6 55t-22.5 23t-52.5 8v20q42 -3 128 -3q80 0 127 3v-20z" glyph-name="uni0406" unicode="І"/>
<glyph d="M297 688q-36 -2 -52.5 -8t-22.5 -23t-6 -55v-496q0 -38 6 -55t22.5 -23t52.5 -8v-20q-46 3 -127 3q-86 0 -128 -3v20q36 2 52.5 8t22.5 23t6 55v496q0 38 -6 55t-22.5 23t-52.5 8v20q42 -3 128 -3q80 0 127 3v-20zM104.5 870.5q17.5 -17.5 17.5 -40.5q0 -24 -17.5 -41 t-40.5 -17q-24 0 -41 17t-17 41q0 23 17 40.5t41 17.5q23 0 40.5 -17.5zM316.5 870.5q17.5 -17.5 17.5 -40.5q0 -24 -17.5 -41t-40.5 -17q-24 0 -41 17t-17 41q0 23 17 40.5t41 17.5q23 0 40.5 -17.5z" glyph-name="uni0407" unicode="Ї"/>
<glyph d="M-20 -169q70 2 103.5 52t33.5 169v550q0 38 -6 55t-22.5 23t-52.5 8v20q42 -3 126 -3q82 0 129 3v-20q-36 -2 -52.5 -8t-22.5 -23t-6 -55v-366q0 -85 -3 -150.5t-14 -110.5q-18 -73 -73.5 -118t-139.5 -45v19z" glyph-name="uni0408" horiz-adv-x="326" unicode="Ј"/>
<glyph d="M840 57q-58 -54 -194 -57h-1h-10q-13 0 -55 2q-19 1 -62 1q-94 0 -147 -3v20q45 2 65 8t28 23t8 55v496q0 38 -6 55.5t-23 24t-52 6.5h-13q-36 0 -51.5 -6.5t-21 -23t-8.5 -56.5q-3 -31 -7 -97q-10 -158 -25.5 -262.5t-57.5 -180.5t-119 -76q-38 0 -64.5 16.5t-26.5 51.5 q0 26 16.5 41.5t42.5 15.5q22 0 36.5 -12t14.5 -32q0 -21 -10 -34.5t-33 -26.5q9 -1 24 -1q71 0 109 85t52 201.5t25 310.5q1 8 1 22q0 26 -7 39t-24 18t-51 7v20q42 -3 103 -3q15 0 45 2l43 1l67 -1q46 -2 76 -2q77 0 119 3v-20q-36 -2 -52.5 -8t-22.5 -23t-6 -55v-231 q29 1 92 1q117 0 179 -50t62 -131q0 -80 -58 -134zM765 67.5q33 44.5 33 122.5q0 85 -40 124t-135 39q-35 0 -58 -1v-246q0 -37 6 -54t22 -23.5t50 -8.5q89 3 122 47.5z" glyph-name="uni0409" horiz-adv-x="928" unicode="Љ"/>
<glyph d="M909 57q-58 -54 -194 -57h-1h-10q-13 0 -55 2q-19 1 -62 1q-81 0 -127 -3v20q36 2 52.5 8t22.5 23t6 55v240h-325v-240q0 -38 6 -55t22.5 -23t52.5 -8v-20q-46 3 -127 3q-86 0 -128 -3v20q36 2 52.5 8t22.5 23t6 55v496q0 38 -6 55t-22.5 23t-52.5 8v20q42 -3 128 -3 q80 0 127 3v-20q-36 -2 -52.5 -8t-22.5 -23t-6 -55v-236h325v236q0 38 -6 55t-22.5 23t-52.5 8v20q46 -3 127 -3q86 0 128 3v-20q-36 -2 -52.5 -8t-22.5 -23t-6 -55v-231l92 1q117 0 179 -50t62 -131q0 -80 -58 -134zM834 67.5q33 44.5 33 122.5q0 85 -40 124t-135 39 q-35 0 -58 -1v-246q0 -37 6 -54t22 -23.5t50 -8.5q89 3 122 47.5z" glyph-name="uni040A" horiz-adv-x="997" unicode="Њ"/>
<glyph d="M738 36.5q17 -15.5 59 -15.5v-21q-92 4 -123 4q-28 0 -112 -4v21q37 0 51.5 15.5t14.5 56.5v186q0 37 -8 61t-33 39t-74 15q-95 0 -156 -22v-256q0 -42 8 -61t28 -26t65 -9v-20q-52 3 -147 3q-100 0 -148 -3v20q45 2 65 9t28 26t8 61v569h-54q-62 0 -92 -17.5t-42 -55 t-20 -114.5h-23q3 32 3 82q0 57 -7 128q83 -3 282 -3q198 0 281 3q-7 -71 -7 -128q0 -50 3 -82h-23q-8 77 -20 114.5t-42 55t-92 17.5h-54v-296q31 15 84.5 26t103.5 11q81 0 128 -35q27 -21 37.5 -50.5t10.5 -83.5v-164q0 -41 17 -56.5z" glyph-name="uni040B" horiz-adv-x="814" unicode="Ћ"/>
<glyph d="M488 936q19 0 31 -17q6 -9 6 -19q0 -22 -27 -39q-21 -13 -72 -32q-75 -30 -129 -57l-7 13q41 31 70.5 57.5t36.5 32.5q37 35 61 51q16 10 30 10zM660 50q-22 -33 -45 -48.5t-62 -15.5q-40 0 -66.5 23t-40.5 85l-28 124q-12 51 -23.5 78.5t-38 44t-74.5 16.5h-66v-251 q0 -38 6 -55t22.5 -23t52.5 -8v-20q-46 3 -127 3q-86 0 -128 -3v20q36 2 52.5 8t22.5 23t6 55v496q0 38 -6 55t-22.5 23t-52.5 8v20q42 -3 128 -3q80 0 127 3v-20q-36 -2 -52.5 -8t-22.5 -23t-6 -55v-226q74 1 118 58l96 122q51 63 51 96q0 35 -62 36v20q57 -3 115 -3 q55 0 85 3v-20q-68 -10 -118 -73l-188 -240q80 -3 130.5 -34.5t68.5 -109.5l29 -126q11 -48 20.5 -65t28.5 -17q17 0 28.5 9t26.5 29z" glyph-name="uni040C" horiz-adv-x="678" unicode="Ќ"/>
<glyph d="M682.5 680q-16.5 -6 -22.5 -23t-6 -55v-496q0 -38 6 -55t22.5 -23t52.5 -8v-20q-42 3 -128 3q-80 0 -127 -3v20q36 2 52.5 8t22.5 23t6 55v473l-345 -489q1 -29 8 -43.5t23 -19.5t50 -7v-20q-46 3 -127 3q-86 0 -128 -3v20q36 2 52.5 8t22.5 23t6 55v496q0 38 -6 55 t-22.5 23t-52.5 8v20q42 -3 128 -3q80 0 127 3v-20q-36 -2 -52.5 -8t-22.5 -23t-6 -55v-473l345 489q-1 29 -8 43.5t-23 19.5t-50 7v20q47 -3 127 -3q86 0 128 3v-20q-36 -2 -52.5 -8zM349 875q7 -6 36.5 -32.5t70.5 -57.5l-7 -13q-54 27 -129 57q-51 19 -72 32 q-27 17 -27 39q0 10 6 19q12 17 31 17q14 0 30 -10q24 -16 61 -51z" glyph-name="uni040D" horiz-adv-x="777" unicode="Ѝ"/>
<glyph d="M656 708v-20q-20 -5 -39 -25.5t-41 -63.5l-218 -434l-41 -83q-22 -45 -44 -67q-15 -15 -35 -22t-40 -7q-31 0 -50.5 16t-19.5 44q0 24 15 38.5t38 14.5q22 0 36.5 -12.5t14.5 -34.5q0 -15 -7.5 -26.5t-19.5 -18.5q2 -1 6 -1q26 0 46.5 19t39.5 58l27 56l-268 492 q-18 33 -31.5 44.5t-26.5 11.5v21q39 -3 88 -3q97 0 140 3v-21q-70 0 -70 -38q0 -15 10 -35l204 -380l157 315q27 53 27 86q0 28 -22 40t-66 13v20q57 -3 115 -3q45 0 75 3zM522.5 928q14.5 -15 14.5 -40q0 -21 -11.5 -37t-36.5 -31q-63 -38 -156 -38t-156 38 q-25 15 -36.5 31t-11.5 37q0 25 14.5 40t38.5 15t39.5 -14.5t15.5 -39.5q0 -21 -11.5 -34t-30.5 -17q21 -20 60 -28t78 -8t78 8t60 28q-19 4 -30.5 17t-11.5 34q0 25 16 39.5t39 14.5q24 0 38.5 -15z" glyph-name="uni040E" horiz-adv-x="647" unicode="Ў"/>
<glyph d="M662.5 680q-16.5 -6 -22.5 -23t-6 -55v-496q0 -38 6 -55t22.5 -23t52.5 -8v-20q-42 3 -128 3q-54 0 -80 -1h1q-44 0 -66.5 -15.5t-32 -48.5t-15.5 -98h-23q-6 65 -15.5 98t-32 48.5t-66.5 15.5h1q-29 1 -88 1q-86 0 -128 -3v20q36 2 52.5 8t22.5 23t6 55v496q0 38 -6 55 t-22.5 23t-52.5 8v20q42 -3 128 -3q80 0 127 3v-20q-36 -2 -52.5 -8t-22.5 -23t-6 -55v-496q0 -38 6 -55.5t23 -24t52 -6.5h163q35 0 52 6.5t23 24t6 55.5v496q0 38 -6 55t-22.5 23t-52.5 8v20q46 -3 127 -3q86 0 128 3v-20q-36 -2 -52.5 -8z" glyph-name="uni040F" horiz-adv-x="757" unicode="Џ"/>
<glyph d="M636 20v-20q-40 3 -107 3q-86 0 -128 -3v20q38 2 54.5 9.5t16.5 27.5q0 17 -12 47l-61 164h-242l-41 -106q-20 -54 -20 -82q0 -31 21.5 -45t65.5 -15v-20q-57 3 -115 3q-45 0 -75 -3v20q50 12 79 87l235 606h16l244 -629q24 -62 69 -64zM391 288l-112 299l-114 -299h226z " glyph-name="uni0410" horiz-adv-x="630" unicode="А"/>
<glyph d="M487 363.5q62 -57.5 62 -152.5q0 -90 -60.5 -150.5t-202.5 -60.5l-43 1q-42 2 -83 2q-76 0 -118 -3v20q36 2 52.5 8t22.5 23t6 55v496q0 38 -6 55t-22.5 23t-52.5 8v20q98 -3 290 -3q126 0 179 3q-7 -66 -7 -118q0 -39 3 -62h-23q-7 65 -18 96.5t-37 46t-79 14.5h-53 q-36 0 -52.5 -5.5t-22.5 -22.5t-6 -55v-183l92 2q117 0 179 -57.5zM413.5 70q35.5 50 35.5 140q0 101 -40 146.5t-135 45.5q-35 0 -58 -1v-295q0 -37 5 -55t18.5 -24.5t43.5 -6.5q95 0 130.5 50z" glyph-name="uni0411" horiz-adv-x="596" unicode="Б"/>
<glyph d="M531 310.5q47 -48.5 47 -116.5q0 -57 -29 -101t-83 -68.5t-128 -24.5q-27 0 -46 1q-64 2 -126 2q-82 0 -124 -3v20q36 2 52.5 8t22.5 23t6 55v496q0 38 -6 55t-22.5 23t-52.5 8v20q42 -3 122 -3l108 1q19 1 43 1q102 0 156.5 -43t54.5 -114q0 -58 -36.5 -104t-115.5 -70 v-2q110 -15 157 -63.5zM243.5 681q-15.5 -7 -21.5 -25t-6 -54v-226h67q82 0 114.5 44.5t32.5 118.5q0 75 -33 112t-107 37q-31 0 -46.5 -7zM478 198q0 79 -42.5 120t-135.5 41h-84v-253q0 -36 6 -53t21.5 -23.5t47.5 -6.5q187 0 187 175z" glyph-name="uni0412" horiz-adv-x="623" unicode="В"/>
<glyph d="M494 580q0 -50 3 -82h-23q-8 77 -20 114.5t-42 55t-92 17.5h-23q-36 0 -52.5 -5.5t-22.5 -22.5t-6 -55v-496q0 -38 8 -55t28 -23t65 -8v-20q-52 3 -147 3q-86 0 -128 -3v20q36 2 52.5 8t22.5 23t6 55v496q0 38 -6 55t-22.5 23t-52.5 8v20q98 -3 290 -3q119 0 169 3 q-7 -71 -7 -128z" glyph-name="uni0413" horiz-adv-x="528" unicode="Г"/>
<glyph d="M603 -98q0 -40 3 -62h-23q-7 65 -18 97.5t-37.5 47.5t-78.5 15h-285q-52 0 -78.5 -15t-37.5 -47.5t-18 -97.5h-23q3 22 3 62q0 52 -7 118h18q71 0 109 83.5t52 197t25 301.5q2 36 -3.5 53.5t-22.5 24t-55 8.5v20q42 -3 103 -3q15 0 45 2l43 1l67 -1q46 -2 76 -2 q77 0 119 3v-20q-36 -2 -52.5 -8t-22.5 -23t-6 -55v-496q0 -38 6 -55.5t23 -24t52 -6.5h31q-7 -66 -7 -118zM405 602q0 38 -6 55.5t-23 24t-52 6.5h-13q-36 0 -51.5 -6.5t-20.5 -23t-9 -56.5l-8 -98q-9 -130 -20 -216.5t-38 -161.5t-76 -106h236q35 0 52 6.5t23 24t6 55.5 v496z" glyph-name="uni0414" horiz-adv-x="629" unicode="Д"/>
<glyph d="M561 0q-68 3 -229 3q-192 0 -290 -3v20q36 2 52.5 8t22.5 23t6 55v496q0 38 -6 55t-22.5 23t-52.5 8v20q98 -3 290 -3q147 0 209 3q-7 -66 -7 -118q0 -39 3 -62h-23q-7 65 -18 96.5t-37 46t-79 14.5h-83q-36 0 -52.5 -5.5t-22.5 -22.5t-6 -55v-236h66q35 0 54 16.5 t25.5 39t10.5 56.5l3 20h23q-3 -42 -3 -94v-48q0 -51 6 -142h-23q-1 7 -6 48.5t-27.5 62.5t-62.5 21h-66v-240q0 -38 6 -55t22.5 -22.5t52.5 -5.5h73q62 0 94.5 16.5t47.5 53t22 107.5h23q-3 -27 -3 -72q0 -57 7 -128z" glyph-name="uni0415" horiz-adv-x="609" unicode="Е"/>
<glyph d="M982 50q-22 -33 -45 -48.5t-62 -15.5q-40 0 -66.5 23t-40.5 85l-28 124q-12 51 -23.5 78.5t-38 44t-74.5 16.5h-66v-251q0 -38 6 -55t22.5 -23t52.5 -8v-20q-42 3 -128 3q-80 0 -127 -3v20q36 2 52.5 8t22.5 23t6 55v251h-66q-48 0 -74.5 -16.5t-38 -44t-23.5 -78.5 l-28 -124q-14 -62 -40.5 -85t-66.5 -23q-39 0 -62 15.5t-45 48.5l15 11q15 -20 26.5 -29t28.5 -9q19 0 28.5 17t20.5 65l29 126q18 78 68.5 109.5t130.5 34.5l-188 240q-50 63 -118 73v20q30 -3 85 -3q58 0 115 3v-20q-62 -1 -62 -36q0 -33 51 -96l96 -122q44 -57 118 -58 v226q0 38 -6 55t-22.5 23t-52.5 8v20q47 -3 127 -3q86 0 128 3v-20q-36 -2 -52.5 -8t-22.5 -23t-6 -55v-226q74 1 118 58l96 122q51 63 51 96q0 35 -62 36v20q57 -3 115 -3q55 0 85 3v-20q-68 -10 -118 -73l-188 -240q80 -3 130.5 -34.5t68.5 -109.5l29 -126 q11 -48 20.5 -65t28.5 -17q17 0 28.5 9t26.5 29z" glyph-name="uni0416" horiz-adv-x="983" unicode="Ж"/>
<glyph d="M412 681.5q55 -40.5 55 -108.5q0 -77 -61.5 -127.5t-141.5 -70.5q60 -1 115.5 -22.5t90.5 -62.5t35 -99q0 -64 -38 -110.5t-101 -70.5t-136 -24q-89 0 -148 36q-47 30 -47 71q0 23 15 38t38 15q24 0 39.5 -14.5t15.5 -39.5q0 -21 -11.5 -34t-30.5 -17q11 -15 50 -26.5 t82 -11.5q86 0 129.5 49t43.5 129t-41.5 131.5t-116.5 53.5q-24 -13 -43 -13q-9 0 -15 4.5t-6 12.5q0 7 6 11.5t15 4.5q16 0 44 -6q66 22 92 64.5t26 116.5q0 71 -26 106.5t-85 35.5q-72 0 -113 -56.5t-46 -135.5h-23q0 146 -5 204h23q3 -24 8 -34t15 -10q11 0 33 14 q4 3 21.5 13.5t42 17t56.5 6.5q89 0 144 -40.5z" glyph-name="uni0417" horiz-adv-x="549" unicode="З"/>
<glyph d="M682.5 680q-16.5 -6 -22.5 -23t-6 -55v-496q0 -38 6 -55t22.5 -23t52.5 -8v-20q-42 3 -128 3q-80 0 -127 -3v20q36 2 52.5 8t22.5 23t6 55v473l-345 -489q1 -29 8 -43.5t23 -19.5t50 -7v-20q-46 3 -127 3q-86 0 -128 -3v20q36 2 52.5 8t22.5 23t6 55v496q0 38 -6 55 t-22.5 23t-52.5 8v20q42 -3 128 -3q80 0 127 3v-20q-36 -2 -52.5 -8t-22.5 -23t-6 -55v-473l345 489q-1 29 -8 43.5t-23 19.5t-50 7v20q47 -3 127 -3q86 0 128 3v-20q-36 -2 -52.5 -8z" glyph-name="uni0418" horiz-adv-x="777" unicode="И"/>
<glyph d="M682.5 680q-16.5 -6 -22.5 -23t-6 -55v-496q0 -38 6 -55t22.5 -23t52.5 -8v-20q-42 3 -128 3q-80 0 -127 -3v20q36 2 52.5 8t22.5 23t6 55v473l-345 -489q1 -29 8 -43.5t23 -19.5t50 -7v-20q-46 3 -127 3q-86 0 -128 -3v20q36 2 52.5 8t22.5 23t6 55v496q0 38 -6 55 t-22.5 23t-52.5 8v20q42 -3 128 -3q80 0 127 3v-20q-36 -2 -52.5 -8t-22.5 -23t-6 -55v-473l345 489q-1 29 -8 43.5t-23 19.5t-50 7v20q47 -3 127 -3q86 0 128 3v-20q-36 -2 -52.5 -8zM578.5 928q14.5 -15 14.5 -40q0 -21 -11.5 -37t-36.5 -31q-63 -38 -156 -38t-156 38 q-25 15 -36.5 31t-11.5 37q0 25 14.5 40t38.5 15t39.5 -14.5t15.5 -39.5q0 -21 -11.5 -34t-30.5 -17q21 -20 60 -28t78 -8t78 8t60 28q-19 4 -30.5 17t-11.5 34q0 25 16 39.5t39 14.5q24 0 38.5 -15z" glyph-name="uni0419" horiz-adv-x="777" unicode="Й"/>
<glyph d="M660 50q-22 -33 -45 -48.5t-62 -15.5q-40 0 -66.5 23t-40.5 85l-28 124q-12 51 -23.5 78.5t-38 44t-74.5 16.5h-66v-251q0 -38 6 -55t22.5 -23t52.5 -8v-20q-46 3 -127 3q-86 0 -128 -3v20q36 2 52.5 8t22.5 23t6 55v496q0 38 -6 55t-22.5 23t-52.5 8v20q42 -3 128 -3 q80 0 127 3v-20q-36 -2 -52.5 -8t-22.5 -23t-6 -55v-226q74 1 118 58l96 122q51 63 51 96q0 35 -62 36v20q57 -3 115 -3q55 0 85 3v-20q-68 -10 -118 -73l-188 -240q80 -3 130.5 -34.5t68.5 -109.5l29 -126q11 -48 20.5 -65t28.5 -17q17 0 28.5 9t26.5 29z" glyph-name="uni041A" horiz-adv-x="678" unicode="К"/>
<glyph d="M646 688q-36 -2 -52.5 -8t-22.5 -23t-6 -55v-496q0 -38 6 -55t22.5 -23t52.5 -8v-20q-42 3 -128 3q-94 0 -147 -3v20q45 2 65 8t28 23t8 55v496q0 38 -6 55.5t-23 24t-52 6.5h-13q-36 0 -51.5 -6.5t-21 -23t-8.5 -56.5q-3 -31 -7 -97q-10 -158 -25.5 -262.5t-57.5 -180.5 t-119 -76q-38 0 -64.5 16.5t-26.5 51.5q0 26 16.5 41.5t42.5 15.5q22 0 36.5 -12t14.5 -32q0 -21 -10 -34.5t-33 -26.5q9 -1 24 -1q71 0 109 85t52 201.5t25 310.5q1 8 1 22q0 26 -7 39t-24 18t-51 7v20q42 -3 103 -3q15 0 45 2l43 1l67 -1q46 -2 76 -2q77 0 119 3v-20z" glyph-name="uni041B" horiz-adv-x="688" unicode="Л"/>
<glyph d="M776.5 680q-16.5 -6 -22.5 -23t-6 -55v-496q0 -38 6 -55t22.5 -23t52.5 -8v-20q-46 3 -127 3q-86 0 -128 -3v20q36 2 52.5 8t22.5 23t6 55v536l-241 -647h-16l-252 649v-528q0 -39 6.5 -58t25.5 -27.5t59 -10.5v-20q-36 3 -102 3q-60 0 -93 -3v20q35 2 52 10.5t23 28 t6 57.5v486q0 38 -6 55t-22.5 23t-52.5 8v20q33 -3 93 -3q52 0 85 3l220 -579l215 576h47q81 0 127 3v-20q-36 -2 -52.5 -8z" glyph-name="uni041C" horiz-adv-x="871" unicode="М"/>
<glyph d="M662.5 680q-16.5 -6 -22.5 -23t-6 -55v-496q0 -38 6 -55t22.5 -23t52.5 -8v-20q-42 3 -128 3q-81 0 -127 -3v20q36 2 52.5 8t22.5 23t6 55v240h-325v-240q0 -38 6 -55t22.5 -23t52.5 -8v-20q-46 3 -127 3q-86 0 -128 -3v20q36 2 52.5 8t22.5 23t6 55v496q0 38 -6 55 t-22.5 23t-52.5 8v20q42 -3 128 -3q80 0 127 3v-20q-36 -2 -52.5 -8t-22.5 -23t-6 -55v-236h325v236q0 38 -6 55t-22.5 23t-52.5 8v20q46 -3 127 -3q86 0 128 3v-20q-36 -2 -52.5 -8z" glyph-name="uni041D" horiz-adv-x="757" unicode="Н"/>
<glyph d="M537.5 679q71.5 -43 111 -124.5t39.5 -194.5q0 -110 -40.5 -195t-113 -132t-164.5 -47q-95 0 -166.5 43t-111 124.5t-39.5 194.5q0 110 40.5 195t113 132t164.5 47q95 0 166.5 -43zM254.5 659.5q-48.5 -44.5 -75 -124.5t-26.5 -183q0 -104 29.5 -183t79.5 -122t112 -43 q64 0 112.5 44.5t75 124.5t26.5 183q0 104 -29.5 183t-79.5 122t-112 43q-64 0 -112.5 -44.5z" glyph-name="uni041E" horiz-adv-x="741" unicode="О"/>
<glyph d="M715 688q-36 -2 -52.5 -8t-22.5 -23t-6 -55v-496q0 -38 6 -55t22.5 -23t52.5 -8v-20q-42 3 -128 3q-81 0 -127 -3v20q36 2 52.5 8t22.5 23t6 55v496q0 38 -6 55.5t-23 24t-52 6.5h-163q-35 0 -52 -6.5t-23 -24t-6 -55.5v-496q0 -38 6 -55t22.5 -23t52.5 -8v-20 q-46 3 -127 3q-86 0 -128 -3v20q36 2 52.5 8t22.5 23t6 55v496q0 38 -6 55t-22.5 23t-52.5 8v20q42 -3 128 -3q50 0 130 2l80 1l78 -1q80 -2 129 -2q86 0 128 3v-20z" glyph-name="uni041F" horiz-adv-x="757" unicode="П"/>
<glyph d="M216 286v-180q0 -38 8 -55t28 -23t65 -8v-20q-52 3 -147 3q-86 0 -128 -3v20q36 2 52.5 8t22.5 23t6 55v496q0 38 -6 55t-22.5 23t-52.5 8v20q42 -3 122 -3l108 1q19 1 43 1q117 0 179 -53.5t62 -143.5q0 -55 -24.5 -105.5t-83 -84.5t-155.5 -34h-77zM243.5 681 q-15.5 -7 -21.5 -25t-6 -54v-296h67q98 0 135.5 52.5t37.5 140.5q0 97 -38.5 143t-127.5 46q-31 0 -46.5 -7z" glyph-name="uni0420" horiz-adv-x="585" unicode="Р"/>
<glyph d="M473 705q42 -17 82 -48q11 -9 19 -9q20 0 26 60h23q-4 -65 -4 -230h-23q-11 65 -20 93.5t-30 54.5q-30 39 -76.5 58.5t-100.5 19.5q-65 0 -113.5 -43t-75.5 -122.5t-27 -186.5q0 -109 29 -187t80.5 -118.5t116.5 -40.5q50 0 97 19t74 57q20 28 29 60t17 98h23 q0 -172 4 -240h-23q-3 32 -8.5 45.5t-15.5 13.5q-8 0 -21 -8q-45 -32 -86 -48.5t-99 -16.5q-95 0 -166.5 43t-111 124.5t-39.5 194.5q0 110 40.5 195t113 132t164.5 47q60 0 102 -17z" glyph-name="uni0421" horiz-adv-x="688" unicode="С"/>
<glyph d="M585 580q0 -50 3 -82h-23q-8 77 -20 114.5t-42 55t-92 17.5h-54v-569q0 -42 8 -61t28 -26t65 -9v-20q-52 3 -147 3q-100 0 -148 -3v20q45 2 65 9t28 26t8 61v569h-54q-62 0 -92 -17.5t-42 -55t-20 -114.5h-23q3 32 3 82q0 57 -7 128q83 -3 282 -3q198 0 281 3 q-7 -71 -7 -128z" glyph-name="uni0422" horiz-adv-x="621" unicode="Т"/>
<glyph d="M656 708v-20q-20 -5 -39 -25.5t-41 -63.5l-218 -434l-41 -83q-22 -45 -44 -67q-15 -15 -35 -22t-40 -7q-31 0 -50.5 16t-19.5 44q0 24 15 38.5t38 14.5q22 0 36.5 -12.5t14.5 -34.5q0 -15 -7.5 -26.5t-19.5 -18.5q2 -1 6 -1q26 0 46.5 19t39.5 58l27 56l-268 492 q-18 33 -31.5 44.5t-26.5 11.5v21q39 -3 88 -3q97 0 140 3v-21q-70 0 -70 -38q0 -15 10 -35l204 -380l157 315q27 53 27 86q0 28 -22 40t-66 13v20q57 -3 115 -3q45 0 75 3z" glyph-name="uni0423" horiz-adv-x="647" unicode="У"/>
<glyph d="M778 215.5q-44 -63.5 -123 -102t-183 -45.5v-36q0 -38 6 -55t22.5 -23t52.5 -8v-20q-46 3 -127 3q-86 0 -128 -3v20q36 2 52.5 8t22.5 23t6 55v35q-163 10 -257.5 86t-94.5 205q0 78 44 139.5t124 98.5t184 44v36q0 38 -6 55t-22.5 23t-52.5 8v20q42 -3 128 -3 q80 0 127 3v-20q-36 -2 -52.5 -8t-22.5 -23t-6 -55v-35q162 -10 256 -83t94 -198q0 -81 -44 -144.5zM159 228q32 -59 89.5 -95t130.5 -46v535q-76 -8 -133 -43t-88 -91t-31 -126q0 -75 32 -134zM690 485q-32 57 -88.5 91.5t-129.5 44.5v-535q76 9 132.5 45.5t87 94.5 t30.5 130t-32 129z" glyph-name="uni0424" horiz-adv-x="849" unicode="Ф"/>
<glyph d="M592 32q13 -10 35 -11v-21q-68 4 -86 4q-33 0 -141 -4v21q39 0 55 3.5t16 12.5q0 8 -7 18l-171 262l-108 -161q-38 -57 -38 -88q0 -26 23 -36.5t66 -11.5v-20q-57 3 -135 3q-55 0 -85 -3v20q30 4 57.5 27t55.5 65l151 225l-196 300q-19 29 -32 39t-35 11v21q68 -4 86 -4 q67 0 141 4v-21q-36 0 -51.5 -5.5t-15.5 -16.5q0 -6 9 -22l156 -238l98 147q43 63 43 96q0 21 -19 30t-58 10v20q57 -3 115 -3q55 0 85 3v-20q-30 -4 -57.5 -27t-55.5 -65l-140 -209l207 -316q19 -29 32 -39z" glyph-name="uni0425" horiz-adv-x="634" unicode="Х"/>
<glyph d="M715 688q-36 -2 -52.5 -8t-22.5 -23t-6 -55v-496q0 -38 6 -55.5t23 -24t52 -6.5h31q-7 -66 -7 -118q0 -40 3 -62h-23q-7 65 -18 97.5t-37.5 47.5t-78.5 15h-205l-80 1q-80 2 -130 2q-86 0 -128 -3v20q36 2 52.5 8t22.5 23t6 55v496q0 38 -6 55t-22.5 23t-52.5 8v20 q42 -3 128 -3q80 0 127 3v-20q-36 -2 -52.5 -8t-22.5 -23t-6 -55v-496q0 -38 6 -55.5t23 -24t52 -6.5h163q35 0 52 6.5t23 24t6 55.5v496q0 38 -6 55t-22.5 23t-52.5 8v20q46 -3 127 -3q86 0 128 3v-20z" glyph-name="uni0426" horiz-adv-x="765" unicode="Ц"/>
<glyph d="M578.5 680q-16.5 -6 -22.5 -23t-6 -55v-496q0 -38 6 -55t22.5 -23t52.5 -8v-20q-42 3 -128 3q-94 0 -147 -3v20q45 2 65 8t28 23t8 55v213q-31 -15 -84.5 -26t-103.5 -11q-81 0 -128 35q-27 21 -37.5 50.5t-10.5 83.5v164q0 41 -17 56.5t-59 15.5v21q92 -4 123 -4 q28 0 112 4v-21q-37 0 -51.5 -15.5t-14.5 -56.5v-186q0 -37 8 -61t33 -39t74 -15q95 0 156 22v266q0 38 -6 55t-22.5 23t-52.5 8v20q42 -3 128 -3q81 0 127 3v-20q-36 -2 -52.5 -8z" glyph-name="uni0427" horiz-adv-x="673" unicode="Ч"/>
<glyph d="M965 688q-36 -2 -52.5 -8t-22.5 -23t-6 -55v-496q0 -38 6 -55t22.5 -23t52.5 -8v-20q-42 3 -128 3l-74 -1q-64 -2 -104 -2q-39 0 -97 2l-57 1l-59 -1q-58 -2 -99 -2q-43 0 -105 2l-72 1q-86 0 -128 -3v20q36 2 52.5 8t22.5 23t6 55v496q0 38 -6 55t-22.5 23t-52.5 8v20 q42 -3 128 -3q73 0 117 3v-20q-32 -2 -46 -8t-19.5 -23t-5.5 -55v-496q0 -38 6 -55.5t23 -24t52 -6.5h79q35 0 52 6.5t23 24t6 55.5v496q0 38 -5 55t-19.5 23t-46.5 8v20q44 -3 117 -3q79 0 118 3v-20q-32 -2 -46.5 -8t-19.5 -23t-5 -55v-496q0 -38 6 -55.5t23 -24t52 -6.5 h79q35 0 52 6.5t23 24t6 55.5v496q0 38 -5 55t-19.5 23t-46.5 8v20q44 -3 117 -3q86 0 128 3v-20z" glyph-name="uni0428" horiz-adv-x="1007" unicode="Ш"/>
<glyph d="M945 688q-36 -2 -52.5 -8t-22.5 -23t-6 -55v-496q0 -38 6 -55.5t23 -24t52 -6.5h31q-7 -66 -7 -118q0 -40 3 -62h-23q-7 65 -18 97.5t-37.5 47.5t-78.5 15h-166q-39 0 -97 2l-57 1l-59 -1q-58 -2 -99 -2q-35 0 -93 2l-74 1q-86 0 -128 -3v20q36 2 52.5 8t22.5 23t6 55 v496q0 38 -6 55t-22.5 23t-52.5 8v20q42 -3 128 -3q73 0 117 3v-20q-32 -2 -46 -8t-19.5 -23t-5.5 -55v-496q0 -38 6 -55.5t23 -24t52 -6.5h69q35 0 52 6.5t23 24t6 55.5v496q0 38 -5 55t-19.5 23t-46.5 8v20q43 -3 117 -3q79 0 118 3v-20q-32 -2 -46.5 -8t-19.5 -23t-5 -55 v-496q0 -38 6 -55.5t23 -24t52 -6.5h69q35 0 52 6.5t23 24t6 55.5v496q0 38 -5 55t-19.5 23t-46.5 8v20q43 -3 117 -3q86 0 128 3v-20z" glyph-name="uni0429" horiz-adv-x="995" unicode="Щ"/>
<glyph d="M637 366q62 -55 62 -145q0 -55 -24.5 -105t-83 -83t-155.5 -33l-47 1q-42 2 -69 2q-86 0 -128 -3v20q36 2 52.5 8t22.5 23t6 55v579h-64q-62 0 -92 -17.5t-42 -55t-20 -114.5h-23q3 32 3 82q0 57 -7 128q86 -3 292 -3q95 0 147 3v-20q-45 -2 -65 -8t-28 -23t-8 -55v-183 l92 2q117 0 179 -55zM564 71q35 51 35 139q0 97 -38.5 144.5t-127.5 47.5q-45 0 -67 -1v-295q0 -38 5 -55.5t19 -24t46 -6.5q93 0 128 51z" glyph-name="uni042A" horiz-adv-x="730" unicode="Ъ"/>
<glyph d="M487 366q62 -55 62 -145q0 -55 -24.5 -105t-83 -83t-155.5 -33l-47 1q-42 2 -69 2q-86 0 -128 -3v20q36 2 52.5 8t22.5 23t6 55v496q0 38 -6 55t-22.5 23t-52.5 8v20q42 -3 128 -3q95 0 147 3v-20q-45 -2 -65 -8t-28 -23t-8 -55v-183l92 2q117 0 179 -55zM794.5 680 q-16.5 -6 -22.5 -23t-6 -55v-496q0 -38 6 -55t22.5 -23t52.5 -8v-20q-46 3 -127 3q-86 0 -128 -3v20q36 2 52.5 8t22.5 23t6 55v496q0 38 -6 55t-22.5 23t-52.5 8v20q42 -3 128 -3q80 0 127 3v-20q-36 -2 -52.5 -8zM414 71q35 51 35 139q0 97 -38.5 144.5t-127.5 47.5 q-45 0 -67 -1v-295q0 -38 5 -55.5t19 -24t46 -6.5q93 0 128 51z" glyph-name="uni042B" horiz-adv-x="889" unicode="Ы"/>
<glyph d="M487 366q62 -55 62 -145q0 -55 -24.5 -105t-83 -83t-155.5 -33l-47 1q-42 2 -69 2q-86 0 -128 -3v20q36 2 52.5 8t22.5 23t6 55v496q0 38 -6 55t-22.5 23t-52.5 8v20q42 -3 128 -3q95 0 147 3v-20q-45 -2 -65 -8t-28 -23t-8 -55v-183l92 2q117 0 179 -55zM414 71 q35 51 35 139q0 97 -38.5 144.5t-127.5 47.5q-45 0 -67 -1v-295q0 -38 5 -55.5t19 -24t46 -6.5q93 0 128 51z" glyph-name="uni042C" horiz-adv-x="580" unicode="Ь"/>
<glyph d="M485.5 675q72.5 -47 113 -132t40.5 -195q0 -113 -39.5 -194.5t-111 -124.5t-166.5 -43q-58 0 -99 16.5t-86 48.5q-13 8 -21 8q-10 0 -15.5 -13.5t-8.5 -45.5h-23q4 68 4 240h23q8 -66 17 -98t29 -60q27 -38 74 -57t97 -19q65 0 116.5 40.5t80.5 118.5t29 187v20 q-17 -37 -48.5 -56.5t-70.5 -19.5q-30 0 -54 10t-58 29q-31 19 -53.5 28t-48.5 9q-28 0 -50.5 -14t-32.5 -42l-15 7q14 50 51 76.5t86 26.5q31 0 55 -10t58 -29q31 -19 53.5 -28t49.5 -9q52 0 77 45q-5 95 -33.5 165t-75 107t-106.5 37q-54 0 -100.5 -19.5t-76.5 -58.5 q-21 -26 -30 -54.5t-20 -93.5h-23q0 165 -4 230h23q6 -60 26 -60q9 0 19 9q40 31 82 48t102 17q92 0 164.5 -47z" glyph-name="uni042D" horiz-adv-x="692" unicode="Э"/>
<glyph d="M812.5 679q69.5 -43 107.5 -124.5t38 -194.5q0 -110 -39.5 -195t-109.5 -132t-159 -47q-91 0 -160 42.5t-107.5 122.5t-39.5 191h-127v-236q0 -38 6 -55t22.5 -23t52.5 -8v-20q-46 3 -127 3q-86 0 -128 -3v20q36 2 52.5 8t22.5 23t6 55v496q0 38 -6 55t-22.5 23t-52.5 8 v20q42 -3 128 -3q80 0 127 3v-20q-36 -2 -52.5 -8t-22.5 -23t-6 -55v-240h127q2 106 42 188t109.5 127t156.5 45q92 0 161.5 -43zM761.5 48.5q46.5 44.5 71.5 124.5t25 183q0 104 -28 183t-76 122t-107 43q-61 0 -107.5 -44.5t-71.5 -124.5t-25 -183q0 -104 28 -183t76 -122 t107 -43q61 0 107.5 44.5z" glyph-name="uni042E" horiz-adv-x="1012" unicode="Ю"/>
<glyph d="M558.5 680q-16.5 -6 -22.5 -23t-6 -55v-496q0 -38 6 -55t22.5 -23t52.5 -8v-20q-42 3 -128 3q-80 0 -127 -3v20q36 2 52.5 8t22.5 23t6 55v230h-100q-38 0 -59 -17t-31.5 -45t-22.5 -80l-22 -100q-13 -60 -39.5 -84t-67.5 -24q-38 0 -61 15t-46 49l15 11q15 -20 26.5 -29 t28.5 -9q19 0 29 17.5t20 64.5l23 102q14 63 46 92t98 40l13 2q-101 15 -145.5 69.5t-44.5 122.5q0 77 62.5 125.5t178.5 48.5q24 0 43 -1l108 -1q80 0 122 3v-20q-36 -2 -52.5 -8zM234 401q37 -45 136 -45h67v246q0 36 -6 54t-21.5 25t-46.5 7q-87 0 -126.5 -41t-39.5 -118 q0 -83 37 -128z" glyph-name="uni042F" horiz-adv-x="653" unicode="Я"/>
<glyph d="M619 20v-20q-40 3 -107 3q-86 0 -128 -3v20q37 2 54.5 10t17.5 27q0 16 -14 47l-51 114h-243l-34 -75q-17 -39 -17 -64q0 -26 18.5 -40.5t59.5 -18.5v-20q-30 3 -91 3t-87 -3v20q27 7 46 30.5t36 62.5l221 500h16l234 -529q27 -62 69 -64zM383 238l-113 254l-114 -254 h227z" glyph-name="uni0430" horiz-adv-x="616" unicode="а"/>
<glyph d="M426 313.5q61 -12.5 96.5 -48t35.5 -101.5q0 -48 -27.5 -85t-79.5 -58t-123 -21q-25 0 -43 1q-62 2 -119 2q-82 0 -124 -3v20q36 2 52.5 8t22.5 23t6 55v396q0 38 -6 55t-22.5 23t-52.5 8v20q42 -3 122 -3h141q154 0 219 3q-7 -60 -7 -108q0 -39 3 -62h-23 q-7 82 -34.5 114.5t-89.5 32.5h-93q-27 0 -40.5 -6.5t-18.5 -23.5t-5 -53v-176h57q92 0 153 -12.5zM415 59.5q43 36.5 43 108.5q0 70 -40 105.5t-128 35.5h-74v-203q0 -36 5 -53t18.5 -23.5t41.5 -6.5q91 0 134 36.5z" glyph-name="uni0431" horiz-adv-x="606" unicode="б"/>
<glyph d="M513 267.5q45 -43.5 45 -103.5q0 -48 -27.5 -85t-79.5 -58t-123 -21q-25 0 -43 1q-62 2 -119 2q-82 0 -124 -3v20q36 2 52.5 8t22.5 23t6 55v396q0 38 -6 55t-22.5 23t-52.5 8v20q42 -3 122 -3l102 1q17 1 39 1q97 0 149 -37.5t52 -99.5q0 -48 -34 -86t-108 -58v-2 q104 -13 149 -56.5zM239.5 581q-13.5 -7 -18.5 -25t-5 -54v-176h57q77 0 107 35t30 98q0 65 -31 97t-99 32q-27 0 -40.5 -7zM415 59.5q43 36.5 43 108.5q0 70 -40 105.5t-128 35.5h-74v-203q0 -36 5 -53t18.5 -23.5t41.5 -6.5q91 0 134 36.5z" glyph-name="uni0432" horiz-adv-x="603" unicode="в"/>
<glyph d="M494 480q0 -50 3 -82h-23q-8 77 -20 114.5t-42 55t-92 17.5h-23q-36 0 -52.5 -5.5t-22.5 -22.5t-6 -55v-396q0 -38 8 -55t28 -23t65 -8v-20q-52 3 -147 3q-86 0 -128 -3v20q36 2 52.5 8t22.5 23t6 55v396q0 38 -6 55t-22.5 23t-52.5 8v20l36 -1q58 -2 91 -2h63h100 q119 0 169 3q-7 -71 -7 -128z" glyph-name="uni0433" horiz-adv-x="535" unicode="г"/>
<glyph d="M583 -98q0 -40 3 -62h-23q-7 65 -18 97.5t-37.5 47.5t-78.5 15h-265q-52 0 -78.5 -15t-37.5 -47.5t-18 -97.5h-23q3 22 3 62q0 52 -7 118h18q71 0 109 69.5t52 163.5t25 249q1 8 1 22q0 26 -7 39t-24 18t-51 7v20q42 -3 103 -3q11 0 35 2l33 1l67 -1q46 -2 76 -2 q77 0 119 3v-20q-36 -2 -52.5 -8t-22.5 -23t-6 -55v-396q0 -38 6 -55.5t23 -24t52 -6.5h31q-7 -66 -7 -118zM385 502q0 38 -5.5 56t-20 24t-45.5 6h-13q-31 0 -44.5 -6.5t-18.5 -23t-8 -56.5q-3 -23 -4.5 -44.5t-3.5 -39.5q-9 -105 -19.5 -176t-36.5 -133t-72 -89h210 q35 0 52 6.5t23 24t6 55.5v396z" glyph-name="uni0434" horiz-adv-x="611" unicode="д"/>
<glyph d="M541 0q-65 3 -219 3q-185 0 -280 -3v20q36 2 52.5 8t22.5 23t6 55v396q0 38 -6 55t-22.5 23t-52.5 8v20q95 -3 280 -3q140 0 199 3q-7 -60 -7 -108q0 -39 3 -62h-23q-7 82 -34.5 114.5t-89.5 32.5h-73q-36 0 -52.5 -5.5t-22.5 -22.5t-6 -55v-186h83q32 0 49 16.5t23 36 t11 49.5h23q-3 -34 -3 -74v-38q0 -39 6 -112h-23q-6 48 -23 75t-63 27h-83v-190q0 -38 6 -55t22.5 -22.5t52.5 -5.5h73q50 0 79 16t44 51.5t21 99.5h23q-3 -27 -3 -72q0 -52 7 -118z" glyph-name="uni0435" horiz-adv-x="595" unicode="е"/>
<glyph d="M962 50q-22 -33 -45 -48.5t-62 -15.5q-40 0 -65 21.5t-42 86.5l-27 104q-12 40 -24 61.5t-38.5 34.5t-74.5 13h-45v-201q0 -38 6 -55t22.5 -23t52.5 -8v-20q-46 3 -127 3q-86 0 -128 -3v20q36 2 52.5 8t22.5 23t6 55v201h-52q-49 0 -75.5 -13t-39 -35t-22.5 -61l-27 -104 q-17 -65 -42 -86.5t-65 -21.5q-35 0 -57.5 16t-42.5 48l15 11q15 -20 26.5 -29t28.5 -9q19 0 28 17t22 65l29 106q12 47 47.5 73.5t99.5 36.5l16 2l-179 194q-36 37 -60.5 51t-61.5 21v19q28 -3 71 -3q64 0 118 3v-19q-55 -1 -55 -32q0 -19 23 -47l99 -112q33 -40 63 -54.5 t67 -17.5h26v176q0 38 -6 55t-22.5 23t-52.5 8v20q42 -3 128 -3q81 0 127 3v-20q-36 -2 -52.5 -8t-22.5 -23t-6 -55v-176h25q38 3 67.5 17t63.5 55l99 112q23 28 23 47q0 31 -55 32v19q54 -3 118 -3q43 0 71 3v-19q-37 -7 -61.5 -21t-60.5 -51l-180 -195l10 -1 q68 -10 105.5 -36t50.5 -74l28 -106q2 -7 9 -33.5t16.5 -37.5t24.5 -11q16 0 27.5 9t26.5 29z" glyph-name="uni0436" horiz-adv-x="984" unicode="ж"/>
<glyph d="M399.5 587.5q48.5 -34.5 48.5 -96.5q0 -68 -56 -109.5t-137 -56.5q58 -1 111 -19.5t86.5 -54t33.5 -85.5q0 -85 -67 -132.5t-188 -47.5q-89 0 -148 36q-47 30 -47 71q0 23 15 38t38 15q24 0 39.5 -14.5t15.5 -39.5q0 -21 -11.5 -34t-30.5 -17q11 -15 50 -26.5t82 -11.5 q75 0 114 43.5t39 109.5q0 60 -30 102.5t-84 53.5q-20 4 -34 4q-24 -13 -43 -13q-9 0 -15 4.5t-6 12.5q0 16 21 16q16 0 44 -6q61 18 84.5 52t23.5 99q0 61 -21 91.5t-70 30.5q-68 0 -111 -53t-48 -135h-23q0 142 -5 200h23q3 -24 8 -34t15 -10q13 0 33 14q28 17 55 27 t65 10q82 0 130.5 -34.5z" glyph-name="uni0437" horiz-adv-x="530" unicode="з"/>
<glyph d="M662.5 580q-16.5 -6 -22.5 -23t-6 -55v-396q0 -38 6 -55t22.5 -23t52.5 -8v-20q-42 3 -128 3q-81 0 -127 -3v20q36 2 52.5 8t22.5 23t6 55v373l-325 -392q2 -28 9 -41.5t23 -18.5t49 -7v-20q-46 3 -127 3q-86 0 -128 -3v20q36 2 52.5 8t22.5 23t6 55v396q0 38 -6 55 t-22.5 23t-52.5 8v20q42 -3 128 -3q80 0 127 3v-20q-36 -2 -52.5 -8t-22.5 -23t-6 -55v-381l325 393q-1 32 -8 46.5t-23 20t-50 7.5v20q46 -3 127 -3q86 0 128 3v-20q-36 -2 -52.5 -8z" glyph-name="uni0438" horiz-adv-x="757" unicode="и"/>
<glyph d="M662.5 580q-16.5 -6 -22.5 -23t-6 -55v-396q0 -38 6 -55t22.5 -23t52.5 -8v-20q-42 3 -128 3q-81 0 -127 -3v20q36 2 52.5 8t22.5 23t6 55v373l-325 -392q2 -28 9 -41.5t23 -18.5t49 -7v-20q-46 3 -127 3q-86 0 -128 -3v20q36 2 52.5 8t22.5 23t6 55v396q0 38 -6 55 t-22.5 23t-52.5 8v20q42 -3 128 -3q80 0 127 3v-20q-36 -2 -52.5 -8t-22.5 -23t-6 -55v-381l325 393q-1 32 -8 46.5t-23 20t-50 7.5v20q46 -3 127 -3q86 0 128 3v-20q-36 -2 -52.5 -8zM568.5 855q14.5 -15 14.5 -40q0 -21 -11.5 -37t-36.5 -31q-63 -38 -156 -38t-156 38 q-25 15 -36.5 31t-11.5 37q0 25 14.5 40t38.5 15t39.5 -14.5t15.5 -39.5q0 -21 -11.5 -34t-30.5 -17q21 -20 60 -28t78 -8t78 8t60 28q-19 4 -30.5 17t-11.5 34q0 25 16 39.5t39 14.5q24 0 38.5 -15z" glyph-name="uni0439" horiz-adv-x="757" unicode="й"/>
<glyph d="M640 50q-23 -33 -46 -48.5t-64 -15.5q-37 0 -62.5 21.5t-41.5 86.5l-27 104q-10 39 -22.5 61t-39 35t-75.5 13h-46v-201q0 -38 6 -55t22.5 -23t52.5 -8v-20q-46 3 -127 3q-86 0 -128 -3v20q36 2 52.5 8t22.5 23t6 55v396q0 38 -6 55t-22.5 23t-52.5 8v20q42 -3 128 -3 q80 0 127 3v-20q-36 -2 -52.5 -8t-22.5 -23t-6 -55v-175q34 3 61.5 16t58.5 50l105 117q24 29 24 47q0 31 -57 32v19q54 -3 115 -3q46 0 74 3v-19q-38 -7 -63 -21t-59 -51l-177 -192q24 -2 39 -4q68 -10 105.5 -36t50.5 -74l28 -106q13 -48 21.5 -65t27.5 -17q17 0 28.5 9 t26.5 29z" glyph-name="uni043A" horiz-adv-x="662" unicode="к"/>
<glyph d="M610 588q-36 -2 -52.5 -8t-22.5 -23t-6 -55v-396q0 -38 6 -55t22.5 -23t52.5 -8v-20q-42 3 -126 3q-82 0 -129 -3v20q36 2 52.5 8t22.5 23t6 55v396q0 38 -5.5 56t-20 24t-45.5 6h-13q-31 0 -44.5 -6.5t-18.5 -23t-8 -56.5l-6 -79q-10 -141 -23.5 -228t-49.5 -148 t-103 -61q-35 0 -61.5 17t-26.5 51q0 26 16.5 41.5t42.5 15.5q23 0 37 -12t14 -34q0 -34 -43 -59q9 -1 24 -1q60 0 92 71.5t43.5 168.5t20.5 257l1 22q0 26 -7 38.5t-24 18t-51 7.5v20q42 -3 97 -3q20 0 46 2l43 1l52 -1q46 -2 80 -2q73 0 115 3v-20z" glyph-name="uni043B" horiz-adv-x="652" unicode="л"/>
<glyph d="M756.5 580q-16.5 -6 -22.5 -23t-6 -55v-396q0 -38 6 -55t22.5 -23t52.5 -8v-20q-46 3 -127 3q-86 0 -128 -3v20q36 2 52.5 8t22.5 23t6 55v439l-241 -550h-16l-232 549v-428q0 -39 6.5 -58t25.5 -27.5t59 -10.5v-20q-36 3 -102 3q-60 0 -93 -3v20q35 2 52 10.5t23 28 t6 57.5v386q0 38 -6 55t-22.5 23t-52.5 8v20q33 -3 93 -3q48 0 85 3l201 -487l214 484h47q81 0 127 3v-20q-36 -2 -52.5 -8z" glyph-name="uni043C" horiz-adv-x="851" unicode="м"/>
<glyph d="M695 588q-36 -2 -52.5 -8t-22.5 -23t-6 -55v-396q0 -38 6 -55t22.5 -23t52.5 -8v-20q-42 3 -128 3q-80 0 -127 -3v20q36 2 52.5 8t22.5 23t6 55v199h-305v-199q0 -38 6 -55t22.5 -23t52.5 -8v-20q-46 3 -127 3q-86 0 -128 -3v20q36 2 52.5 8t22.5 23t6 55v396q0 38 -6 55 t-22.5 23t-52.5 8v20q42 -3 128 -3q80 0 127 3v-20q-36 -2 -52.5 -8t-22.5 -23t-6 -55v-177h305v177q0 38 -6 55t-22.5 23t-52.5 8v20q46 -3 127 -3q86 0 128 3v-20z" glyph-name="uni043D" horiz-adv-x="737" unicode="н"/>
<glyph d="M522.5 585.5q69.5 -36.5 107.5 -107t38 -168.5q0 -96 -39.5 -169.5t-109.5 -114t-159 -40.5q-92 0 -161.5 36.5t-107.5 107t-38 168.5q0 96 39.5 169.5t109.5 114t159 40.5q92 0 161.5 -36.5zM249.5 565.5q-46.5 -38.5 -71.5 -107t-25 -156.5q0 -89 28 -157t76 -104.5 t107 -36.5q61 0 107.5 38.5t71.5 107t25 156.5q0 89 -28 157t-76 104.5t-107 36.5q-61 0 -107.5 -38.5z" glyph-name="uni043E" horiz-adv-x="721" unicode="о"/>
<glyph d="M695 588q-36 -2 -52.5 -8t-22.5 -23t-6 -55v-396q0 -38 6 -55t22.5 -23t52.5 -8v-20q-42 3 -128 3q-80 0 -127 -3v20q36 2 52.5 8t22.5 23t6 55v396q0 38 -6 55.5t-23 24t-52 6.5h-143q-35 0 -52 -6.5t-23 -24t-6 -55.5v-396q0 -38 6 -55t22.5 -23t52.5 -8v-20 q-46 3 -127 3q-86 0 -128 -3v20q36 2 52.5 8t22.5 23t6 55v396q0 38 -6 55t-22.5 23t-52.5 8v20q42 -3 128 -3q46 0 124 2l76 1l75 -1q76 -2 122 -2q86 0 128 3v-20z" glyph-name="uni043F" horiz-adv-x="737" unicode="п"/>
<glyph d="M216 246v-140q0 -38 6 -55t22.5 -23t52.5 -8v-20q-46 3 -127 3q-86 0 -128 -3v20q36 2 52.5 8t22.5 23t6 55v396q0 38 -6 55t-22.5 23t-52.5 8v20q42 -3 122 -3l108 1q19 1 43 1q107 0 164 -45.5t57 -121.5q0 -48 -23.5 -92t-80 -73t-149.5 -29h-67zM243.5 581 q-15.5 -7 -21.5 -25t-6 -54v-236h57q92 0 127.5 44t35.5 119q0 81 -34 120t-112 39q-31 0 -46.5 -7z" glyph-name="uni0440" horiz-adv-x="566" unicode="р"/>
<glyph d="M435 605.5q34 -16.5 71 -48.5q11 -9 19 -9q20 0 26 60h23q-4 -60 -4 -210h-23q-10 52 -20 77t-30 51q-28 37 -67 56.5t-82 19.5q-59 0 -102.5 -36t-67.5 -104t-24 -160q0 -94 26.5 -160.5t72 -101t102.5 -34.5q44 0 84.5 19.5t68.5 56.5q19 26 28.5 55t17.5 83h23 q0 -157 4 -220h-23q-3 31 -9 45.5t-16 14.5q-8 0 -20 -9q-38 -32 -74 -48.5t-88 -16.5q-89 0 -156 36.5t-104 107t-37 168.5q0 96 38 169.5t106 114t154 40.5q49 0 83 -16.5z" glyph-name="uni0441" horiz-adv-x="643" unicode="с"/>
<glyph d="M590 490q0 -52 3 -82h-23q-6 70 -19 107t-42 53.5t-83 16.5h-64v-469q0 -42 8 -61t28 -26t65 -9v-20q-52 3 -147 3q-100 0 -148 -3v20q45 2 65 9t28 26t8 61v469h-64q-54 0 -83 -16.5t-42 -53.5t-19 -107h-23q3 32 3 82q0 52 -7 118q83 -3 282 -3q198 0 281 3 q-7 -66 -7 -118z" glyph-name="uni0442" horiz-adv-x="631" unicode="т"/>
<glyph d="M616 608v-21q-16 -4 -30.5 -20t-33.5 -48l-222 -374l-37 -63q-29 -50 -55 -71q-32 -25 -76 -25q-31 0 -50.5 16t-19.5 44q0 24 15 38.5t38 14.5q22 0 36.5 -12.5t14.5 -34.5q0 -15 -7.5 -26t-19.5 -18q2 -1 6 -1q51 0 94 75l32 54l-235 395q-34 56 -58 56v21q54 -3 89 -3 q76 0 139 3v-21q-34 0 -52 -5.5t-18 -24.5q0 -17 17 -47l170 -287l148 253q23 39 23 64q0 42 -70 47v21q57 -3 85 -3q39 0 77 3z" glyph-name="uni0443" horiz-adv-x="611" unicode="у"/>
<glyph d="M705 186q-39 -55 -110 -88t-163 -40v-22q0 -38 6 -55t22.5 -23t52.5 -8v-20q-47 3 -127 3q-86 0 -128 -3v20q36 2 52.5 8t22.5 23t6 55v22q-144 9 -227 74t-83 176q0 66 39 118.5t109 84.5t162 39v22q0 38 -6 55t-22.5 23t-52.5 8v20q42 -3 128 -3q81 0 127 3v-20 q-36 -2 -52.5 -8t-22.5 -23t-6 -55v-21q145 -9 228.5 -71.5t83.5 -169.5q0 -69 -39 -124zM187 154.5q58 -62.5 152 -76.5v453q-96 -12 -153 -72t-57 -147q0 -95 58 -157.5zM585.5 457.5q-58.5 59.5 -153.5 73.5v-454q97 12 154.5 74.5t57.5 154.5t-58.5 151.5z" glyph-name="uni0444" horiz-adv-x="773" unicode="ф"/>
<glyph d="M572 34q13 -10 30 -13v-21q-45 3 -81 3q-60 0 -141 -3v21q33 0 48 4t15 13q0 6 -8 17l-156 214l-126 -165q-17 -23 -17 -44q0 -18 15 -29t45 -11v-20q-57 3 -113 3q-11 0 -37 -2l-30 -1v20q21 2 48.5 21.5t46.5 45.5l154 201l-181 249q-22 30 -33 39.5t-29 10.5v21 q45 -3 81 -3q60 0 141 3v-21q-33 0 -48 -4t-15 -13q0 -6 8 -17l146 -200l117 152q17 22 17 42q0 18 -16 29.5t-47 11.5v20q57 -3 113 -3q43 0 67 3v-20q-22 -2 -47.5 -20t-48.5 -48l-143 -185l193 -264q19 -27 32 -37z" glyph-name="uni0445" horiz-adv-x="614" unicode="х"/>
<glyph d="M680 588q-36 -2 -52.5 -8t-22.5 -23t-6 -55v-396q0 -38 6 -55.5t23 -24t52 -6.5h31q-7 -66 -7 -118q0 -40 3 -62h-23q-7 65 -18 97.5t-37.5 47.5t-78.5 15h-180l-76 1q-78 2 -124 2q-86 0 -128 -3v20q36 2 52.5 8t22.5 23t6 55v396q0 38 -6 55t-22.5 23t-52.5 8v20 q42 -3 128 -3q80 0 127 3v-20q-36 -2 -52.5 -8t-22.5 -23t-6 -55v-396q0 -38 6 -55.5t23 -24t52 -6.5h128q35 0 52 6.5t23 24t6 55.5v396q0 38 -6 55t-22.5 23t-52.5 8v20q46 -3 127 -3q86 0 128 3v-20z" glyph-name="uni0446" horiz-adv-x="732" unicode="ц"/>
<glyph d="M561.5 580q-16.5 -6 -22.5 -23t-6 -55v-396q0 -38 6 -55t22.5 -23t52.5 -8v-20q-42 3 -129 3q-93 0 -146 -3v20q45 2 65 8t28 23t8 55v162q-32 -15 -76 -25.5t-90 -10.5q-83 0 -130 35q-27 21 -37.5 50.5t-10.5 83.5v114q0 41 -17 56.5t-59 15.5v21q92 -4 123 -4 q28 0 112 4v-21q-37 0 -51.5 -15.5t-14.5 -56.5v-136q0 -40 8.5 -64t35.5 -37.5t80 -13.5q73 0 127 22v216q0 38 -6 55t-22.5 23t-52.5 8v20q42 -3 126 -3q83 0 129 3v-20q-36 -2 -52.5 -8z" glyph-name="uni0447" horiz-adv-x="656" unicode="ч"/>
<glyph d="M935 588q-36 -2 -52.5 -8t-22.5 -23t-6 -55v-396q0 -38 6 -55t22.5 -23t52.5 -8v-20q-42 3 -128 3l-78 -1q-56 -2 -85 -2q-39 0 -97 2l-57 1l-59 -1q-58 -2 -99 -2q-31 0 -87 2l-75 1q-86 0 -128 -3v20q36 2 52.5 8t22.5 23t6 55v396q0 38 -6 55t-22.5 23t-52.5 8v20 q42 -3 128 -3q73 0 117 3v-20q-32 -2 -46 -8t-19.5 -23t-5.5 -55v-396q0 -38 6 -55.5t23 -24t52 -6.5h64q35 0 52 6.5t23 24t6 55.5v396q0 38 -5 55t-19.5 23t-46.5 8v20q44 -3 117 -3q79 0 118 3v-20q-32 -2 -46.5 -8t-19.5 -23t-5 -55v-396q0 -38 6 -55.5t23 -24t52 -6.5 h64q35 0 52 6.5t23 24t6 55.5v396q0 38 -5 55t-19.5 23t-46.5 8v20q44 -3 117 -3q86 0 128 3v-20z" glyph-name="uni0448" horiz-adv-x="977" unicode="ш"/>
<glyph d="M935 588q-36 -2 -52.5 -8t-22.5 -23t-6 -55v-396q0 -38 6 -55.5t23 -24t52 -6.5h31q-7 -66 -7 -118q0 -40 3 -62h-23q-7 65 -18 97.5t-37.5 47.5t-78.5 15h-161q-39 0 -97 2l-57 1l-59 -1q-58 -2 -99 -2q-31 0 -87 2l-75 1q-86 0 -128 -3v20q36 2 52.5 8t22.5 23t6 55 v396q0 38 -6 55t-22.5 23t-52.5 8v20q42 -3 128 -3q73 0 117 3v-20q-32 -2 -46 -8t-19.5 -23t-5.5 -55v-396q0 -38 6 -55.5t23 -24t52 -6.5h64q35 0 52 6.5t23 24t6 55.5v396q0 38 -5 55t-19.5 23t-46.5 8v20q44 -3 117 -3q79 0 118 3v-20q-32 -2 -46.5 -8t-19.5 -23t-5 -55 v-396q0 -38 6 -55.5t23 -24t52 -6.5h64q35 0 52 6.5t23 24t6 55.5v396q0 38 -5 55t-19.5 23t-46.5 8v20q44 -3 117 -3q86 0 128 3v-20z" glyph-name="uni0449" horiz-adv-x="987" unicode="щ"/>
<glyph d="M636.5 284q54.5 -46 54.5 -115q0 -78 -60 -123t-171 -45q-22 0 -39 1l-102 1q-80 0 -122 -3v20q36 2 52.5 8t22.5 23t6 55v479h-74q-54 0 -83 -16.5t-42 -53.5t-19 -107h-23q3 32 3 82q0 52 -7 118q86 -3 292 -3q80 0 127 3v-20q-36 -2 -52.5 -8t-22.5 -23t-6 -55v-170 l77 -1q134 -1 188.5 -47zM554.5 57q36.5 37 36.5 109q0 69 -33 107.5t-120 38.5h-67v-206q0 -36 5 -54t18.5 -25t40.5 -7q83 0 119.5 37z" glyph-name="uni044A" horiz-adv-x="721" unicode="ъ"/>
<glyph d="M481.5 284q54.5 -46 54.5 -115q0 -78 -60 -123t-171 -45q-22 0 -39 1l-102 1q-80 0 -122 -3v20q36 2 52.5 8t22.5 23t6 55v396q0 38 -6 55t-22.5 23t-52.5 8v20q42 -3 128 -3q80 0 127 3v-20q-36 -2 -52.5 -8t-22.5 -23t-6 -55v-170l77 -1q134 -1 188.5 -47zM750.5 580 q-16.5 -6 -22.5 -23t-6 -55v-396q0 -38 6 -55t22.5 -23t52.5 -8v-20q-46 3 -127 3q-86 0 -128 -3v20q36 2 52.5 8t22.5 23t6 55v396q0 38 -6 55t-22.5 23t-52.5 8v20q42 -3 128 -3q80 0 127 3v-20q-36 -2 -52.5 -8zM399.5 57q36.5 37 36.5 109q0 69 -33 107.5t-120 38.5h-67 v-206q0 -36 5 -54t18.5 -25t40.5 -7q83 0 119.5 37z" glyph-name="uni044B" horiz-adv-x="845" unicode="ы"/>
<glyph d="M481.5 284q54.5 -46 54.5 -115q0 -78 -60 -123t-171 -45q-22 0 -39 1l-102 1q-80 0 -122 -3v20q36 2 52.5 8t22.5 23t6 55v396q0 38 -6 55t-22.5 23t-52.5 8v20q42 -3 128 -3q80 0 127 3v-20q-36 -2 -52.5 -8t-22.5 -23t-6 -55v-170l77 -1q134 -1 188.5 -47zM399.5 57 q36.5 37 36.5 109q0 69 -33 107.5t-120 38.5h-67v-206q0 -36 5 -54t18.5 -25t40.5 -7q83 0 119.5 37z" glyph-name="uni044C" horiz-adv-x="566" unicode="ь"/>
<glyph d="M453 581q67 -41 105 -115t38 -171q0 -96 -37.5 -166t-103.5 -106.5t-151 -36.5q-57 0 -91 15.5t-76 49.5q-12 9 -20 9q-10 0 -16 -14.5t-9 -45.5h-23q4 63 4 220h23q7 -48 17 -81t29 -58q28 -36 69 -55.5t84 -19.5q57 0 102.5 34.5t72 101.5t26.5 163v18 q-17 -28 -46.5 -43.5t-62.5 -15.5q-22 0 -39.5 6.5t-44.5 20.5q-26 13 -42 19t-36 6q-24 0 -45 -10.5t-29 -31.5l-14 5q13 41 47 63.5t76 22.5q25 0 43.5 -7t43.5 -21q22 -12 39 -18.5t38 -6.5q22 0 40.5 9t29.5 28q-8 117 -59.5 185t-131.5 68q-44 0 -84 -20.5t-67 -55.5 q-16 -21 -28.5 -51t-20.5 -77h-23q0 150 -4 210h23q6 -60 26 -60q9 0 19 9q42 34 73.5 49.5t84.5 15.5q84 0 151 -41z" glyph-name="uni044D" horiz-adv-x="649" unicode="э"/>
<glyph d="M764.5 585.5q62.5 -36.5 97 -107t34.5 -168.5q0 -96 -35.5 -169.5t-99 -114t-143.5 -40.5q-83 0 -145.5 36.5t-97 107t-34.5 168.5v7h-125v-199q0 -38 6 -55t22.5 -23t52.5 -8v-20q-46 3 -127 3q-86 0 -128 -3v20q36 2 52.5 8t22.5 23t6 55v396q0 38 -6 55t-22.5 23 t-52.5 8v20q42 -3 128 -3q80 0 127 3v-20q-36 -2 -52.5 -8t-22.5 -23t-6 -55v-177h126q5 88 41.5 155.5t98 104.5t137.5 37q83 0 145.5 -36.5zM713.5 42.5q39.5 38.5 61 107t21.5 156.5q0 89 -24 157t-65.5 104.5t-91.5 36.5q-52 0 -91.5 -38.5t-61 -107t-21.5 -156.5 q0 -89 24 -157t65.5 -104.5t91.5 -36.5q52 0 91.5 38.5z" glyph-name="uni044E" horiz-adv-x="950" unicode="ю"/>
<glyph d="M537.5 580q-16.5 -6 -22.5 -23t-6 -55v-396q0 -38 6 -55t22.5 -23t52.5 -8v-20q-42 3 -128 3q-80 0 -127 -3v20q36 2 52.5 8t22.5 23t6 55v170h-67q-54 0 -82.5 -18.5t-41.5 -73.5l-30 -122q-19 -76 -103 -76q-34 0 -58.5 14.5t-43.5 41.5l14 13q30 -34 55 -34 q15 0 24.5 14.5t17.5 49.5l21 88q13 53 44 76t85 31q14 2 20 2q-94 14 -134.5 60.5t-40.5 100.5q0 77 60 120.5t171 43.5q22 0 39 -1l102 -1q80 0 122 3v-20q-36 -2 -52.5 -8zM229 334.5q33 -38.5 120 -38.5h67v206q0 36 -5 54t-18.5 25t-40.5 7q-83 0 -119.5 -37 t-36.5 -109q0 -69 33 -107.5z" glyph-name="uni044F" horiz-adv-x="632" unicode="я"/>
<glyph d="M541 0q-65 3 -219 3q-185 0 -280 -3v20q36 2 52.5 8t22.5 23t6 55v396q0 38 -6 55t-22.5 23t-52.5 8v20q95 -3 280 -3q140 0 199 3q-7 -60 -7 -108q0 -39 3 -62h-23q-7 82 -34.5 114.5t-89.5 32.5h-73q-36 0 -52.5 -5.5t-22.5 -22.5t-6 -55v-186h83q32 0 49 16.5t23 36 t11 49.5h23q-3 -34 -3 -74v-38q0 -39 6 -112h-23q-6 48 -23 75t-63 27h-83v-190q0 -38 6 -55t22.5 -22.5t52.5 -5.5h73q50 0 79 16t44 51.5t21 99.5h23q-3 -27 -3 -72q0 -52 7 -118zM250 811q7 -6 36.5 -32.5t70.5 -57.5l-7 -13q-54 27 -129 57q-51 19 -72 32q-27 17 -27 39 q0 10 6 19q12 17 31 17q14 0 30 -10q24 -16 61 -51z" glyph-name="uni0450" horiz-adv-x="595" unicode="ѐ"/>
<glyph d="M541 0q-65 3 -219 3q-185 0 -280 -3v20q36 2 52.5 8t22.5 23t6 55v396q0 38 -6 55t-22.5 23t-52.5 8v20q95 -3 280 -3q140 0 199 3q-7 -60 -7 -108q0 -39 3 -62h-23q-7 82 -34.5 114.5t-89.5 32.5h-73q-36 0 -52.5 -5.5t-22.5 -22.5t-6 -55v-186h83q32 0 49 16.5t23 36 t11 49.5h23q-3 -34 -3 -74v-38q0 -39 6 -112h-23q-6 48 -23 75t-63 27h-83v-190q0 -38 6 -55t22.5 -22.5t52.5 -5.5h73q50 0 79 16t44 51.5t21 99.5h23q-3 -27 -3 -72q0 -52 7 -118zM233.5 812.5q17.5 -17.5 17.5 -40.5q0 -24 -17.5 -41t-40.5 -17q-24 0 -41 17t-17 41 q0 23 17 40.5t41 17.5q23 0 40.5 -17.5zM445.5 812.5q17.5 -17.5 17.5 -40.5q0 -24 -17.5 -41t-40.5 -17q-24 0 -41 17t-17 41q0 23 17 40.5t41 17.5q23 0 40.5 -17.5z" glyph-name="uni0451" horiz-adv-x="595" unicode="ё"/>
<glyph d="M625.5 319.5q43.5 -19.5 70.5 -59.5t27 -97q0 -58 -27.5 -98t-70 -59.5t-87.5 -19.5q-50 0 -88 22t-38 64q0 24 14 39t38 15q23 0 38 -13t15 -36q0 -39 -43 -52q3 -9 18 -16.5t34 -7.5q44 0 72 41.5t28 110.5q0 71 -33 112.5t-96 41.5q-39 0 -77 -15t-58 -38v-265 q-49 14 -132 14q-30 0 -62 -3v20q45 2 65 9t28 26t8 61v469h-64q-54 0 -83 -16.5t-42 -53.5t-19 -107h-23q3 32 3 82q0 52 -7 118q83 -3 282 -3q198 0 281 3q-7 -66 -7 -118t3 -82h-23q-6 70 -19 107t-42 53.5t-83 16.5h-64v-311q29 28 75 46.5t95 18.5q50 0 93.5 -19.5z " glyph-name="uni0452" horiz-adv-x="756" unicode="ђ"/>
<glyph d="M494 480q0 -50 3 -82h-23q-8 77 -20 114.5t-42 55t-92 17.5h-23q-36 0 -52.5 -5.5t-22.5 -22.5t-6 -55v-396q0 -38 8 -55t28 -23t65 -8v-20q-52 3 -147 3q-86 0 -128 -3v20q36 2 52.5 8t22.5 23t6 55v396q0 38 -6 55t-22.5 23t-52.5 8v20l36 -1q58 -2 91 -2h63h100 q119 0 169 3q-7 -71 -7 -128zM396 872q19 0 31 -17q6 -9 6 -19q0 -22 -27 -39q-21 -13 -72 -32q-75 -30 -129 -57l-7 13q41 31 70.5 57.5t36.5 32.5q37 35 61 51q16 10 30 10z" glyph-name="uni0453" horiz-adv-x="535" unicode="ѓ"/>
<glyph d="M581 0h-23q-3 31 -9 45.5t-16 14.5q-8 0 -20 -9q-42 -34 -76 -49.5t-91 -15.5q-85 0 -151 36.5t-103.5 106.5t-37.5 166q0 97 38 171t105 115t151 41q53 0 84.5 -15.5t73.5 -49.5q11 -9 19 -9q20 0 26 60h23q-4 -60 -4 -210h-23q-9 48 -19.5 75.5t-30.5 52.5 q-60 76 -147 76q-60 0 -104 -36t-68 -103t-24 -158v-8q17 28 46.5 43.5t62.5 15.5q23 0 41.5 -6.5t44.5 -20.5t42.5 -20t36.5 -6q25 0 46 10.5t30 32.5l14 -6q-13 -42 -47.5 -65t-77.5 -23q-25 0 -44.5 7t-44.5 21q-25 13 -41.5 19.5t-38.5 6.5q-48 0 -69 -34 q4 -86 31.5 -145.5t71 -90t97.5 -30.5q43 0 84 19.5t69 55.5q18 24 28.5 56.5t17.5 82.5h23q0 -157 4 -220z" glyph-name="uni0454" horiz-adv-x="649" unicode="є"/>
<glyph d="M325.5 612.5q25.5 -9.5 52.5 -27.5q22 -14 34 -14q9 0 14 10.5t8 33.5h23q-5 -52 -5 -184h-23q-6 72 -46.5 122t-117.5 50q-53 0 -87.5 -28t-34.5 -71q0 -31 15.5 -54t40 -39.5t69.5 -40.5l33 -18q62 -33 99.5 -59t60.5 -59.5t23 -77.5q0 -81 -58.5 -125.5t-146.5 -44.5 q-48 0 -78.5 10t-58.5 27q-22 14 -34 14q-9 0 -14 -10.5t-8 -33.5h-23q4 49 4 220h23q7 -93 50 -150t132 -57q50 0 86.5 28.5t36.5 84.5q0 33 -19 58.5t-51 45.5t-89 50q-82 42 -125 84t-43 109q0 74 54.5 115t133.5 41q44 0 69.5 -9.5z" glyph-name="uni0455" horiz-adv-x="535" unicode="ѕ"/>
<glyph d="M297 588q-36 -2 -52.5 -8t-22.5 -23t-6 -55v-396q0 -38 6 -55t22.5 -23t52.5 -8v-20q-46 3 -127 3q-86 0 -128 -3v20q36 2 52.5 8t22.5 23t6 55v396q0 38 -6 55t-22.5 23t-52.5 8v20q42 -3 128 -3q80 0 127 3v-20z" glyph-name="uni0456" unicode="і"/>
<glyph d="M297 588q-36 -2 -52.5 -8t-22.5 -23t-6 -55v-396q0 -38 6 -55t22.5 -23t52.5 -8v-20q-46 3 -127 3q-86 0 -128 -3v20q36 2 52.5 8t22.5 23t6 55v396q0 38 -6 55t-22.5 23t-52.5 8v20q42 -3 128 -3q80 0 127 3v-20zM104.5 812.5q17.5 -17.5 17.5 -40.5q0 -24 -17.5 -41 t-40.5 -17q-24 0 -41 17t-17 41q0 23 17 40.5t41 17.5q23 0 40.5 -17.5zM316.5 812.5q17.5 -17.5 17.5 -40.5q0 -24 -17.5 -41t-40.5 -17q-24 0 -41 17t-17 41q0 23 17 40.5t41 17.5q23 0 40.5 -17.5z" glyph-name="uni0457" unicode="ї"/>
<glyph d="M289 588q-36 -2 -52.5 -8t-22.5 -23t-6 -55v-266q0 -185 -17 -261q-17 -73 -66 -117t-125 -44q-42 0 -67 16q-27 17 -27 48q0 20 14 34t34 14t34.5 -14t14.5 -34q0 -13 -7.5 -25t-18.5 -19q12 -2 27 -2q68 0 94 84q10 32 13.5 79t3.5 150v357q0 38 -6 55t-22.5 23 t-52.5 8v20q42 -3 128 -3q80 0 127 3v-20z" glyph-name="uni0458" horiz-adv-x="322" unicode="ј"/>
<glyph d="M812.5 284.5q54.5 -45.5 54.5 -115.5q0 -80 -62.5 -124.5t-194.5 -44.5q-17 0 -47 2q-23 1 -79 1q-82 0 -129 -3v20q36 2 52.5 8t22.5 23t6 55v396q0 38 -5.5 56t-20 24t-45.5 6h-13q-31 0 -44.5 -6.5t-18.5 -23t-8 -56.5l-6 -79q-10 -141 -23.5 -228t-49.5 -148 t-103 -61q-35 0 -61.5 17t-26.5 51q0 26 16.5 41.5t42.5 15.5q23 0 37 -12t14 -34q0 -34 -43 -59q9 -1 24 -1q60 0 92 71.5t43.5 168.5t20.5 257l1 22q0 26 -7 38.5t-24 18t-51 7.5v20q42 -3 97 -3q20 0 46 2l43 1l52 -1q46 -2 80 -2q73 0 115 3v-20q-36 -2 -52.5 -8 t-22.5 -23t-6 -55v-170l95 -1q134 -1 188.5 -46.5zM730.5 57q36.5 37 36.5 109q0 69 -33 107.5t-120 38.5h-85v-206q0 -38 6 -55t22.5 -23t52.5 -8q84 0 120.5 37z" glyph-name="uni0459" horiz-adv-x="900" unicode="љ"/>
<glyph d="M880.5 284q54.5 -46 54.5 -115q0 -78 -60 -123t-171 -45q-22 0 -39 1l-102 1q-80 0 -122 -3v20q36 2 52.5 8t22.5 23t6 55v206h-306v-206q0 -38 6 -55t22.5 -23t52.5 -8v-20q-46 3 -127 3q-86 0 -128 -3v20q36 2 52.5 8t22.5 23t6 55v396q0 38 -6 55t-22.5 23t-52.5 8v20 q42 -3 128 -3q80 0 127 3v-20q-36 -2 -52.5 -8t-22.5 -23t-6 -55v-170h306v170q0 38 -6 55t-22.5 23t-52.5 8v20q42 -3 128 -3q80 0 127 3v-20q-36 -2 -52.5 -8t-22.5 -23t-6 -55v-170l77 -1q134 -1 188.5 -47zM798.5 57q36.5 37 36.5 109q0 69 -33 107.5t-120 38.5h-67 v-206q0 -36 5 -54t18.5 -25t40.5 -7q83 0 119.5 37z" glyph-name="uni045A" horiz-adv-x="968" unicode="њ"/>
<glyph d="M683 37.5q17 -15.5 59 -15.5v-21q-92 4 -123 4q-28 0 -112 -4v21q37 0 51.5 15.5t14.5 56.5v96q0 40 -8.5 64t-35.5 37.5t-80 13.5q-45 0 -87 -10v-179q0 -42 6 -61t22.5 -26t52.5 -9v-20q-46 3 -132 3q-95 0 -143 -3v20q45 2 65 9t28 26t8 61v469h-94q-52 0 -79 -40 t-35 -137h-23q3 32 3 75q0 59 -7 125q83 -3 282 -3q198 0 281 3q-7 -66 -7 -125q0 -45 3 -75h-23q-8 97 -35 137t-79 40h-94v-269q61 21 126 21q83 0 130 -35q27 -21 37.5 -50.5t10.5 -83.5v-74q0 -41 17 -56.5z" glyph-name="uni045B" horiz-adv-x="747" unicode="ћ"/>
<glyph d="M640 50q-23 -33 -46 -48.5t-64 -15.5q-37 0 -62.5 21.5t-41.5 86.5l-27 104q-10 39 -22.5 61t-39 35t-75.5 13h-46v-201q0 -38 6 -55t22.5 -23t52.5 -8v-20q-46 3 -127 3q-86 0 -128 -3v20q36 2 52.5 8t22.5 23t6 55v396q0 38 -6 55t-22.5 23t-52.5 8v20q42 -3 128 -3 q80 0 127 3v-20q-36 -2 -52.5 -8t-22.5 -23t-6 -55v-175q34 3 61.5 16t58.5 50l105 117q24 29 24 47q0 31 -57 32v19q54 -3 115 -3q46 0 74 3v-19q-38 -7 -63 -21t-59 -51l-177 -192q24 -2 39 -4q68 -10 105.5 -36t50.5 -74l28 -106q13 -48 21.5 -65t27.5 -17q17 0 28.5 9 t26.5 29zM459 872q19 0 31 -17q6 -9 6 -19q0 -22 -27 -39q-21 -13 -72 -32q-75 -30 -129 -57l-7 13q41 31 70.5 57.5t36.5 32.5q37 35 61 51q16 10 30 10z" glyph-name="uni045C" horiz-adv-x="662" unicode="ќ"/>
<glyph d="M662.5 580q-16.5 -6 -22.5 -23t-6 -55v-396q0 -38 6 -55t22.5 -23t52.5 -8v-20q-42 3 -128 3q-81 0 -127 -3v20q36 2 52.5 8t22.5 23t6 55v373l-325 -392q2 -28 9 -41.5t23 -18.5t49 -7v-20q-46 3 -127 3q-86 0 -128 -3v20q36 2 52.5 8t22.5 23t6 55v396q0 38 -6 55 t-22.5 23t-52.5 8v20q42 -3 128 -3q80 0 127 3v-20q-36 -2 -52.5 -8t-22.5 -23t-6 -55v-381l325 393q-1 32 -8 46.5t-23 20t-50 7.5v20q46 -3 127 -3q86 0 128 3v-20q-36 -2 -52.5 -8zM331 811q7 -6 36.5 -32.5t70.5 -57.5l-7 -13q-54 27 -129 57q-51 19 -72 32 q-27 17 -27 39q0 10 6 19q12 17 31 17q14 0 30 -10q24 -16 61 -51z" glyph-name="uni045D" horiz-adv-x="757" unicode="ѝ"/>
<glyph d="M616 608v-21q-16 -4 -30.5 -20t-33.5 -48l-222 -374l-37 -63q-29 -50 -55 -71q-32 -25 -76 -25q-31 0 -50.5 16t-19.5 44q0 24 15 38.5t38 14.5q22 0 36.5 -12.5t14.5 -34.5q0 -15 -7.5 -26t-19.5 -18q2 -1 6 -1q51 0 94 75l32 54l-235 395q-34 56 -58 56v21q54 -3 89 -3 q76 0 139 3v-21q-34 0 -52 -5.5t-18 -24.5q0 -17 17 -47l170 -287l148 253q23 39 23 64q0 42 -70 47v21q57 -3 85 -3q39 0 77 3zM516.5 857q14.5 -15 14.5 -40q0 -21 -11.5 -37t-36.5 -31q-63 -38 -156 -38t-156 38q-25 15 -36.5 31t-11.5 37q0 25 14.5 40t38.5 15 t39.5 -14.5t15.5 -39.5q0 -21 -11.5 -34t-30.5 -17q21 -20 60 -28t78 -8t78 8t60 28q-19 4 -30.5 17t-11.5 34q0 25 16 39.5t39 14.5q24 0 38.5 -15z" glyph-name="uni045E" horiz-adv-x="611" unicode="ў"/>
<glyph d="M628.5 580q-16.5 -6 -22.5 -23t-6 -55v-396q0 -38 6 -55t22.5 -23t52.5 -8v-20q-42 3 -128 3q-59 0 -86 -1q-34 -3 -52 -20.5t-26 -49.5t-14 -92h-23q-6 59 -14 91t-25.5 49.5t-51.5 21.5l-91 1q-86 0 -128 -3v20q36 2 52.5 8t22.5 23t6 55v396q0 38 -6 55t-22.5 23 t-52.5 8v20q42 -3 128 -3q80 0 127 3v-20q-36 -2 -52.5 -8t-22.5 -23t-6 -55v-396q0 -38 6 -55.5t21 -24t47 -6.5h136q35 0 52 6.5t23 24t6 55.5v396q0 38 -6 55t-22.5 23t-52.5 8v20q47 -3 127 -3q86 0 128 3v-20q-36 -2 -52.5 -8z" glyph-name="uni045F" horiz-adv-x="723" unicode="џ"/>
<glyph d="M487 366q62 -55 62 -145q0 -55 -24.5 -105t-83 -83t-155.5 -33l-47 1q-42 2 -69 2q-86 0 -128 -3v20q36 2 52.5 8t22.5 23t6 55v435h-123v20h123v41q0 38 -6 55t-22.5 23t-52.5 8v20q42 -3 128 -3q95 0 147 3v-20q-45 -2 -65 -8t-28 -23t-8 -55v-41h139v-20h-139v-122 l92 2q117 0 179 -55zM414 71q35 51 35 139q0 97 -38.5 144.5t-127.5 47.5q-45 0 -67 -1v-295q0 -38 5 -55.5t19 -24t46 -6.5q93 0 128 51z" glyph-name="uni0462" horiz-adv-x="580" unicode="Ѣ"/>
<glyph d="M481.5 284q54.5 -46 54.5 -115q0 -78 -60 -123t-171 -45q-22 0 -39 1l-102 1q-80 0 -122 -3v20q36 2 52.5 8t22.5 23t6 55v335h-123v20h123v41q0 38 -6 55t-22.5 23t-52.5 8v20q42 -3 128 -3q80 0 127 3v-20q-36 -2 -52.5 -8t-22.5 -23t-6 -55v-41h129v-20h-129v-109 l77 -1q134 -1 188.5 -47zM399.5 57q36.5 37 36.5 109q0 69 -33 107.5t-120 38.5h-67v-206q0 -36 5 -54t18.5 -25t40.5 -7q83 0 119.5 37z" glyph-name="uni0463" horiz-adv-x="566" unicode="ѣ"/>
<glyph d="M982 50q-22 -33 -45 -48.5t-62 -15.5q-40 0 -66.5 23t-40.5 85l-28 124q-12 51 -23.5 78.5t-38 44t-74.5 16.5h-66v-251q0 -38 6 -55t22.5 -23t52.5 -8v-20q-42 3 -128 3q-80 0 -127 -3v20q36 2 52.5 8t22.5 23t6 55v241l-7 10h-59q-48 0 -74.5 -16.5t-38 -44 t-23.5 -78.5l-28 -124q-14 -62 -40.5 -85t-66.5 -23q-39 0 -62 15.5t-45 48.5l15 11q15 -20 26.5 -29t28.5 -9q19 0 28.5 17t20.5 65l29 126q19 84 76.5 114.5t149.5 30.5h50l-180 255q-24 34 -41 45t-47 11v21q195 -3 334 -3q135 0 317 3v-20q-33 -4 -56.5 -24.5 t-53.5 -64.5l-150 -223h60q92 0 149.5 -30.5t76.5 -114.5l29 -126q11 -48 20.5 -65t28.5 -17q17 0 28.5 9t26.5 29zM382 678q-40 -9 -40 -33q0 -14 13 -31l166 -236l116 171q34 51 34 79q0 32 -40.5 45.5t-128.5 13.5q-80 0 -120 -9z" glyph-name="uni046A" horiz-adv-x="983" unicode="Ѫ"/>
<glyph d="M962 50q-22 -33 -45 -48.5t-62 -15.5q-40 0 -65 21.5t-42 86.5l-27 104q-12 40 -24 61.5t-38.5 34.5t-74.5 13h-45v-201q0 -38 6 -55t22.5 -23t52.5 -8v-20q-46 3 -127 3q-86 0 -128 -3v20q36 2 52.5 8t22.5 23t6 55v190l-9 11h-43q-49 0 -75.5 -13t-39 -35t-22.5 -61 l-27 -104q-17 -65 -42 -86.5t-65 -21.5q-35 0 -57.5 16t-42.5 48l15 11q15 -20 26.5 -29t28.5 -9q19 0 28 17t22 65l29 106q12 47 47.5 73.5t99.5 36.5q35 5 102 5l-168 205q-26 32 -43.5 43t-44.5 13v21l154 -3q134 -2 180 -2q172 0 291 5v-21q-30 -4 -48.5 -18.5 t-45.5 -49.5l-149 -193q75 0 112 -5q68 -10 105.5 -36t50.5 -74l28 -106q2 -7 9 -33.5t16.5 -37.5t24.5 -11q16 0 27.5 9t26.5 29zM397.5 577.5q-34.5 -9.5 -34.5 -28.5q0 -14 20 -39l146 -179l112 145q26 34 26 56q0 27 -37.5 41t-117.5 14t-114.5 -9.5z" glyph-name="uni046B" horiz-adv-x="984" unicode="ѫ"/>
<glyph d="M494 803q0 -52 7 -118h-204q-36 0 -52.5 -5.5t-22.5 -22.5t-6 -55v-496q0 -38 8 -55t28 -23t65 -8v-20q-52 3 -147 3q-86 0 -128 -3v20q36 2 52.5 8t22.5 23t6 55v496q0 38 -6 55t-22.5 23t-52.5 8v20q52 -3 150 -3l73 1q54 2 75 2q53 0 79 14.5t37 46t18 96.5h23 q-3 -22 -3 -62z" glyph-name="uni0490" horiz-adv-x="523" unicode="Ґ"/>
<glyph d="M494 703q0 -52 7 -118h-204q-36 0 -52.5 -5.5t-22.5 -22.5t-6 -55v-396q0 -38 8 -55t28 -23t65 -8v-20q-52 3 -147 3q-86 0 -128 -3v20q36 2 52.5 8t22.5 23t6 55v396q0 38 -6 55t-22.5 23t-52.5 8v20q45 -3 130 -3l72 1q64 2 96 2q53 0 79 14.5t37 46t18 96.5h23 q-3 -22 -3 -62z" glyph-name="uni0491" horiz-adv-x="523" unicode="ґ"/>
<glyph d="M494 580q0 -50 3 -82h-23q-8 77 -20 114.5t-42 55t-92 17.5h-23q-36 0 -52.5 -5.5t-22.5 -22.5t-6 -55v-236h139v-20h-139v-240q0 -38 8 -55t28 -23t65 -8v-20q-52 3 -147 3q-86 0 -128 -3v20q36 2 52.5 8t22.5 23t6 55v240h-123v20h123v236q0 38 -6 55t-22.5 23t-52.5 8 v20q98 -3 290 -3q119 0 169 3q-7 -71 -7 -128z" glyph-name="uni0492" horiz-adv-x="528" unicode="Ғ"/>
<glyph d="M494 480q0 -50 3 -82h-23q-8 77 -20 114.5t-42 55t-92 17.5h-23q-36 0 -52.5 -5.5t-22.5 -22.5t-6 -55v-177h119v-20h-119v-199q0 -38 8 -55t28 -23t65 -8v-20q-52 3 -147 3q-86 0 -128 -3v20q36 2 52.5 8t22.5 23t6 55v199h-123v20h123v177q0 38 -6 55t-22.5 23t-52.5 8 v20l36 -1q58 -2 91 -2h63h100q119 0 169 3q-7 -71 -7 -128z" glyph-name="uni0493" horiz-adv-x="535" unicode="ғ"/>
<glyph d="M951 -98q0 -40 3 -62h-23q-5 51 -11.5 79t-21 46t-42.5 27q-38 12 -56.5 33.5t-28.5 61.5l-31 131q-13 52 -24.5 79t-37.5 43.5t-74 16.5h-66v-251q0 -38 6 -55t22.5 -23t52.5 -8v-20q-42 3 -128 3q-80 0 -127 -3v20q36 2 52.5 8t22.5 23t6 55v251h-66q-48 0 -74.5 -16.5 t-38 -44t-23.5 -78.5l-28 -124q-14 -62 -40.5 -85t-66.5 -23q-39 0 -62 15.5t-45 48.5l15 11q15 -20 26.5 -29t28.5 -9q19 0 28.5 17t20.5 65l29 126q18 78 68.5 109.5t130.5 34.5l-188 240q-50 63 -118 73v20q30 -3 85 -3q58 0 115 3v-20q-62 -1 -62 -36q0 -33 51 -96 l96 -122q44 -57 118 -58v226q0 38 -6 55t-22.5 23t-52.5 8v20q47 -3 127 -3q86 0 128 3v-20q-36 -2 -52.5 -8t-22.5 -23t-6 -55v-226q74 1 118 58l96 122q51 63 51 96q0 35 -62 36v20q57 -3 115 -3q55 0 85 3v-20q-68 -10 -118 -73l-188 -240q80 -3 130.5 -34.5t68.5 -109.5 l29 -126q9 -40 16.5 -56.5t22 -22.5t45.5 -6h11q-7 -66 -7 -118z" glyph-name="uni0496" horiz-adv-x="983" unicode="Җ"/>
<glyph d="M889.5 568q-24.5 -14 -60.5 -51l-180 -195l10 -1q68 -9 106 -35.5t50 -74.5l26 -106q9 -40 16.5 -56t22 -22.5t45.5 -6.5h11q-7 -66 -7 -118q0 -40 3 -62h-23q-5 51 -11.5 79t-21 46t-42.5 27q-38 12 -56.5 33.5t-28.5 61.5l-28 111q-10 39 -22.5 61t-39 35t-75.5 13h-45 v-201q0 -38 6 -55t22.5 -23t52.5 -8v-20q-46 3 -127 3q-86 0 -128 -3v20q36 2 52.5 8t22.5 23t6 55v201h-52q-49 0 -75.5 -13t-39 -35t-22.5 -61l-27 -104q-17 -65 -42 -86.5t-65 -21.5q-35 0 -57.5 16t-42.5 48l15 11q15 -20 26.5 -29t28.5 -9q19 0 28 17t22 65l29 106 q12 47 47.5 73.5t99.5 36.5l16 2l-179 194q-36 37 -60.5 51t-61.5 21v19q28 -3 71 -3q64 0 118 3v-19q-55 -1 -55 -32q0 -19 23 -47l99 -112q33 -40 63 -54.5t67 -17.5h26v176q0 38 -6 55t-22.5 23t-52.5 8v20q42 -3 128 -3q81 0 127 3v-20q-36 -2 -52.5 -8t-22.5 -23 t-6 -55v-176h25q38 3 67.5 17t63.5 55l99 112q23 28 23 47q0 31 -55 32v19q54 -3 118 -3q43 0 71 3v-19q-37 -7 -61.5 -21z" glyph-name="uni0497" horiz-adv-x="984" unicode="җ"/>
<glyph d="M629 -98q0 -40 3 -62h-23q-5 51 -11.5 79t-21 46t-42.5 27q-38 12 -56.5 33.5t-28.5 61.5l-31 131q-13 52 -24.5 79t-37.5 43.5t-74 16.5h-66v-251q0 -38 6 -55t22.5 -23t52.5 -8v-20q-46 3 -127 3q-86 0 -128 -3v20q36 2 52.5 8t22.5 23t6 55v496q0 38 -6 55t-22.5 23 t-52.5 8v20q42 -3 128 -3q80 0 127 3v-20q-36 -2 -52.5 -8t-22.5 -23t-6 -55v-226q74 1 118 58l96 122q51 63 51 96q0 35 -62 36v20q57 -3 115 -3q55 0 85 3v-20q-68 -10 -118 -73l-188 -240q80 -3 130.5 -34.5t68.5 -109.5l29 -126q9 -40 16.5 -56.5t22 -22.5t45.5 -6h11 q-7 -66 -7 -118z" glyph-name="uni049A" horiz-adv-x="678" unicode="Қ"/>
<glyph d="M607 -98q0 -40 3 -62h-23q-5 51 -11.5 79t-21 46t-42.5 27q-38 12 -56.5 33.5t-28.5 61.5l-28 111q-10 39 -22.5 61t-39 35t-75.5 13h-46v-201q0 -38 6 -55t22.5 -23t52.5 -8v-20q-46 3 -127 3q-86 0 -128 -3v20q36 2 52.5 8t22.5 23t6 55v396q0 38 -6 55t-22.5 23 t-52.5 8v20q42 -3 128 -3q80 0 127 3v-20q-36 -2 -52.5 -8t-22.5 -23t-6 -55v-175q34 3 61.5 16t58.5 50l105 117q24 29 24 47q0 31 -57 32v19q54 -3 115 -3q46 0 74 3v-19q-38 -7 -63 -21t-59 -51l-177 -192q24 -2 39 -4q68 -10 106 -36.5t50 -73.5l26 -106q9 -40 16.5 -56 t22 -22.5t45.5 -6.5h11q-7 -66 -7 -118z" glyph-name="uni049B" horiz-adv-x="662" unicode="қ"/>
<glyph d="M739 -98q0 -40 3 -62h-23q-7 66 -18 99t-37 48.5t-78 15.5q-80 0 -126 -3v20q36 2 52.5 8t22.5 23t6 55v240h-325v-240q0 -38 6 -55t22.5 -23t52.5 -8v-20q-46 3 -127 3q-86 0 -128 -3v20q36 2 52.5 8t22.5 23t6 55v496q0 38 -6 55t-22.5 23t-52.5 8v20q42 -3 128 -3 q80 0 127 3v-20q-36 -2 -52.5 -8t-22.5 -23t-6 -55v-236h325v236q0 38 -6 55t-22.5 23t-52.5 8v20q46 -3 127 -3q86 0 128 3v-20q-36 -2 -52.5 -8t-22.5 -23t-6 -55v-496q0 -38 6 -55t22.5 -23t52.5 -8h31q-7 -66 -7 -118z" glyph-name="uni04A2" horiz-adv-x="757" unicode="Ң"/>
<glyph d="M719 -98q0 -40 3 -62h-23q-7 66 -18 99t-37 48.5t-78 15.5q-79 0 -126 -3v20q36 2 52.5 8t22.5 23t6 55v199h-305v-199q0 -38 6 -55t22.5 -23t52.5 -8v-20q-46 3 -127 3q-86 0 -128 -3v20q36 2 52.5 8t22.5 23t6 55v396q0 38 -6 55t-22.5 23t-52.5 8v20q42 -3 128 -3 q80 0 127 3v-20q-36 -2 -52.5 -8t-22.5 -23t-6 -55v-177h305v177q0 38 -6 55t-22.5 23t-52.5 8v20q46 -3 127 -3q86 0 128 3v-20q-36 -2 -52.5 -8t-22.5 -23t-6 -55v-396q0 -38 6 -55t22.5 -23t52.5 -8h31q-7 -66 -7 -118z" glyph-name="uni04A3" horiz-adv-x="737" unicode="ң"/>
<glyph d="M588 708v-20q-20 -5 -39 -25.5t-41 -63.5l-157 -311v-182q0 -38 6 -55t22.5 -23t52.5 -8v-20q-46 3 -127 3q-86 0 -128 -3v20q36 2 52.5 8t22.5 23t6 55v150l-203 375q-18 33 -31.5 44.5t-26.5 11.5v21q39 -3 88 -3q97 0 140 3v-21q-70 0 -70 -38q0 -15 10 -35l166 -319 l128 254q27 53 27 86q0 28 -22 40t-66 13v20q57 -3 115 -3q45 0 75 3z" glyph-name="uni04AE" horiz-adv-x="591" unicode="Ү"/>
<glyph d="M563 608v-21q-17 -4 -31 -19t-33 -49l-157 -281v-132q0 -38 6 -55t22.5 -23t52.5 -8v-20q-46 3 -127 3q-86 0 -128 -3v20q36 2 52.5 8t22.5 23t6 55v104l-193 321q-19 32 -31.5 42.5t-26.5 13.5v21q64 -4 88 -4q69 0 140 4v-21q-34 0 -52 -5.5t-18 -24.5q0 -17 17 -47 l151 -252l124 218q22 40 22 64q0 42 -69 47v21q37 -4 85 -4q57 0 77 4z" glyph-name="uni04AF" horiz-adv-x="573" unicode="ү"/>
<glyph d="M588 708v-20q-20 -5 -39 -25.5t-41 -63.5l-157 -311v-24h170v-20h-170v-138q0 -38 6 -55t22.5 -23t52.5 -8v-20q-46 3 -127 3q-86 0 -128 -3v20q36 2 52.5 8t22.5 23t6 55v138h-170v20h166l-199 367q-18 33 -31.5 44.5t-26.5 11.5v21q39 -3 88 -3q97 0 140 3v-21 q-70 0 -70 -38q0 -15 10 -35l166 -319l128 254q27 53 27 86q0 28 -22 40t-66 13v20q57 -3 115 -3q45 0 75 3z" glyph-name="uni04B0" horiz-adv-x="591" unicode="Ұ"/>
<glyph d="M563 608v-21q-17 -4 -31 -19t-33 -49l-157 -281v-21h170v-20h-170v-91q0 -38 6 -55t22.5 -23t52.5 -8v-20q-46 3 -127 3q-86 0 -128 -3v20q36 2 52.5 8t22.5 23t6 55v91h-170v20h166l-189 314q-19 32 -31.5 42.5t-26.5 13.5v21q64 -4 88 -4q69 0 140 4v-21 q-34 0 -52 -5.5t-18 -24.5q0 -17 17 -47l151 -252l124 218q22 40 22 64q0 42 -69 47v21q37 -4 85 -4q57 0 77 4z" glyph-name="uni04B1" horiz-adv-x="573" unicode="ұ"/>
<glyph d="M94.5 28q16.5 6 22.5 23t6 55v496q0 38 -6 55t-22.5 23t-52.5 8v20q42 -3 128 -3q94 0 147 3v-20q-45 -2 -65 -8t-28 -23t-8 -55v-213q31 15 84.5 26t103.5 11q81 0 128 -35q27 -21 37.5 -50.5t10.5 -83.5v-164q0 -41 17 -56.5t59 -15.5v-21q-92 4 -123 4q-28 0 -112 -4 v21q37 0 51.5 15.5t14.5 56.5v186q0 37 -8 61t-33 39t-74 15q-95 0 -156 -22v-266q0 -38 6 -55t22.5 -23t52.5 -8v-20q-42 3 -128 3q-81 0 -127 -3v20q36 2 52.5 8z" glyph-name="uni04BA" horiz-adv-x="673" unicode="Һ"/>
<glyph d="M597 36.5q17 -15.5 59 -15.5v-21q-92 4 -123 4q-28 0 -112 -4v21q37 0 51.5 15.5t14.5 56.5v86q0 37 -8 61t-33 39t-74 15q-95 0 -156 -22v-166q0 -38 6 -55t22.5 -23t52.5 -8v-20q-42 3 -128 3q-81 0 -127 -3v20q36 2 52.5 8t22.5 23t6 55v396q0 38 -6 55t-22.5 23 t-52.5 8v20q42 -3 128 -3q95 0 147 3v-20q-45 -2 -65 -8t-28 -23t-8 -55v-213q31 15 84.5 26t103.5 11q81 0 128 -35q27 -21 37.5 -50.5t10.5 -83.5v-64q0 -41 17 -56.5z" glyph-name="uni04BB" horiz-adv-x="673" unicode="һ"/>
<glyph d="M741 20v-20q-26 -37 -54.5 -85t-41.5 -75l-20 10q30 57 30 92q0 33 -23 46.5t-62 14.5q-70 0 -110 -3v20q36 2 52.5 8t22.5 23t6 55v240h-325v-240q0 -38 6 -55t22.5 -23t52.5 -8v-20q-46 3 -127 3q-86 0 -128 -3v20q36 2 52.5 8t22.5 23t6 55v496q0 38 -6 55t-22.5 23 t-52.5 8v20q42 -3 128 -3q80 0 127 3v-20q-36 -2 -52.5 -8t-22.5 -23t-6 -55v-236h325v236q0 38 -6 55t-22.5 23t-52.5 8v20q46 -3 127 -3q86 0 128 3v-20q-36 -2 -52.5 -8t-22.5 -23t-6 -55v-496q0 -17 2 -39q4 -27 20.5 -36t58.5 -11h26z" glyph-name="uni04C9" horiz-adv-x="757" unicode="Ӊ"/>
<glyph d="M721 20v-20q-25 -37 -54 -85t-42 -75l-20 10q30 57 30 92q0 33 -23 46.5t-62 14.5q-70 0 -110 -3v20q36 2 52.5 8t22.5 23t6 55v199h-305v-199q0 -38 6 -55t22.5 -23t52.5 -8v-20q-46 3 -127 3q-86 0 -128 -3v20q36 2 52.5 8t22.5 23t6 55v396q0 38 -6 55t-22.5 23 t-52.5 8v20q42 -3 128 -3q80 0 127 3v-20q-36 -2 -52.5 -8t-22.5 -23t-6 -55v-177h305v177q0 38 -6 55t-22.5 23t-52.5 8v20q46 -3 127 -3q86 0 128 3v-20q-36 -2 -52.5 -8t-22.5 -23t-6 -55v-396q0 -17 2 -39q4 -27 20.5 -36t58.5 -11h26z" glyph-name="uni04CA" horiz-adv-x="737" unicode="ӊ"/>
<glyph d="M502.5 677q71.5 -45 109.5 -128.5t38 -197.5q0 -112 -36.5 -194t-107 -126.5t-168.5 -44.5q-130 0 -207.5 78t-77.5 232h495q3 29 3 62q0 103 -32 179t-86.5 116t-121.5 40q-44 0 -90 -17t-74 -50q-19 -22 -29.5 -55t-20.5 -93h-23q0 165 -4 230h23q3 -32 8.5 -45.5 t16.5 -13.5q7 0 20 8q46 31 87.5 48t106.5 17q99 0 170.5 -45zM483.5 73q52.5 68 65.5 204h-398q-4 -76 19.5 -138t70 -98t108.5 -36q82 0 134.5 68z" glyph-name="uni04D8" horiz-adv-x="703" unicode="Ә"/>
<glyph d="M512.5 583q71.5 -39 109.5 -111.5t38 -170.5q0 -96 -36.5 -167t-107 -109.5t-168.5 -38.5q-130 0 -207.5 65.5t-77.5 194.5h495q3 29 3 62q0 87 -32 152t-86.5 99t-121.5 34q-44 0 -90 -17t-74 -50q-19 -22 -29.5 -55t-20.5 -93h-23q0 165 -4 230h23q3 -32 8.5 -45.5 t16.5 -13.5q7 0 20 8q47 32 88 48.5t106 16.5q99 0 170.5 -39zM494 60.5q52 55.5 65 166.5h-398q-4 -62 19.5 -113t70 -80t108.5 -29q83 0 135 55.5z" glyph-name="uni04D9" horiz-adv-x="713" unicode="ә"/>
<glyph d="M537.5 679q71.5 -43 111 -124.5t39.5 -194.5q0 -110 -40.5 -195t-113 -132t-164.5 -47q-95 0 -166.5 43t-111 124.5t-39.5 194.5q0 110 40.5 195t113 132t164.5 47q95 0 166.5 -43zM256.5 661.5q-47.5 -42.5 -74.5 -119t-29 -176.5h435q-1 101 -31 178t-79.5 118.5 t-110.5 41.5q-63 0 -110.5 -42.5zM485 47q48 43 75 120.5t28 178.5h-435q1 -103 30.5 -180.5t79.5 -119.5t111 -42q63 0 111 43z" glyph-name="uni04E8" horiz-adv-x="741" unicode="Ө"/>
<glyph d="M522.5 585.5q69.5 -36.5 107.5 -107t38 -168.5q0 -96 -39.5 -169.5t-109.5 -114t-159 -40.5q-92 0 -161.5 36.5t-107.5 107t-38 168.5q0 96 39.5 169.5t109.5 114t159 40.5q92 0 161.5 -36.5zM253 569q-45 -35 -71 -98.5t-29 -145.5h415q-3 84 -32 147.5t-75.5 97.5 t-103.5 34q-59 0 -104 -35zM471.5 42.5q46.5 38.5 71.5 106.5t25 156h-415v-3q0 -89 28 -157t76 -104.5t107 -36.5q61 0 107.5 38.5z" glyph-name="uni04E9" horiz-adv-x="721" unicode="ө"/>
<glyph d="M520 286h-453v40h453v-40z" glyph-name="endash" horiz-adv-x="587" unicode="–"/>
<glyph d="M337 811l-585 -866l-19 13l585 866z" glyph-name="fraction" horiz-adv-x="60" unicode="⁄"/>
<glyph d="M574 340h-501v30h501v-30z" glyph-name="minus" horiz-adv-x="647" unicode="−"/>
<glyph d="M246.5 299q27.5 -19 27.5 -56q0 -38 -26 -67.5t-76 -67.5q-4 -3 -25 -19t-35 -32h132q22 0 30.5 7.5t16.5 26.5l17 -3q-13 -53 -15 -90q-12 3 -38 3h-220v20q17 14 40 31q44 34 70 57t46 54.5t20 66.5q0 54 -65 54q-61 0 -95 -54l-15 8q19 34 53.5 57t84.5 23 q45 0 72.5 -19z" glyph-name="two.dnom" horiz-adv-x="338"/>
<glyph d="M336 90q-13 -43 -14 -75q-12 3 -38 3h-20v-117h-56v117h-194v21l229 264h21v-244h8q22 0 30.5 7.5t16.5 26.5zM208 59v179l-155 -179h155z" glyph-name="four.dnom" horiz-adv-x="357"/>
<glyph d="M303.5 613.5q49.5 -51.5 113.5 -82.5l-8 -14q-60 22 -117 54.5t-91 65.5q-28 -33 -74 -65.5t-94 -54.5l-8 14q64 31 113.5 82.5t73.5 109.5h18q24 -58 73.5 -109.5z" glyph-name="asciicircum.case" horiz-adv-x="442"/>
<glyph d="M482 90q0 25 7 48.5t8 27.5q-29 -72 -66 -106t-88 -34q-54 0 -78.5 33t-24.5 88q0 74 35.5 152t91.5 128.5t111 50.5q61 0 72 -53l8 39q57 0 90 14l-84 -367q-6 -21 -6 -34q0 -14 7 -20t22 -6q42 0 98.5 42t97.5 120.5t41 180.5q0 131 -81.5 193.5t-209.5 62.5 q-120 0 -227.5 -69.5t-172 -186t-64.5 -249.5q0 -147 81.5 -217.5t218.5 -70.5q116 0 206 54l7 -13q-39 -27 -94 -43t-120 -16q-146 0 -232.5 75.5t-86.5 228.5q0 134 65 255t176 195.5t242 74.5q140 0 226 -68t86 -207q0 -107 -44.5 -190.5t-112 -130t-133.5 -46.5 q-72 0 -72 64zM454 113q39 57 64 155l26 126q-2 32 -17.5 46.5t-44.5 14.5q-42 0 -78 -45.5t-57.5 -116t-21.5 -140.5q0 -97 52 -97q38 0 77 57z" glyph-name="at.smcp" horiz-adv-x="878"/>
<glyph d="M460 464l-45 -45q42 -53 42 -119q0 -67 -42 -119l44 -43l-28 -29l-44 44q-53 -42 -119 -42q-69 0 -119 41l-43 -43l-29 29l43 43q-42 52 -42 119t43 120l-44 44l28 28l44 -44q24 20 55 31t64 11q66 0 119 -43l45 45zM193.5 432q-34.5 -21 -54.5 -56t-20 -76t20.5 -76 t54.5 -55.5t74 -20.5t74 20.5t54 55.5t20 76q0 40 -20 75.5t-54 56.5t-74 21t-74.5 -21z" glyph-name="currency.smcp" horiz-adv-x="535"/>
<glyph d="M332 296h-312v20h312v-20z" glyph-name="strokeshortoverlaycomb" horiz-adv-x="352"/>
<glyph d="M-254.5 870.5q17.5 -17.5 17.5 -40.5q0 -24 -17.5 -41t-40.5 -17q-24 0 -41 17t-17 41q0 23 17 40.5t41 17.5q23 0 40.5 -17.5zM-42.5 870.5q17.5 -17.5 17.5 -40.5q0 -24 -17.5 -41t-40.5 -17q-24 0 -41 17t-17 41q0 23 17 40.5t41 17.5q23 0 40.5 -17.5z" glyph-name="uni0308.case" horiz-adv-x="0"/>
<glyph d="M-127 875q7 -6 36.5 -32.5t70.5 -57.5l-7 -13q-54 27 -129 57q-51 19 -72 32q-27 17 -27 39q0 10 6 19q12 17 31 17q14 0 30 -10q24 -16 61 -51z" glyph-name="gravecomb.case" horiz-adv-x="0"/>
<glyph d="M-57 936q19 0 31 -17q6 -9 6 -19q0 -22 -27 -39q-21 -13 -72 -32q-75 -30 -129 -57l-7 13q41 31 70.5 57.5t36.5 32.5q37 35 61 51q16 10 30 10z" glyph-name="acutecomb.case" horiz-adv-x="0"/>
<glyph d="M-128.5 841.5q49.5 -35.5 113.5 -57.5l-5 -14q-60 13 -118.5 32t-92.5 38q-28 -19 -75.5 -38t-95.5 -32l-5 14q64 22 113.5 57.5t73.5 74.5h18q24 -39 73.5 -74.5z" glyph-name="uni0302.case" horiz-adv-x="0"/>
<glyph d="M-63.5 900q28.5 -25 28.5 -66t-28.5 -66.5t-68.5 -25.5t-68 25.5t-28 66.5t28 66t68 25t68.5 -25zM-179 884.5q-21 -19.5 -21 -51.5q0 -33 20.5 -51.5t47.5 -18.5t48 18.5t21 51.5t-21 52t-48 19q-26 0 -47 -19.5z" glyph-name="uni030A.case" horiz-adv-x="0"/>
<glyph d="M-269 892q22 -10 53 -30q35 -20 53.5 -28.5t40.5 -8.5q46 0 62 56l15 -3q-4 -48 -36 -77t-75 -29q-25 0 -47 10t-53 30q-35 20 -53.5 28.5t-40.5 8.5q-23 0 -38 -12.5t-24 -43.5l-15 3q4 48 36 77t75 29q25 0 47 -10z" glyph-name="tildecomb.case" horiz-adv-x="0"/>
<glyph d="M-153 -72q30 7 59 7q28 0 44.5 -12.5t16.5 -34.5q0 -38 -35 -57t-78 -19q-50 0 -83 11l4 18q21 -3 38 -3q36 0 63 10.5t27 34.5q0 28 -42 28q-28 0 -49 -7l34 101h27z" glyph-name="uni0327.case" horiz-adv-x="0"/>
<glyph d="M413.5 855q14.5 -15 14.5 -40q0 -21 -11.5 -37t-36.5 -31q-63 -38 -156 -38t-156 38q-25 15 -36.5 31t-11.5 37q0 25 14.5 40t38.5 15t39.5 -14.5t15.5 -39.5q0 -21 -11.5 -34t-30.5 -17q21 -20 60 -28t78 -8t78 8t60 28q-19 4 -30.5 17t-11.5 34q0 25 16 39.5t39 14.5 q24 0 38.5 -15z" glyph-name="brevecy" horiz-adv-x="448"/>
<glyph d="M413.5 928q14.5 -15 14.5 -40q0 -21 -11.5 -37t-36.5 -31q-63 -38 -156 -38t-156 38q-25 15 -36.5 31t-11.5 37q0 25 14.5 40t38.5 15t39.5 -14.5t15.5 -39.5q0 -21 -11.5 -34t-30.5 -17q21 -20 60 -28t78 -8t78 8t60 28q-19 4 -30.5 17t-11.5 34q0 25 16 39.5t39 14.5 q24 0 38.5 -15z" glyph-name="brevecy.case" horiz-adv-x="448"/>
</font>
</defs>
</svg>
