<svg xmlns="http://www.w3.org/2000/svg"><symbol id="sprite-clock" viewBox="0 0 1024 1024"><title/><path d="M916.288 269.447c-21.211 10.266-30.074 35.78-19.831 56.967 28.039 57.902 42.234 120.318 42.234 185.586 0 235.257-191.409 426.667-426.667 426.667S85.357 747.258 85.357 512c0-235.257 191.409-426.667 426.667-426.667 97.494 0 189.071 31.827 264.862 92.045 18.381 14.686 45.274 11.599 59.937-6.852s11.599-45.297-6.852-59.937C740.241 39.264 627.314 0 511.999 0c-282.285 0-512 229.691-512 512s229.691 512 512 512c282.285 0 512-229.691 512-512 0-78.224-17.095-153.197-50.77-222.745-10.243-21.257-35.85-30.097-56.967-19.831z"/><path d="M517.403 174.853c-23.643 0-42.819 18.638-42.819 41.626v291.382c0 22.988 19.176 41.626 42.819 41.626h214.069c23.643 0 42.819-18.638 42.819-41.626s-19.176-41.626-42.819-41.626H560.221V216.48c0-22.988-19.176-41.626-42.819-41.626z"/></symbol><symbol id="sprite-comm-1" viewBox="0 0 19.737 26.292"><title>comm-1</title><path fill="#6ca7c0" d="M16.847 23.402c3.854-3.854 3.854-10.103 0-13.957L9.869 0 2.89 9.445c-3.853 3.854-3.853 10.103 0 13.957 3.854 3.854 10.103 3.854 13.957 0z"/></symbol><symbol id="sprite-comm-2" viewBox="0 0 161 161"><title>comm-2</title><circle cx="80.5" cy="80.5" r="54" stroke-width="53"/></symbol><symbol id="sprite-comm-3" viewBox="0 0 42.077 23.019"><title>comm-3</title><path fill="#916cc0" fill-rule="evenodd" d="M5.985 23.019a14.04 14.04 0 0 0 5.985-11.51A14.04 14.04 0 0 0 5.985 0 14.04 14.04 0 0 0 0 11.51a14.04 14.04 0 0 0 5.985 11.509zm15.054 0a14.04 14.04 0 0 0 5.985-11.51A14.04 14.04 0 0 0 21.039 0a14.04 14.04 0 0 0-5.986 11.51 14.04 14.04 0 0 0 5.986 11.509zm21.038-11.51a14.04 14.04 0 0 1-5.985 11.51 14.04 14.04 0 0 1-5.985-11.51A14.04 14.04 0 0 1 36.092 0a14.04 14.04 0 0 1 5.985 11.51z" clip-rule="evenodd"/></symbol><symbol id="sprite-comm-4" viewBox="0 0 27.786 44.236"><title>comm-4</title><path fill="none" stroke="#ffba00" stroke-width="7.938" d="M16.595 1.876L6.632 20.453h13.89l-13.89 21.64"/></symbol><symbol id="sprite-comm-5" viewBox="0 0 79 79"><title>comm-5</title><circle cx="39.5" cy="39.5" r="39.5"/></symbol><symbol id="sprite-date" viewBox="0 0 1024 1024"><title/><path d="M772 460c22.092 0 40-17.909 40-40s-17.909-40-40-40c-22.092 0-40 17.909-40 40s17.909 40 40 40z"/><path d="M863.997 80h-51.996V40c0-22.1-17.901-40-40-40s-40 17.9-40 40v40H550.002V40c0-22.1-17.901-40-40-40s-40 17.9-40 40v40H290.001V40c0-22.1-17.9-40-40-40s-40 17.9-40 40v40h-50c-88.22 0-160 71.78-160 160v623.997c0 88.223 71.78 160.002 160 160.002h306c22.099 0 40-17.901 40-40s-17.901-40-40-40h-306c-44.12 0-80-35.878-80-80.001V240.001c0-44.12 35.88-80 80-80h50v40c0 22.1 17.9 40 40 40s40-17.9 40-40v-40h180.001v40c0 22.1 17.901 40 40 40s40-17.9 40-40v-40h181.999v40c0 22.1 17.901 40 40 40s40-17.9 40-40v-40h51.996c44.123 0 80.001 35.88 80.001 80V468c0 22.103 17.901 40 40 40s40-17.897 40-40V240.001c0-88.22-71.779-160-160.002-160z"/><path d="M781.997 540.001c-133.439 0-241.998 108.559-241.998 241.998 0 133.442 108.559 242.002 241.998 242.002 133.442 0 242.002-108.559 242.002-242.002 0-133.439-108.559-241.998-242.002-241.998zm0 403.998C692.678 943.999 620 871.322 620 781.998c0-89.319 72.677-161.997 161.997-161.997 89.323 0 162.001 72.677 162.001 161.997 0 89.323-72.677 162.001-162.001 162.001z"/><path d="M839.998 742.002h-18v-42.003c0-22.099-17.897-40-40-40-22.099 0-39.997 17.901-39.997 40v82c0 22.103 17.897 40 39.997 40h58c22.103 0 40-17.897 40-40 0-22.099-17.897-39.997-40-39.997zM598 460c22.092 0 40-17.909 40-40s-17.909-40-40-40c-22.092 0-40 17.909-40 40s17.909 40 40 40zM423.999 634c22.092 0 40-17.909 40-40s-17.909-40-40-40c-22.092 0-40 17.909-40 40s17.909 40 40 40zm-174-174c22.091 0 40-17.909 40-40s-17.909-40-40-40-40 17.909-40 40 17.909 40 40 40zm0 174c22.091 0 40-17.909 40-40s-17.909-40-40-40-40 17.909-40 40 17.909 40 40 40zm0 174c22.091 0 40-17.909 40-40s-17.909-40-40-40-40 17.909-40 40 17.909 40 40 40zm174 0c22.092 0 40-17.909 40-40s-17.909-40-40-40c-22.092 0-40 17.909-40 40s17.909 40 40 40zm0-348c22.092 0 40-17.909 40-40s-17.909-40-40-40c-22.092 0-40 17.909-40 40s17.909 40 40 40z"/></symbol><symbol id="sprite-edit" viewBox="0 0 1024 1024"><title/><path d="M880.083 261.237c19.75-19.75 30.62-45.978 30.62-73.878s-10.87-54.128-30.62-73.877l-82.862-82.865C777.471 10.867 751.241 0 723.34 0s-54.131 10.867-73.826 30.565L94.018 584.336v230.672h230.568zM723.341 104.495l82.917 82.813-83.074 82.76-82.864-82.813zm-524.826 606.02v-82.813l367.822-366.673 82.864 82.864-367.77 366.622zM94.019 919.5h835.963V1024H94.019z"/></symbol><symbol id="sprite-fb" viewBox="0 0 1024 1024"><title/><path d="M766.504.222L634.519 0C486.188 0 390.362 98.879 390.362 252.013v116.152H257.606c-11.503 0-20.805 9.357-20.805 20.873v168.358c0 11.572 9.302 20.873 20.805 20.873h132.756v424.858c0 11.515 9.247 20.873 20.695 20.873h173.21c11.448 0 20.751-9.357 20.751-20.873V578.269h155.21c11.448 0 20.751-9.301 20.751-20.873l.054-168.358c0-5.481-2.201-10.796-6.054-14.725-3.907-3.876-9.191-6.147-14.695-6.147H605.018v-98.491c0-47.28 11.228-71.364 72.543-71.364l88.943-.055c11.448 0 20.695-9.356 20.695-20.872V21.094c0-11.516-9.247-20.872-20.695-20.872z"/></symbol><symbol id="sprite-football" viewBox="0 0 1024 1024"><title/><path d="M1021.297 438.934l.031-.259a395.359 395.359 0 0 0 2.671-45.697c0-102.07-39.138-195.166-103.188-265.105a20.082 20.082 0 0 0-3.589-3.855c-41.604-44.236-93.308-78.88-151.412-100.17a19.853 19.853 0 0 0-3.236-1.146C721.386 8.022 677.063-.001 630.888-.001c-51.499 0-100.714 9.97-145.828 28.049a20.217 20.217 0 0 0-3.543 1.452c-55.473 22.86-104.6 58.061-143.96 102.156a20.778 20.778 0 0 0-3.401 3.831c-60.003 69.019-96.378 159.087-96.378 257.49 0 14.751.847 29.313 2.443 43.647.015.18.038.353.063.525v.002a389.505 389.505 0 0 0 16.161 75.495L45.272 723.749c-7.853 7.85-7.853 20.576 0 28.426 3.926 3.926 9.07 5.888 14.214 5.888s10.287-1.962 14.214-5.888l198.507-198.431a392.088 392.088 0 0 0 18.382 35.782 19.924 19.924 0 0 0 2.294 3.878c49.834 83.659 129.84 147.342 224.907 175.948L376.171 910.917c-7.845 7.85-7.845 20.576 0 28.426a20.063 20.063 0 0 0 14.222 5.888 20.051 20.051 0 0 0 14.214-5.888l159.186-159.141a394.044 394.044 0 0 0 67.095 5.754c143.198 0 268.744-76.957 337.47-191.658a19.9 19.9 0 0 0 2.512-4.231c26.403-45.35 43.986-96.424 50.392-150.875zm-257.856-75.112l113.915-25.569 102.77 105.5c-6.243 43.114-20.315 83.73-40.732 120.36l-142.46 26.746-71.525-110.029zM536.38 480.829l-71.492 109.976-142.901-27.413a350.166 350.166 0 0 1-40.575-121.405l102.904-103.766 114.032 25.6 25.342 77.978zm-258.328-92.538c.935-71.115 22.994-137.231 60.224-192.317l18.131 113.304zm295.017 75.355l-35.511-109.253 92.963-67.511 92.963 67.52-35.51 109.244zM918.91 189.341c40.286 56.782 64.19 125.927 64.842 200.529l-78.765-80.858zm-35.518-42.555l-17.794 152.916-113.278 25.42L651.362 251.8V143.002l109.109-78.173c46.655 18.48 88.439 46.631 122.921 81.957zM538.101 52.598c29.582-8.07 60.687-12.403 92.791-12.403 28.089 0 55.418 3.313 81.623 9.546l-82.472 59.089zm-48.79 17.273l121.108 74.075v107.856l-100.95 73.322-113.899-25.562-23.402-146.227c32.707-35.264 72.514-63.846 117.142-83.464zm27.485 656.956c-65.267-22.35-121.963-63.32-163.718-116.544l108.471 20.819zm54.42 13.864l-73.275-126.969 71.431-109.882h123.04l71.429 109.882-73.259 126.963a353.846 353.846 0 0 1-59.691 5.07 352.55 352.55 0 0 1-59.674-5.064zm337.046-129.845c-41.707 52.951-98.233 93.709-163.27 115.981l55.213-95.688zM280.329 714.881L5.964 989.254c-7.951 7.953-7.951 20.84 0 28.791 3.975 3.969 9.183 5.956 14.391 5.956s10.416-1.989 14.391-5.964l274.373-274.364c7.944-7.953 7.944-20.84 0-28.791-7.951-7.944-20.838-7.944-28.791 0zm40.526 249.243c3.662-3.66 8.739-5.767 13.915-5.767 5.184 0 10.261 2.107 13.923 5.767 3.67 3.66 5.769 8.735 5.769 13.933 0 5.175-2.107 10.242-5.769 13.903-3.662 3.683-8.739 5.782-13.923 5.782-5.176 0-10.253-2.099-13.915-5.782-3.67-3.668-5.777-8.729-5.777-13.903 0-5.198 2.116-10.273 5.777-13.933z"/></symbol><symbol id="sprite-inst" viewBox="0 0 1024 1024"><title/><path d="M798.72 297.984c-45.623 0-82.718-37.091-82.718-82.717s37.094-82.716 82.718-82.716c45.623 0 82.773 37.091 82.773 82.716s-37.15 82.717-82.773 82.717zM512 792.008c-154.339 0-279.95-125.611-279.95-280.009S357.661 231.992 512 231.992c154.453 0 280.009 125.611 280.009 280.007 0 154.398-125.555 280.009-280.009 280.009zM746.837 0H277.219C124.359 0 0 124.302 0 277.163v469.675c0 152.802 124.359 277.163 277.219 277.163h469.618c152.862 0 277.163-124.361 277.163-277.163V277.163C1024 124.302 899.699 0 746.837 0z"/><path d="M512 341.333c-94.094 0-170.667 76.573-170.667 170.667S417.906 682.667 512 682.667c94.093 0 170.667-76.574 170.667-170.667S606.093 341.333 512 341.333z"/></symbol><symbol id="sprite-land" viewBox="0 0 1024 1024"><title/><path d="M947.689 82.978L60.222 970.445l16.089 16.089L963.778 99.067zm-136.4-68.4L37.6 765.511l15.822 16.356L827.111 30.934zm159.155 295.955L287.777 993.2l16.089 16.089 682.667-682.667zm-432.177-296L14.889 515.155l15.733 16.444L554 30.977zm432.177 523.556L538.088 970.445l16.089 16.089 432.356-432.356z"/><path d="M0 0v1024h1024V0zm113.778 113.778h796.444v796.444H113.778z"/></symbol><symbol id="sprite-money" viewBox="0 0 1024 1024"><title/><path d="M467.558 569.692v30.966h119.439v45.896H467.558v49.766h-90.132v-49.766h-53.637v-45.896h53.637v-291.41h167.547c52.716 0 93.819 11.059 123.31 33.178 29.86 22.118 44.79 54.559 44.79 97.321 0 42.394-14.93 74.65-44.79 96.768-29.491 22.118-70.595 33.178-123.31 33.178zM622.387 440.3c0-18.801-6.82-33.178-20.46-43.131-13.271-9.953-32.44-14.93-57.508-14.93h-76.861v117.228h76.861c25.068 0 44.237-4.977 57.508-14.93 13.64-10.322 20.46-25.068 20.46-44.237z"/><path d="M512 0C229.958 0 0 229.958 0 512s229.958 512 512 512c282.042 0 512-229.958 512-512S794.042 0 512 0zm0 122.88c215.633 0 389.12 173.487 389.12 389.12S727.633 901.12 512 901.12 122.88 727.633 122.88 512 296.367 122.88 512 122.88z"/><path d="M512 163.84c-192.162 0-348.16 155.998-348.16 348.16S319.838 860.16 512 860.16c192.162 0 348.16-155.998 348.16-348.16S704.162 163.84 512 163.84zm0 20.48c181.094 0 327.68 146.586 327.68 327.68S693.094 839.68 512 839.68 184.32 693.094 184.32 512 330.906 184.32 512 184.32z"/></symbol><symbol id="sprite-ok" viewBox="0 0 1024 1024"><title/><path d="M421.028 331.656c0-50.513 40.916-91.427 90.972-91.427s90.972 40.914 90.972 91.427c0 50.287-40.916 90.972-90.972 90.972s-90.972-40.913-90.972-90.972zM1024 109.714v804.572C1024 974.857 974.857 1024 914.286 1024H109.714C49.143 1024 0 974.857 0 914.286V109.714C0 49.143 49.143 0 109.714 0h804.572C974.857 0 1024 49.143 1024 109.714zM326.63 331.656C326.63 433.6 409.829 516.57 512 516.57s185.37-82.742 185.37-184.914c0-102.399-83.199-185.37-185.37-185.37s-185.37 82.743-185.37 185.37zm398.856 207.316c-10.515-20.802-39.544-38.4-77.944-8.23 0 0-51.885 41.144-135.542 41.144s-135.542-41.144-135.542-41.144c-38.4-30.17-67.429-12.572-77.944 8.23-18.056 36.8 2.516 54.17 48.915 84.571 39.544 25.372 94.173 34.743 129.372 38.4l-29.485 29.485c-41.601 41.144-81.145 81.145-109.03 109.03-40.229 40.229 24.456 104.685 64.913 65.372l109.03-109.486c41.601 41.598 81.601 81.598 109.03 109.486 40.229 39.313 105.141-24.459 65.372-65.372l-109.03-109.03-29.714-29.485c35.427-3.657 89.369-13.485 128.456-38.4 46.627-30.401 66.97-47.999 49.143-84.571z"/></symbol><symbol id="sprite-save" viewBox="0 0 1024 1024"><title/><path fill="none" stroke-linejoin="round" stroke-linecap="round" stroke-width="66.064" stroke="#000" d="M864.345 965.01H159.656a100.669 100.669 0 0 1-100.67-100.67V159.653a100.666 100.666 0 0 1 100.67-100.67h553.682l251.676 251.674V864.34a100.67 100.67 0 0 1-100.67 100.67z"/><path fill="none" stroke-linejoin="round" stroke-linecap="round" stroke-width="66.064" stroke="#000" d="M763.673 965.017V562.341H260.325v402.676m0-906.033v251.674h402.679"/></symbol><symbol id="sprite-time" viewBox="0 0 1024 1024"><title/><path d="M916.241 269.441c-21.201 10.267-30.083 35.787-19.816 56.987 28.027 57.892 42.242 120.322 42.242 185.573 0 235.255-191.412 426.667-426.667 426.667-235.253 0-426.667-191.412-426.667-426.667C85.333 276.748 276.746 85.334 512 85.334c97.492 0 189.068 31.84 264.878 92.053 18.375 14.667 45.28 11.6 59.95-6.854 14.666-18.427 11.598-45.28-6.853-59.946C740.238 39.28 627.306 0 512 0 229.707 0 0 229.707 0 512s229.707 512 512 512c282.294 0 512-229.706 512-512 0-78.241-17.093-153.2-50.775-222.747-10.24-21.253-35.84-30.107-56.984-19.814z"/><path d="M512 170.668c-23.548 0-42.667 19.12-42.667 42.667v298.667c0 23.548 19.118 42.667 42.667 42.667h213.333c23.548 0 42.667-19.118 42.667-42.667s-19.118-42.667-42.667-42.667H554.666v-256c0-23.547-19.118-42.667-42.667-42.667z"/></symbol><symbol id="sprite-vk" viewBox="0 0 1024 1024"><title/><path d="M599.022 362.913c0 34.439-.559 68.831.421 103.269.235 9.015 4.021 18.651 8.602 26.57 8.413 14.357 20.895 15.359 33.656 4.768 18.93-15.74 33.936-34.917 47.539-55.427 35.666-53.901 65.628-110.806 88.953-171.384 8.413-21.894 15.612-28.953 41.602-28.715 54.176.62 108.399-1.145 162.574-1.384 8.507-.048 17.295 1.526 25.429 4.15 13.135 4.293 18.651 12.45 15.191 26.187-4.207 16.647-9.723 33.342-17.481 48.558-25.522 49.798-60.159 93.348-93.115 138.043-15.471 20.94-30.945 41.927-45.059 63.773-15.988 24.708-14.164 42.882 5.889 63.965 21.781 22.942 44.686 44.742 66.796 67.257 27.018 27.474 52.867 56.046 72.314 89.866 4.019 6.964 7.104 14.786 9.114 22.56 6.545 25.617-7.525 38.684-30.244 41.453-15.939 1.906-32.112 1.764-48.239 2.146-36.507.81-73.059 2.002-109.614 1.956-25.055 0-48.006-9.588-66.049-26.567-24.26-22.849-45.95-48.512-69.228-72.505-11.499-11.83-23.231-23.706-36.321-33.58-15.377-11.638-27.064-9.445-40.058 4.865-17.109 18.841-20.24 42.739-22.484 66.78-.794 8.823-.562 17.744-1.45 26.521-1.821 17.458-11.031 27.284-27.906 30.671-2.151.43-4.301 1-6.451.953-36.461-.716-73.106.286-109.425-2.815-34.124-2.956-66.377-15.406-96.387-32.482-47.024-26.807-91.43-57.526-125.928-100.408-41.462-51.659-79.745-105.608-113.308-162.99C75.444 435.51 37.768 359.477 4.253 281.202a61.396 61.396 0 0 1-3.413-10.78c-3.085-14.119 2.337-23.706 16.173-26.998 7.199-1.717 14.724-2.337 22.11-2.433 43.706-.43 87.365-.572 131.023-.906 24.728-.143 37.536 9.397 48.38 32.197 25.849 54.187 52.073 108.278 79.184 161.845 11.826 23.325 26.879 44.837 47.445 61.39 4.768 3.815 10.284 7.203 15.988 9.302 12.059 4.292 20.613.19 26.923-11.067 10.096-17.935 10.517-38.065 12.808-57.764 5.142-44.217 4.207-88.196-4.442-132.033-5.142-26.235-21.128-40.354-45.856-45.887-3.692-.811-7.058-3.053-10.564-4.627 2.012-3.816 3.413-8.157 6.124-11.257 10.423-12.068 23.699-19.414 39.217-21.703 57.635-8.586 115.364-9.874 173-.525 29.965 4.865 37.583 15.646 40.761 45.41 2.618 24.66.327 49.846.235 74.793-.047 7.632 0 15.216 0 22.752h-.329z"/></symbol><symbol id="sprite-youtube" viewBox="0 0 768 768"><title/><path d="M690.016 212.384c9.184 48.928 14.336 105.44 13.984 164 .608 48.896-3.936 104.544-13.984 160.672a58.646 58.646 0 0 1-8.704 18.4c-7.264 10.272-17.856 18.08-30.368 21.6-19.328 5.152-68.992 8.8-124.064 10.912C455.52 590.72 384 590.72 384 590.72s-71.52 0-142.88-2.72c-55.072-2.112-104.736-5.728-123.712-10.816-6.56-1.824-12.672-4.768-18.112-8.576-9.952-7.04-17.6-17.152-21.44-29.536C68.736 490.24 63.648 433.92 64 375.552c-.672-49.28 3.872-105.344 13.984-161.92a58.646 58.646 0 0 1 8.704-18.4c7.264-10.272 17.856-18.08 30.368-21.6 19.328-5.152 68.992-8.8 124.064-10.912C312.48 160 384 160 384 160s71.52 0 142.912 2.496c55.008 1.92 105.024 5.216 123.392 9.696a58.435 58.435 0 0 1 19.136 9.568c9.824 7.424 17.216 17.952 20.576 30.656zm62.304-14.72c-6.944-27.712-22.976-50.88-44.256-66.976a122.817 122.817 0 0 0-39.968-20c-28.736-7.04-86.272-10.336-138.944-12.16C456.608 96 384 96 384 96s-72.704 0-145.312 2.784c-52.544 2.016-110.4 5.6-138.144 13.024-27.968 7.904-50.592 24.64-66.048 46.4-8.64 12.192-15.008 25.952-18.784 40.576a36.382 36.382 0 0 0-.48 2.272C4.256 261.792-.736 322.432 0 376.448c-.384 61.568 5.152 122.592 15.264 176.064.192.992.416 1.984.672 2.816 7.84 27.52 24.64 50.144 46.432 65.536a122.459 122.459 0 0 0 37.824 17.952c28.128 7.52 85.952 11.104 138.496 13.12C311.296 654.72 384 654.72 384 654.72s72.704 0 145.312-2.784c52.544-2.016 110.368-5.6 138.144-13.024 27.936-7.904 50.592-24.64 66.016-46.4a123.112 123.112 0 0 0 18.784-40.544c.192-.8.384-1.6.48-2.272 10.88-60.288 15.872-120.48 15.232-174.08.384-61.6-5.152-122.656-15.264-176.128-.128-.64-.256-1.28-.384-1.824zM344 425.632v-99.264L431.264 376zm-16.192 82.816l184-104.64c15.36-8.736 20.736-28.288 12-43.648-2.976-5.248-7.232-9.344-12-12l-184-104.64c-15.36-8.736-34.912-3.36-43.648 12-2.88 5.056-4.224 10.56-4.192 15.808v209.28c0 17.664 14.336 32 32 32 5.824 0 11.264-1.568 15.808-4.192z"/></symbol></svg>