<svg xmlns="http://www.w3.org/2000/svg"><symbol id="sprite-clock" viewBox="0 0 1024 1024"><title/><path d="M916.249 269.439c-21.207 10.259-30.082 35.78-19.823 56.979 28.032 57.905 42.24 120.322 42.24 185.583 0 235.26-191.407 426.667-426.667 426.667S85.332 747.261 85.332 512.001c0-235.26 191.407-426.667 426.667-426.667 97.489 0 189.073 31.833 264.875 92.052 18.385 14.677 45.271 11.604 59.949-6.844 14.677-18.438 11.603-45.292-6.854-59.948C740.228 39.271 627.302 0 512 0 229.698 0 0 229.698 0 512s229.698 512 512 512 512-229.698 512-512c0-78.229-17.084-153.199-50.771-222.739-10.24-21.25-35.844-30.106-56.979-19.823z"/><path d="M517.352 174.829c-23.635 0-42.816 18.648-42.816 41.626v291.381c0 22.978 19.181 41.626 42.816 41.626h214.076c23.635 0 42.816-18.647 42.816-41.626s-19.181-41.626-42.816-41.626H560.166V216.454c0-22.978-19.181-41.626-42.814-41.626z"/></symbol><symbol id="sprite-fb" viewBox="0 0 512 512"><title/><path d="M304 96h80V0h-80c-61.757 0-112 50.243-112 112v48h-64v96h64v256h96V256h80l16-96h-96v-48c0-8.673 7.327-16 16-16z"/></symbol><symbol id="sprite-football" viewBox="0 0 1024 1024"><title/><path d="M1021.267 439.192l.031-.258.031-.259a395.359 395.359 0 0 0 2.671-45.697c0-102.07-39.138-195.166-103.188-265.105a20.082 20.082 0 0 0-3.589-3.855c-41.604-44.236-93.308-78.88-151.412-100.17a19.853 19.853 0 0 0-3.236-1.146C721.387 8.022 677.064-.001 630.889-.001c-51.499 0-100.714 9.97-145.828 28.049a20.217 20.217 0 0 0-3.543 1.452c-55.473 22.86-104.6 58.061-143.96 102.156a20.778 20.778 0 0 0-3.401 3.831c-60.003 69.019-96.378 159.087-96.378 257.49 0 14.751.847 29.313 2.443 43.647.015.18.038.353.063.525v.002a389.505 389.505 0 0 0 16.161 75.495L45.273 723.749c-7.853 7.85-7.853 20.576 0 28.426 3.926 3.926 9.07 5.888 14.214 5.888s10.287-1.962 14.214-5.888l198.507-198.431a392.088 392.088 0 0 0 18.382 35.782 19.924 19.924 0 0 0 2.294 3.878c49.834 83.659 129.84 147.342 224.907 175.948L376.172 910.917c-7.845 7.85-7.845 20.576 0 28.426a20.063 20.063 0 0 0 14.222 5.888 20.051 20.051 0 0 0 14.214-5.888l159.186-159.141a394.044 394.044 0 0 0 67.095 5.754c143.198 0 268.744-76.957 337.471-191.658a19.9 19.9 0 0 0 2.512-4.231c26.403-45.35 43.986-96.424 50.392-150.875zm-295.858 41.639l38.032-117.009 113.915-25.569 102.77 105.5c-6.243 43.114-20.315 83.73-40.732 120.36l-142.46 26.746-71.525-110.029zm-189.029-.002l-71.492 109.976-142.901-27.413a350.166 350.166 0 0 1-40.575-121.405l102.904-103.766 114.032 25.6L536.38 480.83zM356.408 309.278l-78.356 79.013c.935-71.115 22.994-137.231 60.224-192.317l18.131 113.304zm216.661 154.368l-35.511-109.253 92.963-67.511 92.963 67.52-35.51 109.244H573.07zM904.988 309.01l13.923-119.671c40.286 56.782 64.19 125.927 64.842 200.529l-78.765-80.858zm-21.595-162.225l-17.794 152.916-113.278 25.42-100.958-73.322V143.001l109.109-78.173c46.655 18.48 88.439 46.631 122.921 81.957zm-253.35-37.957l-91.942-56.232c29.582-8.07 60.687-12.403 92.791-12.403 28.089 0 55.418 3.313 81.623 9.546l-82.472 59.089zM489.311 69.87l121.108 74.075v107.856l-100.95 73.322-113.899-25.562-23.402-146.227c32.707-35.264 72.514-63.846 117.142-83.464zm-27.762 561.231l55.246 95.726c-65.267-22.35-121.963-63.32-163.718-116.544l108.471 20.819zm109.667 109.59l-73.275-126.969 71.431-109.882h123.04l71.429 109.882-73.259 126.963a353.846 353.846 0 0 1-59.691 5.07 352.55 352.55 0 0 1-59.674-5.064zm228.99-109.552l108.057-20.293c-41.707 52.951-98.233 93.709-163.27 115.981l55.213-95.688zm-519.877 83.742L5.964 989.254c-7.951 7.953-7.951 20.84 0 28.791 3.975 3.969 9.183 5.956 14.391 5.956s10.416-1.989 14.391-5.964l274.373-274.364c7.944-7.953 7.944-20.84 0-28.791-7.951-7.944-20.838-7.944-28.791 0zm40.526 249.244c3.662-3.66 8.739-5.767 13.915-5.767 5.184 0 10.261 2.107 13.923 5.767 3.67 3.66 5.769 8.735 5.769 13.933 0 5.175-2.107 10.242-5.769 13.903-3.662 3.683-8.739 5.782-13.923 5.782-5.176 0-10.253-2.099-13.915-5.782-3.67-3.668-5.777-8.729-5.777-13.903 0-5.198 2.116-10.273 5.777-13.933z"/></symbol><symbol id="sprite-instagram" viewBox="0 0 1024 1024"><title/><path d="M798.72 297.984c-45.623 0-82.718-37.091-82.718-82.717s37.094-82.716 82.718-82.716c45.623 0 82.773 37.091 82.773 82.716s-37.15 82.717-82.773 82.717zM512 792.009c-154.339 0-279.95-125.611-279.95-280.009S357.661 231.993 512 231.993c154.453 0 280.009 125.611 280.009 280.007 0 154.398-125.555 280.009-280.009 280.009zM746.837 0H277.219C124.359 0 0 124.302 0 277.163v469.675c0 152.802 124.359 277.163 277.219 277.163h469.618c152.862 0 277.163-124.361 277.163-277.163V277.163C1024 124.302 899.699 0 746.837 0z"/><path d="M512 341.333c-94.094 0-170.667 76.573-170.667 170.667S417.906 682.667 512 682.667c94.093 0 170.667-76.574 170.667-170.667S606.093 341.333 512 341.333z"/></symbol><symbol id="sprite-land" viewBox="0 0 1024 1024"><title/><path fill="none" stroke-width="22.756" stroke="#000" d="M59.535 1000.187L988.28 71.442M11.907 785.861L821.582 0M297.674 1024l714.42-714.42M11.907 523.907L559.629 0m-.001 1000.187l452.466-452.466"/><path fill="none" stroke-width="113.778" stroke="#000" d="M47.628 35.721h952.559V988.28H47.628V35.721z"/></symbol><symbol id="sprite-land1" viewBox="0 0 45 45"><title>land1</title><path d="M3 43L42 4M2 34L36 1M13 44l30-30M1 23L24 1m0 42l19-19" stroke="#000"/><path stroke="#000" stroke-width="5" d="M2.5 2.5h40v40h-40z"/></symbol><symbol id="sprite-money-ico" viewBox="0 0 1024 1024"><title/><path d="M467.558 569.692v30.966h119.439v45.896H467.558v49.766h-90.132v-49.766h-53.637v-45.896h53.637v-291.41h167.547c52.716 0 93.819 11.059 123.31 33.178 29.86 22.118 44.79 54.559 44.79 97.321 0 42.394-14.93 74.65-44.79 96.768-29.491 22.118-70.595 33.178-123.31 33.178h-77.414zM622.387 440.3c0-18.801-6.82-33.178-20.46-43.131-13.271-9.953-32.44-14.93-57.508-14.93h-76.861v117.228h76.861c25.068 0 44.237-4.977 57.508-14.93 13.64-10.322 20.46-25.068 20.46-44.237z"/><path fill="none" stroke-width="122.88" stroke="#000" d="M962.56 512c0 248.837-201.723 450.56-450.56 450.56S61.44 760.837 61.44 512 263.163 61.44 512 61.44 962.56 263.163 962.56 512z"/><path fill="none" stroke-width="20.48" stroke="#000" d="M849.92 512c0 186.628-151.292 337.92-337.92 337.92S174.08 698.628 174.08 512c0-186.628 151.292-337.92 337.92-337.92S849.92 325.372 849.92 512z"/></symbol><symbol id="sprite-ok" viewBox="0 0 384 448"><title/><path d="M231.75 145c0 22-17.75 39.75-39.75 39.75S152.25 167 152.25 145 170 105.25 192 105.25 231.75 123 231.75 145zm53.5 90.75c-4.5-9-17.25-16.75-34-3.5 0 0-22.75 18-59.25 18s-59.25-18-59.25-18c-16.75-13.25-29.5-5.5-34 3.5-8 16 1 23.75 21.25 37 17.25 11 41.25 15.25 56.5 16.75l-12.75 13c-18 18-35.5 35.5-47.75 47.5-7.25 7.25-7.25 19 0 26.25l2.25 2.25c7.25 7.25 19 7.25 26.25 0l47.75-47.75c18 18.25 35.5 35.75 47.75 47.75 7.25 7.25 19 7.25 26.25 0l2.25-2.25c7.25-7.25 7.25-19 0-26.25l-47.75-47.5-13-13c15.5-1.5 39-5.75 56.25-16.75 20.25-13.25 29.25-21 21.25-37zM273 145c0-44.75-36.25-81-81-81s-81 36.25-81 81 36.25 81 81 81 81-36.25 81-81zm111-41v240c0 39.75-32.25 72-72 72H72c-39.75 0-72-32.25-72-72V104c0-39.75 32.25-72 72-72h240c39.75 0 72 32.25 72 72z"/></symbol><symbol id="sprite-vk" viewBox="0 0 490 448"><title/><path d="M479.25 130c3.75 10.25-8 34.25-37.5 73.5C393.25 268 388 262 428 299.25c38.5 35.75 46.5 53 47.75 55.25 0 0 16 28-17.75 28.25l-64 1c-13.75 2.75-32-9.75-32-9.75-24-16.5-46.5-59.25-64-53.75 0 0-18 5.75-17.5 44.25.25 8.25-3.75 12.75-3.75 12.75s-4.5 4.75-13.25 5.5h-28.75c-63.25 4-119-54.25-119-54.25s-61-63-114.5-188.75c-3.5-8.25.25-12.25.25-12.25s3.75-4.75 14.25-4.75l68.5-.5c6.5 1 11 4.5 11 4.5s4 2.75 6 8c11.25 28 25.75 53.5 25.75 53.5 25 51.5 42 60.25 51.75 55 0 0 12.75-7.75 10-70-1-22.5-7.25-32.75-7.25-32.75-5.75-7.75-16.5-10-21.25-10.75-3.75-.5 2.5-9.5 10.75-13.5 12.25-6 34-6.25 59.75-6 20.25.25 26 1.5 33.75 3.25 23.75 5.75 15.75 27.75 15.75 80.75 0 17-3.25 40.75 9 48.5 5.25 3.5 18.25.5 50.25-54 0 0 15-26 26.75-56.25 2-5.5 6.25-7.75 6.25-7.75s4-2.25 9.5-1.5l72-.5c21.75-2.75 25.25 7.25 25.25 7.25z"/></symbol></svg>