<!-- Generated by IcoMoon.io -->
<svg version="1.1" xmlns="http://www.w3.org/2000/svg" width="1024" height="1024" viewBox="0 0 1024 1024">
<title></title>
<g id="icomoon-ignore">
</g>
<path d="M916.288 269.447c-21.211 10.266-30.074 35.78-19.831 56.967 28.039 57.902 42.234 120.318 42.234 185.586 0 235.257-191.409 426.667-426.667 426.667s-426.667-191.409-426.667-426.667c0-235.257 191.409-426.667 426.667-426.667 97.494 0 189.071 31.827 264.862 92.045 18.381 14.686 45.274 11.599 59.937-6.852s11.599-45.297-6.852-59.937c-89.73-71.325-202.657-110.589-317.972-110.589-282.285 0-512 229.691-512 512s229.691 512 512 512c282.285 0 512-229.691 512-512 0-78.224-17.095-153.197-50.77-222.745-10.243-21.257-35.85-30.097-56.967-19.831z"></path>
<path d="M517.403 174.853c-23.643 0-42.819 18.638-42.819 41.626v291.382c0 22.988 19.176 41.626 42.819 41.626h214.069c23.643 0 42.819-18.638 42.819-41.626s-19.176-41.626-42.819-41.626h-171.251v-249.755c0-22.988-19.176-41.626-42.819-41.626z"></path>
</svg>
