<!-- Generated by IcoMoon.io -->
<svg version="1.1" xmlns="http://www.w3.org/2000/svg" width="1024" height="1024" viewBox="0 0 1024 1024">
<title></title>
<g id="icomoon-ignore">
</g>
<path d="M916.249 269.439c-21.207 10.259-30.082 35.78-19.823 56.979 28.032 57.905 42.24 120.322 42.24 185.583 0 235.26-191.407 426.667-426.667 426.667s-426.667-191.407-426.667-426.667c0-235.26 191.407-426.667 426.667-426.667 97.489 0 189.073 31.833 264.875 92.052 18.385 14.677 45.271 11.604 59.949-6.844 14.677-18.438 11.603-45.292-6.854-59.948-89.741-71.323-202.667-110.594-317.969-110.594-282.302 0-512 229.698-512 512s229.698 512 512 512c282.302 0 512-229.698 512-512 0-78.229-17.084-153.199-50.771-222.739-10.24-21.25-35.844-30.106-56.979-19.823z"></path>
<path d="M517.352 174.829c-23.635 0-42.816 18.648-42.816 41.626v291.381c0 22.978 19.181 41.626 42.816 41.626h214.076c23.635 0 42.816-18.647 42.816-41.626s-19.181-41.626-42.816-41.626h-171.262v-249.756c0-22.978-19.181-41.626-42.814-41.626z"></path>
</svg>
