<svg xmlns="http://www.w3.org/2000/svg" viewBox="0 0 42.077 23.019"><path fill="#916cc0" fill-rule="evenodd" d="M5.985 23.019a14.04 14.04 0 0 0 5.985-11.51A14.04 14.04 0 0 0 5.985 0 14.04 14.04 0 0 0 0 11.51a14.04 14.04 0 0 0 5.985 11.509zm15.054 0a14.04 14.04 0 0 0 5.985-11.51A14.04 14.04 0 0 0 21.039 0a14.04 14.04 0 0 0-5.986 11.51 14.04 14.04 0 0 0 5.986 11.509zm21.038-11.51a14.04 14.04 0 0 1-5.985 11.51 14.04 14.04 0 0 1-5.985-11.51A14.04 14.04 0 0 1 36.092 0a14.04 14.04 0 0 1 5.985 11.51z" clip-rule="evenodd"/></svg>