<!-- Generated by IcoMoon.io -->
<svg version="1.1" xmlns="http://www.w3.org/2000/svg" width="1024" height="1024" viewBox="0 0 1024 1024">
<title></title>
<g id="icomoon-ignore">
</g>
<path d="M772 460c22.092 0 40-17.909 40-40s-17.909-40-40-40c-22.092 0-40 17.909-40 40s17.909 40 40 40z"></path>
<path d="M863.997 80h-51.996v-40c0-22.1-17.901-40-40-40s-40 17.9-40 40v40h-181.999v-40c0-22.1-17.901-40-40-40s-40 17.9-40 40v40h-180.001v-40c0-22.1-17.9-40-40-40s-40 17.9-40 40v40h-50c-88.22 0-160 71.78-160 160v623.997c0 88.223 71.78 160.002 160 160.002h306c22.099 0 40-17.901 40-40s-17.901-40-40-40h-306c-44.12 0-80-35.878-80-80.001v-623.997c0-44.12 35.88-80 80-80h50v40c0 22.1 17.9 40 40 40s40-17.9 40-40v-40h180.001v40c0 22.1 17.901 40 40 40s40-17.9 40-40v-40h181.999v40c0 22.1 17.901 40 40 40s40-17.9 40-40v-40h51.996c44.123 0 80.001 35.88 80.001 80v227.999c0 22.103 17.901 40 40 40s40-17.897 40-40v-227.999c0-88.22-71.779-160-160.002-160z"></path>
<path d="M781.997 540.001c-133.439 0-241.998 108.559-241.998 241.998 0 133.442 108.559 242.002 241.998 242.002 133.442 0 242.002-108.559 242.002-242.002 0-133.439-108.559-241.998-242.002-241.998zM781.997 943.999c-89.319 0-161.997-72.677-161.997-162.001 0-89.319 72.677-161.997 161.997-161.997 89.323 0 162.001 72.677 162.001 161.997 0 89.323-72.677 162.001-162.001 162.001z"></path>
<path d="M839.998 742.002h-18v-42.003c0-22.099-17.897-40-40-40-22.099 0-39.997 17.901-39.997 40v82c0 22.103 17.897 40 39.997 40h58c22.103 0 40-17.897 40-40 0-22.099-17.897-39.997-40-39.997z"></path>
<path d="M598 460c22.092 0 40-17.909 40-40s-17.909-40-40-40c-22.092 0-40 17.909-40 40s17.909 40 40 40z"></path>
<path d="M423.999 634c22.092 0 40-17.909 40-40s-17.909-40-40-40c-22.092 0-40 17.909-40 40s17.909 40 40 40z"></path>
<path d="M249.999 460c22.091 0 40-17.909 40-40s-17.909-40-40-40c-22.091 0-40 17.909-40 40s17.909 40 40 40z"></path>
<path d="M249.999 634c22.091 0 40-17.909 40-40s-17.909-40-40-40c-22.091 0-40 17.909-40 40s17.909 40 40 40z"></path>
<path d="M249.999 808c22.091 0 40-17.909 40-40s-17.909-40-40-40c-22.091 0-40 17.909-40 40s17.909 40 40 40z"></path>
<path d="M423.999 808c22.092 0 40-17.909 40-40s-17.909-40-40-40c-22.092 0-40 17.909-40 40s17.909 40 40 40z"></path>
<path d="M423.999 460c22.092 0 40-17.909 40-40s-17.909-40-40-40c-22.092 0-40 17.909-40 40s17.909 40 40 40z"></path>
</svg>
