<!-- Generated by IcoMoon.io -->
<svg version="1.1" xmlns="http://www.w3.org/2000/svg" width="1024" height="1024" viewBox="0 0 1024 1024">
<title></title>
<g id="icomoon-ignore">
</g>
<path d="M766.504 0.222l-131.985-0.222c-148.331 0-244.157 98.879-244.157 252.013v116.152h-132.756c-11.503 0-20.805 9.357-20.805 20.873v168.358c0 11.572 9.302 20.873 20.805 20.873h132.756v424.858c0 11.515 9.247 20.873 20.695 20.873h173.21c11.448 0 20.751-9.357 20.751-20.873v-424.858h155.21c11.448 0 20.751-9.301 20.751-20.873l0.054-168.358c0-5.481-2.201-10.796-6.054-14.725-3.907-3.876-9.191-6.147-14.695-6.147h-155.266v-98.491c0-47.28 11.228-71.364 72.543-71.364l88.943-0.055c11.448 0 20.695-9.356 20.695-20.872v-156.29c0-11.516-9.247-20.872-20.695-20.872z"></path>
</svg>
