<!-- Generated by IcoMoon.io -->
<svg version="1.1" xmlns="http://www.w3.org/2000/svg" width="1024" height="1024" viewBox="0 0 1024 1024">
<title></title>
<g id="icomoon-ignore">
</g>
<path d="M1021.267 439.192l0.031-0.258 0.031-0.259c1.744-14.995 2.671-30.239 2.671-45.697 0-102.070-39.138-195.166-103.188-265.105-1.021-1.429-2.221-2.732-3.589-3.855-41.604-44.236-93.308-78.88-151.412-100.17-1.044-0.471-2.129-0.863-3.236-1.146-41.188-14.68-85.511-22.703-131.686-22.703-51.499 0-100.714 9.97-145.828 28.049-1.225 0.369-2.403 0.856-3.543 1.452-55.473 22.86-104.6 58.061-143.96 102.156-1.288 1.138-2.434 2.418-3.401 3.831-60.003 69.019-96.378 159.087-96.378 257.49 0 14.751 0.847 29.313 2.443 43.647 0.015 0.18 0.038 0.353 0.063 0.525v0.002c2.92 26.015 8.393 51.261 16.161 75.495l-211.173 211.103c-7.853 7.85-7.853 20.576 0 28.426 3.926 3.926 9.070 5.888 14.214 5.888s10.287-1.962 14.214-5.888l198.507-198.431c5.528 12.27 11.669 24.218 18.382 35.782 0.613 1.381 1.391 2.676 2.294 3.878 49.834 83.659 129.84 147.342 224.907 175.948l-141.619 141.565c-7.845 7.85-7.845 20.576 0 28.426 3.926 3.924 9.077 5.888 14.222 5.888 5.143 0 10.286-1.964 14.214-5.888l159.186-159.141c21.816 3.767 44.229 5.754 67.095 5.754 143.198 0 268.744-76.957 337.471-191.658 1.006-1.303 1.853-2.715 2.512-4.231 26.403-45.35 43.986-96.424 50.392-150.875zM725.409 480.831l38.032-117.009 113.915-25.569 102.77 105.5c-6.243 43.114-20.315 83.73-40.732 120.36l-142.46 26.746-71.525-110.029zM536.38 480.829l-71.492 109.976-142.901-27.413c-20.472-36.937-34.497-77.915-40.575-121.405l102.904-103.766 114.032 25.6 38.032 117.009zM356.408 309.278l-78.356 79.013c0.935-71.115 22.994-137.231 60.224-192.317l18.131 113.304zM573.069 463.646l-35.511-109.253 92.963-67.511 92.963 67.52-35.51 109.244h-114.904zM904.988 309.010l13.923-119.671c40.286 56.782 64.19 125.927 64.842 200.529l-78.765-80.858zM883.393 146.785l-17.794 152.916-113.278 25.42-100.958-73.322v-108.798l109.109-78.173c46.655 18.48 88.439 46.631 122.921 81.957zM630.043 108.828l-91.942-56.232c29.582-8.070 60.687-12.403 92.791-12.403 28.089 0 55.418 3.313 81.623 9.546l-82.472 59.089zM489.311 69.87l121.108 74.075v107.856l-100.95 73.322-113.899-25.562-23.402-146.227c32.707-35.264 72.514-63.846 117.142-83.464zM461.549 631.101l55.246 95.726c-65.267-22.35-121.963-63.32-163.718-116.544l108.471 20.819zM571.216 740.691l-73.275-126.969 71.431-109.882h123.040l71.429 109.882-73.259 126.963c-19.413 3.32-39.351 5.070-59.691 5.070-20.338 0.008-40.27-1.742-59.674-5.064zM800.206 631.139l108.057-20.293c-41.707 52.951-98.233 93.709-163.27 115.981l55.213-95.688zM280.329 714.881l-274.365 274.373c-7.951 7.953-7.951 20.84 0 28.791 3.975 3.969 9.183 5.956 14.391 5.956s10.416-1.989 14.391-5.964l274.373-274.364c7.944-7.953 7.944-20.84 0-28.791-7.951-7.944-20.838-7.944-28.791 0zM320.855 964.125c3.662-3.66 8.739-5.767 13.915-5.767 5.184 0 10.261 2.107 13.923 5.767 3.67 3.66 5.769 8.735 5.769 13.933 0 5.175-2.107 10.242-5.769 13.903-3.662 3.683-8.739 5.782-13.923 5.782-5.176 0-10.253-2.099-13.915-5.782-3.67-3.668-5.777-8.729-5.777-13.903 0-5.198 2.116-10.273 5.777-13.933z"></path>
</svg>
