<!-- Generated by IcoMoon.io -->
<svg version="1.1" xmlns="http://www.w3.org/2000/svg" width="1024" height="1024" viewBox="0 0 1024 1024">
<title></title>
<g id="icomoon-ignore">
</g>
<path d="M1002.765 504.18l-465.69-468.793c-6.663-6.669-15.677-10.412-25.073-10.412s-18.41 3.743-25.075 10.412l-465.687 468.793c-6.83 6.854-12.228 15.013-15.875 24.001-3.647 8.986-5.47 18.619-5.36 28.327 0.452 40.043 33.546 72.007 73.304 72.007h48.003v370.508h781.382v-370.508h49.019c19.314 0 37.498-7.62 51.165-21.384 6.728-6.756 12.061-14.791 15.688-23.637 3.624-8.843 5.472-18.327 5.434-27.895 0-19.338-7.568-37.656-21.234-51.42zM575.252 917.119h-126.502v-232.066h126.502v232.066zM821.367 546.611v370.508h-173.828v-259.367c0-25.141-20.218-45.503-45.178-45.503h-180.718c-24.963 0-45.181 20.363-45.181 45.503v259.367h-173.827v-370.508h-108.431l417.91-420.56 417.796 420.56h-108.544z"></path>
</svg>
