<!-- Generated by IcoMoon.io -->
<svg version="1.1" xmlns="http://www.w3.org/2000/svg" width="1024" height="1024" viewBox="0 0 1024 1024">
<title></title>
<g id="icomoon-ignore">
</g>
<path d="M798.72 297.984c-45.623 0-82.718-37.091-82.718-82.717s37.094-82.716 82.718-82.716c45.623 0 82.773 37.091 82.773 82.716s-37.15 82.717-82.773 82.717zM512 792.008c-154.339 0-279.95-125.611-279.95-280.009s125.611-280.007 279.95-280.007c154.453 0 280.009 125.611 280.009 280.007 0 154.398-125.555 280.009-280.009 280.009zM746.837 0h-469.618c-152.86 0-277.219 124.302-277.219 277.163v469.675c0 152.802 124.359 277.163 277.219 277.163h469.618c152.862 0 277.163-124.361 277.163-277.163v-469.675c0-152.861-124.301-277.163-277.163-277.163z"></path>
<path d="M512 341.333c-94.094 0-170.667 76.573-170.667 170.667s76.573 170.667 170.667 170.667c94.093 0 170.667-76.574 170.667-170.667s-76.574-170.667-170.667-170.667z"></path>
</svg>
