<!-- Generated by IcoMoon.io -->
<svg version="1.1" xmlns="http://www.w3.org/2000/svg" width="1024" height="1024" viewBox="0 0 1024 1024">
<title></title>
<g id="icomoon-ignore">
</g>
<path d="M467.558 569.692v30.966h119.439v45.896h-119.439v49.766h-90.132v-49.766h-53.637v-45.896h53.637v-291.41h167.547c52.716 0 93.819 11.059 123.31 33.178 29.86 22.118 44.79 54.559 44.79 97.321 0 42.394-14.93 74.65-44.79 96.768-29.491 22.118-70.595 33.178-123.31 33.178h-77.414zM622.387 440.3c0-18.801-6.82-33.178-20.46-43.131-13.271-9.953-32.44-14.93-57.508-14.93h-76.861v117.228h76.861c25.068 0 44.237-4.977 57.508-14.93 13.64-10.322 20.46-25.068 20.46-44.237z"></path>
<path fill="none" stroke-linejoin="miter" stroke-linecap="butt" stroke-miterlimit="4" stroke-width="122.88" stroke="#000" d="M962.56 512c0 248.837-201.723 450.56-450.56 450.56s-450.56-201.723-450.56-450.56c0-248.837 201.723-450.56 450.56-450.56s450.56 201.723 450.56 450.56z"></path>
<path fill="none" stroke-linejoin="miter" stroke-linecap="butt" stroke-miterlimit="4" stroke-width="20.48" stroke="#000" d="M849.92 512c0 186.628-151.292 337.92-337.92 337.92s-337.92-151.292-337.92-337.92c0-186.628 151.292-337.92 337.92-337.92s337.92 151.292 337.92 337.92z"></path>
</svg>
