<!-- Generated by IcoMoon.io -->
<svg version="1.1" xmlns="http://www.w3.org/2000/svg" width="1024" height="1024" viewBox="0 0 1024 1024">
<title></title>
<g id="icomoon-ignore">
</g>
<path d="M467.558 569.692v30.966h119.439v45.896h-119.439v49.766h-90.132v-49.766h-53.637v-45.896h53.637v-291.41h167.547c52.716 0 93.819 11.059 123.31 33.178 29.86 22.118 44.79 54.559 44.79 97.321 0 42.394-14.93 74.65-44.79 96.768-29.491 22.118-70.595 33.178-123.31 33.178zM622.387 440.3c0-18.801-6.82-33.178-20.46-43.131-13.271-9.953-32.44-14.93-57.508-14.93h-76.861v117.228h76.861c25.068 0 44.237-4.977 57.508-14.93 13.64-10.322 20.46-25.068 20.46-44.237z"></path>
<path d="M512 0c-282.042 0-512 229.958-512 512s229.958 512 512 512c282.042 0 512-229.958 512-512s-229.958-512-512-512zM512 122.88c215.633 0 389.12 173.487 389.12 389.12s-173.487 389.12-389.12 389.12c-215.633 0-389.12-173.487-389.12-389.12s173.487-389.12 389.12-389.12z"></path>
<path d="M512 163.84c-192.162 0-348.16 155.998-348.16 348.16s155.998 348.16 348.16 348.16c192.162 0 348.16-155.998 348.16-348.16s-155.998-348.16-348.16-348.16zM512 184.32c181.094 0 327.68 146.586 327.68 327.68s-146.586 327.68-327.68 327.68c-181.094 0-327.68-146.586-327.68-327.68s146.586-327.68 327.68-327.68z"></path>
</svg>
