<!-- Generated by IcoMoon.io -->
<svg version="1.1" xmlns="http://www.w3.org/2000/svg" width="1024" height="1024" viewBox="0 0 1024 1024">
<title></title>
<g id="icomoon-ignore">
</g>
<path d="M421.028 331.656c0-50.513 40.916-91.427 90.972-91.427s90.972 40.914 90.972 91.427c0 50.287-40.916 90.972-90.972 90.972s-90.972-40.913-90.972-90.972zM1024 109.714v804.572c0 60.571-49.143 109.714-109.714 109.714h-804.572c-60.571 0-109.714-49.143-109.714-109.714v-804.572c0-60.571 49.143-109.714 109.714-109.714h804.572c60.571 0 109.714 49.143 109.714 109.714zM326.63 331.656c0 101.944 83.199 184.914 185.37 184.914s185.37-82.742 185.37-184.914c0-102.399-83.199-185.37-185.37-185.37s-185.37 82.743-185.37 185.37zM725.486 538.972c-10.515-20.802-39.544-38.4-77.944-8.23 0 0-51.885 41.144-135.542 41.144s-135.542-41.144-135.542-41.144c-38.4-30.17-67.429-12.572-77.944 8.23-18.056 36.8 2.516 54.17 48.915 84.571 39.544 25.372 94.173 34.743 129.372 38.4l-29.485 29.485c-41.601 41.144-81.145 81.145-109.030 109.030-40.229 40.229 24.456 104.685 64.913 65.372l109.030-109.486c41.601 41.598 81.601 81.598 109.030 109.486 40.229 39.313 105.141-24.459 65.372-65.372l-109.030-109.030-29.714-29.485c35.427-3.657 89.369-13.485 128.456-38.4 46.627-30.401 66.97-47.999 49.143-84.571z"></path>
</svg>
