<!-- Generated by IcoMoon.io -->
<svg version="1.1" xmlns="http://www.w3.org/2000/svg" width="384" height="448" viewBox="0 0 384 448">
<title></title>
<g id="icomoon-ignore">
</g>
<path fill="#000" d="M231.75 145c0 22-17.75 39.75-39.75 39.75s-39.75-17.75-39.75-39.75 17.75-39.75 39.75-39.75 39.75 17.75 39.75 39.75zM285.25 235.75c-4.5-9-17.25-16.75-34-3.5 0 0-22.75 18-59.25 18s-59.25-18-59.25-18c-16.75-13.25-29.5-5.5-34 3.5-8 16 1 23.75 21.25 37 17.25 11 41.25 15.25 56.5 16.75l-12.75 13c-18 18-35.5 35.5-47.75 47.5-7.25 7.25-7.25 19 0 26.25l2.25 2.25c7.25 7.25 19 7.25 26.25 0l47.75-47.75c18 18.25 35.5 35.75 47.75 47.75 7.25 7.25 19 7.25 26.25 0l2.25-2.25c7.25-7.25 7.25-19 0-26.25l-47.75-47.5-13-13c15.5-1.5 39-5.75 56.25-16.75 20.25-13.25 29.25-21 21.25-37zM273 145c0-44.75-36.25-81-81-81s-81 36.25-81 81 36.25 81 81 81 81-36.25 81-81zM384 104v240c0 39.75-32.25 72-72 72h-240c-39.75 0-72-32.25-72-72v-240c0-39.75 32.25-72 72-72h240c39.75 0 72 32.25 72 72z"></path>
</svg>
