<!-- Generated by IcoMoon.io -->
<svg version="1.1" xmlns="http://www.w3.org/2000/svg" width="1024" height="1024" viewBox="0 0 1024 1024">
<title></title>
<g id="icomoon-ignore">
</g>
<path d="M916.241 269.441c-21.201 10.267-30.083 35.787-19.816 56.987 28.027 57.892 42.242 120.322 42.242 185.573 0 235.255-191.412 426.667-426.667 426.667-235.253 0-426.667-191.412-426.667-426.667 0-235.253 191.413-426.667 426.667-426.667 97.492 0 189.068 31.84 264.878 92.053 18.375 14.667 45.28 11.6 59.95-6.854 14.666-18.427 11.598-45.28-6.853-59.946-89.737-71.307-202.669-110.587-317.975-110.587-282.293 0-512 229.707-512 512s229.707 512 512 512c282.294 0 512-229.706 512-512 0-78.241-17.093-153.2-50.775-222.747-10.24-21.253-35.84-30.107-56.984-19.814z"></path>
<path d="M512 170.668c-23.548 0-42.667 19.12-42.667 42.667v298.667c0 23.548 19.118 42.667 42.667 42.667h213.333c23.548 0 42.667-19.118 42.667-42.667s-19.118-42.667-42.667-42.667h-170.667v-256c0-23.547-19.118-42.667-42.667-42.667z"></path>
</svg>
