<!-- Generated by IcoMoon.io -->
<svg version="1.1" xmlns="http://www.w3.org/2000/svg" width="1024" height="1024" viewBox="0 0 1024 1024">
<title></title>
<g id="icomoon-ignore">
</g>
<path d="M599.022 362.913c0 34.439-0.559 68.831 0.421 103.269 0.235 9.015 4.021 18.651 8.602 26.57 8.413 14.357 20.895 15.359 33.656 4.768 18.93-15.74 33.936-34.917 47.539-55.427 35.666-53.901 65.628-110.806 88.953-171.384 8.413-21.894 15.612-28.953 41.602-28.715 54.176 0.62 108.399-1.145 162.574-1.384 8.507-0.048 17.295 1.526 25.429 4.15 13.135 4.293 18.651 12.45 15.191 26.187-4.207 16.647-9.723 33.342-17.481 48.558-25.522 49.798-60.159 93.348-93.115 138.043-15.471 20.94-30.945 41.927-45.059 63.773-15.988 24.708-14.164 42.882 5.889 63.965 21.781 22.942 44.686 44.742 66.796 67.257 27.018 27.474 52.867 56.046 72.314 89.866 4.019 6.964 7.104 14.786 9.114 22.56 6.545 25.617-7.525 38.684-30.244 41.453-15.939 1.906-32.112 1.764-48.239 2.146-36.507 0.81-73.059 2.002-109.614 1.956-25.055 0-48.006-9.588-66.049-26.567-24.26-22.849-45.95-48.512-69.228-72.505-11.499-11.83-23.231-23.706-36.321-33.58-15.377-11.638-27.064-9.445-40.058 4.865-17.109 18.841-20.24 42.739-22.484 66.78-0.794 8.823-0.562 17.744-1.45 26.521-1.821 17.458-11.031 27.284-27.906 30.671-2.151 0.43-4.301 1-6.451 0.953-36.461-0.716-73.106 0.286-109.425-2.815-34.124-2.956-66.377-15.406-96.387-32.482-47.024-26.807-91.43-57.526-125.928-100.408-41.462-51.659-79.745-105.608-113.308-162.99-42.911-73.457-80.587-149.49-114.102-227.765-1.449-3.434-2.618-7.107-3.413-10.78-3.085-14.119 2.337-23.706 16.173-26.998 7.199-1.717 14.724-2.337 22.11-2.433 43.706-0.43 87.365-0.572 131.023-0.906 24.728-0.143 37.536 9.397 48.38 32.197 25.849 54.187 52.073 108.278 79.184 161.845 11.826 23.325 26.879 44.837 47.445 61.39 4.768 3.815 10.284 7.203 15.988 9.302 12.059 4.292 20.613 0.19 26.923-11.067 10.096-17.935 10.517-38.065 12.808-57.764 5.142-44.217 4.207-88.196-4.442-132.033-5.142-26.235-21.128-40.354-45.856-45.887-3.692-0.811-7.058-3.053-10.564-4.627 2.012-3.816 3.413-8.157 6.124-11.257 10.423-12.068 23.699-19.414 39.217-21.703 57.635-8.586 115.364-9.874 173-0.525 29.965 4.865 37.583 15.646 40.761 45.41 2.618 24.66 0.327 49.846 0.235 74.793-0.047 7.632 0 15.216 0 22.752h-0.329z"></path>
</svg>
