<svg xmlns="http://www.w3.org/2000/svg" width="378" height="234">
  <g fill="none" fill-rule="evenodd">
    <path d="M0 0h378v234H0z"/>
    <g fill-rule="nonzero">
      <path fill="#1A1919" d="M260.062 121.213v8.453h6.665c1.597 0 2.783-.379 3.558-1.138.775-.76 1.163-1.795 1.163-3.106 0-1.356-.451-2.398-1.354-3.122-.902-.725-2.048-1.087-3.437-1.087h-6.595zm0-9.247v6.866h6.577c1.223 0 2.175-.336 2.855-1.008.681-.671 1.022-1.497 1.022-2.476 0-1.025-.311-1.845-.935-2.46-.623-.615-1.557-.922-2.804-.922h-6.715zm14.008 13.412c0 2.142-.644 3.79-1.932 4.941-1.288 1.152-3.117 1.728-5.486 1.728h-9.041v-22.462h9.199c1.89 0 3.418.476 4.583 1.428 1.163.954 1.746 2.325 1.746 4.117a5.051 5.051 0 0 1-.872 2.858c-.581.873-1.383 1.482-2.406 1.826v.103a5.472 5.472 0 0 1 1.673.691c.518.323.967.726 1.346 1.21.379.484.673 1.025.88 1.625a5.88 5.88 0 0 1 .31 1.935zm13.146-.543a11.722 11.722 0 0 0-2.062-.931c-.687-.23-1.513-.345-2.474-.345-1.1 0-2.028.294-2.784.88-.755.586-1.134 1.432-1.134 2.536s.321 1.944.962 2.519c.642.575 1.57.863 2.784.863a6.003 6.003 0 0 0 2.56-.725 9.082 9.082 0 0 0 2.148-1.588v-3.209zm-3.623-9.936c1.955 0 3.456.453 4.503 1.363 1.047.908 1.57 2.271 1.57 4.088v11.697h-2.45v-1.656h-.069c-.897.805-1.789 1.334-2.674 1.587a9.236 9.236 0 0 1-2.536.38 7.096 7.096 0 0 1-2.001-.293 5.328 5.328 0 0 1-1.812-.928 4.73 4.73 0 0 1-1.311-1.634c-.334-.665-.5-1.479-.5-2.441 0-.826.155-1.571.465-2.236a4.883 4.883 0 0 1 1.312-1.703 5.986 5.986 0 0 1 2.001-1.083c.77-.252 1.616-.378 2.536-.378.736 0 1.478.073 2.226.219.747.147 1.535.446 2.363.898v-2.087c0-1.3-.326-2.244-.98-2.836-.652-.591-1.631-.888-2.937-.888-.825 0-1.592.104-2.302.311-.711.207-1.421.483-2.131.828l-.828-1.919a14.547 14.547 0 0 1 2.553-.933c.897-.238 1.898-.356 3.002-.356zm23.049 17.148h-2.45v-10.109c0-1.588-.311-2.801-.931-3.641-.622-.84-1.634-1.26-3.037-1.26-1.035 0-1.921.34-2.657 1.018a5.027 5.027 0 0 0-1.484 2.467 6.113 6.113 0 0 0-.172 1.484v10.041h-2.45v-16.838h2.45v2.38l.069.035c.619-.966 1.386-1.661 2.304-2.087.917-.426 1.8-.638 2.649-.638 1.948 0 3.387.569 4.316 1.707.928 1.139 1.393 2.79 1.393 4.951v10.49m8.419-9.04l7.625-7.764h-2.795l-7.245 7.453V108.17l-2.45 1.104v22.773h2.45v-8.592l7.315 8.592h2.933l-7.833-9.04m-170.296-11.068h6.563v20.099h4.682v-20.099h6.34v-3.921h-17.585v3.921m63.931 3.327h-5.138l-6.037 7.156v-13.889l-4.469 1.62v21.885h4.469v-8.2l5.896 8.2h5.314l-6.632-9.023 6.597-7.749m12.241 10.4a5.642 5.642 0 0 1-.712 1.636 3.373 3.373 0 0 1-1.159 1.102c-.465.265-.992.397-1.587.397-1.213 0-2.139-.456-2.781-1.36-.643-.906-.965-2.187-.965-3.843 0-1.467.312-2.686.927-3.648.623-.966 1.522-1.447 2.712-1.447 1.26 0 2.21.477 2.85 1.429.644.954.962 2.199.962 3.738 0 .711-.082 1.375-.247 1.996m2.471-8.438a7.18 7.18 0 0 0-2.603-1.739c-1.013-.402-2.122-.605-3.326-.605-1.205 0-2.314.203-3.328.605a7.46 7.46 0 0 0-2.62 1.721c-.728.747-1.297 1.667-1.7 2.755-.398 1.089-.601 2.326-.601 3.705 0 1.331.195 2.536.586 3.615.388 1.081.936 1.999 1.646 2.757a7.254 7.254 0 0 0 2.566 1.756c1.002.412 2.13.619 3.38.619 1.202 0 2.311-.202 3.328-.602a7.377 7.377 0 0 0 2.619-1.739c.732-.761 1.305-1.684 1.717-2.774.413-1.089.622-2.326.622-3.704 0-1.328-.203-2.537-.606-3.614-.399-1.079-.96-1.998-1.68-2.756m-56.55-9.211c-.765 0-1.404.257-1.921.759-.508.51-.77 1.12-.77 1.838 0 .694.262 1.29.77 1.803.517.504 1.156.757 1.921.757.717 0 1.338-.253 1.864-.757.527-.513.79-1.109.79-1.803 0-.718-.263-1.328-.79-1.838-.526-.502-1.147-.759-1.864-.759m-2.272 24.021h4.505v-16.814h-4.505zm18.439-16.97c-3.275-.242-5.127 1.548-5.127 1.548v-1.384h-4.505v16.806h4.505v-10.016c0-1.701 1.422-3.082 3.176-3.082 1.753 0 3.175 1.381 3.175 3.082v10.016h4.503v-9.946c0-5.271-3.06-6.827-5.727-7.024m46.953-.184v.311h-2.701v3.446h2.701v13.397h4.504s0-8.064.002-13.397h2.69v-3.446h-2.688v-.351c0-2.32 1.086-3.461 3.213-3.126l.701-3.478c-6.851-.817-8.422 2.829-8.422 6.644m11.622 0v.311h-2.699v3.446h2.699v13.397h4.507l.001-13.397h2.691v-3.446h-2.689v-.351c0-2.32 1.086-3.461 3.211-3.126l.703-3.478c-6.852-.817-8.424 2.829-8.424 6.644"/>
      <path fill="#D0D5D6" d="M75.579 137.357l-.9 1.527c-.321-1.006-.903-2.05-1.278-2.788-.72 1.486-1.861 1.516-2.958 1.524.242-3.561-4.229-7.142-2.264-11.204.392-.813.138-1.807-.709-2.233-3-1.524-1.611 4.798-4.609 4.988.574-.717.791-2.218.877-2.348-.638.166-2.166 1.136-2.852-.107 1.752-.954 2.256-2.389 2.531-3.83.349-1.823.509-2.667.864-3.417.369-.801.961-1.495 2.227-3.137-.3.046-3.675.756-4.431.402 5.833-3.582 4.518-8.138 13.416-12.199-2.332-1.732-4.719-3.113-3.008-6.424 2.437 2.928 7.069 1.915 9.57.554-2.472-.495-5.656-2.671-6.414-5.095.933-.144 2.139.866 2.834 1.337.334-.894.467-1.935 1.551-2.161-1.445 3.097 1.412 4.707 4.137 4.72.421 0 2.184-.175 2.184-.175-.28-.58-1.42-2.162-.591-2.803.666.626 1.46 1.125 2.185 1.68 5.298 4.1-2.519 7.902-5.717 9.627-5.019 2.712-3.676 5.937-1.579 6.762-.009.367-.234.528-.582.641-1.466.49-2.843-.556-4.012-1.227.071 2.024-.067 3.969 2.169 5.083l-1.542.564c1.326 1.006 1.729 1.54 3.326 1.748-.746.361-1.671.355-2.463.429.2.561.365 1.319.784 1.822-3.268.387-4.575-1.478-5.585-1.401-2.155.16-2.021 4.217 3.283 4.223l-.55.907s1.006.587 1.925.7c-.352.285-.693.67-.989.964l.847.729c-2.164.389-2.778-1.914-4.181-.803-2.142 1.697 2.58 5.28 7.108 4.745-.381.487-1.443 1.203-1.904 1.576 3.691 3.486 1.87 6.767 3.388 9.171-3.18-.211-5.537-2.546-6.088-5.071m4.148-3.92c1.024-.814 1.87-1.22 1.83-3.183-1.537.784-5.899.743-7.72-1.766-.516-.712.034-1.071.533-.51 1.246 1.414 3.556.773 4.399.364-.133-.484-.508-1.118-.823-1.389.315-.312 1.207-.772 1.391-1.568-.479-.259-2.329-.444-2.329-.444.298-.284.668-.685.447-1.744-1.89.581-4.225-.207-4.756-.908-.522-.687.012-1.332.448-.879.942.991 5.585 2.124 7.313.403-.642-.176-1.349-.75-1.478-1.104 1.598-.16 2.874-1.104 2.978-2.28-.884 0-2.553-.064-3.121-.492.767-.283 1.249-.561 1.491-1.418-2.923-.177-3.154-2.348-3.169-2.708 1.902 1.098 5.253.612 4.387-2.093-1.58-.084-3.178-2.647 1.177-5.004 3.957-2.14 8.46-4.45 8.064-8.254-.26-2.431-4.268-4.093-4.776-5.325-1.672.796-2.011 1.72-1.256 3.268 0 0-3.724.371-4.018-1.922-.129-1.029.558-1.992 1.295-2.726-.417 0-3.225-.751-4.071 1.536-1.576-1.074-2.92-1.035-3.981.098 1.692 1.006 2.741 4.449 5.537 5.466-1.99 1.08-5.207.626-7.085-2.687-1.776 2.677-2.798 5.327 1.01 8.156-6.933 3.157-6.883 9.186-12.913 12.06.613 1.643 1.903 1.643 3.545 1.386-2.608 3.389-.386 6.933-4.512 8.383.385 1.381 1.16 2.482 2.684 2.079-.434.676-.719.661-1.393 1.404 2.256 1.421 4.932.391 5.538-4.166.109-.813 1.23-.305.841.493-2.572 5.319 3.932 9.319 1.631 13.221 2.031-.085 3.574-.242 4.423-.929.413.819.66 1.63.572 2.429 1.12-.227 1.529-.893 1.606-1.649.735 2.139 3.36 4.428 7.563 4.428-2.229-3.173-.154-6.396-3.302-10.026"/>
      <path fill="#D0D5D6" d="M69.759 124.638c.765.799 1.695.881 3.457.769-1.936-.233-3.022-.704-3.696-1.989a18.707 18.707 0 0 1-.194-2.13c-.06-2.036.61-4.462 2.018-7.117-.01 1.666 1.312 4.285 4.257 4.721-2.65-1.158-4.205-3.766-3.358-6.288a38.345 38.345 0 0 1 1.87-2.717c.35-.447.689-.877 1.022-1.278-.357 1.288 1.201 2.618 2.243 2.84-.566-.551-1.777-2.342 1.021-5.335-.782.368-1.645.891-2.299 1.404 5.086-5.496 9.264-5.649 11.185-8.413-2.782 1.901-10.145 2.927-13.453 2.029 1.826 1.221 6.227 1.109 7.302.882-3.589 3.489-11.424 7.091-12.78 10.298 1.91-2.094 3.143-2.478 4.795-3.018-1.301 1.942-2.473 3.651-3.281 5.632-2.084 4.527-4.872 4.584-5.055 8.319.951-2.894 2.88-3.627 4.218-5.528-.237 1.214-.346 2.558-.304 4.113.047 1.689.385 3.173.922 4.5-.136 1.847.029 4.999 2.145 7.08-1.438-1.821-1.747-4.779-1.619-5.933 1.656 3.197 6.381 7.611 8.664 10.579-2.283-3.816-7.881-8.275-9.08-13.42m52.281-15.342c1.646.542 2.886.924 4.793 3.018-1.354-3.207-9.195-6.81-12.784-10.299 1.08.227 5.479.34 7.305-.881-3.305.898-10.671-.128-13.454-2.029 1.923 2.764 6.099 2.918 11.186 8.413a12.64 12.64 0 0 0-2.3-1.404c2.796 2.993 1.588 4.781 1.021 5.335 1.043-.222 2.599-1.55 2.244-2.84.334.401.676.831 1.022 1.278.7.924 1.318 1.834 1.869 2.717.848 2.522-.712 5.13-3.354 6.288 2.945-.435 4.267-3.055 4.252-4.721 1.408 2.655 2.083 5.081 2.019 7.117a18.723 18.723 0 0 1-.192 2.13c-.677 1.285-1.763 1.757-3.692 1.989 1.758.112 2.682.03 3.456-.769-1.203 5.145-6.8 9.602-9.084 13.42 2.284-2.968 7.003-7.382 8.664-10.579.129 1.154-.181 4.112-1.615 5.933 2.112-2.081 2.277-5.233 2.142-7.081.535-1.328.869-2.81.92-4.499.05-1.555-.067-2.899-.303-4.113 1.338 1.901 3.267 2.634 4.219 5.528-.18-3.735-2.969-3.792-5.057-8.319-.805-1.981-1.974-3.69-3.277-5.632"/>
      <path fill="#D0D5D6" d="M131.457 126.823c.08.13.292 1.631.867 2.349-3-.191-1.607-6.513-4.608-4.989-.847.426-1.1 1.42-.706 2.233 1.963 4.062-2.51 7.643-2.259 11.204-1.105-.008-2.253-.038-2.969-1.524-.37.738-.957 1.782-1.275 2.788l-.898-1.527c-.556 2.525-2.912 4.861-6.089 5.071 1.509-2.404-.303-5.685 3.387-9.171-.462-.37-1.521-1.089-1.904-1.576 4.531.535 9.253-3.048 7.107-4.745-1.401-1.111-2.019 1.192-4.178.803l.846-.729c-.295-.296-.641-.678-.99-.964.922-.113 1.925-.7 1.925-.7l-.55-.907c5.306-.006 5.432-4.063 3.286-4.223-1.009-.077-2.322 1.79-5.587 1.402.413-.504.582-1.264.785-1.823-.786-.074-1.72-.068-2.463-.429 1.597-.209 1.998-.742 3.324-1.748l-1.537-.564c2.232-1.114 2.096-3.06 2.162-5.083-1.164.673-2.547 1.717-4.007 1.227-.348-.113-.575-.274-.584-.641 2.097-.825 3.433-4.05-1.579-6.762-3.196-1.725-11.017-5.527-5.717-9.628.724-.554 1.514-1.053 2.181-1.679.831.641-.305 2.223-.59 2.803 0 0 1.762.177 2.18.177 2.732-.015 5.594-1.627 4.146-4.722 1.084.226 1.212 1.267 1.543 2.161.697-.471 1.905-1.481 2.84-1.337-.759 2.424-3.939 4.6-6.413 5.095 2.498 1.361 7.131 2.374 9.567-.554 1.711 3.311-.672 4.692-3.008 6.426 8.897 4.059 7.585 8.613 13.42 12.197-.754.354-4.136-.358-4.438-.402 1.273 1.642 1.866 2.336 2.235 3.137.353.75.509 1.592.858 3.417.279 1.441.783 2.876 2.532 3.828-.685 1.245-2.212.275-2.842.109m-.347-9.053c1.641.255 2.932.255 3.545-1.388-6.031-2.872-5.981-8.901-12.915-12.058 3.811-2.829 2.784-5.479 1.015-8.157-1.876 3.314-5.104 3.768-7.084 2.688 2.792-1.017 3.844-4.46 5.534-5.466-1.057-1.133-2.41-1.172-3.98-.098-.854-2.289-3.654-1.536-4.075-1.536.733.733 1.428 1.697 1.297 2.726-.29 2.293-4.016 1.924-4.016 1.924.75-1.55.417-2.474-1.255-3.27-.513 1.233-4.516 2.894-4.773 5.324-.401 3.805 4.103 6.115 8.06 8.255 4.355 2.357 2.756 4.92 1.179 5.004-.875 2.705 2.479 3.191 4.383 2.093-.009.36-.249 2.531-3.172 2.708.246.857.727 1.135 1.495 1.42-.573.426-2.238.49-3.123.49.107 1.176 1.383 2.118 2.981 2.277-.128.355-.837.931-1.478 1.107 1.727 1.721 6.367.588 7.312-.403.432-.453.963.192.449.878-.535.702-2.868 1.49-4.758.909-.217 1.059.149 1.46.444 1.744 0 0-1.849.185-2.327.444.18.796 1.078 1.256 1.392 1.568-.314.271-.688.905-.822 1.389.847.409 3.158 1.049 4.395-.364.505-.561 1.053-.203.541.51-1.826 2.509-6.185 2.549-7.725 1.766-.043 1.963.805 2.369 1.83 3.184-3.149 3.629-1.07 6.852-3.299 10.025 4.197 0 6.825-2.289 7.562-4.428.081.756.484 1.422 1.604 1.649-.086-.799.163-1.61.569-2.429.852.687 2.401.844 4.424.929-2.297-3.902 4.208-7.902 1.63-13.221-.383-.799.737-1.306.845-.493.603 4.557 3.282 5.587 5.54 4.166-.681-.743-.96-.728-1.393-1.404 1.519.403 2.295-.698 2.685-2.079-4.128-1.45-1.907-4.995-4.516-8.383m-41.988 16.595l1.24-.941c.22-.168.361-.274.615-.241l1.747.229c.095.42.374.83.374.83l-1.858-.392c-.263-.031-.34-.018-.588.159l-.879.665c-.174.138-.179.352-.081.565l.143.307-.616.465-.234-.443c-.239-.473-.255-.903.137-1.203m2.839-3.284l-.324.171c-.222.129-.336.187-.529-.056l-.141-.176c-.068-.083-.092-.292.052-.448l1.383-1.615-1.276-1.046 1.625.599.594-.741c.174.15.113.578.113.578.658 0 2.569.949 2.642 3.328 0 0 .431.639.982.673l2.815.17c.465 0 1.632-.889 3.132-.048.379-.23.785-.412 1.202-.458 1.32-.098 2.293.823 3.018 1.749a49.711 49.711 0 0 1 1.254 1.699c-.311.37-.62.495-.877.401-.392-.198-.516-.514-.64-.949-.197-.691-.958-1.282-.958-1.282.257.465.312.991.435 1.473-1.099-1.087-1.308-2.419-2.076-2.6-.342-.085-.735.059-1.105.487.389.898.37 1.943.766 2.639.302.523.364.569.501.684.325.233.139.65.09.956l-.417 2.614h-.701l.462-2.559c.141-.778-2.047-.778-3.167-2.264-.955 1.114-3.632.835-4.789.661-.467-.068-.922-.04-1.18.421-.149.26-.403.182-.556.144l-2.111-.456c-.371-.086-.531-.012-.696.328l-.424.875c-.093.205-.089.353.079.517l.202.215c-.12.422-.502.74-.502.74l-.462-.518c-.223-.262-.234-.644-.056-1.015l.683-1.424c.08-.156.224-.329.514-.329l2.613-.043-.801-1.302c-.597-.979.392-2.72.245-3.543-.074 1.104-1.406.599-1.614.75m10.872 6.023l-1.127 2.779h-.701l1.126-2.691c.117-.346-.104-.51-.385-.891a8.16 8.16 0 0 0 1.225.586c-.046.076-.098.121-.138.217m-13.748-.315l1.268-1.075-.193-.388c-.138-.273-.064-.294.084-.401l.666-.499c.156-.128.318-.113.511-.067l2.009.473h-2.12c-.493.032-.636.221-.809.582l-.148.3-.546 1.12c-.186.386-.281.899.205 1.482l.386.456-.781 1.584h.659l.539-1.101c.043-.039.843-.765 1.01-1.522-.228-.185-.393-.317-.266-.581l.246-.523c.078-.175.107-.247.34-.199l2.112.457c.263.07.649.186.93-.237.291-.443.329-.394.999-.326l1.077.113c1.472.14 2.941-.23 3.515-.683.199.458.597.808.784 1.163.068.131-.045.318-.137.55l-1.209 2.889h1.864l1.056-2.64c.098-.249.239-.451.351-.549l-.606 3.189h1.807l.482-3.16c.105-.698.043-.927-.293-1.213-.756-.636-.738-1.974-.982-2.787a.724.724 0 0 1 .455-.09c.395.04.69 1.045 1.155 1.691.924 1.302 2.193 2.739 3.641.715a4.783 4.783 0 0 0-.469-.642l-.404-.472c-.235-.263-1.358-1.545-1.823-2.008-1.063-1.067-2.693-.906-3.342-.388-1.472-.769-3.024.04-3.391.01l-2.534-.153a.5.5 0 0 1-.413-.243l.469-.155c-.441-1.834-1.549-3.371-3.484-3.633 0 0-.113-.58-.407-.692l-.578.682a1.888 1.888 0 0 0-.487.135l-2.47-.918 1.855 1.873s-.963 1.362-1.236 1.64c-.181.254-.163.454.039.699l.361.473c.187.242.389.235.686.082l.407-.211c.174-.149.772.144 1.025-.089a7.43 7.43 0 0 0-.282 1.454l-1.664-.201c-.365-.047-.529 0-.753.174l-1.419 1.093c-.464.357-.609.972-.32 1.569l.573 1.198m5.418-35.952c.678.468 1.876.968 1.876.968v-.798l-2.637-1.01s0 .323.761.84m1.876-.963v-.79l-2.994-1.071s.357.38 1.118.902c.678.466 1.876.959 1.876.959m0-1.802v-.8l-3.278-1.206s.641.52 1.402 1.038c.678.468 1.876.968 1.876.968"/>
      <path fill="#D0D5D6" d="M105.587 108.933h3.354c-.141-.485-.663-.976-1.64-.976-.927 0-1.481.534-1.714.976m-3.507-12.867l-3.272 1.206v.8s1.2-.499 1.873-.968c.763-.518 1.399-1.038 1.399-1.038m-.636 3.931l-2.636 1.01v.798s1.197-.5 1.874-.968c.762-.517.762-.84.762-.84m.355-1.984l-2.991 1.071v.79s1.2-.493 1.874-.959c.762-.522 1.117-.902 1.117-.902m-13.923 9.944c-.976 0-1.499.491-1.635.976h3.353c-.237-.442-.787-.976-1.718-.976"/>
      <path fill="#D0D5D6" d="M97.593 95.671l-5.384-2.127c.456-1.083 2.568-2.006 5.384-2.006 2.816 0 4.925.923 5.381 2.006l-5.381 2.127zm4.009 6.647l-3.632 1.908v-7.71l4.932-1.676-1.3 7.478zm4.244 3.215c-1.363.237-2.53 1.903-3.49 3.4l-.108.174h-1.022l-.001.177c-.109 1.157-1.206 2.73-3.634 2.73-1.121 0-1.965-.343-2.545-.811a2.983 2.983 0 0 1-.973-1.396 2.42 2.42 0 0 1-.11-.523l-.008-.177h-1.016l-.109-.174c-.964-1.497-2.133-3.163-3.488-3.4l3.703-2.148 4.548 2.472 4.544-2.472 3.709 2.148zm4.993 5.67c-.387 1.013-.702 2.108-.702 3.204v11.78h-1.37c-.621-.602-1.147-2.613-1.147-2.613-.34.727.049 2.188.415 2.613h-1.765c-.436-.59-.815-2.682-.815-2.682-.527.601-.193 2.23.134 2.682h-1.171c-.076-.836.163-1.748.163-1.748-.61-.113-1.264-.437-1.261-1.12.309.292.434.288.865.28l.499-.393c-1.655.052-1.729-1.76-.422-2.61-1.307.042-2.287-.735-1.808-2.128-.934-.482-1.262-2.058-.573-2.75-.499-.542-.582-1.601-.263-2.327-.659 0-1.402-.265-1.816-.715-.032.015-.069.026-.104.037.825-.337 1.522-.859 1.996-1.51h9.145zm-.699 23.4c0 2.458-1.135 4.322-3.022 5.359l.678-1.377h-.655l-.868 1.762c-.898.341-1.92.527-3.049.527-3.446 0-4.357.141-5.628 1.411-1.28-1.27-2.189-1.411-5.628-1.411-1.123 0-2.139-.184-3.038-.518h.026l.867-1.771h-.655l-.762 1.548a7.017 7.017 0 0 1-.529-.279l.629-1.269h-.649l-.467.946c-1.476-1.088-2.344-2.783-2.344-4.928v-7.724h25.094v7.724zm-17.082-14.106l1.059.13c.079.581-.073 1.564-.451 2.111l-1.024-.297c.272-.651.342-1.252.416-1.944zm-1.522-.776s.97-.047 1.244.057c.204.084.066.423-.194.387-.276-.034-1.05-.444-1.05-.444zm-.066-3.856l-.87 3.183.297-5.131 1.352-1.156.687 1.509-1.737 4.982.457-3.354c.045-.235-.147-.26-.186-.033zm-.669 5.303c-.458.186-.924-.064-.78-.361.211.195.803.1.803.1l-.023.261zm-.858.425c.21.205.849.128.849.128l.025.126c-.279.371-1.052.205-.874-.254zm-1.002-2.047c-.244-.163-.134-.518.137-.518.295.007.69.343 1.082.511 0 0-1.023.136-1.219.007zm.97 2.818s.294.126.664.154c-.043.202-.198.4-.45.343-.208-.046-.302-.306-.214-.497zm.688-1.921c-.492.159-.709-.195-.685-.496.961-.354 1.389-.126 1.672.055.26.163.473.625.823.917-.059.393-.181.965-.322 1.348-.983-.254-1.035-1.12-.666-1.65-.208-.241-.426-.302-.822-.174zm4.267.282l1.054.125c.103.582-.093 1.809-.491 2.397l-1.074-.31c.429-.564.587-1.566.511-2.212zm1.812.222l.87.11c.137.72.048 1.969-.412 2.682l-1.014-.296c.445-.601.651-1.841.556-2.496zm1.558.193h.019c.226.034.464-.003.681-.094.469.675.836 2.201.273 3.157a3.363 3.363 0 0 1-.925-.134l-.234-.07c.476-.741.404-2.042.186-2.859zm1.328-.513l.615-.603c.631.547 1.454 1.774 1.196 2.937l-.672.613a2.316 2.316 0 0 1-.426.325c.417-1.041-.117-2.637-.713-3.272zm3.618.346a2.029 2.029 0 0 0-.316.618l-.749.69c.15-1.097-.585-2.393-1.258-2.921l.799-.781.156.159c-.266.7.254 2.069 1.368 2.235zm-1.99-5.301c-.394.752-.354 1.619.108 2.405l-.307.302c-1.343-.165-1.873-2.169-1.873-2.169a3.416 3.416 0 0 0-.04.533c-.783-.289-1.281-.985-1.24-1.94.297.167.631.283.986.346l.09-.588c-.938-.163-1.486-.75-1.697-1.442a2.716 2.716 0 0 1-.125-.021c.165.015.331.028.502.028.555 0 1.084-.086 1.58-.231.39.555 1.082.952 1.777 1.03-.11.457-.057 1.034.239 1.747zm-7.702-4.469c.648.887 1.7 1.543 2.944 1.802.107.468.358.978.854 1.393-.205 1.377.387 2.663 1.869 3.006.154.7.591 1.231 1.32 1.484l-1.03 1.19c-.392.457-.906.604-1.333.549l-4.603-.523c.198-.512-.331-1.105-1.787-.851l1.81-5.056-1.106-2.349-2.091 1.785-.154 5.307-.887-.438c-1.172-.502-1.512 1.608-.401 1.617l.44.005c-.027.22.038.456.209.53-.209.089-.27.483-.007.621-.269.126-.301.526-.088.701-.233.388-.267 1.236.539 1.448.657.175 1.072-.538 1.211-.95l7.159 2.217c1.016.291 1.736.13 2.578-.61l1.869-1.634c-.233 1.068.15 2.032.963 2.35 0 0-.118.956-.079 1.39H85.046v-11.78c0-1.096-.316-2.191-.695-3.204h9.139zM92.281 94.84l4.927 1.676v7.71l-3.628-1.908-1.299-7.478zm11.971-.917c0-1.887-3.168-3.576-6.661-3.576-3.496 0-6.664 1.689-6.664 3.576l.074.458 1.39 8.009-6.603 3.85c-.705.413-1.585 1.551-1.697 2.693h1.205c.199-1.141 1.103-2.409 2.791-2.333 1.525.083 2.425 1.011 3.323 2.333l.231.351.333.523H82.26c.711 1.431 1.393 2.951 1.393 4.6v20.196c0 5.196 3.993 7.669 8.315 7.669 3.336 0 3.786-.15 5.628 1.69 1.836-1.84 2.283-1.69 5.628-1.69 4.321 0 8.313-2.473 8.313-7.669v-20.196c0-1.649.675-3.169 1.388-4.6h-9.719l.337-.523.232-.351c.891-1.322 1.796-2.25 3.321-2.333 1.68-.076 2.589 1.192 2.787 2.333h1.204c-.108-1.142-.993-2.28-1.693-2.693l-6.604-3.85 1.393-8.009.069-.458z"/>
      <path fill="#D0D5D6" d="M109.569 118.817l.008-.591c-1.809-.042-2.228-2.182-2.228-2.182-.528 1.574.855 2.746 2.22 2.773m-2.289 3.618l-.184-.56c-1.543.395-2.339-2.053-2.339-2.053-.498 1.78 1.228 3.039 2.523 2.613m1.073-2.27c-1.845.293-2.604-1.855-2.604-1.855-.204 1.169.554 2.354 1.773 2.481-.274 1.525 1.144 2.308 2.371 1.764l-.177-.53c-1.066.353-2.066-.7-1.363-1.86m-1.105-6.13l.015-.589c-2.436-.505-2.23-2.181-2.23-2.181-.527 1.579.854 2.745 2.215 2.77m-15.439 24.55l-.875 1.771h.658l.872-1.771h-.655m1.315 0l-.871 1.771h.661l.865-1.771h-.655m5.276 0l-.868 1.771h.652l.872-1.771H98.4m1.324 0l-.877 1.771h.659l.868-1.771h-.65m-2.641 0l-.874 1.771h.658l.871-1.771h-.655m7.705 1.771h.655l.872-1.771h-.657l-.87 1.771m-10.344-1.771l-.869 1.771h.657l.87-1.771h-.658m1.316 0l-.87 1.771h.661l.869-1.771h-.66m-2.984-9.511c-.12 0-.224.119-.224.271 0 .145.104.264.224.264.126 0 .23-.119.23-.264 0-.152-.104-.271-.23-.271m-.266-40.885l1.035-2.201 1.927 1.022 2.122-2.096 2.126 2.096 1.922-1.022 1.029 2.201 1.276-.198a10.043 10.043 0 0 0-.802 1.905c-1.396-.816-3.473-1.444-5.551-1.444-2.082 0-4.153.628-5.552 1.444a9.92 9.92 0 0 0-.806-1.905l1.274.198zm5.086.964c2.703 0 4.869.896 6.065 1.86 0 0 .358-2.148 1.568-4.033l-2.177.245-1.14-2.424-2.192 1.139-2.124-2.109-2.124 2.109-2.197-1.139-1.141 2.424-2.176-.245c1.214 1.885 1.567 4.033 1.567 4.033 1.195-.964 3.363-1.86 6.071-1.86z"/>
      <path fill="#D0D5D6" d="M99.818 84.814a.579.579 0 0 0 .624-.527c.031-.313-.431-1.159-.431-1.159s-.692.745-.714 1.064a.578.578 0 0 0 .521.622m3.569 1.296a.576.576 0 0 0 .779-.244c.151-.275.053-1.231.053-1.231s-.922.413-1.072.695a.586.586 0 0 0 .24.78m-8.022-1.296a.576.576 0 0 0 .526-.622c-.028-.319-.713-1.064-.713-1.064s-.461.846-.431 1.159a.576.576 0 0 0 .618.527m-3.566 1.296a.575.575 0 0 0 .237-.78c-.148-.282-1.069-.695-1.069-.695s-.095.956.058 1.231a.57.57 0 0 0 .774.244m39.493 20.05c.235.523.701 2.341-.414 3.727-1.269-2.539-3.017-4.712-4.428-5.65-.31-.199.169-.556 1.038-.67 2.635-.498 5.72.618 7.187 1.007-.683.514-1.24.741-1.936.829 1.067.894 1.842 1.651 2.396 2.494-1.038.258-1.617-.397-3.843-1.737m3.319-.431c.761-.27 1.349-.998 1.641-1.666-1.934-.281-7.075-2.438-11.299-.68 1.582-1.504 3.002-1.697 3.135-3.858.659.472 1.768.738 2.391-.388-.434-1.289-1.537-.245-1.689-.6-.217-.49 1.388.155 1.732-1.518-1.248-.429-1.621.59-1.843.354-.206-.226.793-.654.057-2.002-1.3.759-.622 1.616-.896 1.709-.334.134-.072-.913-1.506-.864-.141 1.54 1.35 1.591 1.102 1.836-.292.3-.681-.887-1.766-.286.02 1.245 1.025 1.927 2.068 1.634-.168 2.366-2.337 1.925-3.954 4.589 3.421 1.754 4.968 4.815 7.074 6.927.696-.49 1.886-2.687 1.886-2.687 2.278 1.766 3.882.008 3.882.008-.785-.803-.814-1.413-2.015-2.508m-37.652 41.964l-1.481-.056-.171.595.186.008c.061 0 .061-.115.114-.178.031-.023.299-.067.512-.045l.621.047c-.367.761-1.323 1.478-1.311 1.982.015.269.287.325.448.315.299-.009.395-.221.473-.544.179-.75.543-1.323.805-2.18l-.184.007-.012.049m1.011.884l.025-.456h1.288l-.067-.51c-.353.011-.87.127-1.347.13l-.087.996c.597-.026.986.234.986.86 0 .232-.153.669-.422.701a.274.274 0 0 1-.183-.044c-.13-.097.04-.202.04-.364 0-.205-.212-.279-.352-.254-.222.013-.303.156-.303.333 0 .368.544.469.78.469.528 0 1.139-.294 1.139-.893 0-.787-.88-.952-1.497-.968m3.088.407c-.457 0-.523-.715-.523-1.061 0-.099.091-.236.191-.236.418 0 .534.972.567 1.246a.664.664 0 0 1-.235.051m-.291-1.433c-.459 0-.839.344-.839.814 0 .742.796.986 1.387.704.073.576-.044.99-.263 1.004-.187 0-.16-.14-.187-.257-.049-.226-.224-.286-.408-.226-.192.055-.222.227-.189.353.086.293.447.3.619.278.761-.087 1.077-.649 1.077-1.274 0-.725-.414-1.396-1.197-1.396m-6.332-.152c-.068.083-.385.481-1.069.989l.056.103c.076-.042.196-.098.403-.222l-.403 1.406c-.021.077-.114.086-.16.077l-.241-.036-.044.167 1.308.234.039-.163-.225-.052c-.066-.019-.109-.065-.096-.141l.595-2.337-.163-.025"/>
      <path fill="#D0D5D6" d="M104.342 149.061l-1.16-3.776c2.47-.509 4.192-1.035 5.505-1.543v2.356l2.038.821a33.336 33.336 0 0 1-6.383 2.142m-6.746 2.206c-2.308 0-4.556-.345-6.482-.817l1.225-3.955c.813.187 2.842.436 5.257.436 2.415 0 4.437-.249 5.255-.436l1.227 3.955c-1.932.472-4.184.817-6.482.817m-13.139-4.348l2.043-.821v-2.356c1.312.508 3.035 1.034 5.505 1.543l-1.157 3.776a33.72 33.72 0 0 1-6.391-2.142m24.861-1.313v-2.886c-2.232 1.022-5.071 1.852-8.723 2.182l-.167 1.031c.312.043.703.082 1.23.114a34.287 34.287 0 0 1-4.062.278c-.961 0-2.706-.09-4.062-.278a16.33 16.33 0 0 0 1.225-.114l-.165-1.031c-3.654-.33-6.498-1.16-8.725-2.182v2.886l-3.027 1.244c2.241 1.167 4.823 2.118 7.803 2.887l-.351 1.209c1.71.499 4.438 1.009 7.302 1.009 2.861 0 5.591-.51 7.297-1.009l-.353-1.209c2.981-.769 5.565-1.72 7.807-2.887l-3.029-1.244m-49.267-37.709c.553-.843 1.323-1.6 2.399-2.491-.703-.091-1.254-.318-1.941-.832 1.469-.389 4.561-1.505 7.192-1.007.864.114 1.353.471 1.036.67-1.415.938-3.162 3.111-4.433 5.648-1.11-1.384-.644-3.202-.409-3.725-2.223 1.34-2.804 1.995-3.844 1.737m2.391.332s1.19 2.197 1.884 2.687c2.108-2.112 3.657-5.173 7.076-6.927-1.618-2.664-3.791-2.218-3.948-4.587 1.035.291 2.044-.394 2.065-1.636-1.089-.595-1.475.589-1.769.286-.244-.25 1.246-.296 1.103-1.835-1.436-.044-1.17.997-1.509.863-.269-.096.406-.952-.897-1.709-.732 1.354.269 1.775.061 2.002-.22.236-.597-.783-1.841-.354.336 1.673 1.946 1.028 1.728 1.518-.152.355-1.252-.687-1.684.602.618 1.124 1.73.858 2.384.388.136 2.168 1.555 2.347 3.141 3.856-4.224-1.758-9.366.398-11.306.681.295.667.883 1.395 1.642 1.66-1.195 1.105-1.223 1.712-2.011 2.511 0 0 1.601 1.76 3.881-.006m33.299-1.608v1.271c.441-.527 1.286-.425 1.286-.425v1.83s-.028.903-.347 1.294h1.832c-.319-.391-.349-1.294-.349-1.294v-1.83s.846-.102 1.284.425v-1.271h-3.706"/>
      <path fill="#FFFFFE" d="M137.722 107.167c-.222-.229-.356-.436-.54-.725a17.054 17.054 0 0 0-.317-.475c.319-.371.592-.799.796-1.268l.819-1.866-2.015-.29c-.341-.05-.889-.194-1.528-.362-1.237-.324-2.821-.74-4.553-.921.592-.26 1.092-.726 1.443-1.358l.331-.597s-.088-.837-.414-1.1c.126-.259.219-.545.285-.857l.273-1.336-1.288-.441a3.494 3.494 0 0 0-.598-.151 4.105 4.105 0 0 0-.328-.776l-.765-1.402-1.38.808a3.705 3.705 0 0 0-.868.689 3.631 3.631 0 0 0-.658-.057s-.785-.088-1.657.227l-1.113-1.153-1.316-1.406c-1.23-1.318-2.898-1.707-4.6-1.06-.649-.647-1.662-1.185-3.233-1.185-.532 0-.999.064-1.276.101 0 0-2.164.394-3.379 1.549l-1.477-.702c-.989 1.556-2.681 2.051-2.681 2.051a3.663 3.663 0 0 0-.594-1.268l.097-.55c0-.016.331-1.875 1.344-3.449l1.76-2.74-2.494.28a7.14 7.14 0 0 0-.04-.886l-.223-2.133-1.955.882a8.48 8.48 0 0 0-.566.284l-.386-.823-.895.465a7.14 7.14 0 0 0-.363-.759l-1.032-1.891-1.465 1.579c-.15.163-.276.312-.387.456l-.889-.884-.894.888a6.258 6.258 0 0 0-.384-.454l-1.468-1.594-1.035 1.901c-.158.29-.271.536-.361.758l-.893-.464-.388.822a10.573 10.573 0 0 0-.567-.286l-1.962-.882-.217 2.14a6.854 6.854 0 0 0-.039.881l-2.498-.28 1.766 2.742c1.016 1.572 1.34 3.428 1.341 3.442l.093.55a3.679 3.679 0 0 0-.596 1.273s-1.597-.683-2.666-2.053l-1.506.718c-1.719-1.16-2.784-1.612-4.636-1.664-1.572-.043-2.585.538-3.232 1.184-1.704-.645-3.368-.254-4.594 1.061 0 0-.807.876-1.318 1.406-.511.532-1.262.971-1.262.971s-1.07-.24-2.169.014a3.697 3.697 0 0 0-.876-.694l-1.383-.805-.761 1.41a3.949 3.949 0 0 0-.322.768 3.528 3.528 0 0 0-.599.151l-1.279.441.268 1.328c.064.32.157.606.285.866-.074.141-.14.293-.195.453l-.216.645.329.597c.348.631.847 1.099 1.44 1.359-1.732.181-3.317.597-4.557.922-.636.168-1.187.312-1.527.363l-2.025.292.461 1.042.368.829c.209.464.481.892.801 1.26-.119.17-.632.969-.856 1.198l-1.022 1.042.982 1.083c.122.133 1.222 1.286 3.003 1.288.486 0 .97-.085 1.449-.254.475.743 1.036 1.494 1.553 1.864-.946 1.113-2.024 2.077-3.557 2.807l-1.282.611.549 1.464c.36.883 1.057 1.854 2.408 2.225-.289.863-.429 1.685-.551 2.413-.289 1.734-.411 2.452-1.938 2.988l-1.371.48.392 1.398c.318 1.139.79 1.893 1.306 2.388l-.911 1.003s2.163 1.62 4.282 1.818c.03.004 1.839.119 2.65-.915.325 1.172.839 2.253 1.304 3.235.958 2.014 1.468 3.208.826 4.295l-1.447 2.456 2.848-.119c1.243-.052 2.399-.126 3.397-.374 0 .055-.003.105-.009.156l-.233 2.109 2.495-.526c.264-.079.508-.181.734-.303 1.546 1.806 4.169 3.217 7.707 3.217h.207l-4.067 1.67 2.96 1.541c1.95 1.015 4.117 1.866 6.588 2.586l-.345 1.184 1.487.435c.858.253 3.958 1.074 7.734 1.074s6.873-.823 7.733-1.074l1.483-.435-.344-1.182c2.474-.722 4.642-1.573 6.592-2.588l2.962-1.541-4.07-1.67h.205c3.535 0 6.159-1.411 7.704-3.217.224.119.471.224.732.303l2.494.526-.228-2.107a1.57 1.57 0 0 1-.008-.157c.997.247 2.154.321 3.396.373l2.844.119-1.442-2.454c-.643-1.089-.132-2.282.824-4.296.466-.98.979-2.063 1.305-3.236a4.382 4.382 0 0 0 1.726.799s.456.137.893.148c1.26.038 1.886-.319 2.752-.864l1.57-.988-.919-1.004c.515-.495.987-1.248 1.306-2.381l.396-1.402-1.375-.48c-1.528-.536-1.647-1.254-1.939-2.987-.124-.729-.259-1.551-.551-2.414 1.35-.372 2.046-1.344 2.406-2.225l.548-1.466-1.28-.609c-1.535-.73-2.612-1.694-3.559-2.807.519-.371 1.08-1.123 1.558-1.864.476.169.958.252 1.446.254 1.781 0 2.884-1.154 3.004-1.286l.982-1.082-1.02-1.044"/>
      <path fill="#FFE52B" d="M97.596 142.288c-1.279-1.271-2.189-1.411-5.634-1.411-4.114 0-6.911-2.412-6.911-6.27v-7.72h25.087v7.72c0 3.858-2.791 6.27-6.914 6.27-3.446 0-4.357.14-5.628 1.411m-12.545-16.094v-11.777c0-1.097-.317-2.192-.697-3.202h9.138c.839 1.151 2.36 1.923 4.104 1.923 1.738 0 3.259-.772 4.099-1.923h9.14c-.388 1.01-.7 2.105-.7 3.202v11.777H85.051"/>
      <path fill="#FFFFFE" d="M86.503 143.745v2.353l-2.04.821a33.57 33.57 0 0 0 6.386 2.141l1.159-3.772c-2.471-.511-4.193-1.038-5.505-1.543m11.093 3.186c-2.414 0-4.444-.249-5.255-.438l-1.224 3.957c1.923.472 4.174.817 6.479.817 2.298 0 4.548-.345 6.48-.817l-1.228-3.957c-.815.189-2.837.438-5.252.438m11.088-3.186c-1.312.505-3.032 1.032-5.503 1.543l1.161 3.772a33.343 33.343 0 0 0 6.381-2.141l-2.039-.821v-2.353m-30.277-37.619c-2.8 2.993-1.588 4.783-1.022 5.335-1.043-.224-2.598-1.552-2.244-2.838-.332.398-.67.829-1.021 1.274a38.875 38.875 0 0 0-1.868 2.716c-.849 2.523.708 5.13 3.355 6.285-2.944-.432-4.264-3.051-4.255-4.717-1.407 2.656-2.077 5.08-2.016 7.116.027.756.092 1.465.191 2.13.676 1.283 1.762 1.754 3.695 1.988-1.759.111-2.687.029-3.454-.771 1.199 5.145 6.794 9.601 9.074 13.417-2.28-2.966-7.003-7.381-8.658-10.576-.128 1.154.18 4.112 1.618 5.931-2.116-2.079-2.28-5.233-2.144-7.077a12.817 12.817 0 0 1-.921-4.5c-.043-1.553.067-2.898.303-4.11-1.336 1.9-3.266 2.633-4.217 5.524.185-3.731 2.971-3.789 5.054-8.315.808-1.981 1.979-3.689 3.279-5.63-1.65.54-2.884.925-4.792 3.016 1.355-3.205 9.187-6.807 12.774-10.295-1.075.228-5.475.339-7.3-.88 3.309.897 10.671-.128 13.451-2.029-1.92 2.761-6.097 2.917-11.183 8.408a13.093 13.093 0 0 1 2.301-1.402m3.822-.318c3.198-1.726 11.012-5.525 5.715-9.623-.723-.556-1.516-1.056-2.185-1.68-.827.638.311 2.22.594 2.8 0 0-1.763.178-2.186.178-2.724-.012-5.582-1.625-4.135-4.719-1.084.224-1.218 1.265-1.549 2.16-.695-.471-1.903-1.481-2.834-1.339.757 2.421 3.942 4.602 6.412 5.097-2.5 1.36-7.13 2.372-9.567-.556-1.711 3.308.673 4.692 3.006 6.425-8.891 4.057-7.58 8.609-13.413 12.192.758.355 4.131-.358 4.431-.401-1.267 1.643-1.858 2.337-2.228 3.134-.353.75-.514 1.595-.864 3.418-.275 1.441-.777 2.876-2.528 3.829.686 1.242 2.211.272 2.849.106-.087.13-.3 1.629-.874 2.349 2.996-.193 1.609-6.51 4.608-4.989.845.426 1.099 1.42.708 2.234-1.968 4.061 2.506 7.641 2.262 11.2 1.1-.009 2.239-.038 2.959-1.524.373.741.955 1.782 1.278 2.788l.897-1.526c.551 2.524 2.906 4.859 6.088 5.067-1.518-2.401.3-5.682-3.386-9.168.458-.37 1.521-1.086 1.901-1.573-4.526.532-9.248-3.048-7.105-4.747 1.403-1.11 2.015 1.194 4.179.807l-.846-.731c.298-.293.636-.677.988-.964-.918-.112-1.923-.7-1.923-.7l.548-.906c-5.301-.006-5.437-4.061-3.283-4.223 1.013-.074 2.32 1.79 5.584 1.403-.418-.504-.584-1.262-.782-1.824.789-.073 1.716-.066 2.46-.428-1.594-.207-1.998-.74-3.323-1.746l1.542-.564c-2.235-1.114-2.099-3.058-2.168-5.083 1.168.673 2.544 1.716 4.01 1.23.349-.117.573-.278.581-.642-2.096-.824-3.437-4.05 1.579-6.761m43.918 11.921c.235 1.212.354 2.558.303 4.11a12.93 12.93 0 0 1-.921 4.5c.137 1.844-.028 4.998-2.142 7.077 1.434-1.821 1.744-4.777 1.618-5.931-1.662 3.195-6.38 7.61-8.663 10.576 2.283-3.816 7.88-8.274 9.08-13.417-.772.8-1.694.882-3.455.772 1.931-.235 3.014-.706 3.691-1.989.101-.665.167-1.374.193-2.131.064-2.035-.61-4.459-2.017-7.115.014 1.666-1.307 4.285-4.254 4.719 2.643-1.157 4.202-3.764 3.354-6.287a36.584 36.584 0 0 0-1.867-2.716 45.764 45.764 0 0 0-1.022-1.274c.354 1.286-1.201 2.614-2.244 2.838.567-.552 1.775-2.342-1.02-5.335.784.37 1.648.893 2.3 1.402-5.085-5.491-9.258-5.646-11.186-8.408 2.785 1.901 10.148 2.927 13.453 2.029-1.824 1.219-6.225 1.108-7.302.88 3.586 3.488 11.425 7.09 12.777 10.294-1.906-2.09-3.146-2.475-4.789-3.014 1.3 1.941 2.469 3.648 3.274 5.628 2.088 4.527 4.875 4.584 5.058 8.318-.952-2.895-2.881-3.626-4.219-5.526m5.612 5.165c-.35-1.824-.507-2.668-.861-3.416-.366-.799-.959-1.493-2.233-3.136.302.043 3.682.756 4.437.401-5.833-3.583-4.522-8.135-13.416-12.192 2.336-1.733 4.717-3.116 3.009-6.427-2.437 2.93-7.07 1.918-9.567.558 2.475-.495 5.655-2.674 6.412-5.097-.935-.142-2.142.868-2.837 1.337-.331-.893-.46-1.935-1.544-2.161 1.448 3.097-1.413 4.71-4.145 4.722-.417 0-2.179-.178-2.179-.178.283-.58 1.419-2.162.589-2.8-.667.624-1.456 1.124-2.181 1.68-5.3 4.098 2.522 7.899 5.717 9.623 5.009 2.711 3.675 5.935 1.579 6.761.006.364.233.525.582.642 1.459.486 2.84-.557 4.005-1.23-.067 2.023.073 3.969-2.163 5.083l1.538.564c-1.327 1.006-1.726 1.539-3.32 1.746.74.362 1.674.355 2.46.429-.202.56-.373 1.319-.785 1.823 3.267.387 4.578-1.477 5.585-1.403 2.146.162 2.02 4.217-3.284 4.223l.55.908s-1.003.586-1.925.698c.35.287.695.67.99.964l-.846.731c2.159.387 2.777-1.917 4.178-.807 2.143 1.699-2.577 5.279-7.106 4.747.382.486 1.442 1.203 1.904 1.575-3.689 3.484-1.877 6.765-3.386 9.169 3.174-.211 5.53-2.546 6.088-5.07l.896 1.526c.321-1.006.909-2.047 1.276-2.788.716 1.486 1.862 1.516 2.966 1.524-.25-3.559 4.222-7.139 2.259-11.2-.392-.812-.139-1.808.706-2.234 3.002-1.521 1.609 4.796 4.608 4.989-.574-.72-.788-2.219-.869-2.349.634.166 2.156 1.139 2.843-.107-1.748-.952-2.251-2.389-2.53-3.828"/>
      <path fill="#FFFFFE" d="M101.694 111.215c-.839 1.151-2.362 1.923-4.098 1.923-.404 0-.796-.044-1.165-.117.103.475.348.964.854 1.387-.206 1.377.39 2.666 1.868 3.005.158.701.591 1.233 1.323 1.484l-1.029 1.19c-.397.456-.915.601-1.333.549l-4.601-.524c.199-.511-.333-1.102-1.79-.848l1.806-5.059-1.101-2.347-2.088 1.785-.154 5.306-.899-.438c-1.159-.504-1.5 1.608-.397 1.617l.445.005c-.03.217.04.457.212.534-.208.084-.272.477-.01.615-.263.127-.301.528-.088.701-.227.391-.27 1.235.535 1.449.664.173 1.079-.538 1.215-.951l7.16 2.218c1.007.291 1.735.127 2.576-.611l1.869-1.634c-.235 1.068.148 2.032.961 2.35 0 0-.13.979-.079 1.386l2.504.004h3.945v-11.775c0-1.098.312-2.194.7-3.204h-9.141M90.97 131.029l.139.175c.195.24.308.183.531.055l.325-.172c.204-.153 1.536.354 1.612-.753.147.827-.837 2.567-.245 3.54l.799 1.31-2.612.037c-.286 0-.435.172-.514.33l-.683 1.417c-.176.372-.165.762.06 1.02l.462.52s.378-.322.5-.741l-.205-.211c-.169-.164-.169-.315-.076-.519l.421-.873c.163-.343.327-.416.698-.33l2.111.456c.156.037.405.113.555-.145.257-.459.716-.489 1.179-.419 1.159.174 3.834.451 4.789-.663 1.12 1.487 3.31 1.487 3.165 2.265l-.462 2.557h.697l.423-2.613c.048-.304.235-.723-.093-.957-.134-.105-.196-.157-.501-.681-.398-.697-.377-1.74-.762-2.637.364-.429.758-.575 1.102-.496.771.189.981 1.52 2.077 2.607-.125-.483-.177-1.013-.437-1.472 0 0 .761.59.957 1.28.125.434.252.749.641.949.259.094.566-.031.875-.401 0 0-.723-1.027-1.252-1.699-.725-.924-1.695-1.849-3.017-1.742-.415.035-.818.224-1.2.451-1.5-.84-2.666.049-3.131.049l-2.81-.167c-.554-.035-.989-.676-.989-.676-.072-2.378-1.982-3.326-2.641-3.326 0 0 .062-.429-.112-.578l-.588.737-1.629-.594 1.277 1.046-1.386 1.611c-.142.159-.12.367-.05.453"/>
      <path fill="#FFFFFE" d="M89.125 134.37c-.392.304-.376.729-.138 1.203l.236.44.614-.468-.139-.302c-.099-.212-.096-.428.078-.564l.879-.664c.247-.18.324-.199.588-.161l1.858.391s-.28-.41-.376-.827l-1.749-.231c-.248-.032-.397.075-.614.238l-1.237.945m11.88 5.515h.701l1.126-2.778c.04-.095.093-.139.136-.218a8.182 8.182 0 0 1-1.224-.584c.283.379.504.542.387.891l-1.126 2.689m-2.197-38.863l2.633-1.01s0 .323-.759.838c-.675.468-1.874.967-1.874.967v-.795zm0-1.925l2.991-1.068s-.358.379-1.117.9c-.675.464-1.874.963-1.874.963v-.795zm0-1.809l3.272-1.206s-.639.518-1.398 1.038c-.675.468-1.874.966-1.874.966v-.798zm2.792 5.044l1.3-7.477-4.927 1.674v7.712l3.627-1.909z"/>
      <path fill="#FFFFFE" d="M92.831 108.947l.11.172h1.014l.011.177c.013.169.05.344.107.521.157.484.469.989.973 1.398.582.469 1.424.811 2.545.811 2.428 0 3.525-1.572 3.631-2.73l.006-.177h1.019l.108-.172c.958-1.499 2.127-3.164 3.488-3.4l-3.706-2.15-4.544 2.472-4.547-2.472-3.701 2.15c1.355.236 2.523 1.901 3.486 3.4"/>
      <path fill="#FFFFFE" d="M96.379 99.097v.795s-1.197-.497-1.871-.963c-.765-.522-1.12-.9-1.12-.9l2.991 1.068zm0-1.809v.798s-1.197-.498-1.871-.966c-.765-.521-1.405-1.038-1.405-1.038l3.276 1.206zm0 4.53s-1.197-.5-1.871-.966c-.765-.516-.765-.84-.765-.84l2.636 1.01v.796zm.829 2.423v-7.712l-4.922-1.675 1.295 7.478 3.627 1.909zm.386-12.685c-2.816 0-4.926.923-5.384 2.004l5.384 2.127 5.38-2.127c-.457-1.081-2.565-2.004-5.38-2.004m.002-3.086c2.075 0 4.151.628 5.549 1.444a9.616 9.616 0 0 1 .802-1.903l-1.276.196-1.029-2.201-1.925 1.023-2.121-2.097-2.124 2.097-1.924-1.023-1.038 2.201-1.273-.196c.333.615.574 1.151.807 1.903 1.4-.816 3.47-1.444 5.552-1.444m35.132 16.948c.697-.09 1.255-.32 1.937-.831-1.47-.391-4.552-1.504-7.183-1.005-.87.114-1.351.467-1.041.668 1.413.937 3.159 3.11 4.428 5.647 1.115-1.384.647-3.204.414-3.725 2.225 1.341 2.806 1.993 3.84 1.738-.55-.844-1.328-1.603-2.395-2.492m-68.413 4.479c1.27-2.537 3.017-4.71 4.433-5.647.315-.201-.173-.554-1.037-.668-2.634-.499-5.722.614-7.192 1.005.689.511 1.24.741 1.941.831-1.071.891-1.846 1.648-2.396 2.492 1.039.255 1.618-.397 3.84-1.739-.23.524-.7 2.342.411 3.726"/>
      <path fill="#1A1919" d="M75.585 137.361l-.897 1.526c-.323-1.006-.905-2.047-1.278-2.788-.72 1.486-1.859 1.516-2.959 1.524.244-3.559-4.23-7.139-2.262-11.2.392-.812.137-1.808-.708-2.234-2.999-1.521-1.612 4.796-4.608 4.989.574-.72.787-2.219.874-2.349-.638.166-2.163 1.139-2.849-.106 1.751-.953 2.253-2.388 2.529-3.829.349-1.823.51-2.668.863-3.416.37-.799.961-1.493 2.228-3.136-.3.043-3.673.756-4.432.401 5.834-3.583 4.521-8.135 13.414-12.192-2.332-1.733-4.716-3.116-3.006-6.425 2.437 2.928 7.067 1.916 9.567.556-2.47-.495-5.655-2.674-6.411-5.097.93-.142 2.138.868 2.831 1.339.334-.896.467-1.936 1.551-2.16-1.447 3.094 1.411 4.707 4.135 4.719.423 0 2.186-.178 2.186-.178-.283-.58-1.421-2.162-.594-2.8.669.624 1.462 1.124 2.185 1.68 5.297 4.098-2.519 7.899-5.717 9.623-5.014 2.711-3.673 5.937-1.577 6.761-.008.364-.232.525-.581.642-1.466.486-2.842-.558-4.01-1.23.069 2.025-.069 3.969 2.168 5.083l-1.542.561c1.325 1.009 1.729 1.542 3.323 1.749-.744.362-1.669.355-2.46.429.199.561.364 1.319.782 1.823-3.264.387-4.571-1.477-5.584-1.403-2.154.162-2.018 4.217 3.283 4.223l-.55.908s1.004.586 1.925.698c-.352.285-.69.671-.988.964l.847.731c-2.165.387-2.777-1.917-4.18-.807-2.143 1.699 2.579 5.279 7.105 4.747-.38.487-1.443 1.203-1.901 1.575 3.686 3.484 1.868 6.765 3.385 9.169-3.181-.213-5.535-2.546-6.087-5.07m4.147-3.92c1.025-.812 1.873-1.218 1.83-3.183-1.538.786-5.897.744-7.718-1.763-.515-.714.036-1.072.532-.511 1.246 1.414 3.557.774 4.399.366-.133-.488-.508-1.12-.823-1.391.315-.31 1.208-.772 1.389-1.567-.477-.258-2.326-.444-2.326-.444.297-.287.667-.685.446-1.744-1.89.581-4.223-.208-4.755-.907-.521-.688.011-1.332.45-.877.94.988 5.582 2.122 7.308.402-.64-.177-1.349-.751-1.475-1.106 1.597-.16 2.871-1.103 2.977-2.278-.884 0-2.554-.064-3.122-.492.766-.283 1.25-.56 1.492-1.418-2.921-.177-3.153-2.347-3.169-2.706 1.902 1.097 5.253.608 4.387-2.093-1.583-.085-3.178-2.646 1.175-4.998 3.959-2.144 8.458-4.454 8.06-8.255-.259-2.434-4.265-4.093-4.773-5.324-1.672.796-2.008 1.72-1.253 3.267 0 0-3.726.37-4.02-1.922-.127-1.028.559-1.99 1.297-2.724-.419 0-3.225-.751-4.071 1.535-1.573-1.074-2.918-1.034-3.978.099 1.69 1.003 2.737 4.447 5.533 5.463-1.989 1.078-5.205.627-7.081-2.685-1.776 2.675-2.798 5.325 1.01 8.153-6.932 3.155-6.881 9.183-12.91 12.056.612 1.641 1.901 1.641 3.544 1.384-2.607 3.387-.385 6.932-4.513 8.381.388 1.381 1.163 2.485 2.684 2.081-.432.674-.717.661-1.391 1.402 2.256 1.421 4.931.392 5.537-4.166.107-.815 1.228-.305.841.494-2.572 5.316 3.931 9.316 1.63 13.217 2.029-.085 3.574-.244 4.419-.927.415.817.663 1.628.574 2.427 1.121-.227 1.528-.89 1.605-1.652.736 2.143 3.36 4.431 7.559 4.431-2.228-3.174-.153-6.397-3.3-10.025"/>
      <path fill="#1A1919" d="M69.768 124.644c.767.8 1.695.882 3.454.772-1.933-.235-3.019-.706-3.696-1.989a19.341 19.341 0 0 1-.19-2.13c-.061-2.036.609-4.46 2.016-7.116-.009 1.665 1.31 4.284 4.255 4.719-2.647-1.157-4.204-3.764-3.355-6.287a38.875 38.875 0 0 1 1.868-2.716c.349-.445.689-.875 1.021-1.274-.354 1.285 1.201 2.614 2.241 2.837-.563-.551-1.775-2.341 1.023-5.334a13.15 13.15 0 0 0-2.299 1.402c5.083-5.491 9.263-5.646 11.183-8.408-2.78 1.901-10.142 2.927-13.451 2.029 1.825 1.219 6.225 1.108 7.3.88-3.587 3.488-11.419 7.09-12.775 10.295 1.907-2.093 3.143-2.476 4.793-3.015-1.3 1.941-2.471 3.648-3.279 5.629-2.083 4.526-4.869 4.584-5.054 8.317.951-2.893 2.879-3.627 4.217-5.526-.236 1.212-.346 2.558-.304 4.11a12.84 12.84 0 0 0 .922 4.5c-.136 1.844.028 4.998 2.144 7.077-1.438-1.819-1.746-4.777-1.618-5.931 1.655 3.195 6.378 7.61 8.66 10.576-2.282-3.816-7.877-8.272-9.076-13.417m52.268-15.335c1.642.539 2.881.922 4.788 3.015-1.351-3.205-9.192-6.807-12.778-10.295 1.077.226 5.478.339 7.302-.88-3.305.898-10.668-.128-13.451-2.029 1.923 2.762 6.099 2.917 11.184 8.408a12.94 12.94 0 0 0-2.3-1.402c2.795 2.993 1.587 4.783 1.02 5.335 1.043-.224 2.598-1.553 2.244-2.838.335.399.675.829 1.022 1.274.7.926 1.318 1.835 1.867 2.716.848 2.523-.711 5.13-3.352 6.287 2.945-.434 4.266-3.054 4.251-4.719 1.408 2.656 2.082 5.08 2.018 7.116a18.858 18.858 0 0 1-.191 2.13c-.679 1.283-1.765 1.754-3.694 1.989 1.762.11 2.684.028 3.456-.772-1.2 5.145-6.795 9.601-9.08 13.417 2.285-2.966 7.001-7.381 8.663-10.576.128 1.154-.183 4.112-1.618 5.931 2.116-2.079 2.279-5.233 2.142-7.079.535-1.326.871-2.81.921-4.498.051-1.552-.068-2.898-.303-4.11 1.338 1.9 3.266 2.633 4.219 5.526-.183-3.733-2.97-3.791-5.058-8.317-.805-1.981-1.973-3.688-3.272-5.629"/>
      <path fill="#1A1919" d="M131.446 126.829c.081.13.295 1.629.869 2.349-2.999-.193-1.608-6.51-4.608-4.989-.845.426-1.098 1.422-.706 2.234 1.961 4.061-2.509 7.641-2.258 11.2-1.105-.008-2.251-.038-2.966-1.524-.368.741-.956 1.782-1.277 2.786l-.897-1.524c-.557 2.524-2.913 4.859-6.087 5.07 1.509-2.404-.305-5.685 3.388-9.169-.465-.372-1.524-1.089-1.906-1.575 4.529.532 9.249-3.048 7.106-4.747-1.402-1.11-2.019 1.194-4.178.807l.846-.731c-.295-.293-.64-.677-.99-.964.922-.112 1.925-.698 1.925-.698l-.55-.908c5.303-.006 5.43-4.061 3.284-4.223-1.007-.074-2.318 1.79-5.585 1.403.412-.504.583-1.262.785-1.823-.786-.074-1.72-.067-2.462-.429 1.596-.207 1.995-.74 3.322-1.746l-1.536-.564c2.234-1.114 2.094-3.058 2.162-5.083-1.166.673-2.547 1.716-4.006 1.23-.349-.117-.576-.278-.583-.642 2.097-.824 3.432-4.05-1.578-6.761-3.195-1.724-11.017-5.525-5.717-9.623.725-.556 1.512-1.056 2.179-1.68.832.638-.304 2.22-.587 2.8 0 0 1.762.178 2.179.178 2.732-.012 5.593-1.625 4.145-4.722 1.084.226 1.213 1.268 1.544 2.161.695-.469 1.902-1.479 2.837-1.337-.759 2.423-3.939 4.602-6.412 5.097 2.497 1.36 7.131 2.372 9.567-.556 1.708 3.309-.673 4.692-3.009 6.425 8.894 4.055 7.581 8.609 13.416 12.192-.755.355-4.135-.358-4.437-.401 1.274 1.643 1.867 2.337 2.233 3.136.354.748.511 1.592.861 3.416.279 1.441.782 2.876 2.53 3.829-.687 1.245-2.209.272-2.843.106m-.346-9.052c1.641.257 2.932.257 3.544-1.383-6.031-2.873-5.979-8.901-12.91-12.056 3.81-2.828 2.782-5.478 1.013-8.153-1.874 3.312-5.1 3.763-7.08 2.685 2.789-1.016 3.842-4.46 5.532-5.464-1.057-1.134-2.407-1.172-3.982-.1-.851-2.284-3.652-1.533-4.073-1.533.736.734 1.431 1.695 1.299 2.724-.29 2.292-4.017 1.922-4.017 1.922.752-1.547.418-2.471-1.255-3.267-.511 1.231-4.511 2.89-4.771 5.323-.401 3.802 4.103 6.112 8.058 8.256 4.352 2.352 2.756 4.913 1.18 4.998-.875 2.703 2.476 3.19 4.383 2.093-.009.359-.251 2.529-3.173 2.707.247.857.729 1.134 1.494 1.417-.571.428-2.238.492-3.12.492.104 1.175 1.381 2.118 2.979 2.278-.127.354-.837.929-1.476 1.106 1.726 1.72 6.366.586 7.311-.402.432-.455.959.189.445.875-.534.701-2.865 1.49-4.756.909-.217 1.058.147 1.459.446 1.744 0 0-1.849.184-2.328.444.18.795 1.077 1.257 1.392 1.567-.315.271-.689.903-.824 1.391.848.408 3.158 1.047 4.398-.366.502-.561 1.05-.203.537.51-1.822 2.508-6.183 2.549-7.722 1.764-.043 1.965.807 2.369 1.83 3.183-3.152 3.628-1.069 6.851-3.297 10.025 4.196 0 6.82-2.291 7.557-4.431.083.762.486 1.425 1.604 1.652-.086-.801.164-1.61.571-2.427.849.683 2.398.842 4.423.927-2.296-3.901 4.205-7.901 1.626-13.217-.381-.799.739-1.307.847-.494.603 4.558 3.281 5.587 5.539 4.166-.679-.741-.96-.728-1.394-1.402 1.52.404 2.294-.7 2.684-2.081-4.125-1.449-1.903-4.994-4.514-8.382M89.125 134.37l1.237-.941c.222-.167.366-.274.617-.242l1.746.231c.096.417.376.827.376.827l-1.858-.391c-.264-.031-.341-.019-.588.159l-.879.666c-.176.136-.18.352-.081.564l.142.306-.614.465-.236-.441c-.238-.474-.254-.902.138-1.203m2.837-3.283l-.322.171c-.223.129-.336.186-.531-.055l-.139-.177c-.07-.083-.092-.291.05-.45l1.383-1.611-1.274-1.046 1.623.598.594-.741c.174.149.113.577.113.577.658 0 2.568.949 2.641 3.328 0 0 .434.639.983.672l2.814.17c.466 0 1.632-.889 3.132-.049.378-.227.785-.41 1.2-.457 1.322-.098 2.292.824 3.017 1.75a49.43 49.43 0 0 1 1.254 1.697c-.312.37-.618.495-.877.401-.389-.2-.516-.515-.641-.949-.198-.69-.957-1.28-.957-1.28.259.463.312.989.437 1.472-1.101-1.087-1.307-2.418-2.077-2.601-.341-.085-.738.061-1.105.487.388.9.367 1.943.765 2.64.303.521.366.569.501.681.325.234.141.653.092.957l-.417 2.614h-.702l.462-2.558c.142-.779-2.045-.779-3.165-2.265-.955 1.116-3.63.837-4.789.663-.466-.07-.922-.04-1.179.42-.15.257-.402.18-.555.144l-2.111-.456c-.371-.086-.532-.013-.697.328l-.422.874c-.093.205-.087.355.081.52l.199.214c-.121.419-.501.738-.501.738l-.46-.519c-.225-.261-.236-.641-.06-1.011l.683-1.427c.082-.158.228-.33.514-.33l2.612-.04-.799-1.303c-.596-.977.392-2.718.245-3.541-.075 1.104-1.408.6-1.615.75m10.87 6.02l-1.128 2.779h-.699l1.126-2.691c.117-.348-.104-.51-.387-.89.419.236.718.391 1.224.584-.043.079-.096.123-.136.218m-13.744-.315l1.268-1.075-.193-.385c-.138-.276-.064-.292.082-.402l.67-.499c.154-.127.318-.112.506-.067l2.012.472h-2.122c-.49.033-.632.22-.809.584l-.146.297-.545 1.121c-.185.385-.282.9.205 1.48l.385.459-.781 1.58h.658l.54-1.096c.043-.04.841-.768 1.01-1.523-.23-.188-.395-.319-.267-.582l.245-.524c.08-.174.108-.245.342-.199l2.109.456c.263.073.649.188.931-.236.288-.441.328-.394.998-.327l1.077.114c1.472.14 2.941-.228 3.515-.682.199.458.597.806.784 1.162.068.132-.046.318-.137.55l-1.209 2.887h1.864l1.055-2.635c.098-.252.24-.453.349-.554l-.605 3.189h1.809l.48-3.155c.106-.701.043-.928-.294-1.216-.754-.636-.737-1.973-.98-2.784a.712.712 0 0 1 .454-.09c.395.035.691 1.042 1.156 1.69.925 1.301 2.189 2.737 3.636.714a4.564 4.564 0 0 0-.466-.641l-.404-.474c-.235-.261-1.355-1.543-1.823-2.005-1.06-1.07-2.691-.906-3.34-.388-1.471-.771-3.023.039-3.39.009l-2.533-.153a.501.501 0 0 1-.414-.244l.471-.154c-.441-1.833-1.548-3.369-3.483-3.632 0 0-.113-.579-.409-.69l-.577.68a1.912 1.912 0 0 0-.486.136l-2.47-.919 1.855 1.873s-.963 1.362-1.236 1.641c-.183.254-.165.453.039.697l.359.472c.187.245.389.235.686.084l.407-.211c.177-.149.771.144 1.027-.09a7.245 7.245 0 0 0-.282 1.453l-1.666-.199c-.363-.049-.528 0-.75.172l-1.42 1.094c-.463.356-.607.969-.322 1.567l.575 1.198m5.42-35.94c.674.466 1.871.966 1.871.966v-.796l-2.636-1.01s0 .324.765.84m1.871-.96v-.795l-2.991-1.068s.355.379 1.12.9c.674.464 1.871.963 1.871.963m0-1.806v-.798l-3.276-1.206s.64.518 1.405 1.038c.674.468 1.871.966 1.871.966"/>
      <path fill="#1A1919" d="M105.586 108.947h3.35c-.138-.487-.659-.978-1.638-.978-.924 0-1.481.536-1.712.978m-3.506-12.865l-3.272 1.206v.798s1.199-.498 1.874-.966a23.172 23.172 0 0 0 1.398-1.038m-.637 3.93l-2.635 1.01v.796s1.199-.5 1.874-.966c.761-.516.761-.84.761-.84m.356-1.983l-2.991 1.068v.795s1.2-.497 1.874-.963c.761-.521 1.117-.9 1.117-.9m-13.919 9.94c-.977 0-1.497.491-1.637.978h3.354c-.239-.443-.787-.978-1.717-.978"/>
      <path fill="#1A1919" d="M97.594 95.687L92.21 93.56c.458-1.081 2.568-2.004 5.384-2.004 2.815 0 4.923.923 5.38 2.004l-5.38 2.127zm4.006 6.645l-3.627 1.909v-7.712l4.929-1.674-1.302 7.477zm4.243 3.215c-1.361.236-2.53 1.901-3.488 3.4l-.107.172h-1.022l-.004.177c-.106 1.158-1.203 2.73-3.631 2.73-1.119 0-1.963-.343-2.545-.811a2.995 2.995 0 0 1-.973-1.398 2.375 2.375 0 0 1-.109-.521l-.009-.177h-1.014l-.11-.172c-.963-1.499-2.131-3.164-3.486-3.4l3.701-2.15 4.548 2.472 4.543-2.472 3.706 2.15zm4.993 5.668c-.389 1.01-.701 2.106-.701 3.204v11.775h-1.369c-.623-.603-1.148-2.609-1.148-2.609-.341.723.05 2.185.414 2.609h-1.763c-.438-.591-.816-2.682-.816-2.682-.527.601-.193 2.229.134 2.682h-1.172c-.073-.836.166-1.748.166-1.748-.613-.113-1.265-.435-1.264-1.117.311.29.437.285.866.276l.498-.392c-1.652.054-1.729-1.76-.419-2.608-1.31.042-2.287-.737-1.81-2.127-.932-.481-1.26-2.057-.572-2.751-.498-.54-.581-1.601-.262-2.326-.659 0-1.402-.263-1.816-.713-.032.015-.07.025-.104.037.825-.337 1.524-.86 1.996-1.51h9.142zm-.698 23.392c0 2.456-1.135 4.323-3.023 5.357l.678-1.376h-.655l-.868 1.762c-.898.341-1.92.527-3.046.527-3.446 0-4.357.14-5.628 1.41-1.279-1.27-2.188-1.41-5.628-1.41-1.12 0-2.139-.183-3.033-.52h.022l.869-1.769h-.653l-.762 1.548a5.89 5.89 0 0 1-.528-.28l.626-1.268h-.651l-.465.945c-1.476-1.086-2.342-2.782-2.342-4.926v-7.722h25.087v7.722zm-17.077-14.103l1.056.132c.08.578-.071 1.561-.448 2.109l-1.025-.295c.273-.649.341-1.255.417-1.946zm-1.524-.774s.972-.046 1.246.057c.202.084.064.424-.197.386-.273-.033-1.049-.443-1.049-.443zm-.064-3.853l-.871 3.179.297-5.129 1.351-1.156.688 1.509-1.738 4.981.459-3.353c.043-.233-.147-.26-.186-.031zm-.67 5.301c-.455.182-.923-.066-.779-.361.211.192.802.098.802.098l-.023.263zm-.858.424c.212.203.85.126.85.126l.023.128c-.279.371-1.05.203-.873-.254zm-1.001-2.049c-.244-.163-.134-.516.137-.516.295.007.692.343 1.082.51 0 0-1.023.139-1.219.006zm.97 2.821s.292.122.664.152c-.043.203-.201.399-.45.343-.208-.046-.302-.305-.214-.495zm.688-1.922c-.492.159-.708-.196-.687-.498.963-.35 1.392-.124 1.673.055.258.164.474.627.821.917a7.468 7.468 0 0 1-.319 1.347c-.984-.252-1.035-1.12-.669-1.647-.205-.241-.423-.302-.819-.174zm4.265.282l1.053.125c.104.579-.093 1.809-.49 2.396l-1.074-.311c.43-.563.587-1.564.511-2.21zm1.813.222l.868.108c.139.722.048 1.971-.412 2.681l-1.011-.293c.442-.603.651-1.843.555-2.496zm1.556.193h.019c.226.034.464-.005.681-.094.469.673.837 2.2.273 3.153a3.183 3.183 0 0 1-.925-.133l-.234-.07c.476-.738.407-2.041.186-2.856zm1.328-.513l.618-.604c.627.548 1.451 1.773 1.194 2.936l-.673.617a2.398 2.398 0 0 1-.428.322c.419-1.038-.115-2.638-.711-3.271zm3.615.345c-.133.18-.243.39-.313.618l-.749.687c.15-1.094-.586-2.391-1.258-2.918l.796-.781.159.16c-.266.698.254 2.07 1.365 2.234zm-1.987-5.298c-.394.751-.354 1.617.11 2.403l-.309.303c-1.343-.168-1.873-2.17-1.873-2.17-.027.18-.043.356-.04.534-.783-.289-1.279-.986-1.239-1.939.296.165.63.282.983.343l.092-.585c-.938-.164-1.486-.75-1.694-1.443-.045-.004-.085-.015-.128-.018.168.014.331.027.502.027.557 0 1.084-.086 1.58-.232.39.555 1.082.953 1.775 1.03-.108.454-.055 1.032.241 1.747zm-7.7-4.468c.648.886 1.699 1.543 2.944 1.8.105.468.358.98.852 1.393-.205 1.377.387 2.663 1.869 3.005.154.701.591 1.233 1.319 1.484l-1.029 1.19c-.392.456-.906.601-1.333.549l-4.601-.524c.199-.511-.331-1.102-1.787-.848l1.809-5.059-1.104-2.347-2.092 1.785-.153 5.306-.889-.438c-1.169-.504-1.509 1.608-.399 1.617l.441.005c-.028.217.037.457.208.53-.208.088-.272.481-.008.621-.265.125-.301.526-.087.699-.233.391-.268 1.235.539 1.449.659.173 1.072-.538 1.209-.951l7.159 2.218c1.015.291 1.735.127 2.576-.611l1.869-1.634c-.235 1.068.15 2.032.964 2.35 0 0-.118.96-.081 1.39H85.051v-11.775c0-1.098-.317-2.194-.694-3.204h9.135zm-1.209-16.36l4.925 1.674v7.712l-3.628-1.909-1.297-7.477zm11.967-.918c0-1.885-3.166-3.572-6.659-3.572-3.495 0-6.661 1.687-6.661 3.572l.073.462 1.39 8.006-6.603 3.849c-.702.411-1.581 1.549-1.693 2.693h1.205c.199-1.143 1.102-2.411 2.786-2.332 1.524.08 2.427 1.007 3.324 2.332l.231.349.332.521h-9.709c.713 1.433 1.392 2.953 1.392 4.602v20.188c0 5.195 3.989 7.668 8.31 7.668 3.336 0 3.786-.152 5.628 1.69 1.836-1.842 2.284-1.69 5.628-1.69 4.316 0 8.309-2.473 8.309-7.668v-20.188c0-1.649.676-3.169 1.389-4.602h-9.716l.334-.521.232-.349c.893-1.325 1.799-2.252 3.324-2.332 1.679-.079 2.586 1.189 2.785 2.332h1.202c-.107-1.144-.991-2.282-1.692-2.693l-6.602-3.849 1.393-8.006.068-.462z"/>
      <path fill="#1A1919" d="M109.565 118.824l.01-.59c-1.812-.043-2.226-2.179-2.226-2.179-.531 1.573.852 2.745 2.216 2.769m-2.288 3.618l-.181-.558c-1.545.395-2.344-2.053-2.344-2.053-.494 1.778 1.23 3.038 2.525 2.611m1.074-2.269c-1.846.292-2.604-1.855-2.604-1.855-.204 1.169.553 2.355 1.775 2.48-.276 1.527 1.141 2.308 2.368 1.765l-.177-.532c-1.066.358-2.066-.697-1.362-1.858m-1.105-6.127l.017-.591c-2.436-.502-2.233-2.179-2.233-2.179-.526 1.579.857 2.745 2.216 2.77m-15.435 24.542l-.872 1.769h.655l.87-1.769h-.653m1.314 0l-.869 1.769h.661l.863-1.769h-.655m5.275 0l-.868 1.769h.654l.87-1.769H98.4m1.321 0l-.874 1.769h.659l.866-1.769h-.651m-2.638 0l-.871 1.769h.655l.871-1.769h-.655m7.703 1.769h.657l.87-1.769h-.656l-.871 1.769m-10.34-1.769l-.869 1.769h.656l.871-1.769h-.658m1.314 0l-.87 1.769h.661l.869-1.769h-.66m-2.983-9.506c-.118 0-.224.117-.224.267 0 .146.106.266.224.266.125 0 .231-.12.231-.266 0-.15-.106-.267-.231-.267m-.267-40.875l1.038-2.2 1.924 1.022 2.124-2.097 2.124 2.097 1.922-1.022 1.026 2.2 1.279-.196a9.684 9.684 0 0 0-.802 1.903c-1.398-.816-3.474-1.444-5.549-1.444-2.082 0-4.153.628-5.552 1.444a9.874 9.874 0 0 0-.807-1.903l1.273.196zm5.086.964c2.703 0 4.867.895 6.063 1.858 0 0 .358-2.146 1.569-4.03l-2.179.244-1.138-2.424-2.191 1.139-2.124-2.108-2.124 2.108-2.195-1.139-1.14 2.424-2.177-.244c1.213 1.884 1.567 4.03 1.567 4.03 1.193-.963 3.363-1.858 6.069-1.858z"/>
      <path fill="#1A1919" d="M99.818 84.834a.582.582 0 0 0 .624-.525c.031-.315-.431-1.16-.431-1.16s-.692.744-.714 1.062a.58.58 0 0 0 .521.623m3.569 1.293c.281.152.624.04.776-.242.153-.277.053-1.233.053-1.233s-.919.415-1.071.697a.584.584 0 0 0 .242.778m-8.022-1.293a.58.58 0 0 0 .527-.623c-.029-.318-.714-1.062-.714-1.062s-.461.845-.431 1.16a.578.578 0 0 0 .618.525m-3.563 1.293c.28-.153.387-.5.237-.778-.148-.282-1.069-.697-1.069-.697s-.098.956.056 1.233a.57.57 0 0 0 .776.242m39.48 20.045c.234.523.701 2.339-.413 3.725-1.269-2.537-3.015-4.71-4.428-5.647-.309-.201.171-.554 1.041-.668 2.631-.499 5.713.614 7.183 1.005-.684.511-1.239.741-1.937.827 1.067.895 1.845 1.652 2.395 2.496-1.034.255-1.615-.398-3.841-1.738m3.319-.431c.76-.27 1.348-.995 1.641-1.666-1.935-.278-7.073-2.436-11.298-.679 1.582-1.502 3.003-1.696 3.138-3.856.656.472 1.765.738 2.389-.388-.436-1.286-1.535-.245-1.69-.598-.215-.493 1.388.151 1.73-1.52-1.246-.428-1.619.59-1.841.354-.206-.225.791-.654.058-2.001-1.298.759-.623 1.615-.897 1.711-.332.131-.071-.913-1.504-.866-.141 1.542 1.347 1.589 1.103 1.835-.295.298-.684-.886-1.767-.286.019 1.245 1.026 1.928 2.067 1.634-.17 2.365-2.337 1.924-3.954 4.587 3.421 1.754 4.969 4.812 7.074 6.927.695-.493 1.883-2.686 1.883-2.686 2.278 1.764 3.88.007 3.88.007-.784-.803-.812-1.414-2.012-2.509m-37.642 41.952l-1.483-.055-.169.593.186.01c.062 0 .062-.116.116-.179.029-.023.298-.067.51-.045l.621.047c-.365.761-1.322 1.477-1.31 1.982.014.269.287.322.45.315.299-.011.392-.221.47-.545.181-.749.543-1.319.805-2.178l-.184.006-.012.049m1.014.885l.022-.457h1.288l-.068-.51c-.352.012-.869.127-1.343.13l-.09.996c.597-.026.986.234.986.859 0 .233-.153.668-.422.701a.274.274 0 0 1-.183-.043c-.129-.097.04-.204.04-.364 0-.208-.212-.281-.353-.255-.221.014-.3.158-.3.334 0 .367.545.469.778.469.529 0 1.139-.294 1.139-.893 0-.788-.882-.95-1.494-.967m3.087.406c-.459 0-.525-.715-.525-1.062 0-.098.088-.236.191-.236.418 0 .533.973.567 1.247a.663.663 0 0 1-.233.051m-.293-1.433c-.462 0-.841.344-.841.814 0 .742.797.986 1.388.705.073.576-.045.989-.263 1.003-.186 0-.159-.14-.186-.259-.049-.224-.226-.284-.408-.224-.193.056-.222.226-.189.355.086.291.446.297.619.276.758-.086 1.076-.649 1.076-1.274 0-.724-.415-1.396-1.196-1.396m-6.33-.152c-.069.085-.387.481-1.07.991l.057.099c.075-.04.196-.096.402-.22l-.402 1.407c-.023.076-.116.083-.161.076l-.239-.034-.045.165 1.308.234.04-.166-.226-.049c-.067-.019-.108-.067-.097-.143l.596-2.335-.163-.025"/>
      <path fill="#1A1919" d="M104.339 149.06l-1.16-3.772c2.472-.511 4.192-1.036 5.505-1.543v2.353l2.038.821a33.27 33.27 0 0 1-6.383 2.141m-6.743 2.207c-2.305 0-4.556-.345-6.479-.817l1.224-3.957c.811.189 2.841.438 5.255.438 2.415 0 4.437-.249 5.252-.438l1.228 3.957c-1.932.472-4.182.817-6.48.817m-13.133-4.348l2.04-.821v-2.353c1.313.507 3.034 1.032 5.505 1.543l-1.159 3.772a33.546 33.546 0 0 1-6.386-2.141m24.852-1.31v-2.887c-2.231 1.023-5.071 1.852-8.722 2.18l-.166 1.033c.31.043.704.081 1.228.115a34.779 34.779 0 0 1-4.059.275c-.96 0-2.706-.09-4.061-.275.523-.034.914-.072 1.224-.115l-.165-1.033c-3.652-.328-6.495-1.157-8.72-2.18v2.887l-3.027 1.242c2.241 1.166 4.821 2.117 7.803 2.885l-.353 1.209c1.708.5 4.437 1.013 7.299 1.013 2.861 0 5.588-.513 7.296-1.013l-.352-1.209c2.978-.768 5.564-1.719 7.805-2.885l-3.03-1.242M60.061 107.91c.553-.844 1.327-1.601 2.401-2.492-.703-.09-1.254-.32-1.943-.831 1.47-.391 4.561-1.504 7.192-1.005.864.114 1.352.467 1.035.666-1.414.939-3.161 3.112-4.431 5.648-1.111-1.385-.641-3.201-.411-3.724-2.222 1.341-2.801 1.993-3.843 1.738m2.393.333s1.19 2.193 1.881 2.685c2.109-2.114 3.658-5.172 7.076-6.926-1.618-2.663-3.789-2.216-3.95-4.587 1.039.294 2.044-.392 2.065-1.634-1.087-.597-1.475.59-1.767.286-.244-.25 1.244-.293 1.103-1.833-1.435-.045-1.172.995-1.509.864-.269-.098.406-.953-.897-1.711-.731 1.353.269 1.775.062 2.001-.221.236-.597-.782-1.842-.354.338 1.671 1.948 1.027 1.729 1.52-.153.353-1.252-.688-1.684.598.619 1.126 1.73.86 2.381.39.14 2.167 1.557 2.348 3.143 3.854-4.224-1.757-9.364.399-11.305.682.299.668.885 1.393 1.646 1.657-1.199 1.105-1.227 1.713-2.011 2.515 0 0 1.598 1.757 3.879-.007m33.29-1.611v1.272c.438-.527 1.285-.423 1.285-.423v1.83s-.03.903-.349 1.29h1.832c-.319-.387-.349-1.29-.349-1.29v-1.83s.846-.104 1.284.423v-1.272h-3.703"/>
    </g>
  </g>
</svg>
