<!-- Generated by IcoMoon.io -->
<svg version="1.1" xmlns="http://www.w3.org/2000/svg" width="3535" height="1024" viewBox="0 0 3535 1024">
<title></title>
<g id="icomoon-ignore">
</g>
<path fill="#333" d="M1687.65 504.391v215.692h-49.793v-88.42h-200.588v88.42h-49.793v-215.692h49.793v85.044h200.588v-85.044h49.793z"></path>
<path fill="#333" d="M1752.189 504.391h49.499v140.484l102.658-140.484h46.721v215.692h-49.214v-140.19l-102.658 140.19h-47.006v-215.692z"></path>
<path fill="#333" d="M2102.254 633.229h-34.415v86.903h-49.508v-215.692h49.508v87.197h35.68l56.578-87.197h52.58l-70.398 104.176 72.544 111.564h-56.632l-55.937-86.952z"></path>
<path fill="#333" d="M2298.791 709.319c-17.916-9.64-31.976-22.949-42.135-39.88-10.151-16.931-15.226-36.014-15.226-57.153s5.075-40.222 15.226-57.153c10.16-16.931 24.166-30.24 42.135-39.929 17.916-9.639 38.075-14.484 60.38-14.484 22.359 0 42.429 4.845 60.247 14.484s31.878 22.949 42.126 39.929c10.249 16.931 15.378 36.014 15.378 57.153s-5.129 40.222-15.378 57.153c-10.249 16.931-24.309 30.24-42.126 39.88s-37.933 14.484-60.247 14.484c-22.305 0-42.42-4.845-60.38-14.484zM2393.64 672.472c10.249-5.872 18.307-14.043 24.113-24.515 5.859-10.472 8.744-22.411 8.744-35.721 0-13.358-2.93-25.249-8.744-35.721-5.859-10.471-13.864-18.643-24.113-24.515s-21.727-8.807-34.415-8.807c-12.698 0-24.166 2.936-34.415 8.807-10.258 5.872-18.307 13.995-24.113 24.515-5.859 10.472-8.744 22.411-8.744 35.721 0 13.358 2.93 25.249 8.744 35.721 5.85 10.472 13.855 18.643 24.113 24.515 10.249 5.872 21.718 8.759 34.415 8.759 12.689 0.049 24.166-2.888 34.415-8.759z"></path>
<path fill="#333" d="M2718.417 504.391v215.692h-49.205v-174.98h-73.764l-1.514 44.968c-1.024 30.632-3.464 55.44-7.373 74.426-3.9 18.986-10.4 33.568-19.527 43.745s-21.869 15.267-38.271 15.267c-6.785 0-14.986-1.126-24.603-3.377l3.072-42.228c2.636 0.832 5.619 1.223 8.94 1.223 11.861 0 20.159-7.047 24.897-21.090 4.684-14.044 7.658-36.112 8.931-66.107l3.072-87.491 165.345-0.049z"></path>
<path fill="#333" d="M2784.951 504.391h49.508v140.484l102.658-140.484h46.721v215.692h-49.214v-140.19l-102.658 140.19h-47.015v-215.692z"></path>
<path fill="#333" d="M3247.059 504.391v215.692h-49.793v-88.42h-97.734v88.42h-49.793v-215.692h49.793v85.044h97.734v-85.044h49.793z"></path>
<path fill="#333" d="M3356.895 709.319c-17.916-9.64-31.976-22.949-42.126-39.88-10.16-16.931-15.235-36.014-15.235-57.153s5.075-40.222 15.235-57.153c10.151-16.931 24.157-30.24 42.126-39.929 17.916-9.639 38.075-14.484 60.389-14.484 22.359 0 42.42 4.845 60.238 14.484s31.878 22.949 42.126 39.929c10.258 16.931 15.378 36.014 15.378 57.153s-5.12 40.222-15.378 57.153c-10.249 16.931-24.309 30.24-42.126 39.88s-37.933 14.484-60.238 14.484c-22.314 0-42.474-4.845-60.389-14.484zM3451.744 672.472c10.258-5.872 18.307-14.043 24.122-24.515 5.85-10.472 8.735-22.411 8.735-35.721 0-13.358-2.93-25.249-8.735-35.721-5.859-10.471-13.864-18.643-24.122-24.515-10.249-5.872-21.718-8.807-34.415-8.807-12.689 0-24.166 2.936-34.415 8.807s-18.307 13.995-24.113 24.515c-5.859 10.472-8.744 22.411-8.744 35.721 0 13.358 2.93 25.249 8.744 35.721 5.859 10.472 13.864 18.643 24.113 24.515s21.727 8.759 34.415 8.759c12.698 0.049 24.166-2.888 34.415-8.759z"></path>
<path fill="#84d078" d="M1537.193 810.656v156.481h-36.267v-125.409h-76.889v125.409h-36.561v-156.481h149.718z"></path>
<path fill="#84d078" d="M1693.073 825.434c12.154 11.058 18.254 27.695 18.254 49.96v91.743h-34.513v-19.029c-4.488 6.847-10.89 12.083-19.135 15.654-8.299 3.624-18.263 5.432-29.972 5.432-11.718 0-21.923-2.003-30.711-6.019-8.789-4.007-15.52-9.59-20.302-16.687-4.791-7.141-7.177-15.164-7.177-24.166 0-14.096 5.218-25.351 15.618-33.863 10.445-8.513 26.847-12.771 49.259-12.771h40.319v-2.349c0-10.961-3.268-19.329-9.813-25.2-6.536-5.872-16.206-8.807-29.091-8.807-8.789 0-17.381 1.369-25.876 4.11s-15.618 6.556-21.477 11.45l-14.309-26.669c8.21-6.263 18.013-11.009 29.536-14.337s23.677-4.991 36.57-4.991c23.036 0 40.613 5.53 52.821 16.539zM1659.726 936.212c7.123-4.203 12.154-10.222 15.039-18.005v-18.156h-37.737c-21.041 0-31.584 6.954-31.584 20.801 0 6.652 2.636 11.941 7.907 15.805 5.271 3.918 12.591 5.868 21.914 5.868 9.234 0 17.337-2.101 24.46-6.313z"></path>
<path fill="#84d078" d="M1878.915 818.877c12.012 6.655 21.379 16.001 28.218 28.136 6.83 12.136 10.249 26.081 10.249 41.886 0 15.801-3.419 29.852-10.249 42.033-6.839 12.235-16.206 21.629-28.218 28.28-12.012 6.66-25.582 9.982-40.764 9.982-21.041 0-37.737-7.043-49.989-21.085v75.892h-36.561v-213.344h34.807v20.502c6.055-7.437 13.472-13.015 22.359-16.686 8.887-3.718 18.646-5.578 29.384-5.578 15.182 0 28.806 3.328 40.764 9.982zM1867.251 924.378c8.682-9.011 13.027-20.801 13.027-35.479s-4.345-26.473-13.027-35.476c-8.691-9.003-19.723-13.456-33.195-13.456-8.789 0-16.651 2.006-23.677 6.018-7.034 4.012-12.6 9.738-16.651 17.127-4.096 7.438-6.153 16-6.153 25.787 0 9.79 2.057 18.347 6.153 25.791 4.105 7.435 9.67 13.161 16.651 17.123 7.026 4.007 14.888 6.019 23.677 6.019 13.419 0 24.505-4.506 33.195-13.454z"></path>
<path fill="#84d078" d="M2014.333 904.415h-28.36v62.722h-36.57v-156.481h36.57v63.318h29.233l46.187-63.318h39.152l-56.73 75.307 60.532 81.174h-42.955l-47.059-62.722z"></path>
<path fill="#84d078" d="M1245.709 364.152l-471.815-356.617c-13.62-10.276-32.463-9.982-45.693 0.734l-440.475 355.883c-8.738 7.095-13.864 17.762-13.864 29.017v538.003c0 20.605 16.647 37.291 37.15 37.291h204.689c-84.55-7.337-150.941-78.439-150.941-165.098 0-91.552 74.055-165.732 165.342-165.732s165.343 74.229 165.343 165.732c0 86.659-66.391 157.761-150.942 165.098h394.54c-70.933-12.377-136.006-61.119-160.902-146.259-9.812-33.469-15.035-68.896-15.035-105.595 0-148.998 86.796-277.689 212.499-338.071 125.658 60.382 212.502 189.024 212.502 338.071 0 36.65-5.271 72.077-15.039 105.595-24.897 85.14-89.97 133.882-160.902 146.259h211.14c20.551 0 37.193-16.687 37.193-37.291v-537.27c0-11.695-5.467-22.704-14.79-29.75z"></path>
<path fill="#84d078" d="M103.394 968.464c57.104 0 103.395-46.401 103.395-103.639s-46.291-103.638-103.395-103.638c-57.103 0-103.394 46.4-103.394 103.638s46.291 103.639 103.394 103.639z"></path>
</svg>
