<svg width="151" height="99" viewBox="0 0 151 99" fill="none" xmlns="http://www.w3.org/2000/svg">
<g clip-path="url(#clip0)">
<path d="M35.7971 66.0088V79.4284H32.692V73.9272H20.1832V79.4284H17.0781V66.0088H20.1832V71.2999H32.692V66.0088H35.7971Z" fill="#333333"/>
<path d="M39.8186 66.0088H42.9055V74.7492L49.3075 66.0088H52.2208V79.4284H49.1522V70.7062L42.7502 79.4284H39.8186V66.0088Z" fill="#333333"/>
<path d="M61.6517 74.0216H59.5056V79.4284H56.4187V66.0088H59.5056V71.4339H61.7309L65.2592 66.0088H68.5378L64.148 72.4903L68.6717 79.4315H65.1435L61.6517 74.0216Z" fill="#333333"/>
<path d="M73.9079 78.7587C72.7907 78.1589 71.9139 77.3308 71.2807 76.2775C70.6475 75.2241 70.3309 74.0368 70.3309 72.7216C70.3309 71.4065 70.6475 70.2191 71.2807 69.1658C71.9139 68.1124 72.7876 67.2844 73.9079 66.6816C75.0251 66.0818 76.2824 65.7804 77.6736 65.7804C79.0679 65.7804 80.3191 66.0818 81.4302 66.6816C82.5413 67.2813 83.4181 68.1094 84.0574 69.1658C84.6967 70.2191 85.0163 71.4065 85.0163 72.7216C85.0163 74.0368 84.6967 75.2241 84.0574 76.2775C83.4181 77.3308 82.5413 78.1589 81.4302 78.7587C80.3191 79.3584 79.0648 79.6598 77.6736 79.6598C76.2824 79.6598 75.0251 79.3584 73.9079 78.7587ZM79.8228 76.4662C80.4621 76.1009 80.9644 75.5925 81.3267 74.941C81.692 74.2895 81.8716 73.5467 81.8716 72.7186C81.8716 71.8875 81.689 71.1477 81.3267 70.4962C80.9614 69.8447 80.4621 69.3363 79.8228 68.9709C79.1836 68.6056 78.4682 68.423 77.6767 68.423C76.8852 68.423 76.1698 68.6056 75.5305 68.9709C74.8912 69.3363 74.3889 69.8416 74.0266 70.4962C73.6613 71.1477 73.4817 71.8905 73.4817 72.7186C73.4817 73.5497 73.6644 74.2895 74.0266 74.941C74.3919 75.5925 74.8912 76.1009 75.5305 76.4662C76.1698 76.8316 76.8852 77.0112 77.6767 77.0112C78.4682 77.0142 79.1836 76.8316 79.8228 76.4662Z" fill="#333333"/>
<path d="M100.076 66.0088V79.4284H97.0075V68.5386H92.4077L92.3133 71.3364C92.2494 73.2422 92.0972 74.7857 91.8536 75.967C91.6101 77.1482 91.2052 78.0554 90.6359 78.6887C90.0667 79.3219 89.2721 79.6385 88.2493 79.6385C87.8261 79.6385 87.3177 79.5685 86.715 79.4284L86.9068 76.8011C87.0711 76.8529 87.2568 76.8772 87.4638 76.8772C88.2036 76.8772 88.7211 76.4388 89.0164 75.5651C89.3087 74.6914 89.4943 73.3183 89.5735 71.4521L89.7653 66.0088H100.076Z" fill="#333333"/>
<path d="M104.225 66.0088H107.312V74.7492L113.714 66.0088H116.628V79.4284H113.559V70.7062L107.157 79.4284H104.225V66.0088Z" fill="#333333"/>
<path d="M133.039 66.0088V79.4284H129.934V73.9272H123.839V79.4284H120.734V66.0088H123.839V71.2999H129.934V66.0088H133.039Z" fill="#333333"/>
<path d="M139.892 78.7587C138.774 78.1589 137.898 77.3308 137.264 76.2775C136.631 75.2241 136.315 74.0368 136.315 72.7216C136.315 71.4065 136.631 70.2191 137.264 69.1658C137.898 68.1124 138.771 67.2844 139.892 66.6816C141.009 66.0818 142.266 65.7804 143.657 65.7804C145.052 65.7804 146.303 66.0818 147.414 66.6816C148.525 67.2813 149.402 68.1094 150.041 69.1658C150.68 70.2191 151 71.4065 151 72.7216C151 74.0368 150.68 75.2241 150.041 76.2775C149.402 77.3308 148.525 78.1589 147.414 78.7587C146.303 79.3584 145.048 79.6598 143.657 79.6598C142.266 79.6598 141.009 79.3584 139.892 78.7587ZM145.806 76.4662C146.446 76.1009 146.948 75.5925 147.31 74.941C147.676 74.2895 147.855 73.5467 147.855 72.7186C147.855 71.8875 147.673 71.1477 147.31 70.4962C146.945 69.8447 146.446 69.3363 145.806 68.9709C145.167 68.6056 144.452 68.423 143.66 68.423C142.869 68.423 142.153 68.6056 141.514 68.9709C140.875 69.3363 140.373 69.8416 140.01 70.4962C139.645 71.1477 139.465 71.8905 139.465 72.7186C139.465 73.5497 139.648 74.2895 140.01 74.941C140.376 75.5925 140.875 76.1009 141.514 76.4662C142.153 76.8316 142.869 77.0112 143.66 77.0112C144.452 77.0142 145.167 76.8316 145.806 76.4662Z" fill="#333333"/>
<path d="M26.4148 85.0636V94.7996H24.1529V86.9937H19.3583V94.7965H17.0781V85.0605H26.4148V85.0636Z" fill="#84D078"/>
<path d="M36.135 85.983C36.893 86.671 37.2735 87.7061 37.2735 89.0913V94.7996H35.1213V93.6153C34.8412 94.0415 34.4424 94.3673 33.9279 94.5895C33.4104 94.8148 32.7894 94.9274 32.0588 94.9274C31.3282 94.9274 30.6919 94.8026 30.144 94.553C29.596 94.3033 29.1759 93.9563 28.8776 93.5148C28.5792 93.0703 28.4301 92.5711 28.4301 92.0109C28.4301 91.1341 28.7558 90.4339 29.4042 89.9042C30.0557 89.3745 31.0785 89.1096 32.4758 89.1096H34.9904V88.9635C34.9904 88.2815 34.7864 87.7609 34.3785 87.3956C33.9706 87.0303 33.3678 86.8476 32.5641 86.8476C32.0162 86.8476 31.4804 86.9328 30.9507 87.1033C30.421 87.2738 29.9765 87.5113 29.6112 87.8157L28.7193 86.1565C29.2307 85.7669 29.8426 85.4715 30.561 85.2645C31.2795 85.0575 32.0375 84.954 32.8411 84.954C34.278 84.954 35.3739 85.298 36.135 85.983ZM34.0558 92.8755C34.5003 92.6137 34.8138 92.2392 34.9934 91.7552V90.6257H32.6402C31.3282 90.6257 30.6706 91.058 30.6706 91.9196C30.6706 92.3336 30.835 92.6624 31.1638 92.9029C31.4926 93.1465 31.9492 93.2682 32.5306 93.2682C33.106 93.2682 33.6113 93.1373 34.0558 92.8755Z" fill="#84D078"/>
<path d="M47.7244 85.572C48.4733 85.986 49.0578 86.5675 49.484 87.3225C49.9102 88.0775 50.1232 88.9452 50.1232 89.9285C50.1232 90.9119 49.9102 91.7856 49.484 92.5437C49.0578 93.3048 48.4733 93.8893 47.7244 94.3033C46.9755 94.7174 46.1292 94.9244 45.1825 94.9244C43.8704 94.9244 42.8293 94.486 42.0652 93.6123V98.3341H39.785V85.0606H41.9556V86.3362C42.3331 85.8734 42.7958 85.5263 43.3498 85.298C43.9039 85.0666 44.5127 84.951 45.1825 84.951C46.1292 84.954 46.9755 85.161 47.7244 85.572ZM46.9938 92.1357C47.5356 91.5756 47.8066 90.8419 47.8066 89.9285C47.8066 89.0152 47.5356 88.2815 46.9938 87.7214C46.4519 87.1612 45.7639 86.8841 44.9237 86.8841C44.3757 86.8841 43.8856 87.009 43.4472 87.2586C43.0089 87.5082 42.6618 87.8644 42.4092 88.3241C42.1534 88.7869 42.0256 89.3197 42.0256 89.9285C42.0256 90.5374 42.1534 91.0702 42.4092 91.5329C42.6649 91.9957 43.0119 92.3519 43.4472 92.5985C43.8856 92.8481 44.3757 92.9729 44.9237 92.9729C45.7639 92.976 46.4549 92.6959 46.9938 92.1357Z" fill="#84D078"/>
<path d="M56.1691 90.8967H54.4004V94.7996H52.1202V85.0636H54.4004V89.003H56.2239L59.1037 85.0636H61.5452L58.0078 89.7489L61.7826 94.7996H59.1037L56.1691 90.8967Z" fill="#84D078"/>
<path d="M77.6827 22.8849L48.2602 0.69741C47.4109 0.0580873 46.2358 0.0763537 45.4108 0.743076L17.9427 22.8849C17.3978 23.3264 17.0781 23.9901 17.0781 24.6903V58.1634C17.0781 59.445 18.1162 60.4832 19.3948 60.4832H32.1592C26.8866 60.0265 22.7465 55.603 22.7465 50.2114C22.7465 44.5153 27.3646 39.9 33.0573 39.9C38.75 39.9 43.3681 44.5184 43.3681 50.2114C43.3681 55.603 39.228 60.0265 33.9553 60.4832H58.5588C54.1356 59.7129 50.0776 56.6807 48.525 51.3835C47.9131 49.3011 47.5874 47.097 47.5874 44.8137C47.5874 35.5435 53.0001 27.5368 60.839 23.78C68.6748 27.5368 74.0905 35.5405 74.0905 44.8137C74.0905 47.0939 73.7617 49.2981 73.1529 51.3835C71.6003 56.6807 67.5424 59.7129 63.1191 60.4832H76.2854C77.567 60.4832 78.6051 59.445 78.6051 58.1634V24.7359C78.6051 24.0083 78.2641 23.3233 77.6827 22.8849Z" fill="url(#paint0_linear)"/>
<path d="M6.44768 60.4832C10.0086 60.4832 12.8954 57.5963 12.8954 54.0352C12.8954 50.474 10.0086 47.5871 6.44768 47.5871C2.88673 47.5871 0 50.474 0 54.0352C0 57.5963 2.88673 60.4832 6.44768 60.4832Z" fill="url(#paint1_linear)"/>
</g>
<defs>
<linearGradient id="paint0_linear" x1="10.707" y1="7.53161" x2="65.2952" y2="57.3862" gradientUnits="userSpaceOnUse">
<stop stop-color="#84D078"/>
<stop offset="0.0983" stop-color="#B6F173"/>
<stop offset="1" stop-color="#84D078"/>
</linearGradient>
<linearGradient id="paint1_linear" x1="-14.5461" y1="34.8608" x2="40.9082" y2="85.5065" gradientUnits="userSpaceOnUse">
<stop stop-color="#ACEA74"/>
<stop offset="0.0983" stop-color="#B6F173"/>
<stop offset="1" stop-color="#84D078"/>
</linearGradient>
<clipPath id="clip0">
<rect width="151" height="98.1086" fill="white" transform="translate(0 0.228573)"/>
</clipPath>
</defs>
</svg>
