<svg width="50" height="50" viewBox="0 0 50 50" fill="none" xmlns="http://www.w3.org/2000/svg">
<circle cx="25" cy="25" r="23" fill="#95EB89" stroke="white" stroke-width="4"/>
<path d="M35.1368 31.5635H18.2721L19.1189 29.7793L33.1884 29.7529C33.6642 29.7529 34.072 29.4014 34.1569 28.915L36.1054 17.6328C36.1564 17.3369 36.0799 17.0322 35.893 16.8008C35.8006 16.6869 35.6854 16.5951 35.5553 16.5319C35.4252 16.4686 35.2834 16.4354 35.1397 16.4346L17.2412 16.373L17.0883 15.6289C16.992 15.1543 16.5785 14.8086 16.1084 14.8086H11.7329C11.4678 14.8086 11.2135 14.9176 11.026 15.1115C10.8385 15.3054 10.7332 15.5685 10.7332 15.8428C10.7332 16.1171 10.8385 16.3801 11.026 16.574C11.2135 16.768 11.4678 16.877 11.7329 16.877H15.2984L15.9668 20.1641L17.6122 28.4053L15.4939 31.9824C15.3839 32.136 15.3176 32.3184 15.3026 32.5089C15.2876 32.6995 15.3244 32.8905 15.4089 33.0605C15.5788 33.4092 15.9215 33.6289 16.301 33.6289H18.0795C17.7003 34.1499 17.4956 34.7844 17.4961 35.4365C17.4961 37.0947 18.7988 38.4424 20.4018 38.4424C22.0047 38.4424 23.3074 37.0947 23.3074 35.4365C23.3074 34.7832 23.0979 34.1475 22.724 33.6289H27.2864C26.9073 34.1499 26.7025 34.7844 26.703 35.4365C26.703 37.0947 28.0058 38.4424 29.6087 38.4424C31.2116 38.4424 32.5144 37.0947 32.5144 35.4365C32.5144 34.7832 32.3048 34.1475 31.931 33.6289H35.1397C35.6891 33.6289 36.1394 33.166 36.1394 32.5947C36.1377 32.3207 36.0314 32.0585 35.8436 31.8653C35.6558 31.6721 35.4017 31.5636 35.1368 31.5635ZM17.6575 18.4121L33.9644 18.4678L32.3671 27.7197L19.5578 27.7432L17.6575 18.4121ZM20.4018 36.3623C19.909 36.3623 19.5068 35.9463 19.5068 35.4365C19.5068 34.9268 19.909 34.5107 20.4018 34.5107C20.8945 34.5107 21.2967 34.9268 21.2967 35.4365C21.2967 35.6821 21.2024 35.9175 21.0346 36.0912C20.8667 36.2648 20.6391 36.3623 20.4018 36.3623ZM29.6087 36.3623C29.1159 36.3623 28.7138 35.9463 28.7138 35.4365C28.7138 34.9268 29.1159 34.5107 29.6087 34.5107C30.1015 34.5107 30.5036 34.9268 30.5036 35.4365C30.5036 35.6821 30.4093 35.9175 30.2415 36.0912C30.0737 36.2648 29.8461 36.3623 29.6087 36.3623Z" fill="white"/>
</svg>
