<svg width="87" height="69" viewBox="0 0 87 69" fill="none" xmlns="http://www.w3.org/2000/svg">
<path d="M23.6926 69C19.8231 69 16.6758 65.8219 16.6758 61.9145V28.9151C16.6758 26.7603 17.6298 24.7496 19.2882 23.3961L46.1044 1.56654C47.3467 0.558194 48.9099 0 50.5089 0C52.0246 0 53.5254 0.507177 54.735 1.4285L83.4622 23.3031C85.2098 24.6356 86.2559 26.7513 86.2559 28.9601V61.9115C86.2559 65.8189 83.1086 68.997 79.2361 68.997H23.6926V69Z" fill="white"/>
<path d="M79.2338 64.1984C80.485 64.1984 81.4955 63.175 81.4955 61.9116V28.9601C81.4955 28.2429 81.1626 27.5676 80.595 27.1355L51.8708 5.26087C51.0416 4.63065 49.8944 4.64865 49.089 5.30588L22.2728 27.1355C21.7408 27.5706 21.4287 28.2249 21.4287 28.9151V61.9116C21.4287 63.175 22.4422 64.1984 23.6904 64.1984H79.2338Z" fill="white"/>
<path d="M11.0498 68.9998C17.1525 68.9998 22.0997 64.0043 22.0997 57.842C22.0997 51.6796 17.1525 46.6841 11.0498 46.6841C4.94718 46.6841 0 51.6796 0 57.842C0 64.0043 4.94718 68.9998 11.0498 68.9998Z" fill="white"/>
<path d="M11.05 64.1983C14.5265 64.1983 17.3447 61.3525 17.3447 57.8421C17.3447 54.3316 14.5265 51.4858 11.05 51.4858C7.57359 51.4858 4.75537 54.3316 4.75537 57.8421C4.75537 61.3525 7.57359 64.1983 11.05 64.1983Z" fill="white"/>
<path d="M80.595 27.1355L51.8708 5.26087C51.0416 4.63065 49.8944 4.64865 49.089 5.30588L22.2728 27.1355C21.7408 27.5706 21.4287 28.2249 21.4287 28.9151V61.9116C21.4287 63.175 22.4422 64.1984 23.6904 64.1984H36.1519C31.0044 63.7482 26.9625 59.3877 26.9625 54.0728C26.9625 48.4579 31.471 43.9083 37.0287 43.9083C42.5863 43.9083 47.0948 48.4609 47.0948 54.0728C47.0948 59.3877 43.0529 63.7482 37.9054 64.1984H61.925C57.6067 63.4391 53.645 60.4501 52.1293 55.2282C51.5319 53.1755 51.214 51.0028 51.214 48.752C51.214 39.6138 56.4981 31.7211 64.151 28.0178C71.8009 31.7211 77.0881 39.6108 77.0881 48.752C77.0881 50.9998 76.7671 53.1725 76.1727 55.2282C74.657 60.4501 70.6953 63.4391 66.377 64.1984H79.2309C80.4821 64.1984 81.4925 63.175 81.4925 61.9116V28.9601C81.4955 28.2429 81.1626 27.5676 80.595 27.1355Z" fill="url(#paint0_linear)"/>
<path d="M11.05 64.1983C14.5265 64.1983 17.3447 61.3525 17.3447 57.8421C17.3447 54.3316 14.5265 51.4858 11.05 51.4858C7.57359 51.4858 4.75537 54.3316 4.75537 57.8421C4.75537 61.3525 7.57359 64.1983 11.05 64.1983Z" fill="#A2E475"/>
<defs>
<linearGradient id="paint0_linear" x1="15.2088" y1="12.0009" x2="68.9702" y2="60.6275" gradientUnits="userSpaceOnUse">
<stop stop-color="#ADEB74"/>
<stop offset="1" stop-color="#84D078"/>
</linearGradient>
</defs>
</svg>
