<svg width="50" height="50" viewBox="0 0 50 50" fill="none" xmlns="http://www.w3.org/2000/svg">
<circle cx="25" cy="25" r="23" fill="#FA7079" stroke="white" stroke-width="4"/>
<path d="M36.1819 26.9419C36.1833 26.2369 35.9869 25.5457 35.615 24.9469C35.2432 24.348 34.7107 23.8655 34.0783 23.5542C33.4458 23.2429 32.7387 23.1153 32.0373 23.1859C31.3359 23.2565 30.6684 23.5225 30.1106 23.9536C29.5529 24.3847 29.1273 24.9637 28.8823 25.6246C28.6372 26.2856 28.5825 27.0021 28.7244 27.6926C28.8663 28.3831 29.1991 29.0199 29.685 29.5307C30.1708 30.0414 30.7902 30.4056 31.4728 30.5819V31.651C31.4728 32.9033 30.9753 34.1043 30.0898 34.9898C29.2043 35.8753 28.0033 36.3728 26.7509 36.3728C25.4986 36.3728 24.2976 35.8753 23.4121 34.9898C22.5266 34.1043 22.0291 32.9033 22.0291 31.651C22.0765 30.5267 22.3513 29.4238 22.8369 28.4088C23.3225 27.3938 24.0089 26.4878 24.8546 25.7455H24.7273C25.6274 25.1583 26.3696 24.3593 26.8888 23.4184C27.4081 22.4775 27.6885 21.4236 27.7055 20.3491V16.5564C27.7055 15.8071 27.4078 15.0884 26.8779 14.5585C26.3481 14.0286 25.6294 13.731 24.88 13.731H23.4546C23.2048 13.731 22.9652 13.8302 22.7886 14.0068C22.612 14.1834 22.5128 14.423 22.5128 14.6728C22.5128 14.9226 22.612 15.1621 22.7886 15.3387C22.9652 15.5154 23.2048 15.6146 23.4546 15.6146H24.8546C25.1044 15.6146 25.3439 15.7138 25.5205 15.8904C25.6972 16.0671 25.7964 16.3066 25.7964 16.5564V20.3491C25.7964 21.5937 25.3038 22.7876 24.4262 23.67C23.5485 24.5524 22.3573 25.0515 21.1128 25.0582V25.7455V25.0582C20.4944 25.0616 19.8813 24.9431 19.3087 24.7095C18.7361 24.476 18.2151 24.1319 17.7755 23.697C17.3358 23.2621 16.9861 22.7448 16.7464 22.1748C16.5067 21.6047 16.3816 20.993 16.3782 20.3746V16.5564C16.3782 16.3066 16.4774 16.0671 16.6541 15.8904C16.8307 15.7138 17.0703 15.6146 17.32 15.6146H18.6437C18.8935 15.6146 19.133 15.5154 19.3096 15.3387C19.4863 15.1621 19.5855 14.9226 19.5855 14.6728C19.5855 14.423 19.4863 14.1834 19.3096 14.0068C19.133 13.8302 18.8935 13.731 18.6437 13.731H17.32C16.5795 13.7443 15.8739 14.0479 15.355 14.5763C14.8361 15.1047 14.5454 15.8158 14.5455 16.5564V20.3491C14.5427 21.4077 14.7959 22.4512 15.2835 23.3908C15.771 24.3304 16.4784 25.1383 17.3455 25.7455C18.1865 26.49 18.8681 27.397 19.3493 28.4119C19.8306 29.4268 20.1014 30.5286 20.1455 31.651C20.1455 32.5184 20.3163 33.3773 20.6483 34.1788C20.9803 34.9802 21.4668 35.7083 22.0802 36.3217C22.6936 36.9351 23.4217 37.4216 24.2231 37.7536C25.0246 38.0856 25.8835 38.2564 26.7509 38.2564C27.6184 38.2564 28.4773 38.0856 29.2787 37.7536C30.0802 37.4216 30.8083 36.9351 31.4217 36.3217C32.0351 35.7083 32.5216 34.9802 32.8536 34.1788C33.1855 33.3773 33.3564 32.5184 33.3564 31.651V30.5819C34.1638 30.3734 34.8792 29.9029 35.3905 29.2442C35.9018 28.5855 36.1802 27.7757 36.1819 26.9419ZM32.3637 28.8255C31.9911 28.8255 31.6269 28.715 31.3172 28.5081C31.0074 28.3011 30.766 28.0069 30.6234 27.6627C30.4809 27.3185 30.4436 26.9398 30.5162 26.5744C30.5889 26.209 30.7683 25.8734 31.0317 25.6099C31.2952 25.3465 31.6308 25.1671 31.9962 25.0944C32.3616 25.0217 32.7403 25.059 33.0845 25.2016C33.4287 25.3442 33.7229 25.5856 33.9299 25.8954C34.1368 26.2051 34.2473 26.5693 34.2473 26.9419C34.2473 27.1892 34.1986 27.4342 34.1039 27.6627C34.0093 27.8912 33.8705 28.0989 33.6956 28.2738C33.5207 28.4487 33.313 28.5875 33.0845 28.6821C32.856 28.7768 32.611 28.8255 32.3637 28.8255Z" fill="white"/>
</svg>
