<?xml version="1.0" encoding="utf-8"?>
<!-- Generator: Adobe Illustrator 24.3.0, SVG Export Plug-In . SVG Version: 6.00 Build 0)  -->
<svg version="1.1" id="Layer_1" xmlns="http://www.w3.org/2000/svg" xmlns:xlink="http://www.w3.org/1999/xlink" x="0px" y="0px"
	 viewBox="0 0 1942.5 1989" style="enable-background:new 0 0 1942.5 1989;" xml:space="preserve">
<g>
	<path class="st0" d="M1007.2,404.1h-30c-0.5,0-1-0.4-1-1v-46.8c0-0.5,0.4-1,1-1h30c0.5,0,1,0.4,1,1v46.8
		C1008.2,403.6,1007.8,404.1,1007.2,404.1z"/>
</g>
<g>
	<path class="st0" d="M1043,385.8V356c0-0.4-0.4-0.8-0.8-0.8h-30.3c-0.4,0-0.8,0.4-0.8,0.8v29.9c0,0.4,0.4,0.8,0.8,0.8h30.3
		C1042.6,386.6,1043,386.3,1043,385.8z"/>
</g>
<g>
	<path class="st0" d="M1043,420.7v-29.8c0-0.4-0.4-0.8-0.8-0.8h-30.3c-0.4,0-0.8,0.4-0.8,0.8v29.8c0,0.4,0.4,0.8,0.8,0.8h30.3
		C1042.6,421.5,1043,421.1,1043,420.7z"/>
</g>
<g>
	<path class="st0" d="M1043,455v-29.2c0-0.4-0.3-0.8-0.8-0.8h-30.3c-0.4,0-0.8,0.3-0.8,0.8V455c0,0.4,0.3,0.8,0.8,0.8h30.3
		C1042.6,455.8,1043,455.5,1043,455z"/>
</g>
<g>
	<path class="st0" d="M1043,518.5v-29.6c0-0.4-0.4-0.8-0.8-0.8h-30.3c-0.4,0-0.8,0.4-0.8,0.8v29.6c0,0.4,0.4,0.8,0.8,0.8h30.3
		C1042.6,519.3,1043,518.9,1043,518.5z"/>
</g>
<g>
	<path class="st0" d="M1043,553.2v-29.6c0-0.4-0.4-0.8-0.8-0.8h-30.3c-0.4,0-0.8,0.4-0.8,0.8v29.6c0,0.4,0.4,0.8,0.8,0.8h30.3
		C1042.6,553.9,1043,553.6,1043,553.2z"/>
</g>
<g>
	<path class="st0" d="M1043,588v-29.6c0-0.4-0.4-0.8-0.8-0.8h-30.3c-0.4,0-0.8,0.4-0.8,0.8V588c0,0.4,0.4,0.8,0.8,0.8h30.3
		C1042.6,588.8,1043,588.5,1043,588z"/>
</g>
<g>
	<path class="st0" d="M1107.6,454.5v-34.8c0-0.5-0.4-0.8-0.8-0.8H1079c-0.4,0-0.8,0.4-0.8,0.8v34.8c0,0.5,0.4,0.8,0.8,0.8h27.7
		C1107.2,455.3,1107.6,454.9,1107.6,454.5z"/>
</g>
<g>
	<path class="st0" d="M1139.6,454.5v-34.8c0-0.5-0.4-0.8-0.8-0.8h-27.7c-0.4,0-0.8,0.4-0.8,0.8v34.8c0,0.5,0.4,0.8,0.8,0.8h27.7
		C1139.3,455.3,1139.6,454.9,1139.6,454.5z"/>
</g>
<g>
	<path class="st0" d="M1171.6,454.5v-34.8c0-0.5-0.4-0.8-0.8-0.8h-27.7c-0.4,0-0.8,0.4-0.8,0.8v34.8c0,0.5,0.4,0.8,0.8,0.8h27.7
		C1171.3,455.3,1171.6,454.9,1171.6,454.5z"/>
</g>
<g>
	<path class="st0" d="M1203.8,454.5v-34.8c0-0.5-0.4-0.8-0.8-0.8h-27.7c-0.4,0-0.8,0.4-0.8,0.8v34.8c0,0.5,0.4,0.8,0.8,0.8h27.7
		C1203.4,455.3,1203.8,454.9,1203.8,454.5z"/>
</g>
<g>
	<path class="st0" d="M1235.9,454.5v-34.8c0-0.5-0.4-0.8-0.8-0.8h-27.7c-0.4,0-0.8,0.4-0.8,0.8v34.8c0,0.5,0.4,0.8,0.8,0.8h27.7
		C1235.5,455.3,1235.9,454.9,1235.9,454.5z"/>
</g>
<g>
	<path class="st0" d="M1267.8,454.5v-34.8c0-0.5-0.4-0.8-0.8-0.8h-27.7c-0.4,0-0.8,0.4-0.8,0.8v34.8c0,0.5,0.4,0.8,0.8,0.8h27.7
		C1267.4,455.3,1267.8,454.9,1267.8,454.5z"/>
</g>
<g>
	<path class="st0" d="M1299.9,454.5v-34.8c0-0.5-0.4-0.8-0.8-0.8h-27.7c-0.4,0-0.8,0.4-0.8,0.8v34.8c0,0.5,0.4,0.8,0.8,0.8h27.7
		C1299.5,455.3,1299.9,454.9,1299.9,454.5z"/>
</g>
<g>
	<path class="st0" d="M1332.1,454.5v-34.8c0-0.5-0.4-0.8-0.8-0.8h-27.7c-0.4,0-0.8,0.4-0.8,0.8v34.8c0,0.5,0.4,0.8,0.8,0.8h27.7
		C1331.7,455.3,1332.1,454.9,1332.1,454.5z"/>
</g>
<g>
	<path class="st0" d="M1364.3,454.5v-34.8c0-0.5-0.4-0.8-0.8-0.8h-27.7c-0.4,0-0.8,0.4-0.8,0.8v34.8c0,0.5,0.4,0.8,0.8,0.8h27.7
		C1363.9,455.3,1364.3,454.9,1364.3,454.5z"/>
</g>
<g>
	<path class="st0" d="M1396.2,454.5v-34.8c0-0.5-0.4-0.8-0.8-0.8h-27.7c-0.5,0-0.8,0.4-0.8,0.8v34.8c0,0.5,0.4,0.8,0.8,0.8h27.7
		C1395.9,455.3,1396.2,454.9,1396.2,454.5z"/>
</g>
<g>
	<path class="st0" d="M1428.4,454.5v-34.8c0-0.5-0.4-0.8-0.8-0.8h-27.7c-0.4,0-0.8,0.4-0.8,0.8v34.8c0,0.5,0.4,0.8,0.8,0.8h27.7
		C1428,455.3,1428.4,454.9,1428.4,454.5z"/>
</g>
<g>
	<path class="st0" d="M1460.5,454.5v-34.8c0-0.5-0.4-0.8-0.8-0.8H1432c-0.5,0-0.8,0.4-0.8,0.8v34.8c0,0.5,0.4,0.8,0.8,0.8h27.7
		C1460.1,455.3,1460.5,454.9,1460.5,454.5z"/>
</g>
<g>
	<path class="st0" d="M1492.3,454.5v-34.8c0-0.5-0.4-0.8-0.8-0.8h-27.7c-0.4,0-0.8,0.4-0.8,0.8v34.8c0,0.5,0.4,0.8,0.8,0.8h27.7
		C1491.9,455.3,1492.3,454.9,1492.3,454.5z"/>
</g>
<g>
	<path class="st0" d="M1524.5,454.5v-34.8c0-0.5-0.4-0.8-0.8-0.8H1496c-0.5,0-0.8,0.4-0.8,0.8v34.8c0,0.5,0.4,0.8,0.8,0.8h27.7
		C1524.1,455.3,1524.5,454.9,1524.5,454.5z"/>
</g>
<g>
	<path class="st0" d="M1556.5,454.5v-34.8c0-0.5-0.4-0.8-0.8-0.8H1528c-0.5,0-0.8,0.4-0.8,0.8v34.8c0,0.5,0.4,0.8,0.8,0.8h27.7
		C1556.1,455.3,1556.5,454.9,1556.5,454.5z"/>
</g>
<g>
	<path class="st0" d="M1588.8,454.5v-34.8c0-0.5-0.4-0.8-0.8-0.8h-27.7c-0.4,0-0.8,0.4-0.8,0.8v34.8c0,0.5,0.4,0.8,0.8,0.8h27.7
		C1588.4,455.3,1588.8,454.9,1588.8,454.5z"/>
</g>
<g>
	<path class="st0" d="M1106.3,535.6v-46.3c0-0.5-0.4-0.9-0.9-0.9h-27.6c-0.5,0-0.9,0.4-0.9,0.9v46.3c0,0.5,0.4,0.9,0.9,0.9h27.6
		C1105.9,536.5,1106.3,536.1,1106.3,535.6z"/>
</g>
<g>
	<path class="st0" d="M1139,535.6v-46.3c0-0.5-0.4-0.9-0.9-0.9h-27.6c-0.5,0-0.9,0.4-0.9,0.9v46.3c0,0.5,0.4,0.9,0.9,0.9h27.6
		C1138.5,536.5,1139,536.1,1139,535.6z"/>
</g>
<g>
	<path class="st0" d="M1171.6,535.6v-46.3c0-0.5-0.4-0.9-0.9-0.9H1143c-0.5,0-0.9,0.4-0.9,0.9v46.3c0,0.5,0.4,0.9,0.9,0.9h27.6
		C1171.1,536.5,1171.6,536.1,1171.6,535.6z"/>
</g>
<g>
	<path class="st0" d="M1203.9,535.6v-46.3c0-0.5-0.4-0.9-0.9-0.9h-27.6c-0.5,0-0.9,0.4-0.9,0.9v46.3c0,0.5,0.4,0.9,0.9,0.9h27.6
		C1203.5,536.5,1203.9,536.1,1203.9,535.6z"/>
</g>
<g>
	<path class="st0" d="M1236.6,535.6v-46.3c0-0.5-0.4-0.9-0.9-0.9H1208c-0.5,0-0.9,0.4-0.9,0.9v46.3c0,0.5,0.4,0.9,0.9,0.9h27.6
		C1236.1,536.5,1236.6,536.1,1236.6,535.6z"/>
</g>
<g>
	<path class="st0" d="M1269.1,535.6v-46.3c0-0.5-0.4-0.9-0.9-0.9h-27.6c-0.5,0-0.9,0.4-0.9,0.9v46.3c0,0.5,0.4,0.9,0.9,0.9h27.6
		C1268.7,536.5,1269.1,536.1,1269.1,535.6z"/>
</g>
<g>
	<path class="st0" d="M1301.6,535.6v-46.3c0-0.5-0.4-0.9-0.9-0.9h-27.6c-0.5,0-0.9,0.4-0.9,0.9v46.3c0,0.5,0.4,0.9,0.9,0.9h27.6
		C1301.2,536.5,1301.6,536.1,1301.6,535.6z"/>
</g>
<g>
	<path class="st0" d="M1334.3,535.6v-46.3c0-0.5-0.4-0.9-0.9-0.9h-27.6c-0.5,0-0.9,0.4-0.9,0.9v46.3c0,0.5,0.4,0.9,0.9,0.9h27.6
		C1333.9,536.5,1334.3,536.1,1334.3,535.6z"/>
</g>
<g>
	<path class="st0" d="M1366.7,535.6v-46.3c0-0.5-0.4-0.9-0.9-0.9h-27.6c-0.5,0-0.9,0.4-0.9,0.9v46.3c0,0.5,0.4,0.9,0.9,0.9h27.6
		C1366.3,536.5,1366.7,536.1,1366.7,535.6z"/>
</g>
<g>
	<path class="st0" d="M1399.4,535.6v-46.3c0-0.5-0.4-0.9-0.9-0.9h-27.6c-0.5,0-0.9,0.4-0.9,0.9v46.3c0,0.5,0.4,0.9,0.9,0.9h27.6
		C1399,536.5,1399.4,536.1,1399.4,535.6z"/>
</g>
<g>
	<path class="st0" d="M1432.1,535.6v-46.3c0-0.5-0.4-0.9-0.9-0.9h-27.6c-0.5,0-0.9,0.4-0.9,0.9v46.3c0,0.5,0.4,0.9,0.9,0.9h27.6
		C1431.6,536.5,1432.1,536.1,1432.1,535.6z"/>
</g>
<g>
	<path class="st0" d="M1464.6,535.6v-46.3c0-0.5-0.4-0.9-0.9-0.9H1436c-0.5,0-0.9,0.4-0.9,0.9v46.3c0,0.5,0.4,0.9,0.9,0.9h27.6
		C1464.1,536.5,1464.6,536.1,1464.6,535.6z"/>
</g>
<g>
	<path class="st0" d="M1497.2,535.6v-46.3c0-0.5-0.4-0.9-0.9-0.9h-27.6c-0.5,0-0.9,0.4-0.9,0.9v46.3c0,0.5,0.4,0.9,0.9,0.9h27.6
		C1496.8,536.5,1497.2,536.1,1497.2,535.6z"/>
</g>
<g>
	<path class="st0" d="M1529.9,535.6v-46.3c0-0.5-0.4-0.9-0.9-0.9h-27.6c-0.5,0-0.9,0.4-0.9,0.9v46.3c0,0.5,0.4,0.9,0.9,0.9h27.6
		C1529.5,536.5,1529.9,536.1,1529.9,535.6z"/>
</g>
<g>
	<path class="st0" d="M1562.8,535.6v-46.3c0-0.5-0.4-0.9-0.9-0.9h-27.6c-0.5,0-0.9,0.4-0.9,0.9v46.3c0,0.5,0.4,0.9,0.9,0.9h27.6
		C1562.4,536.5,1562.8,536.1,1562.8,535.6z"/>
</g>
<g>
	<path class="st0" d="M1594.8,535.6v-46.3c0-0.5-0.4-0.9-0.9-0.9h-27.6c-0.5,0-0.9,0.4-0.9,0.9v46.3c0,0.5,0.4,0.9,0.9,0.9h27.6
		C1594.4,536.5,1594.8,536.1,1594.8,535.6z"/>
</g>
<g>
	<path class="st0" d="M1106.3,587.8v-46.3c0-0.5-0.4-0.9-0.9-0.9h-27.6c-0.5,0-0.9,0.4-0.9,0.9v46.3c0,0.5,0.4,0.9,0.9,0.9h27.6
		C1105.9,588.7,1106.3,588.3,1106.3,587.8z"/>
</g>
<g>
	<path class="st0" d="M1139,587.8v-46.3c0-0.5-0.4-0.9-0.9-0.9h-27.6c-0.5,0-0.9,0.4-0.9,0.9v46.3c0,0.5,0.4,0.9,0.9,0.9h27.6
		C1138.5,588.7,1139,588.3,1139,587.8z"/>
</g>
<g>
	<path class="st0" d="M1171.6,587.8v-46.3c0-0.5-0.4-0.9-0.9-0.9H1143c-0.5,0-0.9,0.4-0.9,0.9v46.3c0,0.5,0.4,0.9,0.9,0.9h27.6
		C1171.1,588.7,1171.6,588.3,1171.6,587.8z"/>
</g>
<g>
	<path class="st0" d="M1203.9,587.8v-46.3c0-0.5-0.4-0.9-0.9-0.9h-27.6c-0.5,0-0.9,0.4-0.9,0.9v46.3c0,0.5,0.4,0.9,0.9,0.9h27.6
		C1203.5,588.7,1203.9,588.3,1203.9,587.8z"/>
</g>
<g>
	<path class="st0" d="M1236.6,587.8v-46.3c0-0.5-0.4-0.9-0.9-0.9H1208c-0.5,0-0.9,0.4-0.9,0.9v46.3c0,0.5,0.4,0.9,0.9,0.9h27.6
		C1236.1,588.7,1236.6,588.3,1236.6,587.8z"/>
</g>
<g>
	<path class="st0" d="M1269.1,587.8v-46.3c0-0.5-0.4-0.9-0.9-0.9h-27.6c-0.5,0-0.9,0.4-0.9,0.9v46.3c0,0.5,0.4,0.9,0.9,0.9h27.6
		C1268.7,588.7,1269.1,588.3,1269.1,587.8z"/>
</g>
<g>
	<path class="st0" d="M1301.6,587.8v-46.3c0-0.5-0.4-0.9-0.9-0.9h-27.6c-0.5,0-0.9,0.4-0.9,0.9v46.3c0,0.5,0.4,0.9,0.9,0.9h27.6
		C1301.2,588.7,1301.6,588.3,1301.6,587.8z"/>
</g>
<g>
	<path class="st0" d="M1334.3,587.8v-46.3c0-0.5-0.4-0.9-0.9-0.9h-27.6c-0.5,0-0.9,0.4-0.9,0.9v46.3c0,0.5,0.4,0.9,0.9,0.9h27.6
		C1333.9,588.7,1334.3,588.3,1334.3,587.8z"/>
</g>
<g>
	<path class="st0" d="M1366.7,587.8v-46.3c0-0.5-0.4-0.9-0.9-0.9h-27.6c-0.5,0-0.9,0.4-0.9,0.9v46.3c0,0.5,0.4,0.9,0.9,0.9h27.6
		C1366.3,588.7,1366.7,588.3,1366.7,587.8z"/>
</g>
<g>
	<path class="st0" d="M1399.4,587.8v-46.3c0-0.5-0.4-0.9-0.9-0.9h-27.6c-0.5,0-0.9,0.4-0.9,0.9v46.3c0,0.5,0.4,0.9,0.9,0.9h27.6
		C1399,588.7,1399.4,588.3,1399.4,587.8z"/>
</g>
<g>
	<path class="st0" d="M1432.1,587.8v-46.3c0-0.5-0.4-0.9-0.9-0.9h-27.6c-0.5,0-0.9,0.4-0.9,0.9v46.3c0,0.5,0.4,0.9,0.9,0.9h27.6
		C1431.6,588.7,1432.1,588.3,1432.1,587.8z"/>
</g>
<g>
	<path class="st0" d="M1464.6,587.8v-46.3c0-0.5-0.4-0.9-0.9-0.9H1436c-0.5,0-0.9,0.4-0.9,0.9v46.3c0,0.5,0.4,0.9,0.9,0.9h27.6
		C1464.1,588.7,1464.6,588.3,1464.6,587.8z"/>
</g>
<g>
	<path class="st0" d="M1497.2,587.8v-46.3c0-0.5-0.4-0.9-0.9-0.9h-27.6c-0.5,0-0.9,0.4-0.9,0.9v46.3c0,0.5,0.4,0.9,0.9,0.9h27.6
		C1496.8,588.7,1497.2,588.3,1497.2,587.8z"/>
</g>
<g>
	<path class="st0" d="M1529.9,587.8v-46.3c0-0.5-0.4-0.9-0.9-0.9h-27.6c-0.5,0-0.9,0.4-0.9,0.9v46.3c0,0.5,0.4,0.9,0.9,0.9h27.6
		C1529.5,588.7,1529.9,588.3,1529.9,587.8z"/>
</g>
<g>
	<path class="st0" d="M1562.8,587.8v-46.3c0-0.5-0.4-0.9-0.9-0.9h-27.6c-0.5,0-0.9,0.4-0.9,0.9v46.3c0,0.5,0.4,0.9,0.9,0.9h27.6
		C1562.4,588.7,1562.8,588.3,1562.8,587.8z"/>
</g>
<g>
	<path class="st0" d="M1594.8,587.8v-46.3c0-0.5-0.4-0.9-0.9-0.9h-27.6c-0.5,0-0.9,0.4-0.9,0.9v46.3c0,0.5,0.4,0.9,0.9,0.9h27.6
		C1594.4,588.7,1594.8,588.3,1594.8,587.8z"/>
</g>
<g>
	<path class="st0" d="M1107.6,653.3v-35.5c0-0.5-0.4-0.8-0.8-0.8h-27.9c-0.5,0-0.8,0.4-0.8,0.8v35.5c0,0.5,0.4,0.8,0.8,0.8h27.9
		C1107.2,654.1,1107.6,653.7,1107.6,653.3z"/>
</g>
<g>
	<path class="st0" d="M1108.6,974.6v-34.4c0-0.5-0.4-0.9-0.9-0.9h-32.2c-0.5,0-0.9,0.4-0.9,0.9v34.4c0,0.5,0.4,0.9,0.9,0.9h32.2
		C1108.2,975.5,1108.6,975.1,1108.6,974.6z"/>
</g>
<g>
	<path class="st0" d="M1108.9,1061.8v-32.4c0-0.5-0.4-0.9-0.9-0.9h-32.5c-0.5,0-0.9,0.4-0.9,0.9v32.4c0,0.5,0.4,0.9,0.9,0.9h32.5
		C1108.5,1062.7,1108.9,1062.3,1108.9,1061.8z"/>
</g>
<g>
	<path class="st0" d="M1108.9,1099.1v-32.4c0-0.5-0.4-0.9-0.9-0.9h-32.5c-0.5,0-0.9,0.4-0.9,0.9v32.4c0,0.5,0.4,0.9,0.9,0.9h32.5
		C1108.5,1100,1108.9,1099.6,1108.9,1099.1z"/>
</g>
<g>
	<path class="st0" d="M1108.9,1136.6v-32.4c0-0.5-0.4-0.9-0.9-0.9h-32.5c-0.5,0-0.9,0.4-0.9,0.9v32.4c0,0.5,0.4,0.9,0.9,0.9h32.5
		C1108.5,1137.4,1108.9,1137,1108.9,1136.6z"/>
</g>
<g>
	<path class="st0" d="M1108.9,1174.2v-32.4c0-0.5-0.4-0.9-0.9-0.9h-32.5c-0.5,0-0.9,0.4-0.9,0.9v32.4c0,0.5,0.4,0.9,0.9,0.9h32.5
		C1108.5,1175,1108.9,1174.7,1108.9,1174.2z"/>
</g>
<g>
	<path class="st0" d="M1108.9,1239.1v-30.7c0-0.5-0.4-0.8-0.8-0.8h-32.5c-0.5,0-0.8,0.4-0.8,0.8v30.7c0,0.5,0.4,0.8,0.8,0.8h32.5
		C1108.5,1239.9,1108.9,1239.5,1108.9,1239.1z"/>
</g>
<g>
	<path class="st0" d="M1108.9,1275.3v-30.7c0-0.5-0.4-0.8-0.8-0.8h-32.5c-0.5,0-0.8,0.4-0.8,0.8v30.7c0,0.5,0.4,0.8,0.8,0.8h32.5
		C1108.5,1276.2,1108.9,1275.8,1108.9,1275.3z"/>
</g>
<g>
	<path class="st0" d="M1108.9,1311.7v-30.6c0-0.5-0.4-0.8-0.8-0.8h-32.5c-0.5,0-0.8,0.4-0.8,0.8v30.6c0,0.5,0.4,0.8,0.8,0.8h32.5
		C1108.5,1312.5,1108.9,1312.1,1108.9,1311.7z"/>
</g>
<g>
	<path class="st0" d="M1146.4,1258.8v-50.1c0-0.6-0.5-1.1-1.1-1.1h-32.1c-0.6,0-1.1,0.5-1.1,1.1v50.1c0,0.6,0.5,1.1,1.1,1.1h32.1
		C1145.9,1259.9,1146.4,1259.4,1146.4,1258.8z"/>
</g>
<g>
	<path class="st0" d="M1183.8,1258.8v-50.1c0-0.6-0.5-1.1-1.1-1.1h-32.1c-0.6,0-1.1,0.5-1.1,1.1v50.1c0,0.6,0.5,1.1,1.1,1.1h32.1
		C1183.3,1259.9,1183.8,1259.4,1183.8,1258.8z"/>
</g>
<g>
	<path class="st0" d="M1221.3,1258.8v-50.1c0-0.6-0.5-1.1-1.1-1.1h-32.1c-0.6,0-1.1,0.5-1.1,1.1v50.1c0,0.6,0.5,1.1,1.1,1.1h32.1
		C1220.8,1259.9,1221.3,1259.4,1221.3,1258.8z"/>
</g>
<g>
	<path class="st0" d="M1258.7,1258.8v-50.1c0-0.6-0.5-1.1-1.1-1.1h-32.1c-0.6,0-1.1,0.5-1.1,1.1v50.1c0,0.6,0.5,1.1,1.1,1.1h32.1
		C1258.2,1259.9,1258.7,1259.4,1258.7,1258.8z"/>
</g>
<g>
	<path class="st0" d="M1296.4,1258.8v-50.1c0-0.6-0.5-1.1-1.1-1.1h-32.1c-0.6,0-1.1,0.5-1.1,1.1v50.1c0,0.6,0.5,1.1,1.1,1.1h32.1
		C1295.9,1259.9,1296.4,1259.4,1296.4,1258.8z"/>
</g>
<g>
	<path class="st0" d="M1333.8,1258.8v-50.1c0-0.6-0.5-1.1-1.1-1.1h-32.1c-0.6,0-1.1,0.5-1.1,1.1v50.1c0,0.6,0.5,1.1,1.1,1.1h32.1
		C1333.3,1259.9,1333.8,1259.4,1333.8,1258.8z"/>
</g>
<g>
	<path class="st0" d="M1371.4,1258.8v-50.1c0-0.6-0.5-1.1-1.1-1.1h-32.1c-0.6,0-1.1,0.5-1.1,1.1v50.1c0,0.6,0.5,1.1,1.1,1.1h32.1
		C1370.9,1259.9,1371.4,1259.4,1371.4,1258.8z"/>
</g>
<g>
	<path class="st0" d="M1408.7,1258.8v-50.1c0-0.6-0.5-1.1-1.1-1.1h-32.1c-0.6,0-1.1,0.5-1.1,1.1v50.1c0,0.6,0.5,1.1,1.1,1.1h32.1
		C1408.2,1259.9,1408.7,1259.4,1408.7,1258.8z"/>
</g>
<g>
	<path class="st0" d="M1446,1258.8v-50.1c0-0.6-0.5-1.1-1.1-1.1h-32.1c-0.6,0-1.1,0.5-1.1,1.1v50.1c0,0.6,0.5,1.1,1.1,1.1h32.1
		C1445.6,1259.9,1446,1259.4,1446,1258.8z"/>
</g>
<g>
	<path class="st0" d="M1483.8,1258.8v-50.1c0-0.6-0.5-1.1-1.1-1.1h-32.1c-0.6,0-1.1,0.5-1.1,1.1v50.1c0,0.6,0.5,1.1,1.1,1.1h32.1
		C1483.3,1259.9,1483.8,1259.4,1483.8,1258.8z"/>
</g>
<g>
	<path class="st0" d="M1520.9,1258.8v-50.1c0-0.6-0.5-1.1-1.1-1.1h-32.1c-0.6,0-1.1,0.5-1.1,1.1v50.1c0,0.6,0.5,1.1,1.1,1.1h32.1
		C1520.4,1259.9,1520.9,1259.4,1520.9,1258.8z"/>
</g>
<g>
	<path class="st0" d="M1146.4,1311.4v-47c0-0.6-0.5-1-1-1h-32.1c-0.6,0-1,0.5-1,1v47c0,0.6,0.5,1,1,1h32.1
		C1145.9,1312.5,1146.4,1312,1146.4,1311.4z"/>
</g>
<g>
	<path class="st0" d="M1183.8,1311.4v-47c0-0.6-0.5-1-1-1h-32.1c-0.6,0-1,0.5-1,1v47c0,0.6,0.5,1,1,1h32.1
		C1183.3,1312.5,1183.8,1312,1183.8,1311.4z"/>
</g>
<g>
	<path class="st0" d="M1221.3,1311.4v-47c0-0.6-0.5-1-1-1h-32.1c-0.6,0-1,0.5-1,1v47c0,0.6,0.5,1,1,1h32.1
		C1220.8,1312.5,1221.3,1312,1221.3,1311.4z"/>
</g>
<g>
	<path class="st0" d="M1258.7,1311.4v-47c0-0.6-0.5-1-1-1h-32.1c-0.6,0-1,0.5-1,1v47c0,0.6,0.5,1,1,1h32.1
		C1258.3,1312.5,1258.7,1312,1258.7,1311.4z"/>
</g>
<g>
	<path class="st0" d="M1296.4,1311.4v-47c0-0.6-0.5-1-1-1h-32.1c-0.6,0-1,0.5-1,1v47c0,0.6,0.5,1,1,1h32.1
		C1295.9,1312.5,1296.4,1312,1296.4,1311.4z"/>
</g>
<g>
	<path class="st0" d="M1333.8,1311.4v-47c0-0.6-0.5-1-1-1h-32.1c-0.6,0-1,0.5-1,1v47c0,0.6,0.5,1,1,1h32.1
		C1333.3,1312.5,1333.8,1312,1333.8,1311.4z"/>
</g>
<g>
	<path class="st0" d="M1371.4,1311.4v-47c0-0.6-0.5-1-1-1h-32.1c-0.6,0-1,0.5-1,1v47c0,0.6,0.5,1,1,1h32.1
		C1370.9,1312.5,1371.4,1312,1371.4,1311.4z"/>
</g>
<g>
	<path class="st0" d="M1408.7,1311.4v-47c0-0.6-0.5-1-1-1h-32.1c-0.6,0-1,0.5-1,1v47c0,0.6,0.5,1,1,1h32.1
		C1408.3,1312.5,1408.7,1312,1408.7,1311.4z"/>
</g>
<g>
	<path class="st0" d="M1446,1311.4v-47c0-0.6-0.5-1-1-1h-32.1c-0.6,0-1,0.5-1,1v47c0,0.6,0.5,1,1,1h32.1
		C1445.6,1312.5,1446,1312,1446,1311.4z"/>
</g>
<g>
	<path class="st0" d="M1483.8,1311.4v-47c0-0.6-0.5-1-1-1h-32.1c-0.6,0-1,0.5-1,1v47c0,0.6,0.5,1,1,1h32.1
		C1483.3,1312.5,1483.8,1312,1483.8,1311.4z"/>
</g>
<g>
	<path class="st0" d="M1520.9,1311.4v-47c0-0.6-0.5-1-1-1h-32.1c-0.6,0-1,0.5-1,1v47c0,0.6,0.5,1,1,1h32.1
		C1520.4,1312.5,1520.9,1312,1520.9,1311.4z"/>
</g>
<g>
	<path class="st0" d="M1145.4,994.8v-54.4c0-0.6-0.5-1.1-1.1-1.1h-31.7c-0.6,0-1.1,0.5-1.1,1.1v54.4c0,0.6,0.5,1.1,1.1,1.1h31.7
		C1144.9,995.9,1145.4,995.4,1145.4,994.8z"/>
</g>
<g>
	<path class="st0" d="M1146.6,1096.5v-66.9c0-0.7-0.5-1.2-1.2-1.2h-31.7c-0.7,0-1.2,0.5-1.2,1.2v66.9c0,0.7,0.5,1.2,1.2,1.2h31.7
		C1146,1097.8,1146.6,1097.2,1146.6,1096.5z"/>
</g>
<g>
	<path class="st0" d="M1184,1096.5v-66.9c0-0.7-0.5-1.2-1.2-1.2H1151c-0.7,0-1.2,0.5-1.2,1.2v66.9c0,0.7,0.5,1.2,1.2,1.2h31.7
		C1183.4,1097.8,1184,1097.2,1184,1096.5z"/>
</g>
<g>
	<path class="st0" d="M1221.5,1096.5v-66.9c0-0.7-0.5-1.2-1.2-1.2h-31.7c-0.7,0-1.2,0.5-1.2,1.2v66.9c0,0.7,0.5,1.2,1.2,1.2h31.7
		C1220.9,1097.8,1221.5,1097.2,1221.5,1096.5z"/>
</g>
<g>
	<path class="st0" d="M1259.2,1096.5v-66.9c0-0.7-0.5-1.2-1.2-1.2h-31.7c-0.7,0-1.2,0.5-1.2,1.2v66.9c0,0.7,0.5,1.2,1.2,1.2h31.7
		C1258.7,1097.8,1259.2,1097.2,1259.2,1096.5z"/>
</g>
<g>
	<path class="st0" d="M1296.4,1096.5v-66.9c0-0.7-0.5-1.2-1.2-1.2h-31.7c-0.7,0-1.2,0.5-1.2,1.2v66.9c0,0.7,0.5,1.2,1.2,1.2h31.7
		C1295.9,1097.8,1296.4,1097.2,1296.4,1096.5z"/>
</g>
<g>
	<path class="st0" d="M1334.3,1096.5v-66.9c0-0.7-0.5-1.2-1.2-1.2h-31.7c-0.7,0-1.2,0.5-1.2,1.2v66.9c0,0.7,0.5,1.2,1.2,1.2h31.7
		C1333.8,1097.8,1334.3,1097.2,1334.3,1096.5z"/>
</g>
<g>
	<path class="st0" d="M1371.6,1096.5v-66.9c0-0.7-0.5-1.2-1.2-1.2h-31.7c-0.7,0-1.2,0.5-1.2,1.2v66.9c0,0.7,0.5,1.2,1.2,1.2h31.7
		C1371,1097.8,1371.6,1097.2,1371.6,1096.5z"/>
</g>
<g>
	<path class="st0" d="M1409.3,1096.5v-66.9c0-0.7-0.5-1.2-1.2-1.2h-31.7c-0.7,0-1.2,0.5-1.2,1.2v66.9c0,0.7,0.5,1.2,1.2,1.2h31.7
		C1408.8,1097.8,1409.3,1097.2,1409.3,1096.5z"/>
</g>
<g>
	<path class="st0" d="M1446.6,1096.5v-66.9c0-0.7-0.5-1.2-1.2-1.2h-31.7c-0.7,0-1.2,0.5-1.2,1.2v66.9c0,0.7,0.5,1.2,1.2,1.2h31.7
		C1446,1097.8,1446.6,1097.2,1446.6,1096.5z"/>
</g>
<g>
	<path class="st0" d="M1484.4,1096.5v-66.9c0-0.7-0.5-1.2-1.2-1.2h-31.7c-0.7,0-1.2,0.5-1.2,1.2v66.9c0,0.7,0.5,1.2,1.2,1.2h31.7
		C1483.9,1097.8,1484.4,1097.2,1484.4,1096.5z"/>
</g>
<g>
	<path class="st0" d="M1521.9,1096.5v-66.9c0-0.7-0.5-1.2-1.2-1.2H1489c-0.7,0-1.2,0.5-1.2,1.2v66.9c0,0.7,0.5,1.2,1.2,1.2h31.7
		C1521.4,1097.8,1521.9,1097.2,1521.9,1096.5z"/>
</g>
<g>
	<path class="st0" d="M1559.2,1096.5v-66.9c0-0.7-0.5-1.2-1.2-1.2h-31.7c-0.7,0-1.2,0.5-1.2,1.2v66.9c0,0.7,0.5,1.2,1.2,1.2h31.7
		C1558.7,1097.8,1559.2,1097.2,1559.2,1096.5z"/>
</g>
<g>
	<path class="st0" d="M1597.1,1096.5v-66.9c0-0.7-0.5-1.2-1.2-1.2h-31.7c-0.7,0-1.2,0.5-1.2,1.2v66.9c0,0.7,0.5,1.2,1.2,1.2h31.7
		C1596.5,1097.8,1597.1,1097.2,1597.1,1096.5z"/>
</g>
<g>
	<path class="st0" d="M1146.6,1173.8v-71c0-0.7-0.6-1.2-1.2-1.2h-31.7c-0.7,0-1.2,0.6-1.2,1.2v71c0,0.7,0.6,1.2,1.2,1.2h31.7
		C1146,1175,1146.6,1174.5,1146.6,1173.8z"/>
</g>
<g>
	<path class="st0" d="M1184,1173.8v-71c0-0.7-0.6-1.2-1.2-1.2h-31.7c-0.7,0-1.2,0.6-1.2,1.2v71c0,0.7,0.6,1.2,1.2,1.2h31.7
		C1183.4,1175,1184,1174.5,1184,1173.8z"/>
</g>
<g>
	<path class="st0" d="M1221.5,1173.8v-71c0-0.7-0.6-1.2-1.2-1.2h-31.7c-0.7,0-1.2,0.6-1.2,1.2v71c0,0.7,0.6,1.2,1.2,1.2h31.7
		C1220.9,1175,1221.5,1174.5,1221.5,1173.8z"/>
</g>
<g>
	<path class="st0" d="M1259.2,1173.8v-71c0-0.7-0.6-1.2-1.2-1.2h-31.7c-0.7,0-1.2,0.6-1.2,1.2v71c0,0.7,0.6,1.2,1.2,1.2h31.7
		C1258.7,1175,1259.2,1174.5,1259.2,1173.8z"/>
</g>
<g>
	<path class="st0" d="M1296.4,1173.8v-71c0-0.7-0.6-1.2-1.2-1.2h-31.7c-0.7,0-1.2,0.6-1.2,1.2v71c0,0.7,0.6,1.2,1.2,1.2h31.7
		C1295.8,1175,1296.4,1174.5,1296.4,1173.8z"/>
</g>
<g>
	<path class="st0" d="M1334.3,1173.8v-71c0-0.7-0.6-1.2-1.2-1.2h-31.7c-0.7,0-1.2,0.6-1.2,1.2v71c0,0.7,0.6,1.2,1.2,1.2h31.7
		C1333.8,1175,1334.3,1174.5,1334.3,1173.8z"/>
</g>
<g>
	<path class="st0" d="M1371.6,1173.8v-71c0-0.7-0.6-1.2-1.2-1.2h-31.7c-0.7,0-1.2,0.6-1.2,1.2v71c0,0.7,0.6,1.2,1.2,1.2h31.7
		C1371,1175,1371.6,1174.5,1371.6,1173.8z"/>
</g>
<g>
	<path class="st0" d="M1409.3,1173.8v-71c0-0.7-0.6-1.2-1.2-1.2h-31.7c-0.7,0-1.2,0.6-1.2,1.2v71c0,0.7,0.6,1.2,1.2,1.2h31.7
		C1408.8,1175,1409.3,1174.5,1409.3,1173.8z"/>
</g>
<g>
	<path class="st0" d="M1446.6,1173.8v-71c0-0.7-0.6-1.2-1.2-1.2h-31.7c-0.7,0-1.2,0.6-1.2,1.2v71c0,0.7,0.6,1.2,1.2,1.2h31.7
		C1446,1175,1446.6,1174.5,1446.6,1173.8z"/>
</g>
<g>
	<path class="st0" d="M1484.4,1173.8v-71c0-0.7-0.6-1.2-1.2-1.2h-31.7c-0.7,0-1.2,0.6-1.2,1.2v71c0,0.7,0.6,1.2,1.2,1.2h31.7
		C1483.8,1175,1484.4,1174.5,1484.4,1173.8z"/>
</g>
<g>
	<path class="st0" d="M1521.9,1173.8v-71c0-0.7-0.6-1.2-1.2-1.2H1489c-0.7,0-1.2,0.6-1.2,1.2v71c0,0.7,0.6,1.2,1.2,1.2h31.7
		C1521.3,1175,1521.9,1174.5,1521.9,1173.8z"/>
</g>
<g>
	<path class="st0" d="M1559.2,1173.8v-71c0-0.7-0.6-1.2-1.2-1.2h-31.7c-0.7,0-1.2,0.6-1.2,1.2v71c0,0.7,0.6,1.2,1.2,1.2h31.7
		C1558.7,1175,1559.2,1174.5,1559.2,1173.8z"/>
</g>
<g>
	<path class="st0" d="M1597.1,1173.8v-71c0-0.7-0.6-1.2-1.2-1.2h-31.7c-0.7,0-1.2,0.6-1.2,1.2v71c0,0.7,0.6,1.2,1.2,1.2h31.7
		C1596.5,1175,1597.1,1174.5,1597.1,1173.8z"/>
</g>
<g>
	<path class="st0" d="M1182.3,994.8v-54.4c0-0.6-0.5-1.1-1.1-1.1h-31.7c-0.6,0-1.1,0.5-1.1,1.1v54.4c0,0.6,0.5,1.1,1.1,1.1h31.7
		C1181.9,995.9,1182.3,995.4,1182.3,994.8z"/>
</g>
<g>
	<path class="st0" d="M1219.3,994.8v-54.4c0-0.6-0.5-1.1-1.1-1.1h-31.7c-0.6,0-1.1,0.5-1.1,1.1v54.4c0,0.6,0.5,1.1,1.1,1.1h31.7
		C1218.9,995.9,1219.3,995.4,1219.3,994.8z"/>
</g>
<g>
	<path class="st0" d="M1256.3,994.8v-54.4c0-0.6-0.5-1.1-1.1-1.1h-31.7c-0.6,0-1.1,0.5-1.1,1.1v54.4c0,0.6,0.5,1.1,1.1,1.1h31.7
		C1255.8,995.9,1256.3,995.4,1256.3,994.8z"/>
</g>
<g>
	<path class="st0" d="M1293.2,994.8v-54.4c0-0.6-0.5-1.1-1.1-1.1h-31.7c-0.6,0-1.1,0.5-1.1,1.1v54.4c0,0.6,0.5,1.1,1.1,1.1h31.7
		C1292.7,995.9,1293.2,995.4,1293.2,994.8z"/>
</g>
<g>
	<path class="st0" d="M1330.2,994.8v-54.4c0-0.6-0.5-1.1-1.1-1.1h-31.7c-0.6,0-1.1,0.5-1.1,1.1v54.4c0,0.6,0.5,1.1,1.1,1.1h31.7
		C1329.7,995.9,1330.2,995.4,1330.2,994.8z"/>
</g>
<g>
	<path class="st0" d="M1367.2,994.8v-54.4c0-0.6-0.5-1.1-1.1-1.1h-31.7c-0.6,0-1.1,0.5-1.1,1.1v54.4c0,0.6,0.5,1.1,1.1,1.1h31.7
		C1366.7,995.9,1367.2,995.4,1367.2,994.8z"/>
</g>
<g>
	<path class="st0" d="M1404,994.8v-54.4c0-0.6-0.5-1.1-1.1-1.1h-31.7c-0.6,0-1.1,0.5-1.1,1.1v54.4c0,0.6,0.5,1.1,1.1,1.1h31.7
		C1403.5,995.9,1404,995.4,1404,994.8z"/>
</g>
<g>
	<path class="st0" d="M1441.1,994.8v-54.4c0-0.6-0.5-1.1-1.1-1.1h-31.7c-0.6,0-1.1,0.5-1.1,1.1v54.4c0,0.6,0.5,1.1,1.1,1.1h31.7
		C1440.6,995.9,1441.1,995.4,1441.1,994.8z"/>
</g>
<g>
	<path class="st0" d="M1477.9,994.8v-54.4c0-0.6-0.5-1.1-1.1-1.1h-31.7c-0.6,0-1.1,0.5-1.1,1.1v54.4c0,0.6,0.5,1.1,1.1,1.1h31.7
		C1477.4,995.9,1477.9,995.4,1477.9,994.8z"/>
</g>
<g>
	<path class="st0" d="M1515,994.8v-54.4c0-0.6-0.5-1.1-1.1-1.1h-31.7c-0.6,0-1.1,0.5-1.1,1.1v54.4c0,0.6,0.5,1.1,1.1,1.1h31.7
		C1514.5,995.9,1515,995.4,1515,994.8z"/>
</g>
<g>
	<path class="st0" d="M1551.8,994.8v-54.4c0-0.6-0.5-1.1-1.1-1.1H1519c-0.6,0-1.1,0.5-1.1,1.1v54.4c0,0.6,0.5,1.1,1.1,1.1h31.7
		C1551.3,995.9,1551.8,995.4,1551.8,994.8z"/>
</g>
<g>
	<path class="st0" d="M1588.7,994.8v-54.4c0-0.6-0.5-1.1-1.1-1.1h-31.7c-0.6,0-1.1,0.5-1.1,1.1v54.4c0,0.6,0.5,1.1,1.1,1.1h31.7
		C1588.2,995.9,1588.7,995.4,1588.7,994.8z"/>
</g>
<g>
	<path class="st0" d="M1139.5,653.3v-35.5c0-0.5-0.4-0.8-0.8-0.8h-27.9c-0.5,0-0.8,0.4-0.8,0.8v35.5c0,0.5,0.4,0.8,0.8,0.8h27.9
		C1139.1,654.1,1139.5,653.7,1139.5,653.3z"/>
</g>
<g>
	<path class="st0" d="M1171.6,653.3v-35.5c0-0.5-0.4-0.8-0.8-0.8h-27.9c-0.5,0-0.8,0.4-0.8,0.8v35.5c0,0.5,0.4,0.8,0.8,0.8h27.9
		C1171.2,654.1,1171.6,653.7,1171.6,653.3z"/>
</g>
<g>
	<path class="st0" d="M1203.9,653.3v-35.5c0-0.5-0.4-0.8-0.8-0.8h-27.9c-0.5,0-0.8,0.4-0.8,0.8v35.5c0,0.5,0.4,0.8,0.8,0.8h27.9
		C1203.5,654.1,1203.9,653.7,1203.9,653.3z"/>
</g>
<g>
	<path class="st0" d="M1236.1,653.3v-35.5c0-0.5-0.4-0.8-0.8-0.8h-27.9c-0.5,0-0.8,0.4-0.8,0.8v35.5c0,0.5,0.4,0.8,0.8,0.8h27.9
		C1235.7,654.1,1236.1,653.7,1236.1,653.3z"/>
</g>
<g>
	<path class="st0" d="M1268.1,653.3v-35.5c0-0.5-0.4-0.8-0.8-0.8h-27.9c-0.5,0-0.8,0.4-0.8,0.8v35.5c0,0.5,0.4,0.8,0.8,0.8h27.9
		C1267.7,654.1,1268.1,653.7,1268.1,653.3z"/>
</g>
<g>
	<path class="st0" d="M1300.1,653.3v-35.5c0-0.5-0.4-0.8-0.8-0.8h-27.9c-0.5,0-0.8,0.4-0.8,0.8v35.5c0,0.5,0.4,0.8,0.8,0.8h27.9
		C1299.7,654.1,1300.1,653.7,1300.1,653.3z"/>
</g>
<g>
	<path class="st0" d="M1332,653.3v-35.5c0-0.5-0.4-0.8-0.8-0.8h-27.9c-0.5,0-0.8,0.4-0.8,0.8v35.5c0,0.5,0.4,0.8,0.8,0.8h27.9
		C1331.6,654.1,1332,653.7,1332,653.3z"/>
</g>
<g>
	<path class="st0" d="M1364.2,653.3v-35.5c0-0.5-0.4-0.8-0.8-0.8h-27.9c-0.5,0-0.8,0.4-0.8,0.8v35.5c0,0.5,0.4,0.8,0.8,0.8h27.9
		C1363.8,654.1,1364.2,653.7,1364.2,653.3z"/>
</g>
<g>
	<path class="st0" d="M1396.6,653.3v-35.5c0-0.5-0.4-0.8-0.8-0.8h-27.9c-0.5,0-0.8,0.4-0.8,0.8v35.5c0,0.5,0.4,0.8,0.8,0.8h27.9
		C1396.2,654.1,1396.6,653.7,1396.6,653.3z"/>
</g>
<g>
	<path class="st0" d="M1428.4,653.3v-35.5c0-0.5-0.4-0.8-0.8-0.8h-27.9c-0.5,0-0.8,0.4-0.8,0.8v35.5c0,0.5,0.4,0.8,0.8,0.8h27.9
		C1428.1,654.1,1428.4,653.7,1428.4,653.3z"/>
</g>
<g>
	<path class="st0" d="M1460.4,653.3v-35.5c0-0.5-0.4-0.8-0.8-0.8h-27.9c-0.5,0-0.8,0.4-0.8,0.8v35.5c0,0.5,0.4,0.8,0.8,0.8h27.9
		C1460.1,654.1,1460.4,653.7,1460.4,653.3z"/>
</g>
<g>
	<path class="st0" d="M1492.4,653.3v-35.5c0-0.5-0.4-0.8-0.8-0.8h-27.9c-0.5,0-0.8,0.4-0.8,0.8v35.5c0,0.5,0.4,0.8,0.8,0.8h27.9
		C1492.1,654.1,1492.4,653.7,1492.4,653.3z"/>
</g>
<g>
	<path class="st0" d="M1524.7,653.3v-35.5c0-0.5-0.4-0.8-0.8-0.8H1496c-0.5,0-0.8,0.4-0.8,0.8v35.5c0,0.5,0.4,0.8,0.8,0.8h27.9
		C1524.3,654.1,1524.7,653.7,1524.7,653.3z"/>
</g>
<g>
	<path class="st0" d="M1556.5,653.3v-35.5c0-0.5-0.4-0.8-0.8-0.8h-27.9c-0.5,0-0.8,0.4-0.8,0.8v35.5c0,0.5,0.4,0.8,0.8,0.8h27.9
		C1556.1,654.1,1556.5,653.7,1556.5,653.3z"/>
</g>
<g>
	<path class="st0" d="M1588.9,653.3v-35.5c0-0.5-0.4-0.8-0.8-0.8h-27.9c-0.5,0-0.8,0.4-0.8,0.8v35.5c0,0.5,0.4,0.8,0.8,0.8h27.9
		C1588.5,654.1,1588.9,653.7,1588.9,653.3z"/>
</g>
<g>
	<path class="st0" d="M973.3,403.1v-46.8c0-0.5-0.4-1-1-1h-30c-0.5,0-1,0.4-1,1v46.8c0,0.5,0.4,1,1,1h30
		C972.8,404.1,973.3,403.6,973.3,403.1z"/>
</g>
<g>
	<path class="st0" d="M938.4,403.1v-46.8c0-0.5-0.4-1-1-1h-30c-0.5,0-1,0.4-1,1v46.8c0,0.5,0.4,1,1,1h30
		C937.9,404.1,938.4,403.6,938.4,403.1z"/>
</g>
<g>
	<path class="st0" d="M903.3,403.1v-46.8c0-0.5-0.4-1-1-1h-29.8c-0.5,0-1,0.4-1,1v46.8c0,0.5,0.4,1,1,1h29.8
		C902.9,404.1,903.3,403.6,903.3,403.1z"/>
</g>
<g>
	<path class="st0" d="M868.6,403.1v-46.8c0-0.5-0.4-1-1-1h-30c-0.5,0-1,0.4-1,1v46.8c0,0.5,0.4,1,1,1h30
		C868.1,404.1,868.6,403.6,868.6,403.1z"/>
</g>
<g>
	<path class="st0" d="M833.7,403.1v-46.8c0-0.5-0.4-1-1-1h-30c-0.5,0-1,0.4-1,1v46.8c0,0.5,0.4,1,1,1h30
		C833.2,404.1,833.7,403.6,833.7,403.1z"/>
</g>
<g>
	<path class="st0" d="M798.8,403.1v-46.8c0-0.5-0.4-1-1-1h-30c-0.5,0-1,0.4-1,1v46.8c0,0.5,0.4,1,1,1h30
		C798.4,404.1,798.8,403.6,798.8,403.1z"/>
</g>
<g>
	<path class="st0" d="M763.7,403.1v-46.8c0-0.5-0.4-1-1-1h-30c-0.5,0-1,0.4-1,1v46.8c0,0.5,0.4,1,1,1h30
		C763.2,404.1,763.7,403.6,763.7,403.1z"/>
</g>
<g>
	<path class="st0" d="M728.8,403.3v-46.8c0-0.5-0.4-1-1-1h-30c-0.5,0-1,0.4-1,1v46.8c0,0.5,0.4,1,1,1h30
		C728.3,404.3,728.8,403.8,728.8,403.3z"/>
</g>
<g>
	<path class="st0" d="M1008.2,454.9v-46.4c0-0.5-0.4-1-1-1h-30c-0.5,0-1,0.4-1,1v46.4c0,0.5,0.4,1,1,1h30
		C1007.8,455.9,1008.2,455.5,1008.2,454.9z"/>
</g>
<g>
	<path class="st0" d="M973.3,454.9v-46.4c0-0.5-0.4-1-1-1h-30c-0.5,0-1,0.4-1,1v46.4c0,0.5,0.4,1,1,1h30
		C972.8,455.9,973.3,455.5,973.3,454.9z"/>
</g>
<g>
	<path class="st0" d="M938.4,454.9v-46.4c0-0.5-0.4-1-1-1h-30c-0.5,0-1,0.4-1,1v46.4c0,0.5,0.4,1,1,1h30
		C937.9,455.9,938.4,455.5,938.4,454.9z"/>
</g>
<g>
	<path class="st0" d="M903.3,454.9v-46.4c0-0.5-0.4-1-1-1h-29.9c-0.5,0-1,0.4-1,1v46.4c0,0.5,0.4,1,1,1h29.9
		C902.9,455.9,903.3,455.5,903.3,454.9z"/>
</g>
<g>
	<path class="st0" d="M868.6,454.9v-46.4c0-0.5-0.4-1-1-1h-30c-0.5,0-1,0.4-1,1v46.4c0,0.5,0.4,1,1,1h30
		C868.1,455.9,868.6,455.5,868.6,454.9z"/>
</g>
<g>
	<path class="st0" d="M833.7,454.9v-46.4c0-0.5-0.4-1-1-1h-30c-0.5,0-1,0.4-1,1v46.4c0,0.5,0.4,1,1,1h30
		C833.2,455.9,833.7,455.5,833.7,454.9z"/>
</g>
<g>
	<path class="st0" d="M798.8,454.9v-46.4c0-0.5-0.4-1-1-1h-30c-0.5,0-1,0.4-1,1v46.4c0,0.5,0.4,1,1,1h30
		C798.4,455.9,798.8,455.5,798.8,454.9z"/>
</g>
<g>
	<path class="st0" d="M763.7,454.9v-46.4c0-0.5-0.4-1-1-1h-30c-0.5,0-1,0.4-1,1v46.4c0,0.5,0.4,1,1,1h30
		C763.2,455.9,763.7,455.5,763.7,454.9z"/>
</g>
<g>
	<path class="st0" d="M728.8,455.1v-46.4c0-0.5-0.4-1-1-1h-30c-0.5,0-1,0.4-1,1v46.4c0,0.5,0.4,1,1,1h30
		C728.3,456.1,728.8,455.7,728.8,455.1z"/>
</g>
<g>
	<path class="st0" d="M1008.2,535.7V489c0-0.5-0.4-1-1-1h-30c-0.5,0-1,0.4-1,1v46.7c0,0.5,0.4,1,1,1h30
		C1007.8,536.7,1008.2,536.2,1008.2,535.7z"/>
</g>
<g>
	<path class="st0" d="M973.3,535.7V489c0-0.5-0.4-1-1-1h-30c-0.5,0-1,0.4-1,1v46.7c0,0.5,0.4,1,1,1h30
		C972.8,536.7,973.3,536.2,973.3,535.7z"/>
</g>
<g>
	<path class="st0" d="M938.4,535.7V489c0-0.5-0.4-1-1-1h-30c-0.5,0-1,0.4-1,1v46.7c0,0.5,0.4,1,1,1h30
		C937.9,536.7,938.4,536.2,938.4,535.7z"/>
</g>
<g>
	<path class="st0" d="M903.3,535.7V489c0-0.5-0.4-1-1-1h-30c-0.5,0-1,0.4-1,1v46.7c0,0.5,0.4,1,1,1h30
		C902.9,536.7,903.3,536.2,903.3,535.7z"/>
</g>
<g>
	<path class="st0" d="M868.6,535.7V489c0-0.5-0.4-1-1-1h-29.9c-0.5,0-1,0.4-1,1v46.7c0,0.5,0.4,1,1,1h29.9
		C868.1,536.7,868.6,536.2,868.6,535.7z"/>
</g>
<g>
	<path class="st0" d="M833.7,535.7V489c0-0.5-0.4-1-1-1h-30c-0.5,0-1,0.4-1,1v46.7c0,0.5,0.4,1,1,1h30
		C833.2,536.7,833.7,536.2,833.7,535.7z"/>
</g>
<g>
	<path class="st0" d="M798.8,535.7V489c0-0.5-0.4-1-1-1h-30c-0.5,0-1,0.4-1,1v46.7c0,0.5,0.4,1,1,1h30
		C798.4,536.7,798.8,536.2,798.8,535.7z"/>
</g>
<g>
	<path class="st0" d="M763.7,535.7V489c0-0.5-0.4-1-1-1h-30c-0.5,0-1,0.4-1,1v46.7c0,0.5,0.4,1,1,1h30
		C763.2,536.7,763.7,536.2,763.7,535.7z"/>
</g>
<g>
	<path class="st0" d="M728.8,535.9v-46.7c0-0.5-0.4-1-1-1h-30c-0.5,0-1,0.4-1,1v46.7c0,0.5,0.4,1,1,1h30
		C728.3,536.8,728.8,536.4,728.8,535.9z"/>
</g>
<g>
	<path class="st0" d="M1008.2,587.6v-46.4c0-0.5-0.4-1-1-1h-30c-0.5,0-1,0.4-1,1v46.4c0,0.5,0.4,1,1,1h30
		C1007.8,588.5,1008.2,588.1,1008.2,587.6z"/>
</g>
<g>
	<path class="st0" d="M973.3,587.6v-46.4c0-0.5-0.4-1-1-1h-30c-0.5,0-1,0.4-1,1v46.4c0,0.5,0.4,1,1,1h30
		C972.8,588.5,973.3,588.1,973.3,587.6z"/>
</g>
<g>
	<path class="st0" d="M938.4,587.6v-46.4c0-0.5-0.4-1-1-1h-30c-0.5,0-1,0.4-1,1v46.4c0,0.5,0.4,1,1,1h30
		C937.9,588.5,938.4,588.1,938.4,587.6z"/>
</g>
<g>
	<path class="st0" d="M903.3,587.6v-46.4c0-0.5-0.4-1-1-1h-30c-0.5,0-1,0.4-1,1v46.4c0,0.5,0.4,1,1,1h30
		C902.9,588.5,903.3,588.1,903.3,587.6z"/>
</g>
<g>
	<path class="st0" d="M868.6,587.6v-46.4c0-0.5-0.4-1-1-1h-29.9c-0.5,0-1,0.4-1,1v46.4c0,0.5,0.4,1,1,1h29.9
		C868.1,588.5,868.6,588.1,868.6,587.6z"/>
</g>
<g>
	<path class="st0" d="M833.7,587.6v-46.4c0-0.5-0.4-1-1-1h-30c-0.5,0-1,0.4-1,1v46.4c0,0.5,0.4,1,1,1h30
		C833.2,588.5,833.7,588.1,833.7,587.6z"/>
</g>
<g>
	<path class="st0" d="M798.8,587.6v-46.4c0-0.5-0.4-1-1-1h-30c-0.5,0-1,0.4-1,1v46.4c0,0.5,0.4,1,1,1h30
		C798.4,588.5,798.8,588.1,798.8,587.6z"/>
</g>
<g>
	<path class="st0" d="M763.7,587.6v-46.4c0-0.5-0.4-1-1-1h-30c-0.5,0-1,0.4-1,1v46.4c0,0.5,0.4,1,1,1h30
		C763.2,588.5,763.7,588.1,763.7,587.6z"/>
</g>
<g>
	<path class="st0" d="M728.8,587.7v-46.4c0-0.5-0.4-1-1-1h-30c-0.5,0-1,0.4-1,1v46.4c0,0.5,0.4,1,1,1h30
		C728.3,588.7,728.8,588.3,728.8,587.7z"/>
</g>
<g>
	<path class="st0" d="M769.1,924.9v-52.8c0-0.6-0.5-1.1-1.1-1.1h-32.6c-0.6,0-1.1,0.5-1.1,1.1v52.8c0,0.6,0.5,1.1,1.1,1.1H768
		C768.6,926,769.1,925.5,769.1,924.9z"/>
</g>
<g>
	<path class="st0" d="M730.8,898.5v-26.8c0-0.4-0.4-0.8-0.8-0.8h-33.9c-0.4,0-0.8,0.4-0.8,0.8v26.8c0,0.4,0.4,0.8,0.8,0.8H730
		C730.5,899.3,730.8,899,730.8,898.5z"/>
</g>
<g>
	<path class="st0" d="M730.8,930.9v-26.8c0-0.4-0.4-0.8-0.8-0.8h-33.9c-0.4,0-0.8,0.4-0.8,0.8v26.8c0,0.4,0.4,0.8,0.8,0.8H730
		C730.5,931.7,730.8,931.3,730.8,930.9z"/>
</g>
<g>
	<path class="st0" d="M730.8,963.1v-26.8c0-0.4-0.4-0.8-0.8-0.8h-33.9c-0.4,0-0.8,0.4-0.8,0.8v26.8c0,0.4,0.4,0.8,0.8,0.8H730
		C730.5,963.9,730.8,963.6,730.8,963.1z"/>
</g>
<g>
	<path class="st0" d="M730.8,995.3v-26.8c0-0.4-0.4-0.8-0.8-0.8h-33.9c-0.4,0-0.8,0.4-0.8,0.8v26.8c0,0.4,0.4,0.8,0.8,0.8H730
		C730.5,996.1,730.8,995.7,730.8,995.3z"/>
</g>
<g>
	<path class="st0" d="M807.3,924.9v-52.8c0-0.6-0.5-1.1-1.1-1.1h-32.6c-0.6,0-1.1,0.5-1.1,1.1v52.8c0,0.6,0.5,1.1,1.1,1.1h32.6
		C806.9,926,807.3,925.5,807.3,924.9z"/>
</g>
<g>
	<path class="st0" d="M845.2,924.9v-52.8c0-0.6-0.5-1.1-1.1-1.1h-32.6c-0.6,0-1.1,0.5-1.1,1.1v52.8c0,0.6,0.5,1.1,1.1,1.1h32.6
		C844.7,926,845.2,925.5,845.2,924.9z"/>
</g>
<g>
	<path class="st0" d="M883.8,924.9v-52.8c0-0.6-0.5-1.1-1.1-1.1h-32.6c-0.6,0-1.1,0.5-1.1,1.1v52.8c0,0.6,0.5,1.1,1.1,1.1h32.6
		C883.4,926,883.8,925.5,883.8,924.9z"/>
</g>
<g>
	<path class="st0" d="M921.6,924.9v-52.8c0-0.6-0.5-1.1-1.1-1.1h-32.6c-0.6,0-1.1,0.5-1.1,1.1v52.8c0,0.6,0.5,1.1,1.1,1.1h32.6
		C921.1,926,921.6,925.5,921.6,924.9z"/>
</g>
<g>
	<path class="st0" d="M959.8,924.9v-52.8c0-0.6-0.5-1.1-1.1-1.1h-32.6c-0.6,0-1.1,0.5-1.1,1.1v52.8c0,0.6,0.5,1.1,1.1,1.1h32.6
		C959.4,926,959.8,925.5,959.8,924.9z"/>
</g>
<g>
	<path class="st0" d="M998.2,924.9v-52.8c0-0.6-0.5-1.1-1.1-1.1h-32.6c-0.6,0-1.1,0.5-1.1,1.1v52.8c0,0.6,0.5,1.1,1.1,1.1h32.6
		C997.7,926,998.2,925.5,998.2,924.9z"/>
</g>
<g>
	<path class="st0" d="M769.1,994.9v-64.3c0-0.7-0.5-1.2-1.2-1.2h-32.4c-0.7,0-1.2,0.5-1.2,1.2v64.3c0,0.7,0.5,1.2,1.2,1.2h32.4
		C768.6,996.1,769.1,995.5,769.1,994.9z"/>
</g>
<g>
	<path class="st0" d="M807.3,994.9v-64.3c0-0.7-0.5-1.2-1.2-1.2h-32.4c-0.7,0-1.2,0.5-1.2,1.2v64.3c0,0.7,0.5,1.2,1.2,1.2h32.4
		C806.8,996.1,807.3,995.5,807.3,994.9z"/>
</g>
<g>
	<path class="st0" d="M845.2,994.9v-64.3c0-0.7-0.5-1.2-1.2-1.2h-32.4c-0.7,0-1.2,0.5-1.2,1.2v64.3c0,0.7,0.5,1.2,1.2,1.2H844
		C844.7,996.1,845.2,995.5,845.2,994.9z"/>
</g>
<g>
	<path class="st0" d="M883.8,994.9v-64.3c0-0.7-0.5-1.2-1.2-1.2h-32.4c-0.7,0-1.2,0.5-1.2,1.2v64.3c0,0.7,0.5,1.2,1.2,1.2h32.4
		C883.3,996.1,883.8,995.5,883.8,994.9z"/>
</g>
<g>
	<path class="st0" d="M921.6,994.9v-64.3c0-0.7-0.5-1.2-1.2-1.2H888c-0.7,0-1.2,0.5-1.2,1.2v64.3c0,0.7,0.5,1.2,1.2,1.2h32.4
		C921.1,996.1,921.6,995.5,921.6,994.9z"/>
</g>
<g>
	<path class="st0" d="M959.8,994.9v-64.3c0-0.7-0.5-1.2-1.2-1.2h-32.4c-0.7,0-1.2,0.5-1.2,1.2v64.3c0,0.7,0.5,1.2,1.2,1.2h32.4
		C959.3,996.1,959.8,995.5,959.8,994.9z"/>
</g>
<g>
	<path class="st0" d="M998.2,994.9v-64.3c0-0.7-0.5-1.2-1.2-1.2h-32.4c-0.7,0-1.2,0.5-1.2,1.2v64.3c0,0.7,0.5,1.2,1.2,1.2H997
		C997.7,996.1,998.2,995.5,998.2,994.9z"/>
</g>
<g>
	<path class="st0" d="M730.8,1096.5v-66.9c0-0.7-0.5-1.2-1.2-1.2h-32.4c-0.7,0-1.2,0.5-1.2,1.2v66.9c0,0.7,0.5,1.2,1.2,1.2h32.4
		C730.3,1097.7,730.8,1097.2,730.8,1096.5z"/>
</g>
<g>
	<path class="st0" d="M769.1,1096.5v-66.9c0-0.7-0.5-1.2-1.2-1.2h-32.4c-0.7,0-1.2,0.5-1.2,1.2v66.9c0,0.7,0.5,1.2,1.2,1.2h32.4
		C768.5,1097.7,769.1,1097.2,769.1,1096.5z"/>
</g>
<g>
	<path class="st0" d="M807,1096.5v-66.9c0-0.7-0.5-1.2-1.2-1.2h-32.4c-0.7,0-1.2,0.5-1.2,1.2v66.9c0,0.7,0.5,1.2,1.2,1.2h32.4
		C806.4,1097.7,807,1097.2,807,1096.5z"/>
</g>
<g>
	<path class="st0" d="M845.6,1096.5v-66.9c0-0.7-0.5-1.2-1.2-1.2H812c-0.7,0-1.2,0.5-1.2,1.2v66.9c0,0.7,0.5,1.2,1.2,1.2h32.4
		C845,1097.7,845.6,1097.2,845.6,1096.5z"/>
</g>
<g>
	<path class="st0" d="M883.3,1096.5v-66.9c0-0.7-0.5-1.2-1.2-1.2h-32.4c-0.7,0-1.2,0.5-1.2,1.2v66.9c0,0.7,0.5,1.2,1.2,1.2h32.4
		C882.8,1097.7,883.3,1097.2,883.3,1096.5z"/>
</g>
<g>
	<path class="st0" d="M921.6,1096.5v-66.9c0-0.7-0.5-1.2-1.2-1.2H888c-0.7,0-1.2,0.5-1.2,1.2v66.9c0,0.7,0.5,1.2,1.2,1.2h32.4
		C921,1097.7,921.6,1097.2,921.6,1096.5z"/>
</g>
<g>
	<path class="st0" d="M960,1096.5v-66.9c0-0.7-0.5-1.2-1.2-1.2h-32.4c-0.7,0-1.2,0.5-1.2,1.2v66.9c0,0.7,0.5,1.2,1.2,1.2h32.4
		C959.4,1097.7,960,1097.2,960,1096.5z"/>
</g>
<g>
	<path class="st0" d="M998.1,1096.5v-66.9c0-0.7-0.5-1.2-1.2-1.2h-32.4c-0.7,0-1.2,0.5-1.2,1.2v66.9c0,0.7,0.5,1.2,1.2,1.2h32.4
		C997.5,1097.7,998.1,1097.2,998.1,1096.5z"/>
</g>
<g>
	<path class="st0" d="M1042.8,1061.2v-32c0-0.5-0.4-0.9-0.9-0.9h-39.2c-0.5,0-0.9,0.4-0.9,0.9v32c0,0.5,0.4,0.9,0.9,0.9h39.2
		C1042.4,1062.2,1042.8,1061.8,1042.8,1061.2z"/>
</g>
<g>
	<path class="st0" d="M1042.8,1098.7v-32c0-0.5-0.4-0.9-0.9-0.9h-39.2c-0.5,0-0.9,0.4-0.9,0.9v32c0,0.5,0.4,0.9,0.9,0.9h39.2
		C1042.4,1099.7,1042.8,1099.3,1042.8,1098.7z"/>
</g>
<g>
	<path class="st0" d="M1042.8,1136.5v-32c0-0.5-0.4-0.9-0.9-0.9h-39.2c-0.5,0-0.9,0.4-0.9,0.9v32c0,0.5,0.4,0.9,0.9,0.9h39.2
		C1042.4,1137.4,1042.8,1137,1042.8,1136.5z"/>
</g>
<g>
	<path class="st0" d="M1042.8,1173.7v-32c0-0.5-0.4-0.9-0.9-0.9h-39.2c-0.5,0-0.9,0.4-0.9,0.9v32c0,0.5,0.4,0.9,0.9,0.9h39.2
		C1042.4,1174.7,1042.8,1174.3,1042.8,1173.7z"/>
</g>
<g>
	<path class="st0" d="M730.8,1173.7v-70.8c0-0.7-0.6-1.3-1.3-1.3h-32.3c-0.7,0-1.3,0.6-1.3,1.3v70.8c0,0.7,0.6,1.3,1.3,1.3h32.3
		C730.3,1174.9,730.8,1174.4,730.8,1173.7z"/>
</g>
<g>
	<path class="st0" d="M769.1,1173.7v-70.8c0-0.7-0.6-1.3-1.3-1.3h-32.3c-0.7,0-1.3,0.6-1.3,1.3v70.8c0,0.7,0.6,1.3,1.3,1.3h32.3
		C768.5,1174.9,769.1,1174.4,769.1,1173.7z"/>
</g>
<g>
	<path class="st0" d="M728.6,1262v-53.3c0-0.6-0.5-1.1-1.1-1.1h-30.6c-0.6,0-1.1,0.5-1.1,1.1v53.3c0,0.6,0.5,1.1,1.1,1.1h30.6
		C728.1,1263.1,728.6,1262.6,728.6,1262z"/>
</g>
<g>
	<path class="st0" d="M765.1,1262v-53.3c0-0.6-0.5-1.1-1.1-1.1h-30.6c-0.6,0-1.1,0.5-1.1,1.1v53.3c0,0.6,0.5,1.1,1.1,1.1H764
		C764.7,1263.1,765.1,1262.6,765.1,1262z"/>
</g>
<g>
	<path class="st0" d="M801.6,1262v-53.3c0-0.6-0.5-1.1-1.1-1.1H770c-0.6,0-1.1,0.5-1.1,1.1v53.3c0,0.6,0.5,1.1,1.1,1.1h30.6
		C801.2,1263.1,801.6,1262.6,801.6,1262z"/>
</g>
<g>
	<path class="st0" d="M838.3,1262v-53.3c0-0.6-0.5-1.1-1.1-1.1h-30.6c-0.6,0-1.1,0.5-1.1,1.1v53.3c0,0.6,0.5,1.1,1.1,1.1h30.6
		C837.8,1263.1,838.3,1262.6,838.3,1262z"/>
</g>
<g>
	<path class="st0" d="M874.7,1262v-53.3c0-0.6-0.5-1.1-1.1-1.1H843c-0.6,0-1.1,0.5-1.1,1.1v53.3c0,0.6,0.5,1.1,1.1,1.1h30.6
		C874.2,1263.1,874.7,1262.6,874.7,1262z"/>
</g>
<g>
	<path class="st0" d="M911.4,1262v-53.3c0-0.6-0.5-1.1-1.1-1.1h-30.6c-0.6,0-1.1,0.5-1.1,1.1v53.3c0,0.6,0.5,1.1,1.1,1.1h30.6
		C910.9,1263.1,911.4,1262.6,911.4,1262z"/>
</g>
<g>
	<path class="st0" d="M947.9,1262v-53.3c0-0.6-0.5-1.1-1.1-1.1h-30.6c-0.6,0-1.1,0.5-1.1,1.1v53.3c0,0.6,0.5,1.1,1.1,1.1h30.6
		C947.4,1263.1,947.9,1262.6,947.9,1262z"/>
</g>
<g>
	<path class="st0" d="M728.6,1310.9v-43.7c0-0.5-0.4-1-1-1h-30.8c-0.5,0-1,0.4-1,1v43.7c0,0.5,0.4,1,1,1h30.8
		C728.1,1311.9,728.6,1311.5,728.6,1310.9z"/>
</g>
<g>
	<path class="st0" d="M765.1,1310.9v-43.7c0-0.5-0.4-1-1-1h-30.8c-0.5,0-1,0.4-1,1v43.7c0,0.5,0.4,1,1,1h30.8
		C764.7,1311.9,765.1,1311.5,765.1,1310.9z"/>
</g>
<g>
	<path class="st0" d="M801.6,1310.9v-43.7c0-0.5-0.4-1-1-1h-30.8c-0.5,0-1,0.4-1,1v43.7c0,0.5,0.4,1,1,1h30.8
		C801.2,1311.9,801.6,1311.5,801.6,1310.9z"/>
</g>
<g>
	<path class="st0" d="M838.3,1310.9v-43.7c0-0.5-0.4-1-1-1h-30.8c-0.5,0-1,0.4-1,1v43.7c0,0.5,0.4,1,1,1h30.8
		C837.9,1311.9,838.3,1311.5,838.3,1310.9z"/>
</g>
<g>
	<path class="st0" d="M874.7,1310.9v-43.7c0-0.5-0.4-1-1-1H843c-0.5,0-1,0.4-1,1v43.7c0,0.5,0.4,1,1,1h30.8
		C874.3,1311.9,874.7,1311.5,874.7,1310.9z"/>
</g>
<g>
	<path class="st0" d="M911.4,1310.9v-43.7c0-0.5-0.4-1-1-1h-30.8c-0.5,0-1,0.4-1,1v43.7c0,0.5,0.4,1,1,1h30.8
		C911,1311.9,911.4,1311.5,911.4,1310.9z"/>
</g>
<g>
	<path class="st0" d="M947.9,1310.9v-43.7c0-0.5-0.4-1-1-1h-30.8c-0.5,0-1,0.4-1,1v43.7c0,0.5,0.4,1,1,1h30.8
		C947.5,1311.9,947.9,1311.5,947.9,1310.9z"/>
</g>
<g>
	<path class="st0" d="M728.6,1390.9v-44.7c0-0.5-0.4-1-1-1h-30.8c-0.5,0-1,0.4-1,1v44.7c0,0.5,0.4,1,1,1h30.8
		C728.1,1391.8,728.6,1391.4,728.6,1390.9z"/>
</g>
<g>
	<path class="st0" d="M765.1,1390.9v-44.7c0-0.5-0.4-1-1-1h-30.8c-0.5,0-1,0.4-1,1v44.7c0,0.5,0.4,1,1,1h30.8
		C764.7,1391.8,765.1,1391.4,765.1,1390.9z"/>
</g>
<g>
	<path class="st0" d="M801.6,1390.9v-44.7c0-0.5-0.4-1-1-1h-30.8c-0.5,0-1,0.4-1,1v44.7c0,0.5,0.4,1,1,1h30.8
		C801.2,1391.8,801.6,1391.4,801.6,1390.9z"/>
</g>
<g>
	<path class="st0" d="M838.3,1390.9v-44.7c0-0.5-0.4-1-1-1h-30.8c-0.5,0-1,0.4-1,1v44.7c0,0.5,0.4,1,1,1h30.8
		C837.9,1391.8,838.3,1391.4,838.3,1390.9z"/>
</g>
<g>
	<path class="st0" d="M874.7,1390.9v-44.7c0-0.5-0.4-1-1-1H843c-0.5,0-1,0.4-1,1v44.7c0,0.5,0.4,1,1,1h30.8
		C874.3,1391.8,874.7,1391.4,874.7,1390.9z"/>
</g>
<g>
	<path class="st0" d="M911.4,1390.9v-44.7c0-0.5-0.4-1-1-1h-30.8c-0.5,0-1,0.4-1,1v44.7c0,0.5,0.4,1,1,1h30.8
		C910.9,1391.8,911.4,1391.4,911.4,1390.9z"/>
</g>
<g>
	<path class="st0" d="M947.9,1390.9v-44.7c0-0.5-0.4-1-1-1h-30.8c-0.5,0-1,0.4-1,1v44.7c0,0.5,0.4,1,1,1h30.8
		C947.4,1391.8,947.9,1391.4,947.9,1390.9z"/>
</g>
<g>
	<path class="st0" d="M728.6,1439.9v-43.1c0-0.5-0.4-1-1-1h-30.8c-0.5,0-1,0.4-1,1v43.1c0,0.5,0.4,1,1,1h30.8
		C728.1,1440.9,728.6,1440.4,728.6,1439.9z"/>
</g>
<g>
	<path class="st0" d="M765.1,1439.9v-43.1c0-0.5-0.4-1-1-1h-30.8c-0.5,0-1,0.4-1,1v43.1c0,0.5,0.4,1,1,1h30.8
		C764.7,1440.9,765.1,1440.4,765.1,1439.9z"/>
</g>
<g>
	<path class="st0" d="M801.6,1439.9v-43.1c0-0.5-0.4-1-1-1h-30.8c-0.5,0-1,0.4-1,1v43.1c0,0.5,0.4,1,1,1h30.8
		C801.2,1440.9,801.6,1440.4,801.6,1439.9z"/>
</g>
<g>
	<path class="st0" d="M838.3,1439.9v-43.1c0-0.5-0.4-1-1-1h-30.8c-0.5,0-1,0.4-1,1v43.1c0,0.5,0.4,1,1,1h30.8
		C837.9,1440.9,838.3,1440.4,838.3,1439.9z"/>
</g>
<g>
	<path class="st0" d="M874.7,1439.9v-43.1c0-0.5-0.4-1-1-1H843c-0.5,0-1,0.4-1,1v43.1c0,0.5,0.4,1,1,1h30.8
		C874.3,1440.9,874.7,1440.4,874.7,1439.9z"/>
</g>
<g>
	<path class="st0" d="M911.4,1439.9v-43.1c0-0.5-0.4-1-1-1h-30.8c-0.5,0-1,0.4-1,1v43.1c0,0.5,0.4,1,1,1h30.8
		C911,1440.9,911.4,1440.4,911.4,1439.9z"/>
</g>
<g>
	<path class="st0" d="M947.9,1439.9v-43.1c0-0.5-0.4-1-1-1h-30.8c-0.5,0-1,0.4-1,1v43.1c0,0.5,0.4,1,1,1h30.8
		C947.5,1440.9,947.9,1440.4,947.9,1439.9z"/>
</g>
<g>
	<path class="st0" d="M984.4,1390.9v-44.7c0-0.5-0.4-1-1-1h-30.8c-0.5,0-1,0.4-1,1v44.7c0,0.5,0.4,1,1,1h30.8
		C983.9,1391.8,984.4,1391.4,984.4,1390.9z"/>
</g>
<g>
	<path class="st0" d="M984.4,1439.9v-43.1c0-0.5-0.4-1-1-1h-30.8c-0.5,0-1,0.4-1,1v43.1c0,0.5,0.4,1,1,1h30.8
		C984,1440.9,984.4,1440.4,984.4,1439.9z"/>
</g>
<g>
	<path class="st0" d="M1043,1390.6v-44.1c0-0.7-0.6-1.3-1.3-1.3h-51.8c-0.7,0-1.3,0.6-1.3,1.3v44.1c0,0.7,0.6,1.3,1.3,1.3h51.8
		C1042.5,1391.8,1043,1391.3,1043,1390.6z"/>
</g>
<g>
	<path class="st0" d="M1043,1439.6v-42.5c0-0.7-0.6-1.2-1.2-1.2h-51.9c-0.7,0-1.2,0.6-1.2,1.2v42.5c0,0.7,0.6,1.2,1.2,1.2h51.9
		C1042.5,1440.9,1043,1440.3,1043,1439.6z"/>
</g>
<g>
	<path class="st0" d="M418.6,1594v-36.6c0-0.5-0.4-0.9-0.9-0.9h-29.6c-0.5,0-0.9,0.4-0.9,0.9v36.6c0,0.5,0.4,0.9,0.9,0.9h29.6
		C418.2,1594.8,418.6,1594.4,418.6,1594z"/>
</g>
<g>
	<path class="st0" d="M419.9,1659.7V1623c0-0.5-0.4-0.9-0.9-0.9h-30.6c-0.5,0-0.9,0.4-0.9,0.9v36.6c0,0.5,0.4,0.9,0.9,0.9H419
		C419.5,1660.5,419.9,1660.1,419.9,1659.7z"/>
</g>
<g>
	<path class="st0" d="M456.3,1659.7V1623c0-0.5-0.4-0.9-0.9-0.9h-30.6c-0.5,0-0.9,0.4-0.9,0.9v36.6c0,0.5,0.4,0.9,0.9,0.9h30.6
		C455.9,1660.5,456.3,1660.1,456.3,1659.7z"/>
</g>
<g>
	<path class="st0" d="M492.9,1659.7V1623c0-0.5-0.4-0.9-0.9-0.9h-30.7c-0.5,0-0.9,0.4-0.9,0.9v36.6c0,0.5,0.4,0.9,0.9,0.9H492
		C492.5,1660.5,492.9,1660.1,492.9,1659.7z"/>
</g>
<g>
	<path class="st0" d="M529.8,1659.7V1623c0-0.5-0.4-0.9-0.9-0.9H498c-0.5,0-0.9,0.4-0.9,0.9v36.6c0,0.5,0.4,0.9,0.9,0.9h31
		C529.4,1660.5,529.8,1660.1,529.8,1659.7z"/>
</g>
<g>
	<path class="st0" d="M566.5,1659.7V1623c0-0.5-0.4-0.9-0.9-0.9h-30.9c-0.5,0-0.9,0.4-0.9,0.9v36.6c0,0.5,0.4,0.9,0.9,0.9h30.9
		C566.1,1660.5,566.5,1660.1,566.5,1659.7z"/>
</g>
<g>
	<path class="st0" d="M603,1659.7V1623c0-0.5-0.4-0.9-0.9-0.9h-30.9c-0.5,0-0.9,0.4-0.9,0.9v36.6c0,0.5,0.4,0.9,0.9,0.9h30.9
		C602.6,1660.5,603,1660.1,603,1659.7z"/>
</g>
<g>
	<path class="st0" d="M639.7,1659.7V1623c0-0.5-0.4-0.9-0.9-0.9h-30.9c-0.5,0-0.9,0.4-0.9,0.9v36.6c0,0.5,0.4,0.9,0.9,0.9h30.9
		C639.3,1660.5,639.7,1660.1,639.7,1659.7z"/>
</g>
<g>
	<path class="st0" d="M676.3,1659.7V1623c0-0.5-0.4-0.9-0.9-0.9h-30.9c-0.5,0-0.9,0.4-0.9,0.9v36.6c0,0.5,0.4,0.9,0.9,0.9h30.9
		C675.9,1660.5,676.3,1660.1,676.3,1659.7z"/>
</g>
<g>
	<path class="st0" d="M712.9,1659.7V1623c0-0.5-0.4-0.9-0.9-0.9h-30.9c-0.5,0-0.9,0.4-0.9,0.9v36.6c0,0.5,0.4,0.9,0.9,0.9H712
		C712.5,1660.5,712.9,1660.1,712.9,1659.7z"/>
</g>
<g>
	<path class="st0" d="M749.5,1659.7V1623c0-0.5-0.4-0.9-0.9-0.9h-30.9c-0.5,0-0.9,0.4-0.9,0.9v36.6c0,0.5,0.4,0.9,0.9,0.9h30.9
		C749.1,1660.5,749.5,1660.1,749.5,1659.7z"/>
</g>
<g>
	<path class="st0" d="M786.2,1659.7V1623c0-0.5-0.4-0.9-0.9-0.9h-30.9c-0.5,0-0.9,0.4-0.9,0.9v36.6c0,0.5,0.4,0.9,0.9,0.9h30.9
		C785.8,1660.5,786.2,1660.1,786.2,1659.7z"/>
</g>
<g>
	<path class="st0" d="M822.8,1659.7V1623c0-0.5-0.4-0.9-0.9-0.9H791c-0.5,0-0.9,0.4-0.9,0.9v36.6c0,0.5,0.4,0.9,0.9,0.9h30.9
		C822.4,1660.5,822.8,1660.1,822.8,1659.7z"/>
</g>
<g>
	<path class="st0" d="M859.4,1659.7V1623c0-0.5-0.4-0.9-0.9-0.9h-30.9c-0.5,0-0.9,0.4-0.9,0.9v36.6c0,0.5,0.4,0.9,0.9,0.9h30.9
		C859,1660.5,859.4,1660.1,859.4,1659.7z"/>
</g>
<g>
	<path class="st0" d="M895.9,1659.7V1623c0-0.5-0.4-0.9-0.9-0.9h-30.9c-0.5,0-0.9,0.4-0.9,0.9v36.6c0,0.5,0.4,0.9,0.9,0.9H895
		C895.5,1660.5,895.9,1660.1,895.9,1659.7z"/>
</g>
<g>
	<path class="st0" d="M932.5,1659.7V1623c0-0.5-0.4-0.9-0.9-0.9h-30.9c-0.5,0-0.9,0.4-0.9,0.9v36.6c0,0.5,0.4,0.9,0.9,0.9h30.9
		C932.1,1660.5,932.5,1660.1,932.5,1659.7z"/>
</g>
<g>
	<path class="st0" d="M969.3,1659.7V1623c0-0.5-0.4-0.9-0.9-0.9h-30.9c-0.5,0-0.9,0.4-0.9,0.9v36.6c0,0.5,0.4,0.9,0.9,0.9h30.9
		C968.9,1660.5,969.3,1660.1,969.3,1659.7z"/>
</g>
<g>
	<path class="st0" d="M1005.8,1659.7V1623c0-0.5-0.4-0.9-0.9-0.9H974c-0.5,0-0.9,0.4-0.9,0.9v36.6c0,0.5,0.4,0.9,0.9,0.9h30.9
		C1005.4,1660.5,1005.8,1660.1,1005.8,1659.7z"/>
</g>
<g>
	<path class="st0" d="M1042.5,1659.7V1623c0-0.5-0.4-0.9-0.9-0.9h-30.9c-0.5,0-0.9,0.4-0.9,0.9v36.6c0,0.5,0.4,0.9,0.9,0.9h30.9
		C1042.1,1660.5,1042.5,1660.1,1042.5,1659.7z"/>
</g>
<g>
	<path class="st0" d="M1108.3,1507.4v-34.8c0-0.5-0.4-0.9-0.9-0.9h-32c-0.5,0-0.9,0.4-0.9,0.9v34.8c0,0.5,0.4,0.9,0.9,0.9h32
		C1108,1508.3,1108.3,1507.9,1108.3,1507.4z"/>
</g>
<g>
	<path class="st0" d="M1108.8,1440.3v-44.6c0-0.5-0.4-1-1-1h-32.2c-0.5,0-1,0.4-1,1v44.6c0,0.5,0.4,1,1,1h32.2
		C1108.4,1441.3,1108.8,1440.8,1108.8,1440.3z"/>
</g>
<g>
	<path class="st0" d="M1108.8,1389.4v-46c0-0.6-0.5-1-1-1h-32.2c-0.6,0-1,0.5-1,1v46c0,0.6,0.5,1,1,1h32.2
		C1108.3,1390.4,1108.8,1390,1108.8,1389.4z"/>
</g>
<g>
	<path class="st0" d="M1146.2,1382.3v-39c0-0.5-0.4-0.9-0.9-0.9H1113c-0.5,0-0.9,0.4-0.9,0.9v39c0,0.5,0.4,0.9,0.9,0.9h32.3
		C1145.8,1383.3,1146.2,1382.8,1146.2,1382.3z"/>
</g>
<g>
	<path class="st0" d="M1183.7,1382.3v-39c0-0.5-0.4-0.9-0.9-0.9h-32.3c-0.5,0-0.9,0.4-0.9,0.9v39c0,0.5,0.4,0.9,0.9,0.9h32.3
		C1183.3,1383.3,1183.7,1382.8,1183.7,1382.3z"/>
</g>
<g>
	<path class="st0" d="M1221,1382.3v-39c0-0.5-0.4-0.9-0.9-0.9h-32.3c-0.5,0-0.9,0.4-0.9,0.9v39c0,0.5,0.4,0.9,0.9,0.9h32.3
		C1220.6,1383.3,1221,1382.8,1221,1382.3z"/>
</g>
<g>
	<path class="st0" d="M1258.1,1382.3v-39c0-0.5-0.4-0.9-0.9-0.9h-32.3c-0.5,0-0.9,0.4-0.9,0.9v39c0,0.5,0.4,0.9,0.9,0.9h32.3
		C1257.7,1383.3,1258.1,1382.8,1258.1,1382.3z"/>
</g>
<g>
	<path class="st0" d="M1295.8,1382.3v-39c0-0.5-0.4-0.9-0.9-0.9h-32.3c-0.5,0-0.9,0.4-0.9,0.9v39c0,0.5,0.4,0.9,0.9,0.9h32.3
		C1295.4,1383.3,1295.8,1382.8,1295.8,1382.3z"/>
</g>
<g>
	<path class="st0" d="M1333.2,1382.3v-39c0-0.5-0.4-0.9-0.9-0.9H1300c-0.5,0-0.9,0.4-0.9,0.9v39c0,0.5,0.4,0.9,0.9,0.9h32.3
		C1332.8,1383.3,1333.2,1382.8,1333.2,1382.3z"/>
</g>
<g>
	<path class="st0" d="M1370.4,1382.3v-39c0-0.5-0.4-0.9-0.9-0.9h-32.3c-0.5,0-0.9,0.4-0.9,0.9v39c0,0.5,0.4,0.9,0.9,0.9h32.3
		C1369.9,1383.3,1370.4,1382.8,1370.4,1382.3z"/>
</g>
<g>
	<path class="st0" d="M1407.7,1382.3v-39c0-0.5-0.4-0.9-0.9-0.9h-32.3c-0.5,0-0.9,0.4-0.9,0.9v39c0,0.5,0.4,0.9,0.9,0.9h32.3
		C1407.3,1383.3,1407.7,1382.8,1407.7,1382.3z"/>
</g>
<g>
	<path class="st0" d="M1445.2,1382.3v-39c0-0.5-0.4-0.9-0.9-0.9H1412c-0.5,0-0.9,0.4-0.9,0.9v39c0,0.5,0.4,0.9,0.9,0.9h32.3
		C1444.8,1383.3,1445.2,1382.8,1445.2,1382.3z"/>
</g>
<g>
	<path class="st0" d="M1482.6,1382.3v-39c0-0.5-0.4-0.9-0.9-0.9h-32.3c-0.5,0-0.9,0.4-0.9,0.9v39c0,0.5,0.4,0.9,0.9,0.9h32.3
		C1482.1,1383.3,1482.6,1382.8,1482.6,1382.3z"/>
</g>
<g>
	<path class="st0" d="M1519.7,1382.3v-39c0-0.5-0.4-0.9-0.9-0.9h-32.3c-0.5,0-0.9,0.4-0.9,0.9v39c0,0.5,0.4,0.9,0.9,0.9h32.3
		C1519.3,1383.3,1519.7,1382.8,1519.7,1382.3z"/>
</g>
<g>
	<path class="st0" d="M1557.3,1382.3v-39c0-0.5-0.4-0.9-0.9-0.9H1524c-0.5,0-0.9,0.4-0.9,0.9v39c0,0.5,0.4,0.9,0.9,0.9h32.3
		C1556.9,1383.3,1557.3,1382.8,1557.3,1382.3z"/>
</g>
<g>
	<path class="st0" d="M1146.2,1440.1V1388c0-0.6-0.5-1.1-1.1-1.1h-32c-0.6,0-1.1,0.5-1.1,1.1v52.2c0,0.6,0.5,1.1,1.1,1.1h32
		C1145.8,1441.2,1146.2,1440.7,1146.2,1440.1z"/>
</g>
<g>
	<path class="st0" d="M1183.7,1440.1V1388c0-0.6-0.5-1.1-1.1-1.1h-32c-0.6,0-1.1,0.5-1.1,1.1v52.2c0,0.6,0.5,1.1,1.1,1.1h32
		C1183.3,1441.2,1183.7,1440.7,1183.7,1440.1z"/>
</g>
<g>
	<path class="st0" d="M1221,1440.1V1388c0-0.6-0.5-1.1-1.1-1.1h-32c-0.6,0-1.1,0.5-1.1,1.1v52.2c0,0.6,0.5,1.1,1.1,1.1h32
		C1220.5,1441.2,1221,1440.7,1221,1440.1z"/>
</g>
<g>
	<path class="st0" d="M1258.1,1440.1V1388c0-0.6-0.5-1.1-1.1-1.1h-32c-0.6,0-1.1,0.5-1.1,1.1v52.2c0,0.6,0.5,1.1,1.1,1.1h32
		C1257.6,1441.2,1258.1,1440.7,1258.1,1440.1z"/>
</g>
<g>
	<path class="st0" d="M1295.8,1440.1V1388c0-0.6-0.5-1.1-1.1-1.1h-32c-0.6,0-1.1,0.5-1.1,1.1v52.2c0,0.6,0.5,1.1,1.1,1.1h32
		C1295.3,1441.2,1295.8,1440.7,1295.8,1440.1z"/>
</g>
<g>
	<path class="st0" d="M1333.2,1440.1V1388c0-0.6-0.5-1.1-1.1-1.1h-32c-0.6,0-1.1,0.5-1.1,1.1v52.2c0,0.6,0.5,1.1,1.1,1.1h32
		C1332.8,1441.2,1333.2,1440.7,1333.2,1440.1z"/>
</g>
<g>
	<path class="st0" d="M1370.4,1440.1V1388c0-0.6-0.5-1.1-1.1-1.1h-32c-0.6,0-1.1,0.5-1.1,1.1v52.2c0,0.6,0.5,1.1,1.1,1.1h32
		C1369.9,1441.2,1370.4,1440.7,1370.4,1440.1z"/>
</g>
<g>
	<path class="st0" d="M1407.7,1440.1V1388c0-0.6-0.5-1.1-1.1-1.1h-32c-0.6,0-1.1,0.5-1.1,1.1v52.2c0,0.6,0.5,1.1,1.1,1.1h32
		C1407.2,1441.2,1407.7,1440.7,1407.7,1440.1z"/>
</g>
<g>
	<path class="st0" d="M1445.2,1440.1V1388c0-0.6-0.5-1.1-1.1-1.1h-32c-0.6,0-1.1,0.5-1.1,1.1v52.2c0,0.6,0.5,1.1,1.1,1.1h32
		C1444.8,1441.2,1445.2,1440.7,1445.2,1440.1z"/>
</g>
<g>
	<path class="st0" d="M1482.6,1440.1V1388c0-0.6-0.5-1.1-1.1-1.1h-32c-0.6,0-1.1,0.5-1.1,1.1v52.2c0,0.6,0.5,1.1,1.1,1.1h32
		C1482.1,1441.2,1482.6,1440.7,1482.6,1440.1z"/>
</g>
<g>
	<path class="st0" d="M1519.7,1440.1V1388c0-0.6-0.5-1.1-1.1-1.1h-32c-0.6,0-1.1,0.5-1.1,1.1v52.2c0,0.6,0.5,1.1,1.1,1.1h32
		C1519.3,1441.2,1519.7,1440.7,1519.7,1440.1z"/>
</g>
<g>
	<path class="st0" d="M1557.3,1440.1V1388c0-0.6-0.5-1.1-1.1-1.1h-32c-0.6,0-1.1,0.5-1.1,1.1v52.2c0,0.6,0.5,1.1,1.1,1.1h32
		C1556.8,1441.2,1557.3,1440.7,1557.3,1440.1z"/>
</g>
<g>
	<path class="st0" d="M1594.9,1397.7v-54.1c0-0.6-0.5-1.1-1.1-1.1h-32c-0.6,0-1.1,0.5-1.1,1.1v54.1c0,0.6,0.5,1.1,1.1,1.1h32
		C1594.4,1398.8,1594.9,1398.3,1594.9,1397.7z"/>
</g>
<g>
	<path class="st0" d="M1594.9,1440.2v-36.9c0-0.5-0.4-0.9-0.9-0.9h-32.4c-0.5,0-0.9,0.4-0.9,0.9v36.9c0,0.5,0.4,0.9,0.9,0.9h32.4
		C1594.5,1441.1,1594.9,1440.7,1594.9,1440.2z"/>
</g>
<g>
	<path class="st0" d="M1145.4,1507.4v-34.8c0-0.5-0.4-0.9-0.9-0.9h-32c-0.5,0-0.9,0.4-0.9,0.9v34.8c0,0.5,0.4,0.9,0.9,0.9h32
		C1145,1508.3,1145.4,1507.9,1145.4,1507.4z"/>
</g>
<g>
	<path class="st0" d="M1182.6,1507.4v-34.8c0-0.5-0.4-0.9-0.9-0.9h-32c-0.5,0-0.9,0.4-0.9,0.9v34.8c0,0.5,0.4,0.9,0.9,0.9h32
		C1182.2,1508.3,1182.6,1507.9,1182.6,1507.4z"/>
</g>
<g>
	<path class="st0" d="M1219.3,1507.4v-34.8c0-0.5-0.4-0.9-0.9-0.9h-32c-0.5,0-0.9,0.4-0.9,0.9v34.8c0,0.5,0.4,0.9,0.9,0.9h32
		C1218.9,1508.3,1219.3,1507.9,1219.3,1507.4z"/>
</g>
<g>
	<path class="st0" d="M1256.4,1507.4v-34.8c0-0.5-0.4-0.9-0.9-0.9h-32c-0.5,0-0.9,0.4-0.9,0.9v34.8c0,0.5,0.4,0.9,0.9,0.9h32
		C1256,1508.3,1256.4,1507.9,1256.4,1507.4z"/>
</g>
<g>
	<path class="st0" d="M1293.3,1507.4v-34.8c0-0.5-0.4-0.9-0.9-0.9h-32c-0.5,0-0.9,0.4-0.9,0.9v34.8c0,0.5,0.4,0.9,0.9,0.9h32
		C1293,1508.3,1293.3,1507.9,1293.3,1507.4z"/>
</g>
<g>
	<path class="st0" d="M1330.3,1507.4v-34.8c0-0.5-0.4-0.9-0.9-0.9h-32c-0.5,0-0.9,0.4-0.9,0.9v34.8c0,0.5,0.4,0.9,0.9,0.9h32
		C1330,1508.3,1330.3,1507.9,1330.3,1507.4z"/>
</g>
<g>
	<path class="st0" d="M1367.5,1507.4v-34.8c0-0.5-0.4-0.9-0.9-0.9h-32c-0.5,0-0.9,0.4-0.9,0.9v34.8c0,0.5,0.4,0.9,0.9,0.9h32
		C1367.1,1508.3,1367.5,1507.9,1367.5,1507.4z"/>
</g>
<g>
	<path class="st0" d="M1404.2,1507.4v-34.8c0-0.5-0.4-0.9-0.9-0.9h-32c-0.5,0-0.9,0.4-0.9,0.9v34.8c0,0.5,0.4,0.9,0.9,0.9h32
		C1403.8,1508.3,1404.2,1507.9,1404.2,1507.4z"/>
</g>
<g>
	<path class="st0" d="M1441.3,1507.4v-34.8c0-0.5-0.4-0.9-0.9-0.9h-32c-0.5,0-0.9,0.4-0.9,0.9v34.8c0,0.5,0.4,0.9,0.9,0.9h32
		C1440.9,1508.3,1441.3,1507.9,1441.3,1507.4z"/>
</g>
<g>
	<path class="st0" d="M1478.3,1507.4v-34.8c0-0.5-0.4-0.9-0.9-0.9h-32c-0.5,0-0.9,0.4-0.9,0.9v34.8c0,0.5,0.4,0.9,0.9,0.9h32
		C1477.9,1508.3,1478.3,1507.9,1478.3,1507.4z"/>
</g>
<g>
	<path class="st0" d="M1515.3,1507.4v-34.8c0-0.5-0.4-0.9-0.9-0.9h-32c-0.5,0-0.9,0.4-0.9,0.9v34.8c0,0.5,0.4,0.9,0.9,0.9h32
		C1514.9,1508.3,1515.3,1507.9,1515.3,1507.4z"/>
</g>
<g>
	<path class="st0" d="M1552.4,1507.4v-34.8c0-0.5-0.4-0.9-0.9-0.9h-32c-0.5,0-0.9,0.4-0.9,0.9v34.8c0,0.5,0.4,0.9,0.9,0.9h32
		C1552,1508.3,1552.4,1507.9,1552.4,1507.4z"/>
</g>
<g>
	<path class="st0" d="M1589.3,1507.4v-34.8c0-0.5-0.4-0.9-0.9-0.9h-32c-0.5,0-0.9,0.4-0.9,0.9v34.8c0,0.5,0.4,0.9,0.9,0.9h32
		C1589,1508.3,1589.3,1507.9,1589.3,1507.4z"/>
</g>
<g>
	<path class="st0" d="M454.1,1594v-36.6c0-0.5-0.4-0.9-0.9-0.9h-29.6c-0.5,0-0.9,0.4-0.9,0.9v36.6c0,0.5,0.4,0.9,0.9,0.9h29.6
		C453.7,1594.8,454.1,1594.4,454.1,1594z"/>
</g>
<g>
	<path class="st0" d="M489.4,1594v-36.6c0-0.5-0.4-0.9-0.9-0.9h-29.6c-0.5,0-0.9,0.4-0.9,0.9v36.6c0,0.5,0.4,0.9,0.9,0.9h29.6
		C489,1594.8,489.4,1594.4,489.4,1594z"/>
</g>
<g>
	<path class="st0" d="M524.6,1594v-36.6c0-0.5-0.4-0.9-0.9-0.9H494c-0.5,0-0.9,0.4-0.9,0.9v36.6c0,0.5,0.4,0.9,0.9,0.9h29.6
		C524.2,1594.8,524.6,1594.4,524.6,1594z"/>
</g>
<g>
	<path class="st0" d="M560,1594v-36.6c0-0.5-0.4-0.9-0.9-0.9h-29.6c-0.5,0-0.9,0.4-0.9,0.9v36.6c0,0.5,0.4,0.9,0.9,0.9h29.6
		C559.6,1594.8,560,1594.4,560,1594z"/>
</g>
<g>
	<path class="st0" d="M595.2,1594v-36.6c0-0.5-0.4-0.9-0.9-0.9h-29.6c-0.5,0-0.9,0.4-0.9,0.9v36.6c0,0.5,0.4,0.9,0.9,0.9h29.6
		C594.8,1594.8,595.2,1594.4,595.2,1594z"/>
</g>
<g>
	<path class="st0" d="M630.4,1594v-36.6c0-0.5-0.4-0.9-0.9-0.9h-29.6c-0.5,0-0.9,0.4-0.9,0.9v36.6c0,0.5,0.4,0.9,0.9,0.9h29.6
		C630,1594.8,630.4,1594.4,630.4,1594z"/>
</g>
<g>
	<path class="st0" d="M665.7,1594v-36.6c0-0.5-0.4-0.9-0.9-0.9h-29.4c-0.5,0-0.9,0.4-0.9,0.9v36.6c0,0.5,0.4,0.9,0.9,0.9h29.4
		C665.3,1594.8,665.7,1594.4,665.7,1594z"/>
</g>
<g>
	<path class="st0" d="M807,1173.7v-70.8c0-0.7-0.6-1.3-1.3-1.3h-32.3c-0.7,0-1.3,0.6-1.3,1.3v70.8c0,0.7,0.6,1.3,1.3,1.3h32.3
		C806.4,1174.9,807,1174.4,807,1173.7z"/>
</g>
<g>
	<path class="st0" d="M845.6,1173.7v-70.8c0-0.7-0.6-1.3-1.3-1.3H812c-0.7,0-1.3,0.6-1.3,1.3v70.8c0,0.7,0.6,1.3,1.3,1.3h32.3
		C845,1174.9,845.6,1174.4,845.6,1173.7z"/>
</g>
<g>
	<path class="st0" d="M883.3,1173.7v-70.8c0-0.7-0.6-1.3-1.3-1.3h-32.3c-0.7,0-1.3,0.6-1.3,1.3v70.8c0,0.7,0.6,1.3,1.3,1.3H882
		C882.8,1174.9,883.3,1174.4,883.3,1173.7z"/>
</g>
<g>
	<path class="st0" d="M921.6,1173.7v-70.8c0-0.7-0.6-1.3-1.3-1.3H888c-0.7,0-1.3,0.6-1.3,1.3v70.8c0,0.7,0.6,1.3,1.3,1.3h32.3
		C921,1174.9,921.6,1174.4,921.6,1173.7z"/>
</g>
<g>
	<path class="st0" d="M960,1173.7v-70.8c0-0.7-0.6-1.3-1.3-1.3h-32.3c-0.7,0-1.3,0.6-1.3,1.3v70.8c0,0.7,0.6,1.3,1.3,1.3h32.3
		C959.4,1174.9,960,1174.4,960,1173.7z"/>
</g>
<g>
	<path class="st0" d="M998.1,1173.7v-70.8c0-0.7-0.6-1.3-1.3-1.3h-32.3c-0.7,0-1.3,0.6-1.3,1.3v70.8c0,0.7,0.6,1.3,1.3,1.3h32.3
		C997.5,1174.9,998.1,1174.4,998.1,1173.7z"/>
</g>
<g>
	<path class="st0" d="M1043.1,909.4V872c0-0.6-0.5-1-1-1h-39.4c-0.6,0-1,0.5-1,1v37.4c0,0.6,0.5,1,1,1h39.4
		C1042.6,910.4,1043.1,909.9,1043.1,909.4z"/>
</g>
<g>
	<path class="st0" d="M1043.1,952.2v-37.4c0-0.6-0.5-1-1-1h-39.4c-0.6,0-1,0.5-1,1v37.4c0,0.6,0.5,1,1,1h39.4
		C1042.6,953.3,1043.1,952.8,1043.1,952.2z"/>
</g>
<g>
	<path class="st0" d="M1043.1,995.1v-37.4c0-0.6-0.5-1-1-1h-39.4c-0.6,0-1,0.5-1,1v37.4c0,0.6,0.5,1,1,1h39.4
		C1042.6,996.1,1043.1,995.6,1043.1,995.1z"/>
</g>
<g>
	<path class="st0" d="M729.4,783.5v-48.4c0-0.6-0.5-1-1-1h-31.7c-0.6,0-1,0.5-1,1v48.4c0,0.6,0.5,1,1,1h31.7
		C728.9,784.5,729.4,784,729.4,783.5z"/>
</g>
<g>
	<path class="st0" d="M766.4,783.5v-48.4c0-0.6-0.5-1-1-1h-31.7c-0.6,0-1,0.5-1,1v48.4c0,0.6,0.5,1,1,1h31.7
		C765.9,784.5,766.4,784,766.4,783.5z"/>
</g>
<g>
	<path class="st0" d="M803.1,783.5v-48.4c0-0.6-0.5-1-1-1h-31.7c-0.6,0-1,0.5-1,1v48.4c0,0.6,0.5,1,1,1H802
		C802.6,784.5,803.1,784,803.1,783.5z"/>
</g>
<g>
	<path class="st0" d="M840.1,783.5v-48.4c0-0.6-0.5-1-1-1h-31.7c-0.6,0-1,0.5-1,1v48.4c0,0.6,0.5,1,1,1H839
		C839.6,784.5,840.1,784,840.1,783.5z"/>
</g>
<g>
	<path class="st0" d="M876.8,783.5v-48.4c0-0.6-0.5-1-1-1H844c-0.6,0-1,0.5-1,1v48.4c0,0.6,0.5,1,1,1h31.7
		C876.3,784.5,876.8,784,876.8,783.5z"/>
</g>
<g>
	<path class="st0" d="M913.8,783.5v-48.4c0-0.6-0.5-1-1-1H881c-0.6,0-1,0.5-1,1v48.4c0,0.6,0.5,1,1,1h31.7
		C913.3,784.5,913.8,784,913.8,783.5z"/>
</g>
<g>
	<path class="st0" d="M950.6,783.5v-48.4c0-0.6-0.5-1-1-1h-31.7c-0.6,0-1,0.5-1,1v48.4c0,0.6,0.5,1,1,1h31.7
		C950.1,784.5,950.6,784,950.6,783.5z"/>
</g>
<g>
	<path class="st0" d="M987.5,783.5v-48.4c0-0.6-0.5-1-1-1h-31.7c-0.6,0-1,0.5-1,1v48.4c0,0.6,0.5,1,1,1h31.7
		C987,784.5,987.5,784,987.5,783.5z"/>
</g>
<g>
	<path class="st0" d="M729.4,837.7v-48.4c0-0.6-0.5-1-1-1h-31.7c-0.6,0-1,0.5-1,1v48.4c0,0.6,0.5,1,1,1h31.7
		C728.9,838.7,729.4,838.2,729.4,837.7z"/>
</g>
<g>
	<path class="st0" d="M766.4,837.7v-48.4c0-0.6-0.5-1-1-1h-31.7c-0.6,0-1,0.5-1,1v48.4c0,0.6,0.5,1,1,1h31.7
		C765.9,838.7,766.4,838.2,766.4,837.7z"/>
</g>
<g>
	<path class="st0" d="M803.1,837.7v-48.4c0-0.6-0.5-1-1-1h-31.7c-0.6,0-1,0.5-1,1v48.4c0,0.6,0.5,1,1,1H802
		C802.6,838.7,803.1,838.2,803.1,837.7z"/>
</g>
<g>
	<path class="st0" d="M840.1,837.7v-48.4c0-0.6-0.5-1-1-1h-31.7c-0.6,0-1,0.5-1,1v48.4c0,0.6,0.5,1,1,1H839
		C839.6,838.7,840.1,838.2,840.1,837.7z"/>
</g>
<g>
	<path class="st0" d="M876.8,837.7v-48.4c0-0.6-0.5-1-1-1H844c-0.6,0-1,0.5-1,1v48.4c0,0.6,0.5,1,1,1h31.7
		C876.3,838.7,876.8,838.2,876.8,837.7z"/>
</g>
<g>
	<path class="st0" d="M913.8,837.7v-48.4c0-0.6-0.5-1-1-1H881c-0.6,0-1,0.5-1,1v48.4c0,0.6,0.5,1,1,1h31.7
		C913.3,838.7,913.8,838.2,913.8,837.7z"/>
</g>
<g>
	<path class="st0" d="M950.6,837.7v-48.4c0-0.6-0.5-1-1-1h-31.7c-0.6,0-1,0.5-1,1v48.4c0,0.6,0.5,1,1,1h31.7
		C950.1,838.7,950.6,838.2,950.6,837.7z"/>
</g>
<g>
	<path class="st0" d="M987.5,837.7v-48.4c0-0.6-0.5-1-1-1h-31.7c-0.6,0-1,0.5-1,1v48.4c0,0.6,0.5,1,1,1h31.7
		C987,838.7,987.5,838.2,987.5,837.7z"/>
</g>
<g>
	<path class="st0" d="M1043.1,765.5v-30.4c0-0.6-0.5-1-1-1h-50.3c-0.6,0-1,0.5-1,1v30.4c0,0.6,0.5,1,1,1h50.3
		C1042.6,766.5,1043.1,766,1043.1,765.5z"/>
</g>
<g>
	<path class="st0" d="M1043.1,801.6v-30.4c0-0.6-0.5-1-1-1h-50.3c-0.6,0-1,0.5-1,1v30.4c0,0.6,0.5,1,1,1h50.3
		C1042.6,802.6,1043.1,802.1,1043.1,801.6z"/>
</g>
<g>
	<path class="st0" d="M1043.1,837.6v-30.4c0-0.6-0.5-1-1-1h-50.3c-0.6,0-1,0.5-1,1v30.4c0,0.6,0.5,1,1,1h50.3
		C1042.6,838.7,1043.1,838.2,1043.1,837.6z"/>
</g>
<g>
	<path class="st0" d="M727.7,658.1v-37.5c0-0.5-0.4-0.9-0.9-0.9h-30.5c-0.5,0-0.9,0.4-0.9,0.9v37.5c0,0.5,0.4,0.9,0.9,0.9h30.5
		C727.4,659,727.7,658.6,727.7,658.1z"/>
</g>
<g>
	<path class="st0" d="M762.8,658.1v-37.5c0-0.5-0.4-0.9-0.9-0.9h-30.5c-0.5,0-0.9,0.4-0.9,0.9v37.5c0,0.5,0.4,0.9,0.9,0.9h30.5
		C762.4,659,762.8,658.6,762.8,658.1z"/>
</g>
<g>
	<path class="st0" d="M797.9,658.1v-37.5c0-0.5-0.4-0.9-0.9-0.9h-30.5c-0.5,0-0.9,0.4-0.9,0.9v37.5c0,0.5,0.4,0.9,0.9,0.9H797
		C797.5,659,797.9,658.6,797.9,658.1z"/>
</g>
<g>
	<path class="st0" d="M833,658.1v-37.5c0-0.5-0.4-0.9-0.9-0.9h-30.5c-0.5,0-0.9,0.4-0.9,0.9v37.5c0,0.5,0.4,0.9,0.9,0.9h30.5
		C832.6,659,833,658.6,833,658.1z"/>
</g>
<g>
	<path class="st0" d="M868,658.1v-37.5c0-0.5-0.4-0.9-0.9-0.9h-30.5c-0.5,0-0.9,0.4-0.9,0.9v37.5c0,0.5,0.4,0.9,0.9,0.9h30.5
		C867.6,659,868,658.6,868,658.1z"/>
</g>
<g>
	<path class="st0" d="M903,658.1v-37.5c0-0.5-0.4-0.9-0.9-0.9h-30.5c-0.5,0-0.9,0.4-0.9,0.9v37.5c0,0.5,0.4,0.9,0.9,0.9h30.5
		C902.6,659,903,658.6,903,658.1z"/>
</g>
<g>
	<path class="st0" d="M938.1,658.1v-37.5c0-0.5-0.4-0.9-0.9-0.9h-30.5c-0.5,0-0.9,0.4-0.9,0.9v37.5c0,0.5,0.4,0.9,0.9,0.9h30.5
		C937.7,659,938.1,658.6,938.1,658.1z"/>
</g>
<g>
	<path class="st0" d="M973.1,658.1v-37.5c0-0.5-0.4-0.9-0.9-0.9h-30.5c-0.5,0-0.9,0.4-0.9,0.9v37.5c0,0.5,0.4,0.9,0.9,0.9h30.5
		C972.7,659,973.1,658.6,973.1,658.1z"/>
</g>
<g>
	<path class="st0" d="M1008.1,658.1v-37.5c0-0.5-0.4-0.9-0.9-0.9h-30.5c-0.5,0-0.9,0.4-0.9,0.9v37.5c0,0.5,0.4,0.9,0.9,0.9h30.5
		C1007.7,659,1008.1,658.6,1008.1,658.1z"/>
</g>
<g>
	<path class="st0" d="M1043.3,658.1v-37.5c0-0.5-0.4-0.9-0.9-0.9h-30.5c-0.5,0-0.9,0.4-0.9,0.9v37.5c0,0.5,0.4,0.9,0.9,0.9h30.5
		C1042.9,659,1043.3,658.6,1043.3,658.1z"/>
</g>
<g>
	<path class="st0" d="M727.7,700.8v-37.5c0-0.5-0.4-0.9-0.9-0.9h-30.5c-0.5,0-0.9,0.4-0.9,0.9v37.5c0,0.5,0.4,0.9,0.9,0.9h30.5
		C727.4,701.7,727.7,701.3,727.7,700.8z"/>
</g>
<g>
	<path class="st0" d="M762.8,700.8v-37.5c0-0.5-0.4-0.9-0.9-0.9h-30.5c-0.5,0-0.9,0.4-0.9,0.9v37.5c0,0.5,0.4,0.9,0.9,0.9h30.5
		C762.4,701.7,762.8,701.3,762.8,700.8z"/>
</g>
<g>
	<path class="st0" d="M797.9,700.8v-37.5c0-0.5-0.4-0.9-0.9-0.9h-30.5c-0.5,0-0.9,0.4-0.9,0.9v37.5c0,0.5,0.4,0.9,0.9,0.9H797
		C797.5,701.7,797.9,701.3,797.9,700.8z"/>
</g>
<g>
	<path class="st0" d="M833,700.8v-37.5c0-0.5-0.4-0.9-0.9-0.9h-30.5c-0.5,0-0.9,0.4-0.9,0.9v37.5c0,0.5,0.4,0.9,0.9,0.9h30.5
		C832.6,701.7,833,701.3,833,700.8z"/>
</g>
<g>
	<path class="st0" d="M868,700.8v-37.5c0-0.5-0.4-0.9-0.9-0.9h-30.5c-0.5,0-0.9,0.4-0.9,0.9v37.5c0,0.5,0.4,0.9,0.9,0.9h30.5
		C867.6,701.7,868,701.3,868,700.8z"/>
</g>
<g>
	<path class="st0" d="M903,700.8v-37.5c0-0.5-0.4-0.9-0.9-0.9h-30.5c-0.5,0-0.9,0.4-0.9,0.9v37.5c0,0.5,0.4,0.9,0.9,0.9h30.5
		C902.6,701.7,903,701.3,903,700.8z"/>
</g>
<g>
	<path class="st0" d="M938.1,700.8v-37.5c0-0.5-0.4-0.9-0.9-0.9h-30.5c-0.5,0-0.9,0.4-0.9,0.9v37.5c0,0.5,0.4,0.9,0.9,0.9h30.5
		C937.7,701.7,938.1,701.3,938.1,700.8z"/>
</g>
<g>
	<path class="st0" d="M973.1,700.8v-37.5c0-0.5-0.4-0.9-0.9-0.9h-30.5c-0.5,0-0.9,0.4-0.9,0.9v37.5c0,0.5,0.4,0.9,0.9,0.9h30.5
		C972.7,701.7,973.1,701.3,973.1,700.8z"/>
</g>
<g>
	<path class="st0" d="M1008.1,700.8v-37.5c0-0.5-0.4-0.9-0.9-0.9h-30.5c-0.5,0-0.9,0.4-0.9,0.9v37.5c0,0.5,0.4,0.9,0.9,0.9h30.5
		C1007.7,701.7,1008.1,701.3,1008.1,700.8z"/>
</g>
<g>
	<path class="st0" d="M1043.3,700.8v-37.5c0-0.5-0.4-0.9-0.9-0.9h-30.5c-0.5,0-0.9,0.4-0.9,0.9v37.5c0,0.5,0.4,0.9,0.9,0.9h30.5
		C1042.9,701.7,1043.3,701.3,1043.3,700.8z"/>
</g>
<g>
	<path class="st0" d="M539.4,743.3l3.8-209.5c0-0.2-0.2-0.4-0.4-0.4H404.1c-0.2,0-0.4,0.2-0.4,0.4l-2.9,206.7c0,0.2,0.2,0.4,0.4,0.4
		l137.8,2.8C539.3,743.7,539.4,743.6,539.4,743.3z"/>
</g>
<g>
	<path class="st0" d="M536.2,967.6l4-208.2c0-0.2-0.2-0.4-0.4-0.4l-138.2-1.2c-0.2,0-0.4,0.2-0.4,0.4l-3.1,206.7
		c0,0.2,0.2,0.4,0.4,0.4l137.3,2.8C536,968,536.2,967.8,536.2,967.6z"/>
</g>
<g>
	<polygon class="st0" points="453.4,1080.5 483.7,1080.5 483.9,1066.5 485.7,1066.4 485.8,1068.3 487.7,1068.4 487.8,1087.4 
		553.2,1087.5 553.2,1075.2 554.8,1075.1 555.2,1060.7 556.4,1060.8 556.4,1046.2 555,1046.2 555.2,1039 553,1039 553.1,1019.8 
		487,1020.1 487,1029.1 486.8,1037.5 483.7,1037.5 483.7,1023.7 453.5,1023.6 	"/>
</g>
<g>
	<path class="st0" d="M446.8,1169.1l-0.2,11.8c0,0-0.6,0.8-1.3,2s0.1,10.1,0.1,10.1l1.5,2.5v51.1l-2,2.5l-0.1,10
		c0,0.5,0.3,0.9,0.7,1.1l1.8,0.8l0.2,12.6l1.6,0.1l0.1,1.9h5.2l0.1,1.8l18.8-0.1l0.6-1.3l0.9-0.1h0.5v6h-0.6v3.8h0.7v6.9l25.9,0.1
		l25.8-0.1l-0.1-30.8l3.6-0.1v-24.3l6.3-0.2l0.1-7.1c0,0,0.8-0.9,1.5-2s1-3.5,1-3.5h2.9l-0.1-7.5l-2.3-0.1c0,0,0-0.6-0.6-1.9
		s-2.5-3.4-2.5-3.4l-0.2-7.4l-5.9-0.1l-0.4-23.8h-3.3v-30.8h-52l0.1,7h-0.7l0.1,4.4h0.6l0.1,5.4h-2v-1.6l-19.1-0.2v1.7h-0.9H449
		l-0.1,2.6L446.8,1169.1z"/>
</g>
<g>
	<path class="st0" d="M470.8,1376.4h-11.1l0.1,4.1l-7.1-0.1c0,0-1.2-1-1.6-1.6s-0.8-0.3-1.6-0.3s-1.3,0-1.8-0.5s-1.3-0.4-2-0.4
		s-1.8,0-2.3,0s-1.2,0.3-1.7,0.1s-0.6-0.9-1.9-1.1s-1.9,1-2.4,1.3s-0.5,2.6-0.5,2.6l-2.6-0.3c0,0-0.3-0.4-0.7-0.8s-1.2-1.7-1.8-2.6
		s-0.7-0.4-3.1-0.9s-4.7,1.3-6.3,1.3s-3.6,0.5-4.7,0.8s0.3,2.1-0.1,2.9s0.1,1.4,1.3,2.6s3.8,5.5,2.9,5.4s-1.2-0.2-1.8,0.1
		s-1,1-1.8,1.2s-0.3,0.6-0.4,1.5s0,0-1.2,1.6s0.3,1.1-0.2,1.6s0.2,0.9,0.3,1.4s0.5,0.9-0.1,1.4s-0.1,1,0.3,1.5s0.6,1.7,0,2.2
		s0,0-0.8-0.1s-1,0.7-1.9,0.6s-1.9-0.3-2.3-0.4s-0.9,0.9-1.8,1.2s-1.9,1.1-2.2,1.4s-0.3,0.2-1-0.1s-0.8,0.1-1.3,0.1
		s-0.9-0.3-1.6-1.1s-0.6,0.5-1.3,0.1s-0.8,0.2-1.5,0.6s-0.8-0.1-1.3-0.8s-1.2-0.1-1.5-0.1s-1.6-1.1-2.4-1.3s-1.3,0.4-1.3,0.8
		s-0.3,1-1.6,1.2s-1.6,1.8-1.6,1.8l-16.3-0.1v32c0,0,0.2,0.3-0.4,0.1c-0.5-0.2-2.6,1-2.8,2.3c-0.1,1.3,1,2.8,2.3,4.2
		c1.3,1.3,1.6,2.1,1.3,2.8s-0.3,0.5-1.3,1.3c-1.1,0.8-1.8,1.1-2.8,2.3c-0.9,1.1-0.1,1.1-0.4,1.8s0.1,1.3,0.3,2.7
		c0.2,1.3,0.5,1.5,0,2.8s0,0.8,1.2,3.1s2.2,4.9,1.8,5.5s-1.9,0.8-2.8,1.3s-0.3,2.2-1.1,2.8c-0.8,0.6-0.2,1.2,0.4,2.2
		s-0.1,1.9-0.9,4.5s0,0,1.6,1.4s0.7,1.8,0,3.3s-0.8,6.1-0.8,7.1c-0.1,1-0.1,1.7,0.5,2.4c0.6,0.8,1.3,1.8,1.3,1.8s0.2,0.7-0.3,1.7
		c-0.4,1-0.1,1-0.8,2.3c-0.6,1.3-0.6,0.9-0.6,2s0.1,1.5-0.1,2.2s-0.6,1.2-0.6,3.9s0.7,2.1,0.7,2.8s0.3,1.1,0.3,2.4
		c0.1,1.3,1,0.7,2.3,1.1s2.7,0.8,2.7,1.3s-0.2,0.8-0.8,1.3s-0.8,0.7-1.6,1.3c-0.8,0.5-1,1.6-1.3,2.4c-0.2,0.8-0.6,1.4-1.8,2.6
		s0,1.5-0.1,1.8s0,1.9-0.2,3.3s0.1,1.5,0.8,2.3c0.7,0.7,1.3,1.2,1.2,2.2c-0.1,1,0.9,0.7,2,1.3s1.4-0.3,2-0.8s1.1-0.3,2.3-0.8
		c1.2-0.6,0.2-0.6,1-1.4s1.2-0.4,1.7-1s0.8-0.6,1.7-1.7c0.9-1.1,0.8,0,1.5,0c0.8,0,0.7,0.4,1,1s1,0.8,0.9,1.3s-0.5,0.5-1.1,1.2
		c-0.5,0.7-1.1,0.6-1.3,2.7c-0.2,2.1,2.3,4.1,2.3,4.1l42.8-0.1l0.1-0.8c0,0,0.6-0.9,0.9-1.8c0.3-0.8-0.2-2.3-0.5-3.1
		s0.3-1.3-0.5-2.6c-0.8-1.3-1.1-1.3-1.5-1.6c-0.4-0.3-1.8-2.4-2.1-2.4s-3.6,0.1-3.6,0.1s-3.3-1.1-1.4-3.6c1.9-2.6,20.3-6,20.3-7.4
		s-2.7-3-3.4-4.5c-0.7-1.5,2.4-3.3,2.8-3.8c0.5-0.5,2-0.7,2.7-0.8c0.7,0,3.4-0.5,4-1.7s0.1-2.4,0.1-2.4s0.3-2,0.4-2.5s0-1.5,0.1-2
		c0-0.5,0-2.1,0.3-3.3c0.3-1.1,0,0-0.6-3.6s-1.2-3.4-1.2-3.4s0,0,0.5-0.6s0.4-1.6,0.3-2.4s0-0.7,0-1.3c0-0.7-0.2-0.7-0.1-1.6
		s0.3-0.5,1.3-2.1c1-1.5,0-0.5-0.3-1.3s0.1-0.8,0.3-1.8c0.2-1.1-0.2-1.3-1.3-2.7c-1-1.4-2.3-2-2.3-2s0,0,0.4-0.8s0-0.8-0.3-1.8
		s0-0.8,0.2-1.5s0.4-0.8,0-1.8s-1.7-3-1.7-3s0.5,0,0.9-0.1c0.5-0.1,0.4-0.7,0.7-1.3s1.6-1.2,1.8-1.8c0.2-0.5,0.3-0.5,0.6-0.8
		s0.7-1,0.8-1.4c0-0.4,0.2-2.3,0.3-2.7c0.1-0.4,0.4-1.2,0.3-1.8c0-0.6-0.3-0.8-1-1.8s-0.1-1.8-0.2-3c0-1.3-1.3-2.3-1.6-3.6
		s2.2-6.3,2.2-9.2c0-2.9-1.8-6.8-1.8-6.8l13.3-0.3l0.1,4.2l11-0.1l0.4,10.4l41.5-0.8l0.1-73.1l-41.9-0.1L470.8,1376.4z"/>
</g>
<g>
	<path class="st0" d="M991.9,1278.1l-0.1,32.6l52.4,0.3l-0.2-101.4l-87.7-0.3l-0.6,34.4c0,0-0.1,0.8-1,1.5s-0.3,1.3-0.8,2.1
		s0,0.7,0.4,1.4s0.5,0.3,0.7,1.3s0,0-0.7,0s-1.4,0.3-1.9,0.4s-0.2,1.9-0.2,2.8s2.6,1.1,2.9,1.8s0.6,1.7,0.6,1.7v21.4L991.9,1278.1z"
		/>
</g>
<g>
	<polygon class="st0" points="1533.4,1270 1533.4,1319 1590.5,1318.9 1590.5,1270.1 	"/>
</g>
<g>
	<path class="st0" d="M1528,1210.9v28.6c0,0-1,1.4-0.9,2s0.4,0.7,0.4,1s-0.2,0.3-0.2,0.6c0,0.4,0.2,0.4-0.2,0.5s-0.9-0.3-0.9,0.4
		c0,0.7-0.4,1.4-0.1,1.7s-0.5,1.9,0,2.4s1.3,0.6,1.7,0.9c0.4,0.2,0.5,1.8,0.5,1.8l-0.2,7.4c0,0.7,0.6,1.3,1.3,1.3l65.2,0.4
		c0,0,1.8,0.2,2-0.8c0.1-0.8,0.2-3.3,0.2-3.3l0.3-29.6c0,0,1-0.4,0.8-1.2s-0.7-1-0.2-1.2s1.5-0.2,1.3-0.8s-1.3-1.2-0.9-1.6
		s1.8-0.9,1.3-1.7c-0.3-0.5-1.4-0.1-1.5-0.5s-0.1-1.3-0.3-1.6s-0.7-0.6-0.7-0.6v-5.6c0,0,0-0.7-0.6-1.2c-0.5-0.4-1.2-0.3-1.2-0.3
		h-66.3C1528.3,1210.1,1528,1210.5,1528,1210.9z"/>
</g>
</svg>
