<svg xmlns="http://www.w3.org/2000/svg" xmlns:xlink="http://www.w3.org/1999/xlink" x="0px" y="0px"
	 viewBox="0 0 1206.6 2006.1" style="enable-background:new 0 0 1206.6 2006.1;" xml:space="preserve">
<path class="st0" d="M352.8,200.4v62c0,0.7-0.5,1.2-1.2,1.2h-32.2c-0.7,0-1.2-0.5-1.2-1.2v-62c0-0.7,0.5-1.2,1.2-1.2h32.2
	C352.3,199.2,352.8,199.8,352.8,200.4z"/>
<path class="st0" d="M391.3,200.4v62c0,0.7-0.5,1.2-1.2,1.2h-32.2c-0.7,0-1.2-0.5-1.2-1.2v-62c0-0.7,0.5-1.2,1.2-1.2h32.2
	C390.8,199.2,391.3,199.8,391.3,200.4z"/>
<path class="st0" d="M430.2,200.4v62c0,0.7-0.5,1.2-1.2,1.2h-32.2c-0.7,0-1.2-0.5-1.2-1.2v-62c0-0.7,0.5-1.2,1.2-1.2H429
	C429.7,199.2,430.2,199.8,430.2,200.4z"/>
<path class="st0" d="M469,200.4v62c0,0.7-0.5,1.2-1.2,1.2h-32.2c-0.7,0-1.2-0.5-1.2-1.2v-62c0-0.7,0.5-1.2,1.2-1.2h32.2
	C468.4,199.2,469,199.8,469,200.4z"/>
<path class="st0" d="M507.9,200.4v62c0,0.7-0.5,1.2-1.2,1.2h-32.2c-0.7,0-1.2-0.5-1.2-1.2v-62c0-0.7,0.5-1.2,1.2-1.2h32.2
	C507.3,199.2,507.9,199.8,507.9,200.4z"/>
<path class="st0" d="M536.9,200.2v62.4c0,0.5-0.4,1-1,1h-22.5c-0.5,0-1-0.4-1-1v-62.4c0-0.5,0.4-1,1-1h22.5
	C536.4,199.2,536.9,199.7,536.9,200.2z"/>
<path class="st0" d="M585.6,200.2v29.2c0,0.5-0.4,0.9-0.9,0.9h-42.9c-0.5,0-0.9-0.4-0.9-0.9v-29.2c0-0.5,0.4-0.9,0.9-0.9h42.9
	C585.2,199.2,585.6,199.7,585.6,200.2z"/>
<path class="st0" d="M585.6,235.2v27.9c0,0.5-0.4,0.9-0.9,0.9h-42.9c-0.5,0-0.9-0.4-0.9-0.9v-27.9c0-0.5,0.4-0.9,0.9-0.9h42.9
	C585.2,234.3,585.6,234.7,585.6,235.2z"/>
<path class="st0" d="M585.6,268.5v27.9c0,0.5-0.4,0.9-0.9,0.9h-42.9c-0.5,0-0.9-0.4-0.9-0.9v-27.9c0-0.5,0.4-0.9,0.9-0.9h42.9
	C585.2,267.6,585.6,268,585.6,268.5z"/>
<path class="st0" d="M585.6,302V330c0,0.5-0.4,0.9-0.9,0.9h-42.9c-0.5,0-0.9-0.4-0.9-0.9V302c0-0.5,0.4-0.9,0.9-0.9h42.9
	C585.2,301.1,585.6,301.5,585.6,302z"/>
<path class="st0" d="M585.8,351.8v25c0,0.4-0.3,0.8-0.8,0.8h-32.7c-0.4,0-0.8-0.3-0.8-0.8v-25c0-0.4,0.3-0.8,0.8-0.8H585
	C585.4,351.1,585.8,351.4,585.8,351.8z"/>
<path class="st0" d="M585.8,381.3v24.4c0,0.4-0.3,0.7-0.7,0.7h-32.8c-0.4,0-0.7-0.3-0.7-0.7v-24.4c0-0.4,0.3-0.7,0.7-0.7H585
	C585.4,380.6,585.8,380.9,585.8,381.3z"/>
<path class="st0" d="M585.8,410.5v24.4c0,0.4-0.3,0.7-0.7,0.7h-32.8c-0.4,0-0.7-0.3-0.7-0.7v-24.4c0-0.4,0.3-0.7,0.7-0.7H585
	C585.4,409.7,585.8,410.1,585.8,410.5z"/>
<path class="st0" d="M585.8,439.6v23.7c0,0.4-0.3,0.7-0.7,0.7h-32.8c-0.4,0-0.7-0.3-0.7-0.7v-23.7c0-0.4,0.3-0.7,0.7-0.7H585
	C585.4,438.9,585.8,439.2,585.8,439.6z"/>
<path class="st0" d="M585.8,486.1v28.8c0,0.4-0.3,0.7-0.7,0.7h-27.3c-0.4,0-0.7-0.3-0.7-0.7v-28.8c0-0.4,0.3-0.7,0.7-0.7H585
	C585.4,485.4,585.8,485.7,585.8,486.1z"/>
<path class="st0" d="M585.7,519.1v28.8c0,0.4-0.3,0.7-0.7,0.7h-27.3c-0.4,0-0.7-0.3-0.7-0.7v-28.8c0-0.4,0.3-0.7,0.7-0.7H585
	C585.4,518.4,585.7,518.7,585.7,519.1z"/>
<path class="st0" d="M585.8,551.9v28.8c0,0.4-0.3,0.7-0.7,0.7h-27.3c-0.4,0-0.7-0.3-0.7-0.7v-28.8c0-0.4,0.3-0.7,0.7-0.7H585
	C585.4,551.1,585.8,551.5,585.8,551.9z"/>
<path class="st0" d="M585.7,604.5v25c0,0.4-0.3,0.7-0.7,0.7h-31.3c-0.4,0-0.7-0.3-0.7-0.7v-25c0-0.4,0.3-0.7,0.7-0.7H585
	C585.4,603.8,585.7,604.1,585.7,604.5z"/>
<path class="st0" d="M585.8,634.5v25c0,0.4-0.3,0.7-0.7,0.7h-31.3c-0.4,0-0.7-0.3-0.7-0.7v-25c0-0.4,0.3-0.7,0.7-0.7H585
	C585.4,633.8,585.8,634.1,585.8,634.5z"/>
<path class="st0" d="M585.7,664.4v25c0,0.4-0.3,0.7-0.7,0.7h-31.3c-0.4,0-0.7-0.3-0.7-0.7v-25c0-0.4,0.3-0.7,0.7-0.7H585
	C585.4,663.7,585.7,664,585.7,664.4z"/>
<path class="st0" d="M585.8,694.3v25c0,0.4-0.3,0.7-0.7,0.7h-31.3c-0.4,0-0.7-0.3-0.7-0.7v-25c0-0.4,0.3-0.7,0.7-0.7H585
	C585.4,693.5,585.8,693.9,585.8,694.3z"/>
<path class="st0" d="M352.8,269V330c0,0.6-0.5,1.2-1.2,1.2h-32.2c-0.6,0-1.2-0.5-1.2-1.2V269c0-0.6,0.5-1.2,1.2-1.2h32.2
	C352.3,267.8,352.8,268.3,352.8,269z"/>
<path class="st0" d="M354.3,352.2v52.9c0,0.6-0.5,1.1-1.1,1.1h-33.9c-0.6,0-1.1-0.5-1.1-1.1v-52.9c0-0.6,0.5-1.1,1.1-1.1h33.9
	C353.8,351.1,354.3,351.6,354.3,352.2z"/>
<path class="st0" d="M394.1,352.2v52.9c0,0.6-0.5,1.1-1.1,1.1h-33.9c-0.6,0-1.1-0.5-1.1-1.1v-52.9c0-0.6,0.5-1.1,1.1-1.1H393
	C393.7,351.1,394.1,351.6,394.1,352.2z"/>
<path class="st0" d="M434,352.2v52.9c0,0.6-0.5,1.1-1.1,1.1H399c-0.6,0-1.1-0.5-1.1-1.1v-52.9c0-0.6,0.5-1.1,1.1-1.1h33.9
	C433.5,351.1,434,351.6,434,352.2z"/>
<path class="st0" d="M474.4,352.2v52.9c0,0.6-0.5,1.1-1.1,1.1h-33.9c-0.6,0-1.1-0.5-1.1-1.1v-52.9c0-0.6,0.5-1.1,1.1-1.1h33.9
	C473.9,351.1,474.4,351.6,474.4,352.2z"/>
<path class="st0" d="M514.5,352.6v52.9c0,0.6-0.5,1.1-1.1,1.1h-33.9c-0.6,0-1.1-0.5-1.1-1.1v-52.9c0-0.6,0.5-1.1,1.1-1.1h33.9
	C514,351.5,514.5,352,514.5,352.6z"/>
<path class="st0" d="M547.6,352.1v53.1c0,0.6-0.4,1-1,1h-27.2c-0.6,0-1-0.4-1-1v-53.1c0-0.6,0.4-1,1-1h27.2
	C547.1,351.1,547.6,351.5,547.6,352.1z"/>
<path class="st0" d="M354.3,410.8v52.2c0,0.6-0.5,1.1-1.1,1.1h-33.9c-0.6,0-1.1-0.5-1.1-1.1v-52.2c0-0.6,0.5-1.1,1.1-1.1h33.9
	C353.8,409.7,354.3,410.2,354.3,410.8z"/>
<path class="st0" d="M363,486.5v44.7c0,0.6-0.5,1.1-1.1,1.1h-42.6c-0.6,0-1.1-0.5-1.1-1.1v-44.7c0-0.6,0.5-1.1,1.1-1.1h42.6
	C362.5,485.3,363,485.8,363,486.5z"/>
<path class="st0" d="M363,536.6v44.3c0,0.6-0.5,1.1-1.1,1.1h-42.6c-0.6,0-1.1-0.5-1.1-1.1v-44.3c0-0.6,0.5-1.1,1.1-1.1h42.6
	C362.5,535.4,363,535.9,363,536.6z"/>
<path class="st0" d="M348.1,604.6v25.1c0,0.2-0.2,0.4-0.5,0.4h-28.9c-0.2,0-0.5-0.2-0.5-0.4v-25.1c0-0.2,0.2-0.5,0.5-0.5h28.9
	C347.9,604.1,348.1,604.3,348.1,604.6z"/>
<path class="st0" d="M348.1,634.4v25.1c0,0.2-0.2,0.5-0.5,0.5h-28.9c-0.2,0-0.5-0.2-0.5-0.5v-25.1c0-0.2,0.2-0.5,0.5-0.5h28.9
	C347.9,634,348.1,634.2,348.1,634.4z"/>
<path class="st0" d="M348.1,664.3v25.1c0,0.2-0.2,0.5-0.5,0.5h-28.9c-0.2,0-0.5-0.2-0.5-0.5v-25.1c0-0.2,0.2-0.5,0.5-0.5h28.9
	C347.9,663.8,348.1,664.1,348.1,664.3z"/>
<path class="st0" d="M348.1,694.2v25.3c0,0.3-0.2,0.5-0.5,0.5h-28.9c-0.3,0-0.5-0.2-0.5-0.5v-25.3c0-0.3,0.2-0.5,0.5-0.5h28.9
	C347.9,693.7,348.1,693.9,348.1,694.2z"/>
<path class="st0" d="M360.4,742.6v34.8c0,0.4-0.3,0.6-0.6,0.6h-40.8c-0.4,0-0.6-0.3-0.6-0.6v-34.8c0-0.4,0.3-0.6,0.6-0.6h40.8
	C360.1,742,360.4,742.3,360.4,742.6z"/>
<path class="st0" d="M360.4,782.1v34.8c0,0.4-0.3,0.6-0.6,0.6h-40.8c-0.4,0-0.6-0.3-0.6-0.6v-34.8c0-0.4,0.3-0.6,0.6-0.6h40.8
	C360.1,781.5,360.4,781.7,360.4,782.1z"/>
<path class="st0" d="M345.5,839.3v62.3c0,0.4-0.3,0.7-0.7,0.7h-26c-0.4,0-0.7-0.3-0.7-0.7v-62.3c0-0.4,0.3-0.7,0.7-0.7h26
	C345.2,838.7,345.5,839,345.5,839.3z"/>
<path class="st0" d="M376.5,839.3v62.3c0,0.4-0.3,0.7-0.7,0.7h-26c-0.4,0-0.7-0.3-0.7-0.7v-62.3c0-0.4,0.3-0.7,0.7-0.7h26
	C376.2,838.7,376.5,839,376.5,839.3z"/>
<path class="st0" d="M407.5,839.3v62.3c0,0.4-0.3,0.7-0.7,0.7h-26c-0.4,0-0.7-0.3-0.7-0.7v-62.3c0-0.4,0.3-0.7,0.7-0.7h26
	C407.2,838.7,407.5,839,407.5,839.3z"/>
<path class="st0" d="M438.4,839.3v62.3c0,0.4-0.3,0.7-0.7,0.7h-26c-0.4,0-0.7-0.3-0.7-0.7v-62.3c0-0.4,0.3-0.7,0.7-0.7h26
	C438.1,838.7,438.4,839,438.4,839.3z"/>
<path class="st0" d="M469.4,839.3v62.3c0,0.4-0.3,0.7-0.7,0.7h-26c-0.4,0-0.7-0.3-0.7-0.7v-62.3c0-0.4,0.3-0.7,0.7-0.7h26
	C469.1,838.7,469.4,839,469.4,839.3z"/>
<path class="st0" d="M500.4,839.3v62.3c0,0.4-0.3,0.7-0.7,0.7h-26c-0.4,0-0.7-0.3-0.7-0.7v-62.3c0-0.4,0.3-0.7,0.7-0.7h26
	C500.1,838.7,500.4,839,500.4,839.3z"/>
<path class="st0" d="M528.8,839.2v39.9c0,0.3-0.2,0.5-0.5,0.5h-23.7c-0.3,0-0.5-0.2-0.5-0.5v-39.9c0-0.3,0.2-0.5,0.5-0.5h23.7
	C528.6,838.7,528.8,838.9,528.8,839.2z"/>
<path class="st0" d="M557.1,839.2v39.9c0,0.3-0.2,0.5-0.5,0.5h-23.7c-0.3,0-0.5-0.2-0.5-0.5v-39.9c0-0.3,0.2-0.5,0.5-0.5h23.7
	C556.9,838.7,557.1,838.9,557.1,839.2z"/>
<path class="st0" d="M585.4,839.2v39.9c0,0.3-0.2,0.5-0.5,0.5h-23.7c-0.3,0-0.5-0.2-0.5-0.5v-39.9c0-0.3,0.2-0.5,0.5-0.5h23.7
	C585.1,838.7,585.4,838.9,585.4,839.2z"/>
<path class="st0" d="M345.5,906.9v62.3c0,0.4-0.3,0.7-0.7,0.7h-26c-0.4,0-0.7-0.3-0.7-0.7v-62.3c0-0.4,0.3-0.7,0.7-0.7h26
	C345.2,906.2,345.5,906.5,345.5,906.9z"/>
<path class="st0" d="M344.8,992.6v46.1c0,0.3-0.3,0.6-0.6,0.6h-25.4c-0.3,0-0.6-0.3-0.6-0.6v-46.1c0-0.3,0.3-0.6,0.6-0.6h25.4
	C344.5,992,344.8,992.3,344.8,992.6z"/>
<path class="st0" d="M374.7,992.6v46.1c0,0.3-0.3,0.6-0.6,0.6h-25.4c-0.3,0-0.6-0.3-0.6-0.6v-46.1c0-0.3,0.3-0.6,0.6-0.6h25.4
	C374.4,992,374.7,992.3,374.7,992.6z"/>
<path class="st0" d="M404.9,992.6v46.1c0,0.3-0.3,0.6-0.6,0.6h-25.4c-0.3,0-0.6-0.3-0.6-0.6v-46.1c0-0.3,0.3-0.6,0.6-0.6h25.4
	C404.6,992,404.9,992.3,404.9,992.6z"/>
<path class="st0" d="M435.1,992.6v46.1c0,0.3-0.3,0.6-0.6,0.6h-25.4c-0.3,0-0.6-0.3-0.6-0.6v-46.1c0-0.3,0.3-0.6,0.6-0.6h25.4
	C434.8,992,435.1,992.3,435.1,992.6z"/>
<path class="st0" d="M465.2,992.6v46.1c0,0.3-0.3,0.6-0.6,0.6h-25.4c-0.3,0-0.6-0.3-0.6-0.6v-46.1c0-0.3,0.3-0.6,0.6-0.6h25.4
	C464.9,992,465.2,992.3,465.2,992.6z"/>
<path class="st0" d="M495.1,992.6v46.1c0,0.3-0.3,0.6-0.6,0.6h-25.4c-0.3,0-0.6-0.3-0.6-0.6v-46.1c0-0.3,0.3-0.6,0.6-0.6h25.4
	C494.9,992,495.1,992.3,495.1,992.6z"/>
<path class="st0" d="M525.2,992.6v46.1c0,0.3-0.3,0.6-0.6,0.6h-25.4c-0.3,0-0.6-0.3-0.6-0.6v-46.1c0-0.3,0.3-0.6,0.6-0.6h25.4
	C525,992,525.2,992.3,525.2,992.6z"/>
<path class="st0" d="M555.5,992.6v46.1c0,0.3-0.3,0.6-0.6,0.6h-25.4c-0.3,0-0.6-0.3-0.6-0.6v-46.1c0-0.3,0.3-0.6,0.6-0.6h25.4
	C555.3,992,555.5,992.3,555.5,992.6z"/>
<path class="st0" d="M585.6,992.6v46.1c0,0.3-0.3,0.6-0.6,0.6h-25.4c-0.3,0-0.6-0.3-0.6-0.6v-46.1c0-0.3,0.3-0.6,0.6-0.6H585
	C585.3,992,585.6,992.3,585.6,992.6z"/>
<path class="st0" d="M344.8,1042.9v46.1c0,0.3-0.3,0.6-0.6,0.6h-25.4c-0.3,0-0.6-0.3-0.6-0.6v-46.1c0-0.3,0.3-0.6,0.6-0.6h25.4
	C344.5,1042.3,344.8,1042.5,344.8,1042.9z"/>
<path class="st0" d="M348,1111.8v28.1c0,0.3-0.2,0.5-0.5,0.5h-28.9c-0.3,0-0.5-0.2-0.5-0.5v-28.1c0-0.3,0.2-0.5,0.5-0.5h28.9
	C347.8,1111.3,348,1111.6,348,1111.8z"/>
<path class="st0" d="M585.6,1111.9v27.9c0,0.3-0.3,0.6-0.6,0.6h-42.1c-0.3,0-0.6-0.3-0.6-0.6v-27.9c0-0.3,0.3-0.6,0.6-0.6h42.1
	C585.4,1111.3,585.6,1111.6,585.6,1111.9z"/>
<path class="st0" d="M585.6,1144.5v28.9c0,0.3-0.3,0.6-0.6,0.6h-42.1c-0.3,0-0.6-0.3-0.6-0.6v-28.9c0-0.3,0.3-0.6,0.6-0.6h42.1
	C585.4,1143.9,585.6,1144.2,585.6,1144.5z"/>
<path class="st0" d="M585.6,1178.6v28c0,0.3-0.3,0.6-0.6,0.6h-42.1c-0.3,0-0.6-0.3-0.6-0.6v-28c0-0.3,0.3-0.6,0.6-0.6h42.1
	C585.4,1178,585.6,1178.3,585.6,1178.6z"/>
<path class="st0" d="M585.6,1211.5v28.8c0,0.3-0.3,0.6-0.6,0.6h-42.1c-0.3,0-0.6-0.3-0.6-0.6v-28.8c0-0.3,0.3-0.6,0.6-0.6h42.1
	C585.4,1210.9,585.6,1211.2,585.6,1211.5z"/>
<path class="st0" d="M386.3,1112.1v61.7c0,0.4-0.3,0.8-0.8,0.8h-33.2c-0.4,0-0.8-0.3-0.8-0.8v-61.7c0-0.4,0.3-0.8,0.8-0.8h33.2
	C386,1111.3,386.3,1111.7,386.3,1112.1z"/>
<path class="st0" d="M424.6,1112.1v61.7c0,0.4-0.3,0.8-0.8,0.8h-33.2c-0.4,0-0.8-0.3-0.8-0.8v-61.7c0-0.4,0.3-0.8,0.8-0.8h33.2
	C424.2,1111.3,424.6,1111.7,424.6,1112.1z"/>
<path class="st0" d="M462.5,1112.1v61.7c0,0.4-0.3,0.8-0.8,0.8h-33.2c-0.4,0-0.8-0.3-0.8-0.8v-61.7c0-0.4,0.3-0.8,0.8-0.8h33.2
	C462.2,1111.3,462.5,1111.7,462.5,1112.1z"/>
<path class="st0" d="M500.7,1112.5v61.7c0,0.4-0.3,0.8-0.8,0.8h-33.2c-0.4,0-0.8-0.3-0.8-0.8v-61.7c0-0.4,0.3-0.8,0.8-0.8h33.2
	C500.4,1111.7,500.7,1112.1,500.7,1112.5z"/>
<path class="st0" d="M538.8,1112.1v61.7c0,0.4-0.3,0.8-0.8,0.8h-33.2c-0.4,0-0.8-0.3-0.8-0.8v-61.7c0-0.4,0.3-0.8,0.8-0.8h33.2
	C538.5,1111.3,538.8,1111.7,538.8,1112.1z"/>
<path class="st0" d="M386.3,1179.5v60.6c0,0.4-0.3,0.8-0.8,0.8h-33.2c-0.4,0-0.8-0.3-0.8-0.8v-60.6c0-0.4,0.3-0.8,0.8-0.8h33.2
	C386,1178.7,386.3,1179,386.3,1179.5z"/>
<path class="st0" d="M424.6,1179.5v60.6c0,0.4-0.3,0.8-0.8,0.8h-33.2c-0.4,0-0.8-0.3-0.8-0.8v-60.6c0-0.4,0.3-0.8,0.8-0.8h33.2
	C424.2,1178.7,424.6,1179.1,424.6,1179.5z"/>
<path class="st0" d="M462.5,1179.5v60.6c0,0.4-0.3,0.8-0.8,0.8h-33.2c-0.4,0-0.8-0.3-0.8-0.8v-60.6c0-0.4,0.3-0.8,0.8-0.8h33.2
	C462.2,1178.7,462.5,1179,462.5,1179.5z"/>
<path class="st0" d="M500.7,1179.8v60.6c0,0.4-0.3,0.8-0.8,0.8h-33.2c-0.4,0-0.8-0.3-0.8-0.8v-60.6c0-0.4,0.3-0.8,0.8-0.8h33.2
	C500.4,1179.1,500.7,1179.4,500.7,1179.8z"/>
<path class="st0" d="M538.8,1179.5v60.6c0,0.4-0.3,0.8-0.8,0.8h-33.2c-0.4,0-0.8-0.3-0.8-0.8v-60.6c0-0.4,0.3-0.8,0.8-0.8h33.2
	C538.5,1178.7,538.8,1179,538.8,1179.5z"/>
<path class="st0" d="M348,1144.8v29.1c0,0.3-0.2,0.5-0.5,0.5h-28.8c-0.3,0-0.5-0.2-0.5-0.5v-29.1c0-0.3,0.2-0.5,0.5-0.5h28.8
	C347.8,1144.3,348,1144.6,348,1144.8z"/>
<path class="st0" d="M348,1179.2v28.4c0,0.3-0.2,0.5-0.5,0.5h-28.9c-0.3,0-0.5-0.2-0.5-0.5v-28.4c0-0.3,0.2-0.5,0.5-0.5h28.9
	C347.8,1178.7,348,1178.9,348,1179.2z"/>
<path class="st0" d="M348,1212.4v28c0,0.3-0.2,0.5-0.5,0.5h-28.9c-0.3,0-0.5-0.2-0.5-0.5v-28c0-0.3,0.2-0.5,0.5-0.5h28.9
	C347.8,1211.9,348,1212.1,348,1212.4z"/>
<path class="st0" d="M344.5,1262.4v37.7c0,0.3-0.2,0.5-0.5,0.5h-25.2c-0.3,0-0.5-0.2-0.5-0.5v-37.7c0-0.3,0.2-0.5,0.5-0.5H344
	C344.2,1261.9,344.5,1262.1,344.5,1262.4z"/>
<path class="st0" d="M374.8,1262.4v37.7c0,0.3-0.2,0.5-0.5,0.5h-25.2c-0.3,0-0.5-0.2-0.5-0.5v-37.7c0-0.3,0.2-0.5,0.5-0.5h25.2
	C374.5,1261.9,374.8,1262.1,374.8,1262.4z"/>
<path class="st0" d="M404.7,1262.4v37.7c0,0.3-0.2,0.5-0.5,0.5h-25.2c-0.3,0-0.5-0.2-0.5-0.5v-37.7c0-0.3,0.2-0.5,0.5-0.5h25.2
	C404.4,1261.9,404.7,1262.1,404.7,1262.4z"/>
<path class="st0" d="M434.7,1262.4v37.7c0,0.3-0.2,0.5-0.5,0.5H409c-0.3,0-0.5-0.2-0.5-0.5v-37.7c0-0.3,0.2-0.5,0.5-0.5h25.2
	C434.5,1261.9,434.7,1262.1,434.7,1262.4z"/>
<path class="st0" d="M464.8,1262.4v37.7c0,0.3-0.2,0.5-0.5,0.5H439c-0.3,0-0.5-0.2-0.5-0.5v-37.7c0-0.3,0.2-0.5,0.5-0.5h25.2
	C464.5,1261.9,464.8,1262.1,464.8,1262.4z"/>
<path class="st0" d="M495.1,1262.4v37.7c0,0.3-0.2,0.5-0.5,0.5h-25.2c-0.3,0-0.5-0.2-0.5-0.5v-37.7c0-0.3,0.2-0.5,0.5-0.5h25.2
	C494.9,1261.9,495.1,1262.1,495.1,1262.4z"/>
<path class="st0" d="M525.3,1262.4v37.7c0,0.3-0.2,0.5-0.5,0.5h-25.2c-0.3,0-0.5-0.2-0.5-0.5v-37.7c0-0.3,0.2-0.5,0.5-0.5h25.2
	C525.1,1261.9,525.3,1262.1,525.3,1262.4z"/>
<path class="st0" d="M555.5,1262.4v37.7c0,0.3-0.2,0.5-0.5,0.5h-25.2c-0.3,0-0.5-0.2-0.5-0.5v-37.7c0-0.3,0.2-0.5,0.5-0.5h25.2
	C555.2,1261.9,555.5,1262.1,555.5,1262.4z"/>
<path class="st0" d="M585.6,1262.4v37.7c0,0.3-0.2,0.5-0.5,0.5h-25.2c-0.3,0-0.5-0.2-0.5-0.5v-37.7c0-0.3,0.2-0.5,0.5-0.5h25.2
	C585.4,1261.9,585.6,1262.1,585.6,1262.4z"/>
<path class="st0" d="M344.5,1304.1v36.2c0,0.3-0.2,0.5-0.5,0.5h-25.2c-0.3,0-0.5-0.2-0.5-0.5v-36.2c0-0.3,0.2-0.5,0.5-0.5H344
	C344.3,1303.5,344.5,1303.8,344.5,1304.1z"/>
<path class="st0" d="M341.9,1362.4v33.7c0,0.3-0.2,0.5-0.5,0.5h-22.6c-0.3,0-0.5-0.2-0.5-0.5v-33.7c0-0.3,0.2-0.5,0.5-0.5h22.6
	C341.7,1361.9,341.9,1362.1,341.9,1362.4z"/>
<path class="st0" d="M369.2,1362.4v33.7c0,0.3-0.2,0.5-0.5,0.5h-22.6c-0.3,0-0.5-0.2-0.5-0.5v-33.7c0-0.3,0.2-0.5,0.5-0.5h22.6
	C369,1361.9,369.2,1362.1,369.2,1362.4z"/>
<path class="st0" d="M397,1362.4v33.7c0,0.3-0.2,0.5-0.5,0.5h-22.6c-0.3,0-0.5-0.2-0.5-0.5v-33.7c0-0.3,0.2-0.5,0.5-0.5h22.6
	C396.7,1361.9,397,1362.1,397,1362.4z"/>
<path class="st0" d="M424.5,1362.4v33.7c0,0.3-0.2,0.5-0.5,0.5h-22.6c-0.3,0-0.5-0.2-0.5-0.5v-33.7c0-0.3,0.2-0.5,0.5-0.5H424
	C424.2,1361.9,424.5,1362.2,424.5,1362.4z"/>
<path class="st0" d="M452.1,1362.4v33.7c0,0.3-0.2,0.5-0.5,0.5h-22.6c-0.3,0-0.5-0.2-0.5-0.5v-33.7c0-0.3,0.2-0.5,0.5-0.5h22.6
	C451.9,1361.9,452.1,1362.1,452.1,1362.4z"/>
<path class="st0" d="M479.5,1362.4v33.7c0,0.3-0.2,0.5-0.5,0.5h-22.6c-0.3,0-0.5-0.2-0.5-0.5v-33.7c0-0.3,0.2-0.5,0.5-0.5H479
	C479.3,1361.9,479.5,1362.2,479.5,1362.4z"/>
<path class="st0" d="M507.1,1362.4v33.7c0,0.3-0.2,0.5-0.5,0.5h-22.6c-0.3,0-0.5-0.2-0.5-0.5v-33.7c0-0.3,0.2-0.5,0.5-0.5h22.6
	C506.9,1361.9,507.1,1362.1,507.1,1362.4z"/>
<path class="st0" d="M546.2,1362.5v33.5c0,0.3-0.3,0.6-0.6,0.6h-34.2c-0.3,0-0.6-0.3-0.6-0.6v-33.5c0-0.3,0.3-0.6,0.6-0.6h34.2
	C545.9,1361.9,546.2,1362.2,546.2,1362.5z"/>
<path class="st0" d="M585.7,1362.5v33.5c0,0.3-0.3,0.6-0.6,0.6h-34.3c-0.3,0-0.6-0.3-0.6-0.6v-33.5c0-0.3,0.3-0.6,0.6-0.6h34.3
	C585.5,1361.9,585.7,1362.2,585.7,1362.5z"/>
<path class="st0" d="M341.9,1400.5v33.7c0,0.3-0.2,0.5-0.5,0.5h-22.6c-0.3,0-0.5-0.2-0.5-0.5v-33.7c0-0.3,0.2-0.5,0.5-0.5h22.6
	C341.7,1400,341.9,1400.2,341.9,1400.5z"/>
<path class="st0" d="M369.2,1400.5v33.7c0,0.3-0.2,0.5-0.5,0.5h-22.6c-0.3,0-0.5-0.2-0.5-0.5v-33.7c0-0.3,0.2-0.5,0.5-0.5h22.6
	C369,1400,369.2,1400.2,369.2,1400.5z"/>
<path class="st0" d="M397,1400.5v33.7c0,0.3-0.2,0.5-0.5,0.5h-22.6c-0.3,0-0.5-0.2-0.5-0.5v-33.7c0-0.3,0.2-0.5,0.5-0.5h22.6
	C396.7,1400,397,1400.2,397,1400.5z"/>
<path class="st0" d="M424.5,1400.5v33.7c0,0.3-0.2,0.5-0.5,0.5h-22.6c-0.3,0-0.5-0.2-0.5-0.5v-33.7c0-0.3,0.2-0.5,0.5-0.5H424
	C424.2,1400,424.5,1400.2,424.5,1400.5z"/>
<path class="st0" d="M428.4,1457.1v46.6c0,0.3-0.3,0.6-0.6,0.6h-24.5c-0.3,0-0.6-0.3-0.6-0.6v-46.6c0-0.3,0.3-0.6,0.6-0.6h24.5
	C428.1,1456.6,428.4,1456.8,428.4,1457.1z"/>
<path class="st0" d="M457.8,1457.1v46.6c0,0.3-0.3,0.6-0.6,0.6h-24.5c-0.3,0-0.6-0.3-0.6-0.6v-46.6c0-0.3,0.3-0.6,0.6-0.6h24.5
	C457.5,1456.6,457.8,1456.8,457.8,1457.1z"/>
<path class="st0" d="M487.1,1457.1v46.6c0,0.3-0.3,0.6-0.6,0.6h-24.5c-0.3,0-0.6-0.3-0.6-0.6v-46.6c0-0.3,0.3-0.6,0.6-0.6h24.5
	C486.9,1456.6,487.1,1456.8,487.1,1457.1z"/>
<path class="st0" d="M516.5,1457.1v46.6c0,0.3-0.3,0.6-0.6,0.6h-24.5c-0.3,0-0.6-0.3-0.6-0.6v-46.6c0-0.3,0.3-0.6,0.6-0.6h24.5
	C516.2,1456.6,516.5,1456.8,516.5,1457.1z"/>
<path class="st0" d="M545.9,1457.1v46.6c0,0.3-0.3,0.6-0.6,0.6h-24.5c-0.3,0-0.6-0.3-0.6-0.6v-46.6c0-0.3,0.3-0.6,0.6-0.6h24.5
	C545.6,1456.6,545.9,1456.8,545.9,1457.1z"/>
<path class="st0" d="M585.5,1457.2v46.4c0,0.4-0.3,0.7-0.7,0.7h-33.9c-0.4,0-0.7-0.3-0.7-0.7v-46.4c0-0.4,0.3-0.7,0.7-0.7h33.9
	C585.2,1456.6,585.5,1456.8,585.5,1457.2z"/>
<path class="st0" d="M428.4,1509.2v46.4c0,0.3-0.3,0.6-0.6,0.6h-24.5c-0.3,0-0.6-0.3-0.6-0.6v-46.4c0-0.3,0.3-0.6,0.6-0.6h24.5
	C428.1,1508.7,428.4,1508.9,428.4,1509.2z"/>
<path class="st0" d="M457.8,1509.3v46.4c0,0.3-0.3,0.6-0.6,0.6h-24.5c-0.3,0-0.6-0.3-0.6-0.6v-46.4c0-0.3,0.3-0.6,0.6-0.6h24.5
	C457.5,1508.7,457.8,1508.9,457.8,1509.3z"/>
<path class="st0" d="M487.1,1509.3v46.4c0,0.3-0.3,0.6-0.6,0.6h-24.5c-0.3,0-0.6-0.3-0.6-0.6v-46.4c0-0.3,0.3-0.6,0.6-0.6h24.5
	C486.9,1508.7,487.1,1508.9,487.1,1509.3z"/>
<path class="st0" d="M516.5,1509.2v46.4c0,0.3-0.3,0.6-0.6,0.6h-24.5c-0.3,0-0.6-0.3-0.6-0.6v-46.4c0-0.3,0.3-0.6,0.6-0.6h24.5
	C516.2,1508.7,516.5,1508.9,516.5,1509.2z"/>
<path class="st0" d="M545.9,1509.2v46.4c0,0.3-0.3,0.6-0.6,0.6h-24.5c-0.3,0-0.6-0.3-0.6-0.6v-46.4c0-0.3,0.3-0.6,0.6-0.6h24.5
	C545.6,1508.7,545.9,1508.9,545.9,1509.2z"/>
<path class="st0" d="M585.5,1509.3v46.3c0,0.4-0.3,0.7-0.7,0.7h-33.9c-0.4,0-0.7-0.3-0.7-0.7v-46.3c0-0.4,0.3-0.7,0.7-0.7h33.9
	C585.2,1508.7,585.5,1509,585.5,1509.3z"/>
<path class="st0" d="M635.5,1509.2v46.4c0,0.3-0.3,0.6-0.6,0.6h-25.5c-0.3,0-0.6-0.3-0.6-0.6v-46.4c0-0.3,0.3-0.6,0.6-0.6h25.5
	C635.2,1508.6,635.5,1508.8,635.5,1509.2z"/>
<path class="st0" d="M665.5,1509.2v46.4c0,0.3-0.3,0.6-0.6,0.6h-25.5c-0.3,0-0.6-0.3-0.6-0.6v-46.4c0-0.3,0.3-0.6,0.6-0.6H665
	C665.3,1508.6,665.5,1508.9,665.5,1509.2z"/>
<path class="st0" d="M695.6,1509.2v46.4c0,0.3-0.3,0.6-0.6,0.6h-25.5c-0.3,0-0.6-0.3-0.6-0.6v-46.4c0-0.3,0.3-0.6,0.6-0.6H695
	C695.4,1508.6,695.6,1508.9,695.6,1509.2z"/>
<path class="st0" d="M725.7,1509.2v46.4c0,0.3-0.3,0.6-0.6,0.6h-25.5c-0.3,0-0.6-0.3-0.6-0.6v-46.4c0-0.3,0.3-0.6,0.6-0.6h25.5
	C725.5,1508.6,725.7,1508.8,725.7,1509.2z"/>
<path class="st0" d="M755.8,1509.2v46.4c0,0.3-0.3,0.6-0.6,0.6h-25.5c-0.3,0-0.6-0.3-0.6-0.6v-46.4c0-0.3,0.3-0.6,0.6-0.6h25.5
	C755.5,1508.6,755.8,1508.9,755.8,1509.2z"/>
<path class="st0" d="M785.9,1509.2v46.4c0,0.3-0.3,0.6-0.6,0.6h-25.5c-0.3,0-0.6-0.3-0.6-0.6v-46.4c0-0.3,0.3-0.6,0.6-0.6h25.5
	C785.6,1508.6,785.9,1508.9,785.9,1509.2z"/>
<path class="st0" d="M816,1509.2v46.4c0,0.3-0.3,0.6-0.6,0.6h-25.5c-0.3,0-0.6-0.3-0.6-0.6v-46.4c0-0.3,0.3-0.6,0.6-0.6h25.5
	C815.7,1508.6,816,1508.9,816,1509.2z"/>
<path class="st0" d="M846.4,1509.2v46.4c0,0.3-0.3,0.6-0.6,0.6h-25.5c-0.3,0-0.6-0.3-0.6-0.6v-46.4c0-0.3,0.3-0.6,0.6-0.6h25.5
	C846.1,1508.6,846.4,1508.9,846.4,1509.2z"/>
<path class="st0" d="M876.7,1509.3v46.4c0,0.3-0.3,0.6-0.6,0.6h-25.5c-0.3,0-0.6-0.3-0.6-0.6v-46.4c0-0.3,0.3-0.6,0.6-0.6h25.5
	C876.5,1508.7,876.7,1508.9,876.7,1509.3z"/>
<path class="st0" d="M635.4,1457v46.4c0,0.3-0.3,0.6-0.6,0.6h-25.5c-0.3,0-0.6-0.3-0.6-0.6V1457c0-0.3,0.3-0.6,0.6-0.6h25.5
	C635.2,1456.5,635.4,1456.7,635.4,1457z"/>
<path class="st0" d="M665.5,1457v46.4c0,0.3-0.3,0.6-0.6,0.6h-25.5c-0.3,0-0.6-0.3-0.6-0.6V1457c0-0.3,0.3-0.6,0.6-0.6H665
	C665.3,1456.5,665.5,1456.7,665.5,1457z"/>
<path class="st0" d="M695.6,1457.1v46.4c0,0.3-0.3,0.6-0.6,0.6h-25.5c-0.3,0-0.6-0.3-0.6-0.6v-46.4c0-0.3,0.3-0.6,0.6-0.6H695
	C695.4,1456.5,695.6,1456.7,695.6,1457.1z"/>
<path class="st0" d="M725.7,1457v46.4c0,0.3-0.3,0.6-0.6,0.6h-25.5c-0.3,0-0.6-0.3-0.6-0.6V1457c0-0.3,0.3-0.6,0.6-0.6h25.5
	C725.5,1456.5,725.7,1456.7,725.7,1457z"/>
<path class="st0" d="M755.8,1457.1v46.4c0,0.3-0.3,0.6-0.6,0.6h-25.5c-0.3,0-0.6-0.3-0.6-0.6v-46.4c0-0.3,0.3-0.6,0.6-0.6h25.5
	C755.5,1456.5,755.8,1456.7,755.8,1457.1z"/>
<path class="st0" d="M785.9,1457.1v46.4c0,0.3-0.3,0.6-0.6,0.6h-25.5c-0.3,0-0.6-0.3-0.6-0.6v-46.4c0-0.3,0.3-0.6,0.6-0.6h25.5
	C785.6,1456.5,785.9,1456.7,785.9,1457.1z"/>
<path class="st0" d="M816,1457v46.4c0,0.3-0.3,0.6-0.6,0.6h-25.5c-0.3,0-0.6-0.3-0.6-0.6V1457c0-0.3,0.3-0.6,0.6-0.6h25.5
	C815.7,1456.5,816,1456.7,816,1457z"/>
<path class="st0" d="M846.4,1457.1v46.4c0,0.3-0.3,0.6-0.6,0.6h-25.5c-0.3,0-0.6-0.3-0.6-0.6v-46.4c0-0.3,0.3-0.6,0.6-0.6h25.5
	C846.1,1456.5,846.4,1456.7,846.4,1457.1z"/>
<path class="st0" d="M876.7,1457.1v46.4c0,0.3-0.3,0.6-0.6,0.6h-25.5c-0.3,0-0.6-0.3-0.6-0.6v-46.4c0-0.3,0.3-0.6,0.6-0.6h25.5
	C876.5,1456.6,876.7,1456.8,876.7,1457.1z"/>
<path class="st0" d="M876.7,1400.4v33.8c0,0.3-0.2,0.5-0.5,0.5h-23.4c-0.3,0-0.5-0.2-0.5-0.5v-33.8c0-0.3,0.2-0.5,0.5-0.5h23.4
	C876.5,1399.9,876.7,1400.1,876.7,1400.4z"/>
<path class="st0" d="M848.7,1400.4v33.8c0,0.3-0.2,0.5-0.5,0.5h-23c-0.3,0-0.5-0.2-0.5-0.5v-33.8c0-0.3,0.2-0.5,0.5-0.5h23
	C848.5,1399.9,848.7,1400.1,848.7,1400.4z"/>
<path class="st0" d="M821.2,1400.4v33.8c0,0.3-0.2,0.5-0.5,0.5h-22.9c-0.3,0-0.5-0.2-0.5-0.5v-33.8c0-0.3,0.2-0.5,0.5-0.5h22.9
	C821,1399.9,821.2,1400.1,821.2,1400.4z"/>
<path class="st0" d="M793.7,1400.4v33.8c0,0.3-0.2,0.5-0.5,0.5h-23.1c-0.3,0-0.5-0.2-0.5-0.5v-33.8c0-0.3,0.2-0.5,0.5-0.5h23.1
	C793.5,1399.9,793.7,1400.1,793.7,1400.4z"/>
<path class="st0" d="M766.2,1400.4v33.8c0,0.3-0.2,0.5-0.5,0.5h-23.4c-0.3,0-0.5-0.2-0.5-0.5v-33.8c0-0.3,0.2-0.5,0.5-0.5h23.4
	C766,1399.9,766.2,1400.1,766.2,1400.4z"/>
<path class="st0" d="M738.7,1400.4v33.8c0,0.3-0.2,0.5-0.5,0.5h-23.1c-0.3,0-0.5-0.2-0.5-0.5v-33.8c0-0.3,0.2-0.5,0.5-0.5h23.1
	C738.5,1399.9,738.7,1400.1,738.7,1400.4z"/>
<path class="st0" d="M711.3,1400.4v33.8c0,0.3-0.2,0.5-0.5,0.5h-23.2c-0.3,0-0.5-0.2-0.5-0.5v-33.8c0-0.3,0.2-0.5,0.5-0.5h23.2
	C711.1,1399.9,711.3,1400.1,711.3,1400.4z"/>
<path class="st0" d="M683.6,1400.5v33.6c0,0.3-0.3,0.6-0.6,0.6H649c-0.3,0-0.6-0.3-0.6-0.6v-33.6c0-0.3,0.3-0.6,0.6-0.6h34.1
	C683.4,1399.9,683.6,1400.1,683.6,1400.5z"/>
<path class="st0" d="M644.3,1400.5v33.6c0,0.3-0.3,0.6-0.6,0.6h-34.2c-0.3,0-0.6-0.3-0.6-0.6v-33.6c0-0.3,0.3-0.6,0.6-0.6h34.2
	C644,1399.9,644.3,1400.1,644.3,1400.5z"/>
<path class="st0" d="M876.7,1362.3v33.8c0,0.3-0.2,0.5-0.5,0.5h-23.4c-0.3,0-0.5-0.2-0.5-0.5v-33.8c0-0.3,0.2-0.5,0.5-0.5h23.4
	C876.5,1361.8,876.7,1362,876.7,1362.3z"/>
<path class="st0" d="M848.7,1362.3v33.8c0,0.3-0.2,0.5-0.5,0.5h-23c-0.3,0-0.5-0.2-0.5-0.5v-33.8c0-0.3,0.2-0.5,0.5-0.5h23
	C848.5,1361.8,848.7,1362,848.7,1362.3z"/>
<path class="st0" d="M821.2,1362.3v33.8c0,0.3-0.2,0.5-0.5,0.5h-22.9c-0.3,0-0.5-0.2-0.5-0.5v-33.8c0-0.3,0.2-0.5,0.5-0.5h22.9
	C821,1361.8,821.2,1362,821.2,1362.3z"/>
<path class="st0" d="M793.7,1362.3v33.8c0,0.3-0.2,0.5-0.5,0.5h-23.1c-0.3,0-0.5-0.2-0.5-0.5v-33.8c0-0.3,0.2-0.5,0.5-0.5h23.1
	C793.5,1361.8,793.7,1362,793.7,1362.3z"/>
<path class="st0" d="M766.2,1362.3v33.8c0,0.3-0.2,0.5-0.5,0.5h-23c-0.3,0-0.5-0.2-0.5-0.5v-33.8c0-0.3,0.2-0.5,0.5-0.5h23
	C766,1361.8,766.2,1362,766.2,1362.3z"/>
<path class="st0" d="M738.7,1362.3v33.8c0,0.3-0.2,0.5-0.5,0.5h-23.1c-0.3,0-0.5-0.2-0.5-0.5v-33.8c0-0.3,0.2-0.5,0.5-0.5h23.1
	C738.5,1361.8,738.7,1362,738.7,1362.3z"/>
<path class="st0" d="M711.1,1362.3v33.8c0,0.3-0.2,0.5-0.5,0.5h-23c-0.3,0-0.5-0.2-0.5-0.5v-33.8c0-0.3,0.2-0.5,0.5-0.5h23
	C710.9,1361.8,711.1,1362,711.1,1362.3z"/>
<path class="st0" d="M683.6,1362.4v33.6c0,0.3-0.3,0.6-0.6,0.6H649c-0.3,0-0.6-0.3-0.6-0.6v-33.6c0-0.3,0.3-0.6,0.6-0.6h34.1
	C683.4,1361.8,683.6,1362.1,683.6,1362.4z"/>
<path class="st0" d="M644.2,1362.4v33.6c0,0.3-0.3,0.6-0.6,0.6h-34.1c-0.3,0-0.6-0.3-0.6-0.6v-33.6c0-0.3,0.3-0.6,0.6-0.6h34.1
	C644,1361.8,644.2,1362.1,644.2,1362.4z"/>
<path class="st0" d="M635.1,1303.8v36.3c0,0.3-0.2,0.5-0.5,0.5h-25.1c-0.3,0-0.5-0.2-0.5-0.5v-36.3c0-0.3,0.2-0.5,0.5-0.5h25.1
	C634.9,1303.2,635.1,1303.5,635.1,1303.8z"/>
<path class="st0" d="M665.1,1303.8v36.3c0,0.3-0.2,0.5-0.5,0.5h-25.1c-0.3,0-0.5-0.2-0.5-0.5v-36.3c0-0.3,0.2-0.5,0.5-0.5h25.1
	C664.9,1303.2,665.1,1303.5,665.1,1303.8z"/>
<path class="st0" d="M695.2,1303.8v36.3c0,0.3-0.2,0.5-0.5,0.5h-25.1c-0.3,0-0.5-0.2-0.5-0.5v-36.3c0-0.3,0.2-0.5,0.5-0.5h25.1
	C694.9,1303.2,695.2,1303.5,695.2,1303.8z"/>
<path class="st0" d="M725.6,1303.8v36.3c0,0.3-0.2,0.5-0.5,0.5H700c-0.3,0-0.5-0.2-0.5-0.5v-36.3c0-0.3,0.2-0.5,0.5-0.5h25.1
	C725.4,1303.2,725.6,1303.5,725.6,1303.8z"/>
<path class="st0" d="M755.7,1303.8v36.3c0,0.3-0.2,0.5-0.5,0.5h-25.1c-0.3,0-0.5-0.2-0.5-0.5v-36.3c0-0.3,0.2-0.5,0.5-0.5h25.1
	C755.4,1303.2,755.7,1303.5,755.7,1303.8z"/>
<path class="st0" d="M785.7,1303.8v36.3c0,0.3-0.2,0.5-0.5,0.5h-25.1c-0.3,0-0.5-0.2-0.5-0.5v-36.3c0-0.3,0.2-0.5,0.5-0.5h25.1
	C785.4,1303.2,785.7,1303.5,785.7,1303.8z"/>
<path class="st0" d="M815.8,1303.8v36.3c0,0.3-0.2,0.5-0.5,0.5h-25.1c-0.3,0-0.5-0.2-0.5-0.5v-36.3c0-0.3,0.2-0.5,0.5-0.5h25.1
	C815.6,1303.2,815.8,1303.5,815.8,1303.8z"/>
<path class="st0" d="M846,1303.8v36.3c0,0.3-0.2,0.5-0.5,0.5h-25.1c-0.3,0-0.5-0.2-0.5-0.5v-36.3c0-0.3,0.2-0.5,0.5-0.5h25.1
	C845.8,1303.2,846,1303.5,846,1303.8z"/>
<path class="st0" d="M876.6,1303.8v36.3c0,0.3-0.2,0.5-0.5,0.5H851c-0.3,0-0.5-0.2-0.5-0.5v-36.3c0-0.3,0.2-0.5,0.5-0.5H876
	C876.3,1303.2,876.6,1303.5,876.6,1303.8z"/>
<path class="st0" d="M635.1,1262.6v37.4c0,0.3-0.2,0.5-0.5,0.5h-25.1c-0.3,0-0.5-0.2-0.5-0.5v-37.4c0-0.3,0.2-0.5,0.5-0.5h25.1
	C634.9,1262.1,635.1,1262.3,635.1,1262.6z"/>
<path class="st0" d="M665.1,1262.6v37.4c0,0.3-0.2,0.5-0.5,0.5h-25.1c-0.3,0-0.5-0.2-0.5-0.5v-37.4c0-0.3,0.2-0.5,0.5-0.5h25.1
	C664.9,1262.1,665.1,1262.3,665.1,1262.6z"/>
<path class="st0" d="M695.2,1262.6v37.4c0,0.3-0.2,0.5-0.5,0.5h-25.1c-0.3,0-0.5-0.2-0.5-0.5v-37.4c0-0.3,0.2-0.5,0.5-0.5h25.1
	C694.9,1262.1,695.2,1262.3,695.2,1262.6z"/>
<path class="st0" d="M725.6,1262.6v37.4c0,0.3-0.2,0.5-0.5,0.5H700c-0.3,0-0.5-0.2-0.5-0.5v-37.4c0-0.3,0.2-0.5,0.5-0.5h25.1
	C725.4,1262.1,725.6,1262.3,725.6,1262.6z"/>
<path class="st0" d="M755.7,1262.6v37.4c0,0.3-0.2,0.5-0.5,0.5h-25.1c-0.3,0-0.5-0.2-0.5-0.5v-37.4c0-0.3,0.2-0.5,0.5-0.5h25.1
	C755.4,1262.1,755.7,1262.3,755.7,1262.6z"/>
<path class="st0" d="M785.7,1262.6v37.4c0,0.3-0.2,0.5-0.5,0.5h-25.1c-0.3,0-0.5-0.2-0.5-0.5v-37.4c0-0.3,0.2-0.5,0.5-0.5h25.1
	C785.4,1262.1,785.7,1262.3,785.7,1262.6z"/>
<path class="st0" d="M815.8,1262.6v37.4c0,0.3-0.2,0.5-0.5,0.5h-25.1c-0.3,0-0.5-0.2-0.5-0.5v-37.4c0-0.3,0.2-0.5,0.5-0.5h25.1
	C815.6,1262.1,815.8,1262.3,815.8,1262.6z"/>
<path class="st0" d="M846,1262.6v37.4c0,0.3-0.2,0.5-0.5,0.5h-25.1c-0.3,0-0.5-0.2-0.5-0.5v-37.4c0-0.3,0.2-0.5,0.5-0.5h25.1
	C845.8,1262.1,846,1262.3,846,1262.6z"/>
<path class="st0" d="M876.6,1262.6v37.4c0,0.3-0.2,0.5-0.5,0.5H851c-0.3,0-0.5-0.2-0.5-0.5v-37.4c0-0.3,0.2-0.5,0.5-0.5H876
	C876.3,1262.1,876.6,1262.3,876.6,1262.6z"/>
<path class="st0" d="M876.6,1211.8v28.5c0,0.3-0.2,0.5-0.5,0.5h-29c-0.3,0-0.5-0.2-0.5-0.5v-28.5c0-0.3,0.2-0.5,0.5-0.5h29
	C876.4,1211.3,876.6,1211.5,876.6,1211.8z"/>
<path class="st0" d="M876.6,1178.5v28.5c0,0.3-0.2,0.5-0.5,0.5h-29c-0.3,0-0.5-0.2-0.5-0.5v-28.5c0-0.3,0.2-0.5,0.5-0.5h29
	C876.4,1178,876.6,1178.2,876.6,1178.5z"/>
<path class="st0" d="M876.6,1145.2v28.2c0,0.3-0.2,0.5-0.5,0.5h-29c-0.3,0-0.5-0.2-0.5-0.5v-28.2c0-0.3,0.2-0.5,0.5-0.5h29
	C876.4,1144.8,876.6,1145,876.6,1145.2z"/>
<path class="st0" d="M876.6,1111.9v28.6c0,0.3-0.2,0.5-0.5,0.5h-29c-0.3,0-0.5-0.2-0.5-0.5v-28.6c0-0.3,0.2-0.5,0.5-0.5h29
	C876.4,1111.4,876.6,1111.6,876.6,1111.9z"/>
<path class="st0" d="M638.6,1211.8v28.5c0,0.3-0.2,0.5-0.5,0.5h-28.6c-0.3,0-0.5-0.2-0.5-0.5v-28.5c0-0.3,0.2-0.5,0.5-0.5h28.6
	C638.4,1211.3,638.6,1211.5,638.6,1211.8z"/>
<path class="st0" d="M638.6,1178.5v28.5c0,0.3-0.2,0.5-0.5,0.5h-28.6c-0.3,0-0.5-0.2-0.5-0.5v-28.5c0-0.3,0.2-0.5,0.5-0.5h28.6
	C638.4,1178,638.6,1178.2,638.6,1178.5z"/>
<path class="st0" d="M638.6,1145.2v28.2c0,0.3-0.2,0.5-0.5,0.5h-28.6c-0.3,0-0.5-0.2-0.5-0.5v-28.2c0-0.3,0.2-0.5,0.5-0.5h28.6
	C638.4,1144.8,638.6,1145,638.6,1145.2z"/>
<path class="st0" d="M638.6,1111.9v28.6c0,0.3-0.2,0.5-0.5,0.5h-28.6c-0.3,0-0.5-0.2-0.5-0.5v-28.6c0-0.3,0.2-0.5,0.5-0.5h28.6
	C638.4,1111.4,638.6,1111.6,638.6,1111.9z"/>
<path class="st0" d="M635.4,1043v45.7c0,0.3-0.3,0.6-0.6,0.6h-25.3c-0.3,0-0.6-0.3-0.6-0.6V1043c0-0.3,0.3-0.6,0.6-0.6h25.3
	C635.2,1042.4,635.4,1042.6,635.4,1043z"/>
<path class="st0" d="M665.5,1042.9v45.8c0,0.3-0.3,0.6-0.6,0.6h-25.3c-0.3,0-0.6-0.3-0.6-0.6v-45.8c0-0.3,0.3-0.6,0.6-0.6H665
	C665.3,1042.4,665.5,1042.6,665.5,1042.9z"/>
<path class="st0" d="M695.6,1042.9v45.7c0,0.3-0.3,0.6-0.6,0.6h-25.3c-0.3,0-0.6-0.3-0.6-0.6v-45.7c0-0.3,0.3-0.6,0.6-0.6H695
	C695.4,1042.4,695.6,1042.6,695.6,1042.9z"/>
<path class="st0" d="M725.7,1042.9v45.8c0,0.3-0.3,0.6-0.6,0.6h-25.3c-0.3,0-0.6-0.3-0.6-0.6v-45.8c0-0.3,0.3-0.6,0.6-0.6h25.3
	C725.4,1042.4,725.7,1042.6,725.7,1042.9z"/>
<path class="st0" d="M755.8,1042.9v45.8c0,0.3-0.3,0.6-0.6,0.6h-25.3c-0.3,0-0.6-0.3-0.6-0.6v-45.8c0-0.3,0.3-0.6,0.6-0.6h25.3
	C755.5,1042.4,755.8,1042.6,755.8,1042.9z"/>
<path class="st0" d="M785.9,1043v45.7c0,0.3-0.3,0.6-0.6,0.6H760c-0.3,0-0.6-0.3-0.6-0.6V1043c0-0.3,0.3-0.6,0.6-0.6h25.3
	C785.6,1042.4,785.9,1042.6,785.9,1043z"/>
<path class="st0" d="M816,1042.9v45.8c0,0.3-0.3,0.6-0.6,0.6h-25.3c-0.3,0-0.6-0.3-0.6-0.6v-45.8c0-0.3,0.3-0.6,0.6-0.6h25.3
	C815.7,1042.4,816,1042.6,816,1042.9z"/>
<path class="st0" d="M846.1,1042.9v45.7c0,0.3-0.3,0.6-0.6,0.6h-25.3c-0.3,0-0.6-0.3-0.6-0.6v-45.7c0-0.3,0.3-0.6,0.6-0.6h25.3
	C845.8,1042.4,846.1,1042.6,846.1,1042.9z"/>
<path class="st0" d="M876.1,1042.9v45.8c0,0.3-0.3,0.6-0.6,0.6h-25.3c-0.3,0-0.6-0.3-0.6-0.6v-45.8c0-0.3,0.3-0.6,0.6-0.6h25.3
	C875.9,1042.4,876.1,1042.6,876.1,1042.9z"/>
<path class="st0" d="M635.4,992.7v45.7c0,0.3-0.3,0.6-0.6,0.6h-25.3c-0.3,0-0.6-0.3-0.6-0.6v-45.7c0-0.3,0.3-0.6,0.6-0.6h25.3
	C635.2,992.1,635.4,992.4,635.4,992.7z"/>
<path class="st0" d="M665.5,992.7v45.7c0,0.3-0.3,0.6-0.6,0.6h-25.3c-0.3,0-0.6-0.3-0.6-0.6v-45.7c0-0.3,0.3-0.6,0.6-0.6h25.3
	C665.3,992.1,665.5,992.3,665.5,992.7z"/>
<path class="st0" d="M695.6,992.7v45.7c0,0.3-0.3,0.6-0.6,0.6h-25.3c-0.3,0-0.6-0.3-0.6-0.6v-45.7c0-0.3,0.3-0.6,0.6-0.6H695
	C695.4,992.1,695.6,992.3,695.6,992.7z"/>
<path class="st0" d="M725.7,992.7v45.7c0,0.3-0.3,0.6-0.6,0.6h-25.3c-0.3,0-0.6-0.3-0.6-0.6v-45.7c0-0.3,0.3-0.6,0.6-0.6h25.3
	C725.4,992.1,725.7,992.4,725.7,992.7z"/>
<path class="st0" d="M755.8,992.7v45.7c0,0.3-0.3,0.6-0.6,0.6h-25.3c-0.3,0-0.6-0.3-0.6-0.6v-45.7c0-0.3,0.3-0.6,0.6-0.6h25.3
	C755.5,992.1,755.8,992.3,755.8,992.7z"/>
<path class="st0" d="M785.9,992.7v45.7c0,0.3-0.3,0.6-0.6,0.6H760c-0.3,0-0.6-0.3-0.6-0.6v-45.7c0-0.3,0.3-0.6,0.6-0.6h25.3
	C785.6,992.1,785.9,992.3,785.9,992.7z"/>
<path class="st0" d="M816,992.7v45.7c0,0.3-0.3,0.6-0.6,0.6h-25.3c-0.3,0-0.6-0.3-0.6-0.6v-45.7c0-0.3,0.3-0.6,0.6-0.6h25.3
	C815.7,992.1,816,992.4,816,992.7z"/>
<path class="st0" d="M846,992.7v45.7c0,0.3-0.3,0.6-0.6,0.6h-25.3c-0.3,0-0.6-0.3-0.6-0.6v-45.7c0-0.3,0.3-0.6,0.6-0.6h25.3
	C845.8,992.1,846,992.3,846,992.7z"/>
<path class="st0" d="M876.1,992.7v45.7c0,0.3-0.3,0.6-0.6,0.6h-25.3c-0.3,0-0.6-0.3-0.6-0.6v-45.7c0-0.3,0.3-0.6,0.6-0.6h25.3
	C875.9,992.1,876.1,992.3,876.1,992.7z"/>
<path class="st0" d="M876.8,940.7v28.8c0,0.3-0.3,0.6-0.6,0.6H835c-0.3,0-0.6-0.3-0.6-0.6v-28.8c0-0.3,0.3-0.6,0.6-0.6h41.2
	C876.6,940.1,876.8,940.4,876.8,940.7z"/>
<path class="st0" d="M830.9,940.7v28.8c0,0.3-0.3,0.6-0.6,0.6h-40.8c-0.3,0-0.6-0.3-0.6-0.6v-28.8c0-0.3,0.3-0.6,0.6-0.6h40.8
	C830.7,940.1,830.9,940.4,830.9,940.7z"/>
<path class="st0" d="M876.8,907.8v28.8c0,0.3-0.3,0.6-0.6,0.6H835c-0.3,0-0.6-0.3-0.6-0.6v-28.8c0-0.3,0.3-0.6,0.6-0.6h41.2
	C876.6,907.3,876.8,907.5,876.8,907.8z"/>
<path class="st0" d="M830.9,907.8v28.8c0,0.3-0.3,0.6-0.6,0.6h-40.8c-0.3,0-0.6-0.3-0.6-0.6v-28.8c0-0.3,0.3-0.6,0.6-0.6h40.8
	C830.7,907.2,830.9,907.5,830.9,907.8z"/>
<path class="st0" d="M876.8,874.7v28.7c0,0.3-0.3,0.6-0.6,0.6H835c-0.3,0-0.6-0.3-0.6-0.6v-28.7c0-0.3,0.3-0.6,0.6-0.6h41.2
	C876.6,874.1,876.8,874.4,876.8,874.7z"/>
<path class="st0" d="M830.9,874.7v28.7c0,0.3-0.3,0.6-0.6,0.6h-40.8c-0.3,0-0.6-0.3-0.6-0.6v-28.7c0-0.3,0.3-0.6,0.6-0.6h40.8
	C830.7,874.1,830.9,874.4,830.9,874.7z"/>
<path class="st0" d="M876.8,841.7v28.7c0,0.3-0.3,0.6-0.6,0.6H835c-0.3,0-0.6-0.3-0.6-0.6v-28.7c0-0.3,0.3-0.6,0.6-0.6h41.2
	C876.6,841.1,876.8,841.4,876.8,841.7z"/>
<path class="st0" d="M831,841.7v28.7c0,0.3-0.3,0.6-0.6,0.6h-40.8c-0.3,0-0.6-0.3-0.6-0.6v-28.7c0-0.3,0.3-0.6,0.6-0.6h40.8
	C830.7,841.1,831,841.4,831,841.7z"/>
<path class="st0" d="M876.8,808.7v28.7c0,0.3-0.3,0.6-0.6,0.6H835c-0.3,0-0.6-0.3-0.6-0.6v-28.7c0-0.3,0.3-0.6,0.6-0.6h41.2
	C876.6,808.1,876.8,808.4,876.8,808.7z"/>
<path class="st0" d="M830.9,808.7v28.7c0,0.3-0.3,0.6-0.6,0.6h-40.8c-0.3,0-0.6-0.3-0.6-0.6v-28.7c0-0.3,0.3-0.6,0.6-0.6h40.8
	C830.7,808.1,830.9,808.4,830.9,808.7z"/>
<path class="st0" d="M876.8,775.7v28.7c0,0.3-0.3,0.6-0.6,0.6H835c-0.3,0-0.6-0.3-0.6-0.6v-28.7c0-0.3,0.3-0.6,0.6-0.6h41.2
	C876.6,775.1,876.8,775.4,876.8,775.7z"/>
<path class="st0" d="M830.9,775.7v28.7c0,0.3-0.3,0.6-0.6,0.6h-40.8c-0.3,0-0.6-0.3-0.6-0.6v-28.7c0-0.3,0.3-0.6,0.6-0.6h40.8
	C830.7,775.1,830.9,775.4,830.9,775.7z"/>
<path class="st0" d="M876.8,742.7v28.7c0,0.3-0.3,0.6-0.6,0.6H835c-0.3,0-0.6-0.3-0.6-0.6v-28.7c0-0.3,0.3-0.6,0.6-0.6h41.2
	C876.6,742.1,876.8,742.4,876.8,742.7z"/>
<path class="st0" d="M831,742.7v28.7c0,0.3-0.3,0.6-0.6,0.6h-40.8c-0.3,0-0.6-0.3-0.6-0.6v-28.7c0-0.3,0.3-0.6,0.6-0.6h40.8
	C830.7,742.1,831,742.4,831,742.7z"/>
<path class="st0" d="M639,694.1v25.5c0,0.3-0.2,0.5-0.5,0.5h-29.1c-0.3,0-0.5-0.2-0.5-0.5v-25.5c0-0.3,0.2-0.5,0.5-0.5h29.1
	C638.8,693.6,639,693.8,639,694.1z"/>
<path class="st0" d="M639,664.1v25.4c0,0.3-0.2,0.5-0.5,0.5h-29.1c-0.3,0-0.5-0.2-0.5-0.5v-25.4c0-0.3,0.2-0.5,0.5-0.5h29.1
	C638.8,663.7,639,663.9,639,664.1z"/>
<path class="st0" d="M639,634.4v25.4c0,0.3-0.2,0.5-0.5,0.5h-29.1c-0.3,0-0.5-0.2-0.5-0.5v-25.4c0-0.3,0.2-0.5,0.5-0.5h29.1
	C638.8,634,639,634.2,639,634.4z"/>
<path class="st0" d="M639,604.4v25.4c0,0.3-0.2,0.5-0.5,0.5h-29.1c-0.3,0-0.5-0.2-0.5-0.5v-25.4c0-0.3,0.2-0.5,0.5-0.5h29.1
	C638.8,603.9,639,604.1,639,604.4z"/>
<path class="st0" d="M637.4,551.5V581c0,0.3-0.2,0.5-0.5,0.5h-27.8c-0.3,0-0.5-0.2-0.5-0.5v-29.5c0-0.3,0.2-0.5,0.5-0.5H637
	C637.2,551,637.4,551.3,637.4,551.5z"/>
<path class="st0" d="M637.4,518.5v29.7c0,0.3-0.2,0.5-0.5,0.5h-27.8c-0.3,0-0.5-0.2-0.5-0.5v-29.7c0-0.3,0.2-0.5,0.5-0.5H637
	C637.2,518,637.4,518.3,637.4,518.5z"/>
<path class="st0" d="M637.4,485.7v29.5c0,0.3-0.2,0.5-0.5,0.5h-27.8c-0.3,0-0.5-0.2-0.5-0.5v-29.5c0-0.3,0.2-0.5,0.5-0.5H637
	C637.2,485.2,637.4,485.4,637.4,485.7z"/>
<path class="st0" d="M643.1,439v24.7c0,0.3-0.2,0.5-0.5,0.5h-33.4c-0.3,0-0.5-0.2-0.5-0.5V439c0-0.3,0.2-0.5,0.5-0.5h33.4
	C642.9,438.5,643.1,438.7,643.1,439z"/>
<path class="st0" d="M643.1,410.2v24.7c0,0.3-0.2,0.5-0.5,0.5h-33.4c-0.3,0-0.5-0.2-0.5-0.5v-24.7c0-0.3,0.2-0.5,0.5-0.5h33.4
	C642.9,409.7,643.1,410,643.1,410.2z"/>
<path class="st0" d="M643.1,381.4v24.7c0,0.3-0.2,0.5-0.5,0.5h-33.4c-0.3,0-0.5-0.2-0.5-0.5v-24.7c0-0.3,0.2-0.5,0.5-0.5h33.4
	C642.9,381,643.1,381.2,643.1,381.4z"/>
<path class="st0" d="M643.1,351.5V377c0,0.3-0.2,0.5-0.5,0.5h-33.4c-0.3,0-0.5-0.2-0.5-0.5v-25.5c0-0.3,0.2-0.5,0.5-0.5h33.4
	C642.9,351.1,643.1,351.3,643.1,351.5z"/>
<path class="st0" d="M638.3,301.7v28.3c0,0.3-0.2,0.5-0.5,0.5h-28.6c-0.3,0-0.5-0.2-0.5-0.5v-28.3c0-0.3,0.2-0.5,0.5-0.5h28.6
	C638.1,301.2,638.3,301.4,638.3,301.7z"/>
<path class="st0" d="M638.3,268.7v28.3c0,0.3-0.2,0.5-0.5,0.5h-28.6c-0.3,0-0.5-0.2-0.5-0.5v-28.3c0-0.3,0.2-0.5,0.5-0.5h28.6
	C638.1,268.2,638.3,268.4,638.3,268.7z"/>
<path class="st0" d="M638.3,234.6v28.3c0,0.3-0.2,0.5-0.5,0.5h-28.6c-0.3,0-0.5-0.2-0.5-0.5v-28.3c0-0.3,0.2-0.5,0.5-0.5h28.6
	C638.1,234.2,638.3,234.4,638.3,234.6z"/>
<path class="st0" d="M638.3,199.7v29.9c0,0.3-0.2,0.5-0.5,0.5h-28.6c-0.3,0-0.5-0.2-0.5-0.5v-29.9c0-0.3,0.2-0.5,0.5-0.5h28.6
	C638.1,199.2,638.3,199.4,638.3,199.7z"/>
<path class="st0" d="M676.6,200v62.9c0,0.4-0.3,0.8-0.8,0.8h-33.3c-0.4,0-0.8-0.3-0.8-0.8V200c0-0.4,0.3-0.8,0.8-0.8h33.3
	C676.3,199.2,676.6,199.5,676.6,200z"/>
<path class="st0" d="M715.4,199.9v62.9c0,0.4-0.3,0.8-0.8,0.8h-33c-0.4,0-0.8-0.3-0.8-0.8v-62.9c0-0.4,0.3-0.8,0.8-0.8h33
	C715,199.2,715.4,199.5,715.4,199.9z"/>
<path class="st0" d="M754.4,200v62.9c0,0.4-0.3,0.8-0.8,0.8h-32.9c-0.4,0-0.8-0.3-0.8-0.8V200c0-0.4,0.3-0.8,0.8-0.8h32.9
	C754,199.2,754.4,199.5,754.4,200z"/>
<path class="st0" d="M784.5,199.8V263c0,0.4-0.3,0.7-0.7,0.7h-24.2c-0.4,0-0.7-0.3-0.7-0.7v-63.2c0-0.4,0.3-0.7,0.7-0.7h24.2
	C784.2,199.2,784.5,199.5,784.5,199.8z"/>
<path class="st0" d="M813.5,199.8V263c0,0.4-0.3,0.7-0.7,0.7h-24.3c-0.4,0-0.7-0.3-0.7-0.7v-63.2c0-0.4,0.3-0.7,0.7-0.7h24.3
	C813.2,199.2,813.5,199.5,813.5,199.8z"/>
<path class="st0" d="M842.8,199.9V263c0,0.4-0.3,0.7-0.7,0.7h-24.5c-0.4,0-0.7-0.3-0.7-0.7v-63.2c0-0.4,0.3-0.7,0.7-0.7h24.5
	C842.5,199.2,842.8,199.5,842.8,199.9z"/>
<path class="st0" d="M676.6,268.4v61c0,0.4-0.3,0.8-0.8,0.8h-33.4c-0.4,0-0.8-0.3-0.8-0.8v-61c0-0.4,0.3-0.8,0.8-0.8h33.4
	C676.3,267.7,676.6,268,676.6,268.4z"/>
<path class="st0" d="M678.3,351.8v53.9c0,0.4-0.3,0.7-0.7,0.7h-30.1c-0.4,0-0.7-0.3-0.7-0.7v-53.9c0-0.4,0.3-0.7,0.7-0.7h30.1
	C678,351.1,678.3,351.4,678.3,351.8z"/>
<path class="st0" d="M713.1,351.8v53.9c0,0.4-0.3,0.7-0.7,0.7h-29.9c-0.4,0-0.7-0.3-0.7-0.7v-53.9c0-0.4,0.3-0.7,0.7-0.7h29.9
	C712.8,351.1,713.1,351.4,713.1,351.8z"/>
<path class="st0" d="M748.1,351.8v53.9c0,0.4-0.3,0.7-0.7,0.7h-29.8c-0.4,0-0.7-0.3-0.7-0.7v-53.9c0-0.4,0.3-0.7,0.7-0.7h29.8
	C747.8,351.1,748.1,351.4,748.1,351.8z"/>
<path class="st0" d="M783.2,351.8v53.9c0,0.4-0.3,0.7-0.7,0.7h-29.9c-0.4,0-0.7-0.3-0.7-0.7v-53.9c0-0.4,0.3-0.7,0.7-0.7h29.9
	C782.9,351.1,783.2,351.4,783.2,351.8z"/>
<path class="st0" d="M813.8,351.7v54c0,0.3-0.3,0.6-0.6,0.6h-25.9c-0.3,0-0.6-0.3-0.6-0.6v-54c0-0.3,0.3-0.6,0.6-0.6h25.9
	C813.5,351.1,813.8,351.4,813.8,351.7z"/>
<path class="st0" d="M844.4,351.7v54c0,0.3-0.3,0.6-0.6,0.6h-26c-0.3,0-0.6-0.3-0.6-0.6v-54c0-0.3,0.3-0.6,0.6-0.6h26
	C844.1,351.1,844.4,351.4,844.4,351.7z"/>
<path class="st0" d="M678.3,410.7v52.7c0,0.4-0.3,0.7-0.7,0.7h-30.2c-0.4,0-0.7-0.3-0.7-0.7v-52.7c0-0.4,0.3-0.7,0.7-0.7h30.2
	C678,410,678.3,410.3,678.3,410.7z"/>
<path class="st0" d="M667.9,486.1v45.7c0,0.3-0.3,0.6-0.6,0.6H642c-0.3,0-0.6-0.3-0.6-0.6v-45.7c0-0.3,0.3-0.6,0.6-0.6h25.4
	C667.7,485.5,667.9,485.7,667.9,486.1z"/>
<path class="st0" d="M698.2,486.1v45.7c0,0.3-0.3,0.6-0.6,0.6h-25.4c-0.3,0-0.6-0.3-0.6-0.6v-45.7c0-0.3,0.3-0.6,0.6-0.6h25.4
	C698,485.5,698.2,485.7,698.2,486.1z"/>
<path class="st0" d="M728.6,486.1v45.7c0,0.3-0.3,0.6-0.6,0.6h-25.4c-0.3,0-0.6-0.3-0.6-0.6v-45.7c0-0.3,0.3-0.6,0.6-0.6H728
	C728.3,485.5,728.6,485.7,728.6,486.1z"/>
<path class="st0" d="M758.9,486.1v45.7c0,0.3-0.3,0.6-0.6,0.6H733c-0.3,0-0.6-0.3-0.6-0.6v-45.7c0-0.3,0.3-0.6,0.6-0.6h25.4
	C758.7,485.5,758.9,485.7,758.9,486.1z"/>
<path class="st0" d="M800.1,486.2v45.5c0,0.4-0.3,0.7-0.7,0.7h-36.4c-0.4,0-0.7-0.3-0.7-0.7v-45.5c0-0.4,0.3-0.7,0.7-0.7h36.4
	C799.8,485.5,800.1,485.8,800.1,486.2z"/>
<path class="st0" d="M843.2,486.2v45.4c0,0.4-0.3,0.7-0.7,0.7h-37.6c-0.4,0-0.7-0.3-0.7-0.7v-45.4c0-0.4,0.3-0.7,0.7-0.7h37.6
	C842.8,485.5,843.2,485.8,843.2,486.2z"/>
<path class="st0" d="M667.9,536.3v44.8c0,0.3-0.3,0.6-0.6,0.6H642c-0.3,0-0.6-0.3-0.6-0.6v-44.8c0-0.3,0.3-0.6,0.6-0.6h25.4
	C667.7,535.8,667.9,536,667.9,536.3z"/>
<path class="st0" d="M672.5,604.6V660c0,0.4-0.3,0.7-0.7,0.7h-28.1c-0.4,0-0.7-0.3-0.7-0.7v-55.3c0-0.4,0.3-0.7,0.7-0.7h28.1
	C672.2,604,672.5,604.3,672.5,604.6z"/>
<path class="st0" d="M705.8,604.6V660c0,0.4-0.3,0.7-0.7,0.7h-28.1c-0.4,0-0.7-0.3-0.7-0.7v-55.3c0-0.4,0.3-0.7,0.7-0.7h28.1
	C705.5,604,705.8,604.3,705.8,604.6z"/>
<path class="st0" d="M739.2,604.6V660c0,0.4-0.3,0.7-0.7,0.7h-28.1c-0.4,0-0.7-0.3-0.7-0.7v-55.3c0-0.4,0.3-0.7,0.7-0.7h28.1
	C738.9,604,739.2,604.3,739.2,604.6z"/>
<path class="st0" d="M772.7,604.6V660c0,0.4-0.3,0.7-0.7,0.7H744c-0.4,0-0.7-0.3-0.7-0.7v-55.3c0-0.4,0.3-0.7,0.7-0.7H772
	C772.4,604,772.7,604.3,772.7,604.6z"/>
<path class="st0" d="M806.2,604.6V660c0,0.4-0.3,0.7-0.7,0.7h-28.1c-0.4,0-0.7-0.3-0.7-0.7v-55.3c0-0.4,0.3-0.7,0.7-0.7h28.1
	C805.9,604,806.2,604.3,806.2,604.6z"/>
<path class="st0" d="M839.3,604.6V660c0,0.4-0.3,0.7-0.7,0.7h-28.1c-0.4,0-0.7-0.3-0.7-0.7v-55.3c0-0.4,0.3-0.7,0.7-0.7h28.1
	C839,604,839.3,604.3,839.3,604.6z"/>
<path class="st0" d="M876.8,604.4v25.3c0,0.3-0.2,0.5-0.5,0.5H844c-0.3,0-0.5-0.2-0.5-0.5v-25.3c0-0.3,0.2-0.5,0.5-0.5h32.2
	C876.6,604,876.8,604.2,876.8,604.4z"/>
<path class="st0" d="M876.8,634.5v25.3c0,0.3-0.2,0.5-0.5,0.5h-32.2c-0.3,0-0.5-0.2-0.5-0.5v-25.3c0-0.3,0.2-0.5,0.5-0.5h32.2
	C876.6,634,876.8,634.3,876.8,634.5z"/>
<path class="st0" d="M876.8,664.3v25.3c0,0.3-0.2,0.5-0.5,0.5h-32.2c-0.3,0-0.5-0.2-0.5-0.5v-25.3c0-0.3,0.2-0.5,0.5-0.5h32.2
	C876.6,663.8,876.8,664.1,876.8,664.3z"/>
<path class="st0" d="M876.8,694.1v25.3c0,0.3-0.2,0.5-0.5,0.5h-32.2c-0.3,0-0.5-0.2-0.5-0.5v-25.3c0-0.3,0.2-0.5,0.5-0.5h32.2
	C876.6,693.6,876.8,693.8,876.8,694.1z"/>
<path class="st0" d="M672.5,665.3V719c0,0.4-0.3,0.7-0.7,0.7h-28.1c-0.4,0-0.7-0.3-0.7-0.7v-53.7c0-0.4,0.3-0.7,0.7-0.7h28.1
	C672.2,664.6,672.5,664.9,672.5,665.3z"/>
<path class="st0" d="M705.8,665.3V719c0,0.4-0.3,0.7-0.7,0.7H677c-0.4,0-0.7-0.3-0.7-0.7v-53.7c0-0.4,0.3-0.7,0.7-0.7h28.1
	C705.5,664.6,705.8,664.9,705.8,665.3z"/>
<path class="st0" d="M739.2,665.3V719c0,0.4-0.3,0.7-0.7,0.7h-28.1c-0.4,0-0.7-0.3-0.7-0.7v-53.7c0-0.4,0.3-0.7,0.7-0.7h28.1
	C738.9,664.6,739.2,664.9,739.2,665.3z"/>
<path class="st0" d="M772.7,665.3V719c0,0.4-0.3,0.7-0.7,0.7H744c-0.4,0-0.7-0.3-0.7-0.7v-53.7c0-0.4,0.3-0.7,0.7-0.7h28.1
	C772.4,664.6,772.7,664.9,772.7,665.3z"/>
<path class="st0" d="M806.2,665.3V719c0,0.4-0.3,0.7-0.7,0.7h-28.1c-0.4,0-0.7-0.3-0.7-0.7v-53.7c0-0.4,0.3-0.7,0.7-0.7h28.1
	C805.9,664.6,806.2,664.9,806.2,665.3z"/>
<path class="st0" d="M839.3,665.3V719c0,0.4-0.3,0.7-0.7,0.7h-28.1c-0.4,0-0.7-0.3-0.7-0.7v-53.7c0-0.4,0.3-0.7,0.7-0.7h28.1
	C839,664.6,839.3,664.9,839.3,665.3z"/>
<path class="st0" d="M698.2,536.3v44.8c0,0.3-0.3,0.6-0.6,0.6h-25.4c-0.3,0-0.6-0.3-0.6-0.6v-44.8c0-0.3,0.3-0.6,0.6-0.6h25.4
	C698,535.8,698.2,536,698.2,536.3z"/>
<path class="st0" d="M728.6,536.3v44.8c0,0.3-0.3,0.6-0.6,0.6h-25.4c-0.3,0-0.6-0.3-0.6-0.6v-44.8c0-0.3,0.3-0.6,0.6-0.6H728
	C728.3,535.8,728.6,536,728.6,536.3z"/>
<path class="st0" d="M758.9,536.3v44.8c0,0.3-0.3,0.6-0.6,0.6H733c-0.3,0-0.6-0.3-0.6-0.6v-44.8c0-0.3,0.3-0.6,0.6-0.6h25.4
	C758.7,535.8,758.9,536,758.9,536.3z"/>
<path class="st0" d="M800.1,536.4V581c0,0.4-0.3,0.7-0.7,0.7h-36.4c-0.4,0-0.7-0.3-0.7-0.7v-44.6c0-0.4,0.3-0.7,0.7-0.7h36.4
	C799.8,535.8,800.1,536.1,800.1,536.4z"/>
<path class="st0" d="M843.2,536.4V581c0,0.4-0.3,0.7-0.7,0.7h-37.7c-0.4,0-0.7-0.3-0.7-0.7v-44.6c0-0.4,0.3-0.7,0.7-0.7h37.7
	C842.9,535.8,843.2,536.1,843.2,536.4z"/>
<path class="st0" d="M876.7,486v29.2c0,0.3-0.2,0.5-0.5,0.5H848c-0.3,0-0.5-0.2-0.5-0.5V486c0-0.3,0.2-0.5,0.5-0.5h28.2
	C876.5,485.5,876.7,485.7,876.7,486z"/>
<path class="st0" d="M876.7,429.9v33.6c0,0.3-0.2,0.5-0.5,0.5h-27.6c-0.3,0-0.5-0.2-0.5-0.5v-33.6c0-0.3,0.2-0.5,0.5-0.5h27.6
	C876.5,429.4,876.7,429.7,876.7,429.9z"/>
<path class="st0" d="M876.7,390.8v34.2c0,0.3-0.2,0.5-0.5,0.5h-27.6c-0.3,0-0.5-0.2-0.5-0.5v-34.2c0-0.3,0.2-0.5,0.5-0.5h27.6
	C876.4,390.2,876.7,390.5,876.7,390.8z"/>
<path class="st0" d="M876.7,351.5v34.3c0,0.3-0.2,0.5-0.5,0.5h-27.6c-0.3,0-0.5-0.2-0.5-0.5v-34.3c0-0.3,0.2-0.5,0.5-0.5h27.6
	C876.4,351,876.7,351.2,876.7,351.5z"/>
<path class="st0" d="M876.7,301v28.9c0,0.3-0.2,0.5-0.5,0.5h-28.6c-0.3,0-0.5-0.2-0.5-0.5V301c0-0.3,0.2-0.5,0.5-0.5h28.6
	C876.5,300.5,876.7,300.7,876.7,301z"/>
<path class="st0" d="M876.7,267.2v29.5c0,0.3-0.2,0.5-0.5,0.5h-28.6c-0.3,0-0.5-0.2-0.5-0.5v-29.5c0-0.3,0.2-0.5,0.5-0.5h28.6
	C876.5,266.8,876.7,267,876.7,267.2z"/>
<path class="st0" d="M876.7,233.9v29c0,0.3-0.2,0.5-0.5,0.5h-28.6c-0.3,0-0.5-0.2-0.5-0.5v-29c0-0.3,0.2-0.5,0.5-0.5h28.6
	C876.5,233.4,876.7,233.6,876.7,233.9z"/>
<path class="st0" d="M876.7,199.7v29.9c0,0.3-0.2,0.5-0.5,0.5h-28.6c-0.3,0-0.5-0.2-0.5-0.5v-29.9c0-0.3,0.2-0.5,0.5-0.5h28.6
	C876.5,199.2,876.7,199.4,876.7,199.7z"/>
<path class="st0" d="M876.7,518.6v29.5c0,0.3-0.2,0.5-0.5,0.5H848c-0.3,0-0.5-0.2-0.5-0.5v-29.5c0-0.3,0.2-0.5,0.5-0.5h28.2
	C876.5,518.1,876.7,518.3,876.7,518.6z"/>
<path class="st0" d="M876.7,551.5v29.8c0,0.3-0.2,0.5-0.5,0.5H848c-0.3,0-0.5-0.2-0.5-0.5v-29.8c0-0.3,0.2-0.5,0.5-0.5h28.2
	C876.5,551,876.7,551.3,876.7,551.5z"/>
<path class="st0" d="M713.1,410.7v52.7c0,0.4-0.3,0.7-0.7,0.7h-29.9c-0.4,0-0.7-0.3-0.7-0.7v-52.7c0-0.4,0.3-0.7,0.7-0.7h29.9
	C712.8,410,713.1,410.3,713.1,410.7z"/>
<path class="st0" d="M748.1,410.6v52.7c0,0.4-0.3,0.7-0.7,0.7h-29.9c-0.4,0-0.7-0.3-0.7-0.7v-52.7c0-0.4,0.3-0.7,0.7-0.7h29.9
	C747.8,410,748.1,410.3,748.1,410.6z"/>
<path class="st0" d="M783.2,410.7v52.7c0,0.4-0.3,0.7-0.7,0.7h-29.9c-0.4,0-0.7-0.3-0.7-0.7v-52.7c0-0.4,0.3-0.7,0.7-0.7h29.9
	C782.9,410,783.2,410.3,783.2,410.7z"/>
<path class="st0" d="M813.8,410.6v52.8c0,0.3-0.3,0.6-0.6,0.6h-25.9c-0.3,0-0.6-0.3-0.6-0.6v-52.8c0-0.3,0.3-0.6,0.6-0.6h25.9
	C813.5,410,813.8,410.3,813.8,410.6z"/>
<path class="st0" d="M844.4,410.6v52.8c0,0.3-0.3,0.6-0.6,0.6h-26c-0.3,0-0.6-0.3-0.6-0.6v-52.8c0-0.3,0.3-0.6,0.6-0.6h26
	C844.1,410,844.4,410.3,844.4,410.6z"/>
<path class="st0" d="M715.4,268.4v61c0,0.4-0.3,0.8-0.8,0.8h-33c-0.4,0-0.8-0.3-0.8-0.8v-61c0-0.4,0.3-0.8,0.8-0.8h33
	C715,267.7,715.4,268,715.4,268.4z"/>
<path class="st0" d="M754.4,268.4v61c0,0.4-0.3,0.8-0.8,0.8h-32.9c-0.4,0-0.8-0.3-0.8-0.8v-61c0-0.4,0.3-0.8,0.8-0.8h32.9
	C754,267.7,754.4,268,754.4,268.4z"/>
<path class="st0" d="M784.5,268.3v61.2c0,0.4-0.3,0.7-0.6,0.7h-24.2c-0.4,0-0.6-0.3-0.6-0.7v-61.2c0-0.4,0.3-0.7,0.6-0.7h24.2
	C784.3,267.7,784.5,268,784.5,268.3z"/>
<path class="st0" d="M813.5,268.3v61.2c0,0.4-0.3,0.7-0.7,0.7h-24.3c-0.4,0-0.7-0.3-0.7-0.7v-61.2c0-0.4,0.3-0.7,0.7-0.7h24.3
	C813.2,267.7,813.5,268,813.5,268.3z"/>
<path class="st0" d="M842.8,268.3v61.2c0,0.4-0.3,0.7-0.7,0.7h-24.5c-0.4,0-0.7-0.3-0.7-0.7v-61.2c0-0.4,0.3-0.7,0.7-0.7h24.5
	C842.5,267.7,842.8,268,842.8,268.3z"/>
<path class="st0" d="M677.7,1112.2v62.1c0,0.4-0.3,0.8-0.8,0.8h-32.7c-0.4,0-0.8-0.3-0.8-0.8v-62.1c0-0.4,0.3-0.8,0.8-0.8h32.7
	C677.3,1111.4,677.7,1111.7,677.7,1112.2z"/>
<path class="st0" d="M716.1,1112.1v62.1c0,0.4-0.3,0.8-0.8,0.8h-32.7c-0.4,0-0.8-0.3-0.8-0.8v-62.1c0-0.4,0.3-0.8,0.8-0.8h32.7
	C715.7,1111.4,716.1,1111.7,716.1,1112.1z"/>
<path class="st0" d="M754.5,1112.1v62.1c0,0.4-0.3,0.8-0.8,0.8H721c-0.4,0-0.8-0.3-0.8-0.8v-62.1c0-0.4,0.3-0.8,0.8-0.8h32.7
	C754.2,1111.4,754.5,1111.7,754.5,1112.1z"/>
<path class="st0" d="M784.1,1112v62.3c0,0.4-0.3,0.7-0.7,0.7h-24.1c-0.4,0-0.7-0.3-0.7-0.7V1112c0-0.4,0.3-0.7,0.7-0.7h24.1
	C783.8,1111.4,784.1,1111.7,784.1,1112z"/>
<path class="st0" d="M813.3,1112v62.3c0,0.4-0.3,0.7-0.7,0.7h-24c-0.4,0-0.7-0.3-0.7-0.7V1112c0-0.4,0.3-0.7,0.7-0.7h24
	C813,1111.4,813.3,1111.7,813.3,1112z"/>
<path class="st0" d="M842.7,1112v62.3c0,0.4-0.3,0.7-0.7,0.7h-24.1c-0.4,0-0.7-0.3-0.7-0.7V1112c0-0.4,0.3-0.7,0.7-0.7H842
	C842.4,1111.4,842.7,1111.7,842.7,1112z"/>
<path class="st0" d="M677.7,1179.4v60.5c0,0.4-0.3,0.8-0.8,0.8h-32.7c-0.4,0-0.8-0.3-0.8-0.8v-60.5c0-0.4,0.3-0.8,0.8-0.8h32.7
	C677.3,1178.7,677.7,1179,677.7,1179.4z"/>
<path class="st0" d="M716.1,1179.4v60.5c0,0.4-0.3,0.8-0.8,0.8h-32.7c-0.4,0-0.8-0.3-0.8-0.8v-60.5c0-0.4,0.3-0.8,0.8-0.8h32.7
	C715.7,1178.7,716.1,1179,716.1,1179.4z"/>
<path class="st0" d="M754.5,1179.4v60.5c0,0.4-0.3,0.8-0.8,0.8H721c-0.4,0-0.8-0.3-0.8-0.8v-60.5c0-0.4,0.3-0.8,0.8-0.8h32.7
	C754.2,1178.7,754.5,1179,754.5,1179.4z"/>
<path class="st0" d="M784.1,1179.3v60.7c0,0.4-0.3,0.7-0.7,0.7h-24.1c-0.4,0-0.7-0.3-0.7-0.7v-60.7c0-0.4,0.3-0.7,0.7-0.7h24.1
	C783.8,1178.7,784.1,1179,784.1,1179.3z"/>
<path class="st0" d="M813.3,1179.3v60.7c0,0.4-0.3,0.7-0.7,0.7h-24c-0.4,0-0.7-0.3-0.7-0.7v-60.7c0-0.4,0.3-0.7,0.7-0.7h24
	C813,1178.7,813.3,1179,813.3,1179.3z"/>
<path class="st0" d="M842.7,1179.3v60.7c0,0.4-0.3,0.7-0.7,0.7h-24.1c-0.4,0-0.7-0.3-0.7-0.7v-60.7c0-0.4,0.3-0.7,0.7-0.7h24.1
	C842.4,1178.7,842.7,1179,842.7,1179.3z"/>
<path class="st0" d="M452.1,1400.5v33.7c0,0.3-0.2,0.5-0.5,0.5h-22.6c-0.3,0-0.5-0.2-0.5-0.5v-33.7c0-0.3,0.2-0.5,0.5-0.5h22.6
	C451.9,1400,452.1,1400.2,452.1,1400.5z"/>
<path class="st0" d="M479.5,1400.5v33.7c0,0.3-0.2,0.5-0.5,0.5h-22.6c-0.3,0-0.5-0.2-0.5-0.5v-33.7c0-0.3,0.2-0.5,0.5-0.5H479
	C479.3,1400,479.5,1400.2,479.5,1400.5z"/>
<path class="st0" d="M507.1,1400.5v33.7c0,0.3-0.2,0.5-0.5,0.5h-22.6c-0.3,0-0.5-0.2-0.5-0.5v-33.7c0-0.3,0.2-0.5,0.5-0.5h22.6
	C506.9,1400,507.1,1400.2,507.1,1400.5z"/>
<path class="st0" d="M546.2,1400.6v33.5c0,0.3-0.3,0.6-0.6,0.6h-34.2c-0.3,0-0.6-0.3-0.6-0.6v-33.5c0-0.3,0.3-0.6,0.6-0.6h34.2
	C545.9,1400,546.2,1400.3,546.2,1400.6z"/>
<path class="st0" d="M585.7,1400.6v33.5c0,0.3-0.3,0.6-0.6,0.6h-34.3c-0.3,0-0.6-0.3-0.6-0.6v-33.5c0-0.3,0.3-0.6,0.6-0.6h34.3
	C585.5,1400,585.7,1400.3,585.7,1400.6z"/>
<path class="st0" d="M374.8,1304.1v36.2c0,0.3-0.2,0.5-0.5,0.5H349c-0.3,0-0.5-0.2-0.5-0.5v-36.2c0-0.3,0.2-0.5,0.5-0.5h25.2
	C374.6,1303.5,374.8,1303.8,374.8,1304.1z"/>
<path class="st0" d="M404.7,1304v36.2c0,0.3-0.2,0.5-0.5,0.5h-25.2c-0.3,0-0.5-0.2-0.5-0.5V1304c0-0.3,0.2-0.5,0.5-0.5h25.2
	C404.4,1303.5,404.7,1303.8,404.7,1304z"/>
<path class="st0" d="M434.7,1304.1v36.2c0,0.3-0.2,0.5-0.5,0.5H409c-0.3,0-0.5-0.2-0.5-0.5v-36.2c0-0.3,0.2-0.5,0.5-0.5h25.2
	C434.5,1303.5,434.7,1303.8,434.7,1304.1z"/>
<path class="st0" d="M464.8,1304v36.2c0,0.3-0.2,0.5-0.5,0.5H439c-0.3,0-0.5-0.2-0.5-0.5V1304c0-0.3,0.2-0.5,0.5-0.5h25.2
	C464.5,1303.5,464.8,1303.8,464.8,1304z"/>
<path class="st0" d="M495.1,1304.1v36.2c0,0.3-0.2,0.5-0.5,0.5h-25.2c-0.3,0-0.5-0.2-0.5-0.5v-36.2c0-0.3,0.2-0.5,0.5-0.5h25.2
	C494.9,1303.5,495.1,1303.8,495.1,1304.1z"/>
<path class="st0" d="M525.3,1304.1v36.2c0,0.3-0.2,0.5-0.5,0.5h-25.2c-0.3,0-0.5-0.2-0.5-0.5v-36.2c0-0.3,0.2-0.5,0.5-0.5h25.2
	C525.1,1303.5,525.3,1303.8,525.3,1304.1z"/>
<path class="st0" d="M555.5,1304.1v36.2c0,0.3-0.2,0.5-0.5,0.5h-25.2c-0.3,0-0.5-0.2-0.5-0.5v-36.2c0-0.3,0.2-0.5,0.5-0.5H555
	C555.2,1303.5,555.5,1303.8,555.5,1304.1z"/>
<path class="st0" d="M585.6,1304.1v36.2c0,0.3-0.2,0.5-0.5,0.5h-25.2c-0.3,0-0.5-0.2-0.5-0.5v-36.2c0-0.3,0.2-0.5,0.5-0.5h25.2
	C585.4,1303.5,585.6,1303.8,585.6,1304.1z"/>
<path class="st0" d="M374.7,1042.9v46.1c0,0.3-0.3,0.6-0.6,0.6h-25.4c-0.3,0-0.6-0.3-0.6-0.6v-46.1c0-0.3,0.3-0.6,0.6-0.6h25.4
	C374.4,1042.3,374.7,1042.5,374.7,1042.9z"/>
<path class="st0" d="M404.9,1042.9v46.1c0,0.3-0.3,0.6-0.6,0.6h-25.4c-0.3,0-0.6-0.3-0.6-0.6v-46.1c0-0.3,0.3-0.6,0.6-0.6h25.4
	C404.6,1042.3,404.9,1042.5,404.9,1042.9z"/>
<path class="st0" d="M435.1,1042.9v46.1c0,0.3-0.3,0.6-0.6,0.6h-25.4c-0.3,0-0.6-0.3-0.6-0.6v-46.1c0-0.3,0.3-0.6,0.6-0.6h25.4
	C434.8,1042.3,435.1,1042.5,435.1,1042.9z"/>
<path class="st0" d="M465.2,1042.9v46.1c0,0.3-0.3,0.6-0.6,0.6h-25.4c-0.3,0-0.6-0.3-0.6-0.6v-46.1c0-0.3,0.3-0.6,0.6-0.6h25.4
	C464.9,1042.3,465.2,1042.5,465.2,1042.9z"/>
<path class="st0" d="M495.1,1042.9v46.1c0,0.3-0.3,0.6-0.6,0.6h-25.4c-0.3,0-0.6-0.3-0.6-0.6v-46.1c0-0.3,0.3-0.6,0.6-0.6h25.4
	C494.9,1042.3,495.1,1042.5,495.1,1042.9z"/>
<path class="st0" d="M525.2,1042.9v46.1c0,0.3-0.3,0.6-0.6,0.6h-25.4c-0.3,0-0.6-0.3-0.6-0.6v-46.1c0-0.3,0.3-0.6,0.6-0.6h25.4
	C525,1042.3,525.2,1042.5,525.2,1042.9z"/>
<path class="st0" d="M555.5,1042.9v46.1c0,0.3-0.3,0.6-0.6,0.6h-25.4c-0.3,0-0.6-0.3-0.6-0.6v-46.1c0-0.3,0.3-0.6,0.6-0.6H555
	C555.3,1042.3,555.5,1042.5,555.5,1042.9z"/>
<path class="st0" d="M585.6,1042.9v46.1c0,0.3-0.3,0.6-0.6,0.6h-25.4c-0.3,0-0.6-0.3-0.6-0.6v-46.1c0-0.3,0.3-0.6,0.6-0.6H585
	C585.3,1042.3,585.6,1042.5,585.6,1042.9z"/>
<path class="st0" d="M376.5,906.9v62.3c0,0.4-0.3,0.7-0.7,0.7h-26c-0.4,0-0.7-0.3-0.7-0.7v-62.3c0-0.4,0.3-0.7,0.7-0.7h26
	C376.2,906.2,376.5,906.5,376.5,906.9z"/>
<path class="st0" d="M407.5,906.9v62.3c0,0.4-0.3,0.7-0.7,0.7h-26c-0.4,0-0.7-0.3-0.7-0.7v-62.3c0-0.4,0.3-0.7,0.7-0.7h26
	C407.2,906.2,407.5,906.5,407.5,906.9z"/>
<path class="st0" d="M438.5,906.9v62.3c0,0.4-0.3,0.7-0.7,0.7h-26c-0.4,0-0.7-0.3-0.7-0.7v-62.3c0-0.4,0.3-0.7,0.7-0.7h26
	C438.1,906.2,438.5,906.5,438.5,906.9z"/>
<path class="st0" d="M469.4,906.9v62.3c0,0.4-0.3,0.7-0.7,0.7h-26c-0.4,0-0.7-0.3-0.7-0.7v-62.3c0-0.4,0.3-0.7,0.7-0.7h26
	C469.1,906.2,469.4,906.5,469.4,906.9z"/>
<path class="st0" d="M500.4,906.9v62.3c0,0.4-0.3,0.7-0.7,0.7h-26c-0.4,0-0.7-0.3-0.7-0.7v-62.3c0-0.4,0.3-0.7,0.7-0.7h26
	C500.1,906.2,500.4,906.5,500.4,906.9z"/>
<path class="st0" d="M388.9,742.4v35.1c0,0.3-0.2,0.5-0.5,0.5h-23.8c-0.3,0-0.5-0.2-0.5-0.5v-35.1c0-0.3,0.2-0.5,0.5-0.5h23.8
	C388.6,742,388.9,742.2,388.9,742.4z"/>
<path class="st0" d="M388.9,781.9v35.1c0,0.3-0.2,0.5-0.5,0.5h-23.8c-0.3,0-0.5-0.2-0.5-0.5v-35.1c0-0.3,0.2-0.5,0.5-0.5h23.8
	C388.6,781.4,388.9,781.7,388.9,781.9z"/>
<path class="st0" d="M417,742.5v35.1c0,0.3-0.2,0.5-0.5,0.5h-23.8c-0.3,0-0.5-0.2-0.5-0.5v-35.1c0-0.3,0.2-0.5,0.5-0.5h23.8
	C416.8,742,417,742.2,417,742.5z"/>
<path class="st0" d="M417,781.9v35.1c0,0.3-0.2,0.5-0.5,0.5h-23.8c-0.3,0-0.5-0.2-0.5-0.5v-35.1c0-0.3,0.2-0.5,0.5-0.5h23.8
	C416.8,781.4,417,781.7,417,781.9z"/>
<path class="st0" d="M445.1,742.4v35.1c0,0.3-0.2,0.5-0.5,0.5h-23.8c-0.3,0-0.5-0.2-0.5-0.5v-35.1c0-0.3,0.2-0.5,0.5-0.5h23.8
	C444.9,742,445.1,742.2,445.1,742.4z"/>
<path class="st0" d="M445.1,781.9v35.1c0,0.3-0.2,0.5-0.5,0.5h-23.8c-0.3,0-0.5-0.2-0.5-0.5v-35.1c0-0.3,0.2-0.5,0.5-0.5h23.8
	C444.9,781.4,445.1,781.7,445.1,781.9z"/>
<path class="st0" d="M473.2,742.5v35.1c0,0.3-0.2,0.5-0.5,0.5h-23.8c-0.3,0-0.5-0.2-0.5-0.5v-35.1c0-0.3,0.2-0.5,0.5-0.5h23.8
	C472.9,742,473.2,742.2,473.2,742.5z"/>
<path class="st0" d="M473.1,781.9v35.1c0,0.3-0.2,0.5-0.5,0.5h-23.8c-0.3,0-0.5-0.2-0.5-0.5v-35.1c0-0.3,0.2-0.5,0.5-0.5h23.8
	C472.9,781.5,473.1,781.7,473.1,781.9z"/>
<path class="st0" d="M501.4,742.4v35.1c0,0.3-0.2,0.5-0.5,0.5h-23.8c-0.3,0-0.5-0.2-0.5-0.5v-35.1c0-0.3,0.2-0.5,0.5-0.5h23.8
	C501.2,742,501.4,742.2,501.4,742.4z"/>
<path class="st0" d="M501.4,781.9v35.1c0,0.3-0.2,0.5-0.5,0.5h-23.8c-0.3,0-0.5-0.2-0.5-0.5v-35.1c0-0.3,0.2-0.5,0.5-0.5h23.8
	C501.2,781.4,501.4,781.7,501.4,781.9z"/>
<path class="st0" d="M529.4,742.4v35.1c0,0.3-0.2,0.5-0.5,0.5h-23.8c-0.3,0-0.5-0.2-0.5-0.5v-35.1c0-0.3,0.2-0.5,0.5-0.5h23.8
	C529.2,742,529.4,742.2,529.4,742.4z"/>
<path class="st0" d="M529.4,781.9V817c0,0.3-0.2,0.5-0.5,0.5h-23.8c-0.3,0-0.5-0.2-0.5-0.5v-35.1c0-0.3,0.2-0.5,0.5-0.5h23.8
	C529.2,781.4,529.4,781.7,529.4,781.9z"/>
<path class="st0" d="M557.4,742.4v35.1c0,0.3-0.2,0.5-0.5,0.5h-23.8c-0.3,0-0.5-0.2-0.5-0.5v-35.1c0-0.3,0.2-0.5,0.5-0.5H557
	C557.2,742,557.4,742.2,557.4,742.4z"/>
<path class="st0" d="M557.4,781.9V817c0,0.3-0.2,0.5-0.5,0.5h-23.8c-0.3,0-0.5-0.2-0.5-0.5v-35.1c0-0.3,0.2-0.5,0.5-0.5H557
	C557.2,781.4,557.4,781.7,557.4,781.9z"/>
<path class="st0" d="M585.7,742.5v35.1c0,0.3-0.2,0.5-0.5,0.5h-23.8c-0.3,0-0.5-0.2-0.5-0.5v-35.1c0-0.3,0.2-0.5,0.5-0.5h23.8
	C585.5,742,585.7,742.2,585.7,742.5z"/>
<path class="st0" d="M585.7,781.9v35.1c0,0.3-0.2,0.5-0.5,0.5h-23.8c-0.3,0-0.5-0.2-0.5-0.5v-35.1c0-0.3,0.2-0.5,0.5-0.5h23.8
	C585.5,781.4,585.7,781.7,585.7,781.9z"/>
<path class="st0" d="M381.7,604.6V660c0,0.4-0.3,0.7-0.7,0.7h-28.2c-0.4,0-0.7-0.3-0.7-0.7v-55.4c0-0.4,0.3-0.7,0.7-0.7H381
	C381.4,603.9,381.7,604.2,381.7,604.6z"/>
<path class="st0" d="M415.1,604.6V660c0,0.4-0.3,0.7-0.7,0.7h-28.2c-0.4,0-0.7-0.3-0.7-0.7v-55.4c0-0.4,0.3-0.7,0.7-0.7h28.2
	C414.8,603.9,415.1,604.2,415.1,604.6z"/>
<path class="st0" d="M448.5,604.6V660c0,0.4-0.3,0.7-0.7,0.7h-28.2c-0.4,0-0.7-0.3-0.7-0.7v-55.4c0-0.4,0.3-0.7,0.7-0.7h28.2
	C448.2,603.9,448.5,604.2,448.5,604.6z"/>
<path class="st0" d="M481.9,604.6V660c0,0.4-0.3,0.7-0.7,0.7H453c-0.4,0-0.7-0.3-0.7-0.7v-55.4c0-0.4,0.3-0.7,0.7-0.7h28.2
	C481.6,603.9,481.9,604.2,481.9,604.6z"/>
<path class="st0" d="M515.3,604.6V660c0,0.4-0.3,0.7-0.7,0.7h-28.2c-0.4,0-0.7-0.3-0.7-0.7v-55.4c0-0.4,0.3-0.7,0.7-0.7h28.2
	C515,603.9,515.3,604.2,515.3,604.6z"/>
<path class="st0" d="M548.6,604.6V660c0,0.4-0.3,0.7-0.7,0.7h-28.2c-0.4,0-0.7-0.3-0.7-0.7v-55.4c0-0.4,0.3-0.7,0.7-0.7H548
	C548.3,603.9,548.6,604.2,548.6,604.6z"/>
<path class="st0" d="M381.7,665.2v54c0,0.4-0.3,0.7-0.7,0.7h-28.2c-0.4,0-0.7-0.3-0.7-0.7v-54c0-0.4,0.3-0.7,0.7-0.7h28.2
	C381.4,664.6,381.7,664.9,381.7,665.2z"/>
<path class="st0" d="M415.1,665.2v54c0,0.4-0.3,0.7-0.7,0.7h-28.2c-0.4,0-0.7-0.3-0.7-0.7v-54c0-0.4,0.3-0.7,0.7-0.7h28.2
	C414.8,664.6,415.1,664.9,415.1,665.2z"/>
<path class="st0" d="M448.5,665.2v54c0,0.4-0.3,0.7-0.7,0.7h-28.2c-0.4,0-0.7-0.3-0.7-0.7v-54c0-0.4,0.3-0.7,0.7-0.7h28.2
	C448.2,664.6,448.5,664.9,448.5,665.2z"/>
<path class="st0" d="M481.9,665.2v54c0,0.4-0.3,0.7-0.7,0.7H453c-0.4,0-0.7-0.3-0.7-0.7v-54c0-0.4,0.3-0.7,0.7-0.7h28.2
	C481.6,664.6,481.9,664.9,481.9,665.2z"/>
<path class="st0" d="M515.3,665.2v54c0,0.4-0.3,0.7-0.7,0.7h-28.2c-0.4,0-0.7-0.3-0.7-0.7v-54c0-0.4,0.3-0.7,0.7-0.7h28.2
	C515,664.6,515.3,664.9,515.3,665.2z"/>
<path class="st0" d="M548.6,665.2v54c0,0.4-0.3,0.7-0.7,0.7h-28.2c-0.4,0-0.7-0.3-0.7-0.7v-54c0-0.4,0.3-0.7,0.7-0.7H548
	C548.4,664.6,548.6,664.9,548.6,665.2z"/>
<path class="st0" d="M390.4,486.2v45.3c0,0.5-0.4,0.8-0.8,0.8h-22.4c-0.5,0-0.8-0.4-0.8-0.8v-45.3c0-0.5,0.4-0.8,0.8-0.8h22.4
	C390,485.3,390.4,485.7,390.4,486.2z"/>
<path class="st0" d="M390.4,536.2v45c0,0.5-0.4,0.8-0.8,0.8h-22.4c-0.5,0-0.8-0.4-0.8-0.8v-45c0-0.5,0.4-0.8,0.8-0.8h22.4
	C390,535.4,390.4,535.8,390.4,536.2z"/>
<path class="st0" d="M417.5,486.2v45.3c0,0.5-0.4,0.8-0.8,0.8h-22.4c-0.5,0-0.8-0.4-0.8-0.8v-45.3c0-0.5,0.4-0.8,0.8-0.8h22.4
	C417.2,485.3,417.5,485.7,417.5,486.2z"/>
<path class="st0" d="M417.5,536.2v45c0,0.5-0.4,0.8-0.8,0.8h-22.4c-0.5,0-0.8-0.4-0.8-0.8v-45c0-0.5,0.4-0.8,0.8-0.8h22.4
	C417.2,535.4,417.5,535.8,417.5,536.2z"/>
<path class="st0" d="M444.7,486.1v45.3c0,0.5-0.4,0.8-0.8,0.8h-22.4c-0.5,0-0.8-0.4-0.8-0.8v-45.3c0-0.5,0.4-0.8,0.8-0.8h22.4
	C444.3,485.3,444.7,485.7,444.7,486.1z"/>
<path class="st0" d="M444.7,536.2v44.9c0,0.5-0.4,0.8-0.8,0.8h-22.4c-0.5,0-0.8-0.4-0.8-0.8v-44.9c0-0.5,0.4-0.8,0.8-0.8h22.4
	C444.3,535.4,444.7,535.8,444.7,536.2z"/>
<path class="st0" d="M471.9,486.2v45.3c0,0.5-0.4,0.8-0.8,0.8h-22.4c-0.5,0-0.8-0.4-0.8-0.8v-45.3c0-0.5,0.4-0.8,0.8-0.8H471
	C471.5,485.3,471.9,485.7,471.9,486.2z"/>
<path class="st0" d="M471.9,536.2v45c0,0.5-0.4,0.8-0.8,0.8h-22.4c-0.5,0-0.8-0.4-0.8-0.8v-45c0-0.5,0.4-0.8,0.8-0.8H471
	C471.5,535.4,471.9,535.8,471.9,536.2z"/>
<path class="st0" d="M499,486.2v45.3c0,0.5-0.4,0.8-0.8,0.8h-22.4c-0.5,0-0.8-0.4-0.8-0.8v-45.3c0-0.5,0.4-0.8,0.8-0.8h22.4
	C498.7,485.3,499,485.7,499,486.2z"/>
<path class="st0" d="M499,536.2v45c0,0.5-0.4,0.8-0.8,0.8h-22.4c-0.5,0-0.8-0.4-0.8-0.8v-45c0-0.5,0.4-0.8,0.8-0.8h22.4
	C498.7,535.4,499,535.8,499,536.2z"/>
<path class="st0" d="M526.5,486.2v45.3c0,0.5-0.4,0.8-0.8,0.8h-22.4c-0.5,0-0.8-0.4-0.8-0.8v-45.3c0-0.5,0.4-0.8,0.8-0.8h22.4
	C526.1,485.3,526.5,485.7,526.5,486.2z"/>
<path class="st0" d="M526.5,536.2v44.9c0,0.5-0.4,0.8-0.8,0.8h-22.4c-0.5,0-0.8-0.4-0.8-0.8v-44.9c0-0.5,0.4-0.8,0.8-0.8h22.4
	C526.1,535.4,526.5,535.8,526.5,536.2z"/>
<path class="st0" d="M553.6,486.2v45.3c0,0.5-0.4,0.8-0.8,0.8h-22.4c-0.5,0-0.8-0.4-0.8-0.8v-45.3c0-0.5,0.4-0.8,0.8-0.8h22.4
	C553.2,485.3,553.6,485.7,553.6,486.2z"/>
<path class="st0" d="M553.6,536.2v44.9c0,0.5-0.4,0.8-0.8,0.8h-22.4c-0.5,0-0.8-0.4-0.8-0.8v-44.9c0-0.5,0.4-0.8,0.8-0.8h22.4
	C553.2,535.4,553.6,535.8,553.6,536.2z"/>
<path class="st0" d="M394.2,410.8v52.2c0,0.6-0.5,1.1-1.1,1.1h-33.9c-0.6,0-1.1-0.5-1.1-1.1v-52.2c0-0.6,0.5-1.1,1.1-1.1h33.9
	C393.7,409.7,394.2,410.2,394.2,410.8z"/>
<path class="st0" d="M434,410.8v52.2c0,0.6-0.5,1.1-1.1,1.1H399c-0.6,0-1.1-0.5-1.1-1.1v-52.2c0-0.6,0.5-1.1,1.1-1.1h33.9
	C433.5,409.6,434,410.1,434,410.8z"/>
<path class="st0" d="M474.4,410.8v52.2c0,0.6-0.5,1.1-1.1,1.1h-33.9c-0.6,0-1.1-0.5-1.1-1.1v-52.2c0-0.6,0.5-1.1,1.1-1.1h33.9
	C473.9,409.7,474.4,410.2,474.4,410.8z"/>
<path class="st0" d="M514.5,411.2v52.2c0,0.6-0.5,1.1-1.1,1.1h-33.9c-0.6,0-1.1-0.5-1.1-1.1v-52.2c0-0.6,0.5-1.1,1.1-1.1h33.9
	C514,410.1,514.5,410.6,514.5,411.2z"/>
<path class="st0" d="M547.6,410.6V463c0,0.5-0.4,1-1,1h-27.3c-0.5,0-1-0.4-1-1v-52.4c0-0.5,0.4-1,1-1h27.3
	C547.1,409.7,547.6,410.1,547.6,410.6z"/>
<path class="st0" d="M391.3,269V330c0,0.6-0.5,1.2-1.2,1.2h-32.2c-0.6,0-1.2-0.5-1.2-1.2V269c0-0.6,0.5-1.2,1.2-1.2h32.2
	C390.8,267.8,391.3,268.3,391.3,269z"/>
<path class="st0" d="M430.2,269V330c0,0.6-0.5,1.2-1.2,1.2h-32.2c-0.6,0-1.2-0.5-1.2-1.2V269c0-0.6,0.5-1.2,1.2-1.2h32.2
	C429.7,267.8,430.2,268.3,430.2,269z"/>
<path class="st0" d="M469,269V330c0,0.6-0.5,1.2-1.2,1.2h-32.2c-0.6,0-1.2-0.5-1.2-1.2V269c0-0.6,0.5-1.2,1.2-1.2h32.2
	C468.4,267.8,469,268.3,469,269z"/>
<path class="st0" d="M507.9,269V330c0,0.6-0.5,1.2-1.2,1.2h-32.2c-0.6,0-1.2-0.5-1.2-1.2V269c0-0.6,0.5-1.2,1.2-1.2h32.2
	C507.3,267.8,507.9,268.3,507.9,269z"/>
<path class="st0" d="M536.9,268.8v61.5c0,0.5-0.4,1-1,1h-22.5c-0.5,0-1-0.4-1-1v-61.5c0-0.5,0.4-1,1-1h22.5
	C536.4,267.8,536.9,268.2,536.9,268.8z"/>
<path class="st0" d="M483.1,1762.3c0,0-1.1,0.3-1.2,0.8s-0.2,0.5-0.7,0.8s-1,1-0.8,1.5s0.7,0.6,0.5,1.2s-0.8,1-0.5,1.8
	s0.6,1.3,1.2,1.5s1.2,0.1,1.2,0.8s0.3,1.2,0.8,1.2s1-0.7,1.7-0.5c1,0.1,1.9-0.3,2.5-1.1c0.4-0.6,0.6-1.3,0.9-2h25.8v-33.6H483
	C483,1734.6,483.2,1762.2,483.1,1762.3z"/>
<rect x="557.8" y="1700.6" class="st0" width="28.7" height="26.7"/>
<rect x="694.3" y="1715.6" class="st0" width="41.5" height="26.4"/>
<polygon class="st0" points="820.4,1720.4 820.4,1732.9 819.3,1732.9 819.3,1744.9 817.7,1744.9 817.7,1755.2 761.8,1755.2 
	761.8,1698.1 817.6,1698.1 817.6,1713.8 819.2,1713.8 819.2,1720.4 "/>
<rect x="822.6" y="1717.5" class="st0" width="60.2" height="31.7"/>
<path class="st0" d="M576,883h-71.5v1.1h-1.1v24.1c0,0-0.8,0.7-0.5,1.2s0.8,0.4,0.7,0.9s-0.2,1-0.5,1s-1.3,0.8-1,1.2
	s1.1,0.9,0.8,1.2c-0.2,0.5-0.2,1,0.1,1.4l0.2,0.1h0.1v54.2h53.6c0.2,0.6,0.7,1,1.3,1c1,0,2.6-0.4,3.1,0.2s1.3,1.5,2.2,1
	c0.6-0.3,1.2-0.8,1.7-1.3c0.5-0.4,1.1-1,1.1-1h19.5v-78c0,0,0.8-0.3,0.6-1s-0.9-1.3-0.2-1.4s1.8,0.1,1.4-0.3s-1.5-0.8-1.1-1.4
	s1.9-0.8,1.7-1.4s-1.2-0.1-1.7-0.6s-0.3-1-0.7-1.5s0.1-0.6-0.7-0.8s-0.8-0.2-1-0.6s-1.3-0.3-2.1,0.1s-0.7,0.6-1.2,0.2
	s-0.8-1.5-1.7-1.1s-1.2,0.9-1.7,0.9s-1.1-0.3-1.3-0.1C576.1,882.5,576,882.7,576,883z"/>
<rect x="627.7" y="823.1" class="st0" width="86.7" height="97.9"/>
<polygon class="st0" points="624.2,774 622.3,790.8 624,805.8 657.5,806.2 658,814.2 682.6,814.1 682.6,789.1 673.5,789.1 
	673.5,763.2 659,761.1 642.5,762.7 642.5,773.7 "/>
<path class="st0" d="M398.4,1831.3l-0.6-27.6c0-0.2,0.2-0.4,0.4-0.4l182.1-6.3c0.2,0,0.4,0.2,0.4,0.4c0,0,0,0,0,0l0.8,27.3
	c0,0.2-0.2,0.4-0.4,0.4c0,0,0,0,0,0l-182.3,6.7C398.6,1831.8,398.4,1831.6,398.4,1831.3C398.4,1831.4,398.4,1831.4,398.4,1831.3z"/>
<path class="st0" d="M618.5,1794.9l0.9,27.3c0,0.2,0.2,0.4,0.4,0.4c0,0,0,0,0,0l264.2-7.1c0.2,0,0.4-0.2,0.4-0.4c0,0,0,0,0,0
	l-0.6-27.5c0-0.2-0.2-0.4-0.4-0.4c0,0,0,0,0,0l-264.5,7.3C618.7,1794.5,618.5,1794.7,618.5,1794.9
	C618.5,1794.9,618.5,1794.9,618.5,1794.9z"/>
</svg>
