<?xml version="1.0" standalone="no"?>
<!DOCTYPE svg PUBLIC "-//W3C//DTD SVG 20010904//EN"
 "http://www.w3.org/TR/2001/REC-SVG-20010904/DTD/svg10.dtd">
<svg version="1.0" xmlns="http://www.w3.org/2000/svg"
 width="1264.000000pt" height="1264.000000pt" viewBox="0 0 1264.000000 1264.000000"
 preserveAspectRatio="xMidYMid meet">
<metadata>
Created by potrace 1.11, written by Peter Selinger 2001-2013
</metadata>
<g transform="translate(0.000000,1264.000000) scale(0.100000,-0.100000)"
fill="#000000" stroke="none">
<path d="M7398 11186 c-20 -6 -40 -14 -44 -18 -4 -5 -16 -8 -26 -8 -10 0 -18
-3 -18 -7 0 -5 -20 -21 -45 -36 -25 -16 -45 -32 -45 -36 0 -4 -12 -14 -27 -23
-16 -9 -39 -27 -53 -40 -14 -13 -46 -39 -70 -58 -68 -52 -80 -62 -119 -95 -20
-17 -81 -67 -136 -110 -55 -44 -102 -82 -105 -85 -3 -3 -25 -21 -50 -40 -25
-19 -51 -40 -58 -48 -8 -7 -30 -25 -50 -40 -20 -15 -46 -35 -57 -44 -11 -9
-87 -71 -170 -138 -82 -66 -157 -126 -165 -133 -8 -7 -71 -57 -140 -112 -68
-55 -134 -107 -145 -117 -11 -9 -40 -33 -65 -52 -25 -20 -58 -48 -75 -61 -16
-14 -64 -52 -105 -86 -41 -33 -85 -69 -98 -80 -12 -10 -24 -19 -27 -19 -3 0
-13 -8 -23 -17 -10 -10 -35 -31 -56 -48 -21 -16 -54 -45 -74 -62 -21 -18 -40
-33 -44 -33 -4 0 -18 -10 -32 -23 -13 -12 -37 -33 -53 -45 -44 -33 -95 -75
-113 -92 -9 -8 -34 -28 -55 -44 -22 -17 -42 -33 -45 -36 -3 -3 -25 -21 -50
-40 -25 -19 -47 -37 -50 -40 -4 -4 -167 -135 -274 -220 -10 -8 -39 -32 -65
-53 -25 -20 -51 -42 -58 -47 -102 -83 -129 -105 -131 -112 -2 -4 -10 -8 -17
-8 -7 0 -15 -3 -17 -7 -1 -5 -28 -28 -58 -53 -30 -25 -56 -48 -58 -52 -2 -5
-8 -8 -13 -8 -5 0 -17 -8 -27 -17 -11 -10 -28 -25 -38 -33 -58 -46 -120 -96
-124 -100 -3 -3 -36 -30 -75 -60 -38 -30 -72 -57 -75 -60 -3 -3 -39 -33 -80
-65 -41 -32 -77 -62 -80 -65 -3 -3 -25 -21 -50 -39 -25 -19 -49 -39 -55 -45
-5 -6 -26 -23 -47 -38 -20 -15 -42 -33 -50 -40 -7 -7 -34 -29 -58 -48 -61 -47
-62 -47 -91 -73 -14 -12 -38 -31 -53 -42 -16 -11 -33 -25 -40 -30 -6 -6 -83
-69 -171 -140 -88 -70 -167 -134 -175 -140 -39 -32 -143 -135 -136 -135 4 0 0
-7 -8 -15 -9 -9 -23 -39 -33 -68 -15 -48 -17 -240 -18 -2797 -2 -1831 1 -2749
8 -2758 5 -7 7 -15 4 -18 -12 -12 52 -120 96 -165 57 -56 142 -99 209 -104 27
-2 52 -6 55 -9 3 -3 14 -1 24 5 11 5 19 6 19 1 0 -10 54 -7 71 3 5 4 9 2 9 -3
0 -10 54 -7 71 3 5 4 9 3 9 -2 0 -9 151 -9 175 0 8 4 17 2 19 -2 6 -10 49 -7
67 5 8 4 9 3 5 -4 -5 -9 -1 -9 17 -3 16 6 28 6 36 -2 8 -8 11 -8 11 1 0 9 5
10 18 3 11 -6 24 -6 35 0 10 6 17 6 17 1 0 -10 54 -7 71 3 5 4 9 3 9 -2 0 -9
151 -9 175 0 8 4 17 2 19 -2 6 -10 49 -7 67 5 8 4 9 3 5 -4 -5 -9 -1 -9 17 -3
16 6 28 6 36 -2 8 -8 11 -8 11 2 0 7 5 9 12 5 14 -9 142 -9 156 0 6 3 13 2 16
-2 6 -10 48 -8 67 4 8 4 9 3 5 -4 -5 -9 -1 -9 17 -3 16 6 28 6 36 -2 8 -8 11
-8 11 2 0 7 5 9 11 5 17 -10 60 -11 87 -2 12 4 22 3 22 -2 0 -5 12 -5 30 0 18
5 32 5 35 -1 4 -5 14 -5 26 1 10 6 19 7 19 3 0 -9 73 -8 96 1 7 3 16 1 19 -4
4 -7 13 -6 26 0 10 6 19 7 19 2 0 -10 30 -9 46 1 6 3 14 4 18 0 9 -9 166 -10
166 0 0 4 -8 8 -17 9 -10 0 -22 2 -28 3 -69 13 -101 20 -160 37 -76 21 -147
46 -210 74 -22 10 -42 18 -45 19 -17 2 -140 71 -140 78 0 4 -4 6 -9 2 -5 -3
-22 6 -37 20 -15 14 -33 25 -40 25 -8 0 -14 5 -14 10 0 6 -5 10 -11 10 -6 0
-16 6 -24 13 -7 6 -28 23 -47 37 -70 53 -198 177 -261 252 -75 91 -252 378
-232 378 2 0 -4 15 -14 34 -19 32 -75 196 -86 250 -3 14 -8 38 -11 54 -24 113
-31 205 -29 362 2 96 5 184 8 195 2 11 8 40 12 65 11 64 13 79 20 103 14 49
56 183 62 197 3 8 7 17 8 20 1 3 9 22 18 44 9 21 17 42 17 47 0 5 5 9 12 9 6
0 9 3 5 6 -3 3 4 22 15 42 129 234 274 409 444 537 32 24 69 54 82 65 12 11
22 18 22 14 0 -3 15 5 33 19 62 47 273 148 361 174 28 8 58 17 66 20 23 9 27
10 110 28 33 7 67 14 110 21 51 10 443 13 455 4 6 -4 17 -8 25 -8 52 -3 167
-28 230 -50 8 -2 22 -6 30 -7 56 -10 314 -128 351 -161 8 -8 20 -14 25 -14 5
0 22 -11 38 -25 16 -14 33 -25 37 -25 4 0 14 -6 21 -13 7 -7 33 -28 58 -47 25
-19 61 -51 81 -70 20 -19 45 -42 55 -51 11 -8 39 -39 64 -69 25 -29 51 -59 58
-66 6 -7 12 -17 12 -23 0 -6 4 -11 9 -11 9 0 124 -174 142 -214 5 -11 13 -28
18 -36 34 -55 128 -300 115 -300 -3 0 0 -8 5 -18 13 -24 18 -49 40 -192 17
-108 22 -377 8 -435 -3 -11 -8 -42 -11 -70 -4 -27 -14 -76 -22 -108 -8 -32
-12 -62 -9 -67 3 -6 2 -10 -2 -10 -9 0 -49 -118 -45 -132 1 -5 -2 -8 -6 -8 -4
0 -14 -17 -21 -37 -18 -51 -74 -167 -83 -171 -5 -2 -8 -9 -8 -15 0 -7 -18 -38
-40 -70 -22 -31 -40 -60 -40 -64 0 -3 -7 -13 -15 -22 -8 -9 -41 -47 -73 -86
-78 -92 -212 -225 -228 -225 -3 0 -15 -10 -27 -21 -34 -33 -173 -121 -262
-166 -71 -36 -254 -110 -295 -118 -8 -2 -46 -11 -85 -21 -38 -9 -82 -17 -97
-17 -16 0 -28 -4 -28 -9 0 -4 -7 -4 -17 -1 -9 4 -14 2 -11 -3 5 -7 123 -11
123 -4 0 6 36 7 40 0 2 -4 17 -5 32 -3 33 5 31 5 114 2 36 -1 71 1 77 5 6 3
13 2 16 -2 6 -10 48 -8 67 4 8 4 9 3 5 -4 -5 -9 -1 -9 17 -3 16 6 28 6 36 -2
8 -8 11 -8 11 1 0 10 5 10 20 2 14 -8 20 -8 20 0 0 6 5 8 12 4 16 -10 50 -10
66 0 6 4 12 3 12 -3 0 -7 8 -7 25 -1 13 5 27 6 29 1 6 -10 49 -7 67 5 8 4 9 3
5 -4 -5 -9 -1 -9 17 -3 16 6 28 6 36 -2 8 -8 11 -8 11 1 0 9 5 10 18 3 11 -6
24 -6 35 0 10 6 17 6 17 1 0 -10 54 -7 71 3 5 4 9 3 9 -2 0 -9 151 -9 175 0 8
4 17 2 19 -2 6 -10 49 -7 67 5 8 4 9 3 5 -4 -5 -9 -1 -9 17 -3 16 6 28 6 36
-2 8 -8 11 -8 11 1 0 9 5 10 18 3 11 -6 24 -6 35 0 10 6 17 6 17 1 0 -10 54
-7 71 3 5 4 9 2 9 -3 0 -10 54 -7 71 3 5 4 9 2 9 -3 0 -10 54 -7 71 3 5 4 9 3
9 -2 0 -9 151 -9 175 0 8 4 17 2 19 -2 6 -10 49 -7 67 5 8 4 9 3 5 -4 -5 -9
-1 -9 17 -3 16 6 28 6 36 -2 8 -8 11 -8 11 1 0 9 5 10 18 3 11 -6 24 -6 35 0
10 6 17 6 17 1 0 -10 54 -7 71 3 5 4 9 3 9 -2 0 -9 151 -9 175 0 8 4 17 2 19
-2 6 -10 49 -7 67 5 8 4 9 3 5 -4 -5 -9 -1 -9 17 -3 16 6 28 6 36 -2 8 -8 11
-8 11 2 0 7 5 9 12 5 14 -9 142 -9 156 0 6 3 13 2 16 -2 6 -10 48 -8 67 4 8 4
9 3 5 -4 -5 -9 -1 -9 17 -3 16 6 28 6 36 -2 8 -8 11 -8 11 2 0 7 5 9 11 5 17
-10 60 -11 87 -2 12 4 22 3 22 -2 0 -5 12 -5 30 0 18 5 32 5 35 -1 4 -5 14 -5
26 1 10 6 19 7 19 3 0 -9 73 -8 96 1 7 3 16 1 19 -4 4 -7 13 -6 26 0 10 6 19
7 19 2 0 -10 54 -7 71 3 5 4 9 2 9 -3 0 -10 30 -9 47 1 6 4 14 4 17 -1 6 -9
47 -8 64 2 7 4 12 3 12 -3 0 -7 8 -7 24 -1 14 5 27 5 33 -1 5 -5 21 -5 41 0
20 6 32 6 32 0 0 -6 7 -6 18 0 13 7 23 6 30 -1 9 -9 12 -9 12 0 0 9 5 10 16 4
9 -5 32 -6 50 -2 19 4 34 4 34 -1 0 -5 11 -4 25 1 14 5 25 6 25 2 0 -8 98 -7
107 1 3 3 -3 6 -13 6 -22 -1 -157 34 -229 58 -27 10 -52 18 -55 18 -3 1 -14 5
-25 9 -334 128 -589 301 -811 551 -32 37 -63 75 -68 84 -5 9 -18 24 -29 33
-11 10 -16 18 -11 18 5 0 1 5 -8 11 -10 5 -18 17 -18 24 0 8 -3 15 -7 15 -5 0
-21 23 -38 50 -16 28 -33 50 -39 50 -5 0 -7 3 -3 6 3 3 -7 27 -22 52 -36 61
-100 194 -116 242 -1 3 -8 19 -15 35 -7 17 -13 33 -12 38 1 4 -2 7 -6 7 -5 0
-9 6 -9 13 0 6 -17 68 -37 137 -57 196 -70 246 -70 278 0 12 -3 22 -6 22 -3 0
-6 8 -7 18 0 9 -6 44 -12 77 -7 33 -14 80 -17 105 -3 25 -7 61 -10 80 -2 19
-6 49 -9 65 -15 114 -28 584 -17 608 2 5 6 39 8 75 2 37 6 90 9 117 4 28 8 66
10 85 1 19 4 36 5 38 1 1 3 10 4 20 2 21 16 107 22 135 8 42 17 92 17 105 0 6
3 12 6 12 3 0 7 13 8 29 2 32 89 347 101 365 7 11 12 32 14 54 1 6 5 12 10 12
4 0 7 3 6 8 -4 15 26 92 35 92 6 0 7 3 4 7 -4 3 -2 12 4 20 6 7 9 13 6 13 -13
0 139 322 188 401 13 20 22 39 19 41 -2 3 2 11 11 18 8 7 15 19 15 26 0 8 5
14 10 14 6 0 10 4 10 9 0 9 59 111 70 121 3 3 19 26 35 52 17 27 33 48 38 48
4 0 7 6 7 13 0 8 9 22 20 32 11 10 20 24 20 31 0 7 3 14 8 16 4 2 32 35 62 74
72 93 143 176 206 241 28 29 50 53 48 53 -8 0 225 220 269 253 15 12 42 35 60
50 57 50 187 147 197 147 6 0 10 3 10 8 0 4 21 20 48 37 26 16 49 32 52 35 11
13 158 100 169 100 6 0 11 5 11 10 0 6 6 10 14 10 8 0 16 3 18 8 2 4 35 23 73
42 39 19 72 37 75 40 3 3 23 14 45 23 l40 18 105 -54 c58 -29 124 -65 147 -80
24 -15 47 -27 52 -27 5 0 14 -7 21 -15 7 -9 15 -13 17 -11 3 3 14 -3 24 -13
11 -10 32 -24 47 -32 15 -8 32 -17 37 -22 6 -4 62 -44 125 -90 63 -45 122 -89
131 -97 9 -8 28 -24 41 -35 14 -11 47 -38 74 -60 64 -52 337 -325 394 -394 25
-30 61 -73 80 -96 19 -23 44 -55 55 -70 23 -32 70 -94 85 -112 5 -7 10 -17 10
-23 0 -5 3 -10 8 -10 4 0 16 -16 26 -35 11 -19 23 -35 28 -35 4 0 8 -4 8 -10
0 -5 22 -44 49 -87 69 -110 91 -150 169 -308 76 -152 183 -412 198 -477 1 -5
3 -10 4 -13 1 -3 4 -9 5 -15 1 -5 3 -11 5 -12 1 -2 3 -10 5 -18 2 -8 11 -40
20 -70 9 -30 17 -62 20 -70 2 -8 7 -26 13 -40 5 -14 7 -31 5 -37 -3 -7 0 -13
6 -13 6 0 8 -7 5 -15 -3 -8 -2 -20 2 -27 5 -7 10 -22 11 -33 2 -11 9 -51 17
-90 8 -38 17 -86 20 -105 2 -19 9 -69 15 -110 10 -73 19 -154 27 -235 6 -67 6
-446 0 -515 -3 -36 -8 -93 -11 -128 -3 -34 -7 -75 -9 -90 -2 -15 -7 -47 -11
-72 -4 -25 -9 -58 -11 -75 -2 -16 -12 -66 -21 -110 -9 -44 -17 -87 -18 -95 -3
-21 -16 -72 -22 -90 -4 -8 -7 -22 -7 -30 -1 -8 -4 -19 -7 -25 -4 -5 -10 -26
-15 -45 -11 -50 -11 -50 -14 -52 -1 -2 -3 -10 -5 -19 -3 -18 -41 -128 -58
-169 -6 -14 -11 -27 -12 -30 -5 -14 -27 -65 -47 -108 -12 -26 -21 -50 -20 -54
1 -5 -2 -8 -7 -8 -5 0 -21 -25 -36 -56 -26 -52 -114 -192 -139 -221 -26 -30
-36 -43 -36 -47 0 -17 -235 -256 -305 -312 -50 -39 -62 -48 -89 -71 -8 -7 -20
-13 -26 -13 -5 0 -10 -4 -10 -10 0 -5 -4 -10 -10 -10 -5 0 -31 -15 -57 -33
-60 -40 -75 -49 -143 -84 -30 -15 -57 -30 -60 -33 -3 -3 -12 -6 -20 -8 -8 -2
-35 -12 -60 -23 -76 -33 -102 -44 -130 -54 -3 -1 -12 -5 -20 -8 -8 -4 -66 -20
-129 -36 -62 -17 -115 -32 -118 -34 -2 -3 5 -7 17 -10 11 -3 20 -1 20 4 0 6 8
5 19 -1 14 -7 22 -7 26 0 5 8 11 7 21 -1 11 -9 14 -9 14 0 0 8 5 9 17 2 10 -5
26 -5 41 0 13 5 21 6 19 1 -6 -8 78 -6 93 3 5 3 10 1 10 -5 0 -7 6 -8 18 -1
13 7 23 6 30 -1 9 -9 12 -9 12 0 0 9 5 10 19 2 14 -7 22 -7 26 0 5 8 11 7 21
-1 11 -9 14 -9 14 0 0 7 5 9 11 5 16 -10 60 -11 85 -3 11 4 27 3 34 -1 8 -5
22 -4 33 2 14 7 17 7 13 -1 -5 -8 0 -8 17 -2 16 6 28 6 36 -2 8 -8 11 -8 11 2
0 7 5 9 11 5 17 -10 60 -11 87 -2 12 4 22 3 22 -2 0 -5 12 -5 30 0 18 5 32 5
35 -1 4 -5 14 -5 26 1 10 6 19 7 19 3 0 -9 73 -8 96 1 7 3 16 1 19 -4 4 -7 13
-6 26 0 10 6 19 7 19 2 0 -10 54 -7 71 3 5 4 9 3 9 -2 0 -9 151 -9 175 0 8 4
17 2 19 -2 6 -10 49 -7 67 5 8 4 9 3 5 -4 -5 -9 -1 -9 17 -3 16 6 28 6 36 -2
8 -8 11 -8 11 1 0 9 5 10 18 3 11 -6 24 -6 35 0 10 6 17 6 17 1 0 -10 54 -7
71 3 5 4 9 2 9 -2 0 -10 104 -8 120 2 5 3 10 2 10 -4 0 -6 11 -6 30 -1 18 5
32 5 35 -1 4 -5 14 -5 26 1 10 6 19 7 19 3 0 -9 73 -8 96 1 7 3 15 2 18 -2 8
-13 124 -1 185 19 57 19 161 92 161 113 0 3 8 14 19 25 10 10 29 45 42 77 l23
59 0 2740 c-1 1507 -3 2752 -5 2768 -2 15 -7 27 -11 27 -4 0 -7 4 -5 8 5 18
-49 105 -91 144 -75 72 -80 77 -86 70 -3 -3 -6 0 -6 6 0 7 -7 12 -15 12 -8 0
-15 4 -15 9 0 4 -28 28 -62 52 -35 23 -65 46 -68 49 -3 4 -50 40 -105 81 -184
137 -550 413 -561 424 -6 5 -21 17 -34 25 -12 8 -65 48 -118 88 -121 91 -118
89 -282 212 -74 56 -150 113 -169 128 -18 15 -41 31 -50 36 -9 5 -18 12 -21
16 -3 3 -43 35 -90 70 -47 35 -88 69 -92 74 -4 6 -8 7 -8 2 0 -5 -8 1 -19 12
-10 12 -21 22 -25 22 -6 0 -127 91 -152 114 -6 6 -22 18 -34 26 -48 32 -115
84 -118 92 -2 4 -10 8 -17 8 -7 0 -15 4 -17 8 -1 5 -48 42 -103 82 -55 41
-102 77 -105 80 -3 3 -21 17 -40 30 -19 13 -37 27 -40 30 -3 3 -21 17 -40 30
-19 13 -40 29 -47 35 -13 12 -39 32 -143 108 -41 31 -79 60 -85 64 -5 4 -93
71 -195 148 -102 76 -186 143 -188 147 -2 4 -10 8 -17 8 -8 0 -18 6 -22 13 -4
6 -16 17 -25 22 -13 8 -225 167 -263 198 -5 4 -46 35 -90 68 -44 33 -87 65
-95 72 -8 7 -78 59 -155 116 -77 58 -142 107 -145 110 -3 3 -21 17 -40 31 -19
13 -39 28 -45 33 -5 4 -55 42 -110 83 -55 41 -107 80 -115 87 -8 7 -31 23 -50
36 -19 13 -39 29 -45 35 -5 6 -28 23 -51 39 -22 15 -50 36 -62 47 -12 11 -26
20 -32 20 -5 0 -10 4 -10 8 0 4 -12 15 -27 24 -16 9 -40 28 -55 42 -15 14 -31
26 -35 26 -5 0 -19 10 -33 23 -47 43 -135 95 -185 109 -59 18 -155 19 -207 4z"/>
<path d="M977 3623 c-2 -1 -27 -5 -57 -8 -64 -7 -66 -7 -145 -25 -73 -17 -62
-13 -110 -35 -22 -10 -46 -18 -52 -16 -7 1 -13 -3 -13 -9 0 -5 -9 -10 -20 -10
-11 0 -20 -4 -20 -10 0 -5 -5 -10 -11 -10 -11 0 -138 -81 -162 -103 -6 -7 -30
-27 -52 -46 -33 -28 -133 -144 -163 -187 -44 -64 -114 -212 -127 -269 -2 -11
-9 -38 -15 -60 -19 -72 -24 -119 -24 -235 0 -131 6 -223 16 -230 3 -3 8 -18
11 -35 3 -16 13 -50 22 -75 9 -25 18 -50 19 -56 1 -7 7 -18 13 -25 6 -8 14
-25 18 -39 8 -24 74 -134 105 -175 18 -23 170 -176 191 -191 8 -6 35 -24 60
-40 24 -16 46 -31 49 -34 3 -3 25 -15 50 -27 146 -70 247 -98 380 -107 30 -3
57 -5 60 -6 3 -1 7 -2 10 -2 3 0 46 3 95 6 50 3 101 8 115 11 14 3 36 8 50 11
13 3 29 9 36 15 6 5 13 6 16 4 10 -11 228 83 228 97 0 5 5 8 12 8 10 0 94 58
138 96 51 43 160 161 160 172 0 3 8 15 19 26 26 29 89 149 118 225 57 152 78
326 59 486 -9 76 -38 199 -55 233 -5 10 -23 49 -41 87 -96 208 -271 383 -487
488 -40 20 -73 33 -73 30 0 -3 -6 0 -13 6 -8 6 -22 12 -33 14 -30 6 -78 18
-94 24 -30 12 -276 34 -283 26z"/>
<path d="M10130 1559 c0 -5 5 -7 10 -4 6 3 10 8 10 11 0 2 -4 4 -10 4 -5 0
-10 -5 -10 -11z"/>
</g>
</svg>
